<?xml version="1.0" encoding="UTF-8"?>
<svg id="Ebene_1" data-name="Ebene 1" xmlns="http://www.w3.org/2000/svg" viewBox="0 0 500 500">
  <defs>
    <style>
      .cls-1 {
        fill: #fff;
      }
    </style>
  </defs>
  <path class="cls-1" d="M285.29,330.19c.15.12,2.91.59,3.72.98,9.48,4.54,15.41,20.74,14.71,30.53-.44,6.11-5.77,18.29-12.03,20.36-3.32,1.1-8.54,1.82-11.57-.18l-4.71,2.05,7.84.46c1.91,1.14,4.09,1.02,6.01,1.6,1.25.38,6.54,3.54,7.04,4.55.45.9.33,5.94.23,7.27-.32,4.27-1.66,7.8-1.8,12.34-.03,1.04-.95,1.84.44,2.64,3.46.18,6.79,1.41,10.15,1.94,10.25,1.62,20.31,1.58,30.49,4.47,2.73.78,7.43,3.14,8.24,6.02.66,2.35-.94,7.13-1.81,9.49-2.43,6.63-10.83,23.48-15.17,28.74-.62.75-5.19,5.28-5.69,5.43-2.09.63-3.95-.74-5.87-1.13-16.32-3.26-32.24-1.52-48.74-4.64-1.24-.23-6.95-1.28-7.44-1.74-.35-.33-1.77-3.67-2.03-4.4-1.29-3.68-1.72-7.63-2.79-11.36-5.23-18.31-10.8-35.18-15.18-53.85-.53-2.27-2.02-5.47-2.11-7.67-.06-1.36.75-1.82,1.99-1.95,4.76-.5,9.67,1.07,14.4,1.35,4.31.26,8.74.23,13.03.44,1.86.09,3.76-.07,5.62,0l-3.45-1.24c-2.98-1.26-5.63-3.2-7.78-5.59-.26-.29-1.33-1.11-.9-1.54.56-.55,3.68,3.03,4.27,3.52,3.72,3.02,10.73,5.77,14.6,1.77-2.63.13-2.92-3.47-4.49-4.19-.95-.43-2.04.05-2.95-.63-1.83-1.37,1.3-4.6,3.56-3.15,1.36.87.03,2.63.5,3.54.09.18,2.52,3,2.69,3.12.4.27,1.33.69,1.59.41.95-1,2.59-9.69,1.39-11.27-2.55-1.51-4.02-3.93-6.63-5.39-4.22-2.36-7.67-2.97-12.45-2.24-1.99.3-8.64,2.29-9.21,4.22-.41,1.4,4.15,6.34,5.14,7.61,1.25,1.61.87,2.65-.78.77-2.02-2.3-3.57-5-5.53-7.35-.2,0-1.54,1.96-1.59,2.44-.13,1.22,2.31,3.71-.3,4.52-1.88.59-2.27-.17-2.4-1.89-.29-4.01,2.91-3.24,3.55-5.83.24-.98-2.5-4.36-3.17-5.55-8-14.25-14.84-33.87-13.4-50.31,1.27-14.55,17.69-27.09,32.08-20.43s19.94,24.85,19.18,38.96c-.04.75-.56,1.89-.48,1.96ZM284.39,330.19c-.2-4.48.24-8.95-.49-13.4-2.55-15.51-15.67-33.71-33.78-26.59-8.64,3.39-14.43,13.22-14.74,22.16-.52,15.06,6.02,35.14,13.87,48.1.3.5,2.14,3.34,2.32,3.46,1.21.85,1.9-.84,2.74-1.32,2.17-1.24,6.69-2.68,9.18-2.89,7.22-.61,13.21,2.98,17.98,7.93.8-4.43-1.31-8.78-1.62-13.17-5.94-1.13-14.65-.31-17.13-7.21-1.35-3.74,0-8.41,1.43-12.02.43-1.08.98-1.89,1.64-2.83l-.02-.46-9.07-7.89c-.51-.1-2.2,1.49-3.19,1.66-3.21.56-3.66-5.48.54-4.78,1.08.18,1.53,1.49,2.25,1.33.43-.1,2.02-3.57,2.69-4.42,3.87-4.86,13.07-6.39,14.09,1.23.4,3.02-4.6,9.54-5.66,12.67,2.6,2.46,4.53,5.44,6.86,8.14.79-4.84,4.8-9.71,10.11-9.69ZM265.39,314.88c-2.02.35-4.25,1.85-5.5,3.41-.51.64-2.46,4.14-2.47,4.64-.03,1.16,3.32,2.94,4.28,3.75.88.74,3.97,4.16,4.93,3.96.56-.12,4.89-8.87,5.09-10.01.73-4.2-2.2-6.45-6.31-5.75ZM255.63,323.58c-1.04-1.16-2.36-2.62-3.25-.76-1.35,2.82,1.55,1.53,3.25.76ZM283.94,331.08c-1.15-1.13-6.16,3.5-6.93,4.87-1.72,3.05-2.34,7.16,2.46,5.49,2.4-.83,5.56-9.29,4.47-10.37ZM298.47,344.16c-1.59-3.13-2.77-6.01-5.31-8.69-1.13-1.19-6.28-4.95-7.83-3.91-.27.18-.83,4.25-1.17,5.24-1.14,3.32-3.76,7.6-7.86,6.18l4.1,10.52c3.32-.39,9.27,2.36,10.18,5.66.28,1,.93,4.58,1.01,5.63.13,1.68-.25,3.12-1.35,4.41-2.57,3.01-6.95.8-7.19,1.09-.28.34-.38,4.13-.55,4.97-.21,1.01-2.01,5.56-1.67,6.01.63.85,4.45,1,5.59.92,7.11-.55,10.17-4.55,13.2-10.41,4.17-8.06,3.52-19.08-.39-27.19-.12-.25-.68-.28-.75-.43ZM279,353.1c.24-.23-1.71-5.42-2.03-6.16-2.32-5.4-6.1-10.25-10.55-14.1-2.55,5.68-6.24,15.64,1.79,18.73,1.28.49,10.34,1.96,10.79,1.54ZM289.19,368.82c1.93-1.89,1-7.63-.12-9.95-1.42-2.93-5.08-4.49-8.27-4.45l2.46,14.55c1.55,1.3,4.47,1.28,5.93-.16ZM249.34,371.61c.31-.68-.22-1.8-.44-1.32-.31.68.22,1.8.44,1.32ZM247.09,383.51c-.13-.12-2.69.06-3.37,0-1.56-.14-5.43-1.39-5.14,1.04,2.54,8.95,3.95,18.2,6.49,27.15,2.72,9.59,6.19,19.05,8.99,28.64,1.54,5.26,2.47,11.51,4.29,16.5.29.79,1.28,3.06,1.77,3.58.73.78,1.08.19,1.89.31,2.72.4,5.12,1.41,7.9,1.96,15.32,2.99,30.42.88,46.05,4.2,2.45.52,3.52,2.11,5.96.33,3.12-2.28,6.29-7.1,8.23-10.44,3.45-5.94,7.32-13.8,10.05-20.1,1.53-3.54,4.34-10.17,1.27-13.3-4.41-4.49-17.92-5-24.04-6.39l-8.05-.48-15.92-3.12c-.15-.46-.29-.98-.29-1.46-.07-5.68,2.24-11.18,2.44-16.79.02-.49-.37-3.39-.5-3.85-.2-.71-4.48-3.57-5.44-3.92-4.57-1.68-10.51-2.38-15.36-2.57-4.41-.17-8.87.16-13.28.02l4.73,1.31,2.93,12.34c.88-.14,2.51-.46,3.31-.4.91.07,6.25,2.14,7.17,2.67,2.08,1.22,3.09,3.53,3.01,5.88-.1,2.67-.26,5.68-.47,8.39-.12,1.55-.23,3.31-2.05,3.27l-6.93.91c1.56.09,3.17-.12,4.72,0,5.9.44,13.34,1.78,19.1,3.3,2.61.69,9.16,3.03,9.79,5.83.4,1.79-1.32,9.37-1.72,11.8-.13.8.1,1.73-.04,2.61-.28,1.77-1.46,7.84-2.66,8.85-2.67,2.25-9.58.2-12.84-.17s-6.38-.31-9.51-.81c-1.58-.74-1.18-3.21-1.56-4.64-1.8-6.72-2.28-14.02-4.51-20.69-.23-.7-.94-1.18-1.14-1.97-.18-.71.15-2.61-.74-2.69-.27-.02-1.44.38-2.26.39-3.27,0-4.25-1.21-4.96-3.99-1.09-4.34-1.24-13.69,1.64-17.37.51-.65,1.4-.55,1.34-1.35l-2.34-11.2c-4.55-.74-8.96-2.41-13.66-2.69-2.74-.16-4.23.21-4.25,3.25,2.34,14.98,4.74,30.03,8.28,44.79.46,1.92,2.23,9.63,2.97,10.75.35.52,3.37,1.77,3.56,1.58l.22-1.76c1.38.73.46,5.14-.29,5.66s-3.23-.23-3.86-.94c-.91-1.02-.42-3.05-.69-4.4-.75-3.84-2.37-7.88-3.27-11.78-1.99-8.64-3.97-18.08-5.48-26.79-.66-3.82-2.85-15.7-2.36-18.8.11-.67,1.16-2.17.88-2.44ZM271.9,416.9c1.73,1.47,2.47.65,4.17.52,1.24-.09,3.41.46,4.06-.87.2-.41.62-3.47.67-4.19.14-1.9.35-8.27-.7-9.46-2.05-2.34-8.31-3.97-11.44-3.54l3.24,17.53ZM267.68,402.37c.21-.29.25-2.16-.14-2.56-.55.48-2.31,3.65-2.02,3.96.09.09,2.09-1.3,2.16-1.4ZM267.23,406.94c-.07-.1-2.08-1.5-2.16-1.4-.07.08-.38,1.69-.41,2.02-.26,2.46.13,10,1.97,11.65.36.32,1,.72,1.46.81.4.07,3.14-.27,3.27-.38.73-.61-2.52-1.82-3.03-2.97-.87-1.97-.81-9.32-1.1-9.72ZM270.91,417.43l-2.02-10.57c-.71.51-.75,1.19-.7,1.97.09,1.6.6,5.48,1.03,6.96.16.55,1.09,2.3,1.69,1.64ZM279.91,449.58c3.93.45,7.92.53,11.86.93,2.67.27,4.98,1.42,8.05.7,2.43-.57,3.02-5.38,3.4-7.61.64-3.74,1.63-9.52,1.85-13.17.17-2.79-.73-3.22-3.01-4.54-3.54-2.05-10.35-3.53-14.5-4.29-1.76-.32-13.87-1.57-14.4-1.08-.1.1.44,2.4.57,2.74,2.37,6.33,2.87,10.34,3.92,16.87.54,3.35,1.66,6.2,2.26,9.46Z"/>
  <path class="cls-1" d="M392.57,119.25c1.53,1.5-.98,5.02-1.57,6.84-1.48,4.59-2.31,12.36-6.18,15.53-3.95,3.24-13.73,5.1-18.88,5.72-3.16.38-6.48.22-9.66.44-.11.76,1.03.43,1.57.44,3.71.07,7.6-.21,11.26-.02,4.18.22,8.48,1.16,12.6,1.74,9.16,1.29,23.41,2.48,30.72,8.21.99.77,1.76,2.08,1.13,3.27-7.98,10.51-15.08,23-25.87,31.05-3.58,2.67-9.76,6.55-14.36,5.34-1.75-.46-4.4-3.41-6.06-4.63-8.35-6.13-18.12-10.23-28.17-12.91-1.89-.5-10.82-2.77-11.96-1.99-.74.51-1.88,3.86-3.44,3.88-1.01.01-4.64-2.06-5.96-2.54-1.07-.39-7.37-2.64-7.76-2.3-.32.28,1.69,2.77,2.01,3.09.56.57,2.84,2.09,2.86,2.4.07,1.29-2.51,3.04-3.92,1.28s-.4-2.21-.49-3.47c-.05-.66-2.46-3.7-3.29-3.67-1.52.71-3.32.58-4.84.99-1.1.3-5.09,1.68-5.83,2.21-.84.59.07,3.33-2.22,4.02-2.79.83-3.53-2.58-1.35-4,4.48-1.11,8.13-3.22,12.79-3.77.81-.1.74.2.68-.87-3.66-.75-7.98-1.73-11.48-3.07-3.31-1.27-3.58-1.93-4.58-5.2-.68-2.22-1.79-7.65-.53-9.53.35-.53,4.29-2.62,5.1-2.93,2.08-.79,5.88-1.41,8.16-1.7,3.15-.39,3.84.95,6.21-1.84,5.62-6.62,11.05-17.09,15.8-24.6.99-1.56,3.27-4.08,3.89-5.43.92-1.98,1.54-8.45,2.58-11.57,2.34-7.04,9.68-26.27,15.06-30.62,2.53-2.04,6.26-4.25,9.07-6.09,4.81-3.15,14.95-10.12,20.25-11.01,2.09-.35,2.22.87,1.71,2.58-.72,2.42-4.25,7.66-5.58,10.39-3.19,6.56-9.63,18.17-11.18,24.72-.28,1.17-1.11,7.32-.92,8.17.79,3.61,3.6,6.75,7.12,8.03,3.1,1.12,8.98,1.8,12.35,1.99,3.17.18,10.93-.75,13.15,1.42ZM376.51,63.2c-.68-.56-6.12,1.92-7.15,2.46-7.75,4.08-15.47,10.3-22.98,14.92-3.52,4.66-5.88,10.03-8.15,15.36-3.08,7.21-6.37,15.04-7.55,22.77l8.54-11.67c2.11-1.9,2.34-3.38,5.28-4.08,4.38-1.05,8.98-1.58,13.34-2.74,1.64,1.04-.33,2.15-.84,3.1-3.29,6.07-7.59,15.86-9.48,22.42-.14.5-.32.98-.24,1.51.11.82,10.54,1.51,11.86,1.67,2.62,1.4.41,4.33-.85,6.05-.99,1.36-4.62,5.88-5.8,6.65-2.7,1.76-8.71,1.33-11.94,1.95l-2.67,5.75c1.98.02,4.13.55,6.06.66,3.3.19,7.56-.35,10.68.98,1.84.79,1.01,2.49.1,3.84-.73,1.08-4.36,4.69-5.48,5.2-4.34,1.99-9.74-1.93-14.02-2.52l-7.22,19.36c6.64,1.07,13.21,2.63,19.56,4.84,8.9,3.09,15.41,6.86,22.9,12.35,2.25,1.65,3.15,3.7,6.53,2.87,12.77-3.15,27.12-23.44,34.06-34.01,1.01-1.53,2.08-2.44.54-3.9-4.47-4.24-12.31-4.95-18.1-6.05-15.05-2.85-30.13-4.39-45.5-4.33-1.06,0-2.07.47-2.73.47-1.22-.01-1.42-1.69-.86-1.75,1.13-.14,2.43.1,3.6,0,10.07-.82,23.3-.47,32.58-4.63,7.76-3.48,7.44-11.16,9.75-18.2.72-2.2,3.22-4.14-.3-5.17-7.42-2.16-18.26.86-25.59-3.55-8.83-5.31-4.85-17.21-1.47-24.72s7.42-14.43,10.81-21.56c.99-2.07,1.56-4.34,2.76-6.32ZM356.74,101.53c-2.39.36-4.71,1.16-7.07,1.65-.96.2-1.96.03-2.93.22-4.26.83-5.18,2.52-7.72,5.65-1.92,2.38-7.08,8.97-8.11,11.44-.88,2.13,1.16,4.28,3.23,4.74.81.18,1.67.02,2.49.2,1.52.34,8.42,2.18,9.26,1.59.66-.46,4.82-12.88,5.68-14.91,1.54-3.59,3.54-7.03,5.16-10.58ZM336.07,150.43h-18.2c-.73,0-2.19-1.69-2.38-2.51-.64-2.8.59-3.72,3.31-4.07,3.66-.47,8.34-.14,12.1-.47,1.71-.15,3.66-.69,5.38-.89.96-.11,2.27.23,3.1-.05.43-.14,1.95-3.54,2.3-4.36,1.34-3.12,2.25-6.63,3.82-9.69-4.72-1.19-10.01-1.27-14.4-3.29l-1.55-2.44-19.55,29.73c.91,1.22,2.33.16,3.82.19,2.22.05,5.8.29,8.04.52,4.31.45,8.64,1.65,12.85,2.6.08-1.87,1.61-3.37,1.35-5.29ZM358.98,130.17c-.09-.08-1.83.03-2.43-.04-3.38-.4-6.81-1.04-10.15-1.72l-5.4,13.66c3.61,0,7.6,0,10.96-1.37,1.08-1.38,8.44-9.24,7.02-10.52ZM339.21,143.38c-.16-.15-1.47.42-2.01.45-3.59.25-7.2.61-10.79.87s-6.06-.51-9.48.85c-.52.2-.73-.31-.63.67.13,1.15.73,2.67,2.02,2.88,2.14.35,5.74-.03,8.11-.02,1.39.01,2.61.02,4,0,1.84-.02,4.62.31,6.25.04.32-.05,2.82-5.47,2.53-5.75ZM338.14,150.51c-.91.16-2.67,5.23-2.34,5.66.48.62,9.23,3.36,10.46,3.36,2.6,0,4.41-1.77,5.98-3.6.74-.87,3.23-3.52,1.5-4.1-3.76-1.25-9.43-.84-13.42-.94-.74-.02-1.75-.46-2.17-.38ZM307.31,153.96c-4.25.4-8.43.55-12.44,2.12-.79.31-3.34,1.5-3.77,2.03-.68.83-.52,4.9-.37,6.16.09.73,1.58,5.49,1.87,5.88,1.22,1.59,10.11,3.31,12.46,4.08-.71-1.45-7.37-6.76-7.17-7.66l9.41-12.6ZM334.27,156.6c-3.55-.54-7.05-1.67-10.61-2.16-1.18-.16-2.87-.42-3.99-.49-1.75-.11-9.58-.3-10.72.07-.76.25-8.18,11.27-9.24,12.88l8.17,8.34c2.37,1.25,3.13.3,5.05.29s4.56.93,6.74.45l6.68.8c.8-.14,1.93-2.99,2.3-3.89,2.17-5.28,3.51-10.98,5.62-16.3ZM326.18,177.75c-4.01-.53-8.09-.92-12.13-.88-.1.63.76.58,1.23.77,2.91,1.13,5.84,2.29,8.82,3.23l2.08-3.12Z"/>
  <path class="cls-1" d="M223.28,131.49c-.11.78,1.03.45,1.52.39,1.44-.18,3.11-.74,4.54-.84,6.77-.47,16.93,1.22,23.68,2.78,6.01,1.38,12.8,3.7,12,11.06-.71,6.53-9.15,14.6-13.43,19.43-1.65,1.86-3.14,4.17-4.72,5.95-.94,1.06-2.07,2.42-3.6,2.23-10.8-1.17-20.64-2.5-30.78-6.43-1.81-.7-8.47-4.2-9.68-4.18-.95.01-2.31,2.03-3.13,2.65l-.68,4.64c5.4.2,9.6,2.13,14.24,4.54,1.32.69,3.9,2.71,5.08,2.98,1.03.23,1.6-.55,3.03.08,3.09,1.35.51,5.21-2.57,3.85-2.35-1.04-.75-3.17-.9-3.29-.08-.06-.81-.11-1.21-.35-9.65-5.71-16.83-8.21-28.56-6.6-3.14.43-3.66,1.97-5.95,3.42-.44.28-.46.72-1.14.23s-2.6-5.18-3.01-6.3c-2.32-6.28-3.8-13.1-6.31-19.37-.51-1.88.07-3.27,1.73-4.28,3.25-1.98,10.31-1.85,14.13-1.58,1.43.1,8.16,1.56,8.78,1.13.29-.2.98-4.39.85-4.82-.36-1.15-2.91-.57-2.68-1.82s2.96-4.79,3.59-6.63c1.31-3.84.68-9.03,2.27-12.98l-13.2,1.3c-2.71-.78-5.96-1.55-8.48-2.74-1.43-.67-4.49-2.5-5.06-3.85-1.34-3.21-1.49-9.52-1.13-13.01.2-1.85,2.66-9.04,3.81-10.36.58-.66,3.27-2.73,4-2.59s1.82,2.8,2.54,3.69c2.33,2.87,7.78,5.18,11.45,5.52,16.21,1.48,30.33-6.42,46.25-4.38,1.17.15,7.33,2.5,7.93,3.24.72.9.45,2.36.3,3.45-.51,3.67-2.79,10.38-4.05,14.09-1.78,5.24-3.89,10.44-7.27,14.9-4.2,2.4-9.48,3.43-14.17,4.83ZM247.48,94.98c-.16-.22-4.44-2.08-5.08-2.28-17.21-5.58-45.75,13.28-60.2-1.78-.63-.65-2.07-3.48-2.28-3.48-1.22,0-3.54,2.74-4.04,3.96-1.83,4.51-2.92,10.76-2.43,15.59.22,2.17.69,4.56,2.44,5.98,1.42,1.16,8.97,4.36,10.76,4.45l13.75-1.1c.89-.6.52-6.01,1.42-7.2,3-.92,6.43-.77,9.56-.98,1.38-.09,6.53-1.12,7.36.05s-.83,5.2-.71,6.36c.05.56,1.74.82,2.04,1.81.16.54.58,5.8.5,6.5-.4,3.5-2.49,3.88-5.41,4.93l-.86,4.57c5.61-.53,10.83-2.44,16.16-4.2,1.56-.52,4.94-.99,6.18-2.09.5-.44,3.16-5.03,3.6-5.94,2.41-4.96,6.36-16.68,7.2-22.02.1-.67.33-2.75.05-3.14ZM216.99,114.3c-.25-1.2,1.4-5.23-.28-5.7-.79-.22-5.37.74-6.68.86-2.45.22-4.96.05-7.42.44l-.9,6.17c5.21.11,9.92-2.52,15.28-1.76ZM199.46,130.61c1.06,1.09,12.27-3.53,14.4-3.73.52-1.38,2.82-10.8,2.48-11.26-.47-.64-1.95-.48-2.72-.43-4.02.26-8.27,2.27-12.34,2.22-.1,1.83-2.51,12.49-1.81,13.21ZM215.64,126.2c.19.2,2.11-.56,2.49-.86.65-.51.88-1.3,1.09-2.05.28-1.03.2-4.62.01-5.68-.08-.48-.82-1.53-1.12-1.54-.61-.01-2.84,9.75-2.47,10.13ZM212.86,132.72l.98-4.76c-4.95,1.52-9.55,3.51-14.79,4l-.48,5.25c4.53-.21,9,.29,13.48.89l.45-3.97c-.24-.24-4.53.58-5.39.67-.45.04-1.82.37-1.79-.45.03-1.3,6.76-.86,7.55-1.63ZM261.78,138.67c-2.91-2.68-10.16-4.16-14.14-4.87-7.44-1.33-15.87-2.27-23.29-.59-1.34-.62-10,.04-10.45.53l-.52,4.34c1.77-.39,3.57.48,5.17.48.97,0,1.8-.44,2.69-.48,2.97-.15,9.93.72,12.83,1.53,6.73,1.88,5.99,4.1,3.06,9.19-1.1,1.91-3.7,6.32-5.09,7.79-3.85,4.08-8.4-1.93-12.05-3.62-1.31-.09-8.48-4.27-8.85-3.88-.21.22-.03,4.33-.95,5.9-.7,1.19-6.69,5.01-6.68,5.78,0,.2.73.62,1.02.76,5.76,2.79,13.39,5.71,19.63,7.19,4,.95,7.43,1.08,11.43,1.57,1.41.17,7.34,1.42,8.04,1.23,1.45-.4,3.36-3.89,4.37-5.01,4.4-4.87,14.83-14.86,15.69-21.18.34-2.52.03-4.87-1.91-6.66ZM197.66,134.13c-.91.32-2.34,2.26-1.12,3.08l1.12-3.08ZM211.6,138.98c-4.49-.43-8.97-.54-13.48-.44.55,1.59-1.44,4.94.31,5.65,3.66,1.47,8.59,1.77,12.27,3.61l.9-8.81ZM211.61,148.21c.57.02,1.13.11,1.65.36,3.97,1.91,8.04,3.72,11.8,6.07,1.62,1.01,3.3,3.51,5.67,1.99.7-.45,5.97-9.25,6.67-10.64,1.21-2.43,1-3.06-1.29-4.38-2.15-1.24-7.28-1.99-9.9-2.19-4.39-.34-8.93.55-13.26-.44l-1.34,9.24ZM186.66,169.38c2.5-.44,6.12.32,8.76,0,.09-1.66-1.56-2.68-.67-4.4,1.24-2.4,2.88-.35,3.37-.64.27-.16,3.13-2.89,3.13-3.11.05-1.42-4.2.06-4.91.47-.91.52-1.39,2.17-2.26.86l2.24-17.85c-2.35.29-4.7-.71-6.96-.89-3.2-.25-8.52-.27-11.71-.02-2.34.18-5.51,1.4-4.71,4.22,2.37,6.73,3.95,13.82,6.53,20.47.25.64,1.42,3.82,1.57,3.97.14.13,1.56-.33,1.71-.55.19-.29-.04-.98.13-1.14.15-.14,3.57-1.36,3.77-1.39ZM210.22,148.7c-.38-.52-12.03-3.73-12.56-3.36-.73.51-1.13,7.53-1.74,8.88.37,1.05-.74,6.5-.49,6.78.13.15,2.37-1.21,2.93-1.31,1.64-.29,2.94.53,4.02.44.95-.08,2.72-2.33,3.61-3.09.78-.67,2.62-1.57,3.12-2.23.45-.6,1.32-5.84,1.12-6.12Z"/>
  <path class="cls-1" d="M438.02,362.41c.86,1.24-3.26,10.04-3.79,12.27-1.25,5.27-1.79,12.85.77,17.79,2.84,5.47,10.08,4.57,15.31,3.71,4.92-.81,12.16-4.38,16.76-2.99,4.62,1.39,6.08,6.72,6.83,10.92.92,5.12.82,9.77.99,14.89.07,2.03,1.25,5.08-.03,6.98-.84,1.25-5.89,2.8-7.61,3.56-.43.19-1.01.08-.88.67,2.29.18,4.68,1.1,6.86,1.87,3.63,1.27,9.48,3.21,12.44,5.43,5.06,3.8.73,9.09-2.23,12.75-4.32,5.35-10.15,10.68-17.06,12.35-5.42,1.32-6.73-.21-11.5-1.09s-11.47-1.23-16.05.51c-2,.76-6.27,3.72-6.59,5.87-.83,5.54,1.02,9.04,5.14,12.55,1.32,1.13,5.17,2.91,4.55,4.85-.71,2.2-7.67,5.45-9.37,7.59-2.46.08-5.92,2.29-8.19,2.11-1.27-.1-5.94-5.98-6.88-7.37-1.91-2.81-5.4-9.94-5.9-13.16-.79-5.09-.11-15.59,2.13-20.32.59-1.25,3.27-4.5,3.14-5.57-3.78-11.01-6.69-22.51-8.4-34.04-1.42-9.57-4.55-32.48-1.87-40.95,1.15-3.63,5.59-9.2,8.99-11.01,6.87-3.66,15.26-1.52,22.44-.15ZM436.69,363.27c-6.63-1.31-12.74-2.76-19.29-.24-4.74,1.82-9,7.68-10.21,12.46-1.76,6.91.31,22.65,1.22,30.28,1.68,14.13,4.77,28.05,9,41.63.67.16.74-.14,1.13-.44,2.45-1.84,3.39-3.23,6.77-3.94,1.92-.4,3.98-.9,5.92-1.24,1-.18,2.96.35,2.81-.77s-.95-2.74-1.22-4.09c-1.11-5.41-2.54-11.71-3.22-17.11-.57-4.49-.59-9.03-1.03-13.53-.34-1.15-1.88-1.15-2.77-1.69-3.45-2.08-8.37-5.58-9.62-9.52s-.58-8.23-.15-12.27c.06-.56-.34-1.15-.27-1.64.17-1.3,1.22-3.45,1.18-4.5-.03-.82-1.11-1.43-1.26-2.27-.49-2.72,4-2.95,4.39-1.62.65,2.18-1.87,2.75-2.14,3.54-.83,2.42-1.6,10.95-1.42,13.59.3,4.57,1.47,7.13,4.94,10.14.81.7,6.55,4.85,7.2,4.18.14-.15.06-3.53-.1-4.09-.22-.8-1.8-2.05-1.66-2.68.06-.26,1.92-2.42,2.34-2.61.8-.37,3.16.03,3.41.84.96,3.13-2.21,3.32-2.58,4.42-.42,1.24.15,3.58-.05,4.99,3.82.24,8.24,2.32,11.89,2.66,5.13.47,11.2-.84,16.08.09,4.34.83,8.52,6.23,5.81,10.36-1.01,1.54-6.39,3.42-8.4,4.1-1.84.62-3.69,1.09-5.62,1.32l4.74,1.73c1.96,1.76,2.43,3.76,1.9,6.32-.62,3.01-3.4,9.04-5.72,11.13-1.68,1.52-4.39,1.7-6.56,1.54-1.43-.11-7.85-2.21-8.29-1.78-.17.17.83,3.87,1.02,4.51.7,2.33,3.37,6.86,2.95,8.83-.11.51-.44,1.06-.84,1.4-2.18,1.86-13.64,5.54-16.38,5.09-1.15-.19-1.72-1.38-2.12-2.34-1.23-2.92-1.76-6.58-3.06-9.56l-2.78,4.1c-4.13,12.06-2.52,23.69,5.02,34.01,1.18.86,3.63,4.95,4.73,5.09.61.07,3.54-.51,4.17-.77s.48-1,.82-1.05c.83-.11,1.72.61,2.41.27,1.09-1.62,8.69-5.85,8.97-7.13.21-.94-4.58-3.98-5.6-5-3.12-3.15-4.96-7.14-4.24-11.66.81-5.1,8.65-8.15,13.28-8.57,10.2-.91,16.56,4.82,26.55.04,3.49-1.67,7.22-5.17,9.81-8.01,2.31-2.52,7.93-8.72,5.64-12.15-.47-.7-3.85-2.77-4.8-3.22-3.02-1.44-9.87-4.01-13.08-4.8-1.86-.45-4.08-.37-5.96-.99.48-1.3,2.11-1.12,3.14-1.54,1.88-.77,6.5-2.36,7.82-3.35,1.18-.89.76-4.31.73-5.9-.07-3.99-.39-8.64-.95-12.73-.45-3.3-1.63-9.44-4.21-11.73-3.58-3.18-10.59.12-14.6,1.12-4.97,1.24-14.46,3-18.44-.89-5.49-5.36-4.04-18.03-1.81-24.69.43-1.29,3.51-6.99,2.68-7.67ZM463.1,416.89c.95-1.74-.66-5.11-2.09-6.31-1.6-1.35-4.88-1.88-6.97-1.97-4.13-.19-8.69.38-13.06.02-3.48-.29-7.61-1.76-11-2.65.07,11.81,2.23,23.82,5.49,35.15,3.75.42,8.46,2.77,12.2,1.86.35-.08.26-.7.36-.78s1.05.41,1.86-.08c.59-.36,2.95-4.34,3.34-5.21,1.79-3.95,3.95-9.85-1.66-11.37-5.22-1.42-10.89.87-15.87,2.55-.48.16-1.37.77-1.45.77-.27,0-.81-.45-.23-1.1s6.26-2.78,7.54-3.18c4.79-1.5,10.15-2.21,14.93-3.86.9-.31,4.66-1.69,5.14-2.01.67-.46.54-1.03.88-1.58.1-.15.54-.14.6-.25ZM430.76,443.1c-1.91.25-6.99,1.35-8.54,2.2s-4.21,3.02-3.85,4.85c1.13,1.59,2.89,10.51,4.26,10.87.19.05,3.33-.36,3.93-.45,2.16-.31,11.32-2.66,11.9-4.66.34-1.19-2.41-7.08-2.97-8.85-1.13-3.63.37-4.62-4.73-3.96Z"/>
  <path class="cls-1" d="M175.65,343.41c3.8-.98,7.32-2.86,11.14-3.84,4.69-1.2,9.88-1.58,14.67-.97,3.95.51,2.98,3.58,2.19,6.48-1.16,4.27-4.13,8.7-7.09,12-8.51,9.49-21.32,9.99-30.12,18.49-1.01.98-3.49,4.33-3.74,5.62s.37,1.47.64,2.32c.78,2.44-3.35,3.46-2.95.25.7-5.59,8.82-12.31,13.62-14.87,4.45-2.37,10.25-3.97,14.56-6.43,5.89-3.38,13.29-12.66,14.41-19.36.7-4.2-.82-2.89-3.72-3.2-9.35-1.01-19.47,2.69-28.07,6.39-1.17.5-4.95,2.26-5.3,3.18-.14.39-.67,3.09-.55,3.2.13.13,2.84-.02,3.71.11,1.4.21,5.01,1.22,6.29,1.76,3.07,1.29.98,3.3-.55,4.97-4.47,4.88-9.53,8.73-13.68,14.34-.3.4-1.87,3.8-2.51,3.05l1.9-10.69,3.49-12.65c-1.55.06-3.13-.12-4.67.04-2.24.24-4.48,1.48-6.34,1.72-.67.08-.8.02-.67-.67.2-1.07,3.58-5.53,4.51-6.6,3.37-3.88,8.01-7.04,10.96-11.28l5.66-21.55c-.4-.4-9.18,4.02-10.34,4.61-3.96,2.01-9.03,4.59-12.71,6.92-2.02,1.28-2.54,1.7-2.89,4.21-.61,4.26.51,7.35,1.19,11.39,1.6,9.52,3.21,19.14,4.95,28.63s3.29,21.57,6.1,30.58c.13.42.61,2.11.68,2.2.79.91.97-1.75,1.79-.88.2.21,0,4.45-.5,4.79-.6.4-2.53.14-3.05-.65-1.23-1.87.12-3.75-.06-5.64-.57-5.97-3.17-13.48-4.35-19.56-1.99-10.3-3.45-20.7-5.19-31.04-.84-4.97-3.59-14.52-2.99-19.03.24-1.8,1.93-3.26-.62-1.93-4.41,2.32-8.74,5.8-12.68,8.72-3.98,2.95-7.61,6.82-8.31-1.09-.33-3.81-.39-10.26-.24-14.11.09-2.21,5.59-7.13,7.42-8.81,9.06-8.32,19-14.97,30.26-20.12,13.16-6.03,35.22-16.11,49.17-17.87,5.25-.66,6.78.28,7.26,5.44.55,5.98-.59,15.01-1.97,20.89-3.88,16.58-18.04,26.72-32,35.16-2.84,1.72-6.28,3.06-8.68,5.37ZM166.66,346.94c.66.67,7.4-4.17,8.39-4.77,13.59-8.23,27.03-15.02,35.84-28.75,4.86-7.57,6.94-23.09,6.1-31.91-.38-3.93-1.42-3.97-5.17-3.75-11.43.69-30.12,9.3-40.97,14.02-10.01,4.36-19.52,8.42-28.22,15.07-4.06,3.1-12.8,9.95-15.7,13.68-2.75,3.54-1.31,5.19-1.14,8.98.12,2.63-.19,4.87-.02,7.5.06.89-.48,3.93,1.05,3.7.42-.07,3.36-1.6,3.87-1.95,2.91-2.03,5.83-4.67,8.69-6.68,2.05-1.44,6.02-2.87,7.98-4.74,1.13-1.08,1.4-2.58,2.31-3.9,4.51-6.55,9.14-9.58,14.54-14.81.91-.88,1.46-2.21,2.47-2.87.4-.26,7.95-3.18,8.4-3.25.37-.05,2.26.32,2.33.4,1,1.11-2.56,9.71-2.2,10.1.18.2,4.16-1.6,5.2-1.73,1.63-.21,8.91-.55,8.67,1.87-.12,1.27-3.44,5.9-4.44,7.12-2.45,2.99-5.67,6.6-8.3,9.49-1.8,1.98-5.7,4.87-6.91,6.88-.52.86-3.13,9.91-2.76,10.29ZM176.55,303.76c-.48-.45-8.26,2.42-9.22,3.07-1.08.73-1.53,2.05-2.44,2.89-1.41,1.31-3.56,2.62-4.97,3.94-3.94,3.68-7.55,7.49-10.33,12.12l16.76-8.89c1.76-.9,6.04-2.19,7.3-3.41.43-.42,3.27-9.37,2.89-9.72ZM187.78,312.57c-.49-.38-5.51-.51-6.48-.4-1.14.13-5.77,1.42-6.32,2.17l-5.18,20.26c5.02-4.95,9.66-10.23,14.08-15.71.21-.26.77-.4,1.12-.86.5-.65,3.23-5.09,2.77-5.45ZM158.91,352.55c.29-.22.56-1.11,1.24-1.65,1.5-1.2,3.34-2.02,4.94-3.09l2.02-8.37-10.12,10.13-2.91,4.2c.95,1.1.81-.47.96-.58.16-.12,2.74.19,3.87-.64ZM164.41,350.02c-.22-.24-3.58,1.78-3.59,1.98-.04.96,2.8.76,3.37-.21.23-.38.35-1.62.21-1.77ZM175.65,355.76c-.65-.59-10.25-2.81-10.77-2.2-.19.23-.89,4.8-1.13,5.72-1.1,4.3-2.66,8.28-2.93,12.77.54-.14.98-.7,1.34-1.11,2.16-2.4,4.28-5.47,6.5-7.72,1.76-1.78,5.13-3.82,6.56-5.91.27-.39.72-1.29.43-1.56Z"/>
  <path class="cls-1" d="M54.77,72.23c.39-2.79,3.83-10.31,5.87-12.31,1.46-1.44,3.92-1.47,4.8-2.12.43-.32,1.72-2.2,2.59-2.96,9.57-8.36,17.03-13.84,28.94-5.04,10.23,7.56,13.3,27.03,8.59,38.31-.68,1.62-4.94,7.42-4.95,7.91-.02.69,1.07,2.15,1.36,3.07,2.82,8.83,1.46,16.64-4.31,24.01-2.77,3.55-11.2,8.18-15.72,8.42-.75.04-3.29.05-4.01,0-1.35-.08-6.73-2.04-6.98-1.79-.09.1.07,1.8-.03,2.39-1.17,7.04-7.8,2.47-10.03-1.56-2.38-4.3-1.16-13.29-.06-18.03.23-.98.87-2,1.03-2.95.45-2.67-2-8.96-3.03-11.81-1.45-4.01-3.56-8.01-4.73-12.1-2.36-8.28-3.38-19.15-.45-27.33.31-.87,1.92-3.24,1.89-3.74-.05-.76-2.97-2.94-.45-3.66,2.27-.65,5.25.45,4.45,3.01-.74,2.38-3.06,1.38-3.65,2.18-.7.95-2.71,7.71-2.87,9.08-.24,2.11.09,4.43-.04,6.57.69,3.44.72,7.01,1.49,10.44.11.5.09,1.75.76,1.67.43-.83-.45-2.07-.45-2.42,0-2.75-.36-6.7,0-9.25ZM91.04,47.48c-5.59-3.37-12.86.74-17.35,4.08-1.25.93-6.51,5.1-6.78,6.13-.05.19,1.84,1.11,2.39,2.94,1.38,4.57.36,12.46-.14,17.33-.17,1.69-1.21,4.61-.93,6.1.06.32,1.02.5,1.37.72-1.43-4.53.54-10.47,5.72-11.35,7.49-1.28,7.23,8.09,3.58,12.1l-4.35,1.9c2.93.96,5.67-.16,8.78-.02,3.51.16,6.79.51,9.88,2.21,2.57,1.41,4.71,3.48,6.95,5.3.84-2.71,3.58-5.13,4.59-7.62,3.9-9.57,1.61-23.12-3.85-31.43-.38-.58-1.26-2.22-1.41-2.37-.44-.45-1.29-.46-1.81-.87-2.24-1.75-4.23-3.7-6.64-5.15ZM57.02,54.38c.66.14.93-.19,1.34-.66l-.67-.66-.67,1.32ZM66.24,58.79c-.58.12-3.5,4.63-3.85,5.48-2.33,5.84-1.48,12.11,2.53,16.95,1.21,1.46,2.03,2.69,2.44.26.75-4.44,1.82-12.93,1.36-17.2-.09-.79-1.11-3.9-1.45-4.74-.18-.44-.48-.86-1.03-.75ZM64.21,59.23c-.61-.52-2.96,1.69-3.38,2.19-7.91,9.33-5.27,28.11,1.21,37.61.52.77,1.34,1.61,2.17,2.05,1.5-4.66,1.9-9.04,2.24-13.88.05-.75.52-1.52.47-2.19-.09-1.17-1.35-1.3-2-2.03-4.75-5.3-6.33-12.16-3.62-18.91.35-.87,3.13-4.66,2.92-4.85ZM78.49,74.75c-1.61-1.62-5.73.41-6.83,2.14-.61.95-1.56,3.97-1.55,5.05,0,.51.95,3.32,1.27,3.54.57.39,3.79.28,4.65.1,2.31-.47,3.97-3.27,3.87-5.43-.04-.99-.83-4.82-1.4-5.39ZM65.13,102.37c.22.3,6.2,2.44,7.05,2.56,8.06,1.13,18.25-3.54,24.98-7.89.35-.23,1.63-1.29,1.63-1.47,0-.52-5.82-4.76-6.78-5.24-2.58-1.3-3.42-.86-5.98-1.19-1.04-.13-2.28-.66-3.27-.69-5.27-.15-5.37,1.57-11.1-1.08-.5-.23-3.73-2.32-3.87-2.15-.11.13-.42,2.79-.46,3.3-.11,1.45.11,2.91-.04,4.36-.16,1.55-2.47,9.1-2.18,9.49ZM89.46,127.19c.46-.29,1.41.02,2.16-.33s5.08-4.31,5.6-5.08c.57-.86,1.79-2.73,2.24-3.53,3.36-6.02,3.66-12.11,1.48-18.59-.15-.43-1.13-2.85-1.23-2.98-.13-.15-1.27,1.03-1.64,1.25-3.05,1.83-7.94,4.25-11.22,5.74-1.28.58-8.06,2.48-8.26,2.92-.08.19,1.36.58,1.78.9,1.85,1.37,4.34,4.35,4.49,6.65.17,2.58-2.62,7.86-4.7,9.42-3.01,2.26-4.97,2.05-8.32.66-.53-.22-1.91-1.45-2.24-1.11s.8,4.51,1.35,5.06c.49.49,4.89,2,5.83,2.22.85.2,6.88-.09,7.75-.35.51-.15,4.1-1.8,4.54-2.08.29-.18.26-.7.39-.78ZM63.31,105.49c.09-.11.39-2.67.36-2.81-.1-.53-1.99-2.09-2.61-2.47.42,1.56.9,3.1,1.31,4.67.14.54.37,1.33.94.62ZM74.99,106.37c-3.6-.31-7.14-1.44-10.33-3.09-.11,1.66-1.04,2.86-.92,4.62.05.78,1.73,6.12,2.26,5.51.07-.08.38-1.31.9-1.99,1.12-1.46,2.94-2.5,4.34-3.68l3.75-1.38ZM67.8,118.71c.3-.93.38-2.1.8-2.96s1.71-1.62,1.84-2.19c.15-.63-.5-1.25-.2-1.9.81-1.72,4.5-.99,3.79,1.46-.48,1.66-2.98.55-4.18,2.54-3.45,5.71,4.61,11.06,9.85,7.02,2.23-1.72,4.4-7.01,3.61-9.71-.24-.83-2.09-3.33-2.74-3.92-1.96-1.78-5.13-1.7-7.51-.81s-6.88,4.46-6.61,7.13l1.34,3.35ZM69.05,134.03c.7-.68.76-4.37.47-5.32-.31-1.02-1.91-1.55-2.62-2.28-2.87-2.96-2.5-7.29-1.79-10.99l-2.25-5.54c-2.17,6.44-4.79,18.6,1.57,23.35,1.17.88,3.36,2,4.62.78ZM66.45,118.71c-.95-.04-.85-.19-.9.66-.11,2.02.43,4.24,1.71,5.82.25.32.95,1.57,1.44,1.01.76-.87-2.3-6.1-2.25-7.49Z"/>
  <path class="cls-1" d="M179.55,206.09c8.11,7.97,12.92,18.76,6.51,29.24-.42.69-2.96,3.52-2.78,3.66.22.17,4.57-.1,5.59.03,6.75.87,17.15,7.01,20.76,12.69,4.06,6.39.24,16.82-5.98,20.7-5.92,3.69-7.63,1.29-13.52.18-2.35-.44-12.67-2.19-14.06-1.21-.46.32-.35,1.36-1.65,1.47-1.74.15-1.28-1.1-4.03,0-6.56,2.59-9.4,8.75-16.73,2.91-5.05-4.02-6.25-10.02-9.54-14.88-1.63-2.41-4.32-4.69-6.14-7.2-4.17-5.75-5.72-11.61-4.79-18.69.71-2.46,4.3-2.35,4.3.26s-2.88,1.72-3.19,1.98c-.21.17.01,4.59.11,5.4.62,4.92,3.79,10.29,7.52,13.55-.49-2.69-1.94-5.18-2.58-7.82-1.86-7.75-2.07-17.51.77-25.02-.04-1.19,4.11-6.35,3.61-6.81-.65-.59-4.47,2.58-5.81,2.89-4.32,1.03-6.15-3.57-6.34-7.09-.2-3.78,3.52-7.12,6.33-9.22,7.06-5.26,12.34-6.67,21.33-5.97,6.36.49,15.78,4.51,20.3,8.95ZM160.82,246.92c.53.55,11-5.33,12.58-5.94,4.22-1.63,8.07-1.3,10.98-5.09,11.62-15.12-7.39-35.59-23.38-37.39-9.3-1.05-14.83.11-22.17,5.5-3.73,2.74-7.31,5.83-5.75,10.87.45,1.44,1.52,3.12,3,3.67,1.74.65,1.14-.34,1.68-.69,2.87-1.85,5.17-2.01,7.9-3.19,1.16-.5,2.42-1.95,3.91-2.33,4.78-1.24,8.82.93,12.91,3.24,2.6,1.47,4.96,2.97,6.21,5.8,3.33,7.52,1.68,12.62-4.26,17.86-.69.61-3.13,1.99-3.39,2.41-.3.47-.4,5.1-.22,5.29ZM160.81,252.22c-.72-.88-4.17,1.49-4.8,1.67-2.16.6-4.4-2.03-4.17-4.07.11-.99,1.35-2.54,2.02-3.34,1.1-1.33,5.03-4.04,5.4-4.84.88-1.92.98-5.62,2.14-8.04.78-1.63,4.07-4.73,4.29-5.48,1.5-4.93-4.34-12.37-9.03-13.89-2.02-.66-6.37-.37-8.44.29-1.87.6-5.1,5.49-6.05,7.29-4.55,8.57-3.2,21.78-.35,30.76.47,1.47,2.01,5.78,2.81,6.83.42.55,3.15,2.44,3.91,2.88,4.84,2.8,13.22,5.54,18.82,4.94.45-.05,1.56-.2,1.55-.68,0-.25-2.82-3.09-3.33-3.78-1.46-1.98-3.03-4.48-3.87-6.78-.28-.76-.77-3.6-.89-3.75ZM168.29,232.69c1.75-2.56.29-9.88-1.63-12.43-.33-.44-2.66-2.86-3.15-2.42-.13.11,1.64,2.3,1.88,2.78.34.68.8,1.8,1.03,2.52,2.32,7.4-1.95,6.14-4.14,11.33-.28.66-1.65,5.19-1.46,5.4.3.32,2.75-1.63,3.15-1.97.58-.49,3.67-3.41,3.83-3.77.25-.53-.26-1.09-.16-1.24.06-.09.54-.05.64-.2ZM201.39,271.74c.59-.36,1.55-.19,2.55-.82,4.52-2.86,7.37-11.57,5.63-16.5-3.15-8.88-20.26-16.58-29.56-14.01-3.83,2.46-9.9,3.19-13.51,5.7-1.29.9-2.24,2.84-3.88,3.68,2.03.17,3.98-.41,6.07-.22,1.73.16,5.64,1.4,7.13,2.26,5.76,3.37,2.02,14.29-4.21,15.36.47,1.09,1.9,1.17,2.93,1.75.95.53.71,1.48,2.67,1.36,2.22-.14,3.41-.28,5.81.02,4.87.6,9.71,1.93,14.48,3.03.37.02,2.97-.71,3.44-.89.38-.15.32-.63.46-.71ZM153.71,252.12c.56.39,4.29-.25,4.67-.77.19-.25-.26-.95-.17-1.46.14-.87,1.08-1.67,1.24-2.77.2-1.31-.09-2.82.02-4.17-1.56,1.42-6.52,5.42-6.67,7.35-.02.25.8,1.74.91,1.82ZM163.96,246.92c-.87-.07-1.63.59-2.29,1.07-.24.18-1.62.44-.85,1.13.49.43,3-1.44,3.14-2.2ZM175.99,253.2c-.71-.68-5.25-2.2-6.4-2.32-1.23-.13-7.71-.19-7.82,1.1-.02.23,1.17,3.73,1.4,4.32.98,2.51,3.66,6.58,5.42,8.57.09.11,1.86,1.37,1.98,1.4.62.18,3.79-1.59,4.41-2.16,1.68-1.55,2.65-4.58,2.48-6.83-.06-.81-.97-3.59-1.47-4.08ZM145.99,262.35c-.17.15,1.63,3.65,1.87,4.11,1.88,3.55,6.05,9.76,10.25,10.7.92.21,3.11-.8,4.16-1.27,2.49-1.11,4.85-2.6,7.22-3.93,1.27-.71,2.76-.29,2.03-2.7-.67-2.23-5.37-.63-7.36-.72-3.11-.14-6.4-1.54-9.44-2.2-1.23-.15-8.39-4.3-8.74-3.98Z"/>
  <path class="cls-1" d="M429.53,56.58c.22.17,4.55-.07,5.58.04,12.6,1.41,20.28,18.38,21.34,29.3.29,2.97-.83,5.9-1.25,8.82-.07.51.02,1.86-.05,1.93-.95,1.01-8.18-1.79-9.69-2.18-4.17-1.09-8.46-2.16-12.69-2.98-1.75-.34-12.01-2.11-12.68-1.45-.09.09-.05,2.47.06,2.6.43.47,2.8.09,2.67,2.01-.23,3.46-4.32,3.78-4.55,1.77-.11-.98,1.1-6.31.46-6.81-.5-.39-8.88-.74-10.5-.94-2.54-.32-6.41-1.56-8.68-1.6-.95-.02-1.65.96-3.03.78-2.5-.33-1.74-3.73.87-4s1.1,1.52,2.32,2.26c.59.36,3.53.64,3.75.41.15-.14-.02-3.17.11-4.08.4-2.69,2.55-6.73,2.61-8.93.1-3.13-3.49-14.58-5.06-17.52-.54-1.01-1.95-1.56-2.84-2.5-7.86-8.39-9.98-26.73,2.49-31.95,1.01-.42,2.29-.48,3.12-.91,1.68-.86,4.17-4.54,6.16-5.86,6.16-4.1,16.26-4.92,21.92.4,13.15,12.36,12.7,26.42.26,38.97-.28.28-3.11,2.1-2.7,2.41ZM427.64,56.93c.19-.12.26-.7.57-.96,12.91-10.58,17.66-24.04,5.36-37.49-1.87-2.05-5.62-5.39-8.41-5.85-6.85-1.13-14.81,1.75-19,7.16-.21.27-.75.84-.44,1.1.16.14,3.44.57,4.29.86,3.05,1.04,8.81,4.71,10.46,7.37,2.73,4.41,2.02,6.65,2.32,11.39.18,2.95.73,5.63.41,8.76-.15,1.51-2.55,9.17-2.2,9.52.28.28,2.39-1,3.04-1.2.86-.26,3.36-.5,3.6-.66ZM400.77,53.94c-1.07-3.32-1.07-6.55-1.34-9.92-.49-6.11-.59-10.05,1.11-16.09.31-1.09,2.7-5.91,2.48-6.16-.15-.17-3.75,1.54-4.19,1.83-5.96,3.9-6.92,14.19-4.69,20.32,1.31,3.61,3.44,7.73,6.64,10.01ZM421.89,50.64c.3-2.54-.22-5.55,0-8.15l-2.01,2.65c-2.35,1.66-7.31,1.04-8.98-1.35-3.44-4.92,3.62-10.77,8.72-8.11.46.24,1.79,2.06,2.27,1.52.51-.58-1.62-6.57-2.32-7.64-1.4-2.15-6.6-5.57-9.06-6.54-1.07-.42-5.32-1.67-6.07-1.17-.26.18-2.29,4.52-2.53,5.22-2.36,6.78-2.1,14.74-1.09,21.75.19,1.35,1.03,5.87,1.77,6.64.53.54,3.75,2.5,4.62,2.96,1.52.81,4.38,2.07,6.04,2.45,2.52.57,5.23.95,6.43-1.84.6-1.4,2.04-6.9,2.22-8.4ZM415.44,35.99c-1,.09-3.08,1.69-3.63,2.55-3.47,5.44,5.04,8.86,8.3,4.61,1.63-2.14,1.86-5.31-.9-6.61-.33-.16-3.36-.59-3.76-.55ZM415.6,62.32c-1.75.19-3.32-.59-4.94-1.11l-7.64-3.74,4.27,14.1c.75-1.81,1.91-3.32,3.13-4.85l5.18-4.39ZM453.74,95.31c.67-.45,1.49-8.91,1.35-10.26-1.13-10.97-8.99-26.18-21.34-27.54-1-.11-2.07-.11-3.07,0-4.05.44-6.22,4.36-10.56,4.41-.2,2.54-2.22,18.34-1.39,19.34.08.09,1.83-1.11,2-1.34.5-.67.81-2.48,1.35-3.52.39-.75,2.26-3.57,2.81-3.97.4-.28,4.05-2,4.49-2.1.84-.17,4.07-.59,4.85-.56,4.52.15,9.2,8.02,9.23,12.14,0,.67.09.79-.69.68-1.13-.16-2.48-1.26-3.71-1.66-4.67-1.49-12.23-2.07-16.86-.55-.97.32-1.26,7.1-2.12,8.37,5.31.57,10.61,1.22,15.83,2.33,4.89,1.04,10.86,3.47,15.51,4.17.58.09,1.92.32,2.31.06ZM425.04,58.79c-1.24,0-2.95.65-3.59,1.76l3.59-1.76ZM418.74,62.31c-.28-.28-1.52.26-1.96.5-.59.33-4.24,3.14-4.8,3.67-1.31,1.23-3.77,4.74-4.28,6.4-.37,1.2.45,6.09.26,8.16-.09.96-.4,2.37-.67,3.31-.22.78-1.75,2.28-.69,2.87l12.59,1.53,1.35-7.05c-.87-.37-2.12,1.92-2.69,1.32-.16-.17-.02-3.8-.47-4.6-.37-2.06,1.94-15.52,1.37-16.1ZM442.11,81.26c1.16-1.36-3.34-7.74-4.71-8.81-5.06-3.93-13.81.46-15.06,6.39-.16.74-.25.63.45.45,4.91-1.25,12.24-.66,17.08.87.48.15,2.16,1.2,2.24,1.11ZM404.82,85.66c2.72-2.01,2.15-6.64,2.24-9.69-.65-.1-.59.74-.78,1.21-1.11,2.74-1.73,5.5-1.46,8.48Z"/>
  <path class="cls-1" d="M80.32,197.19c1.06,1.45-3.1,12.12-4.05,14.2-.09,1.02-4.3,7.05-3.98,7.33.74.64,6.35.73,7.76.98,2.5.45,7.97,2.41,10.23,3.63,3.31,1.79,3.44,4.35,1.79,7.52-3.64,6.99-11.24,13.32-17.1,18.48-3.35,2.95-6.33,7.65-11.45,7.29l-22.25-4.41c.45,1.13-.1,3.94.9,4.63.84.58,1.86-.06,1.83,1.75-.05,2.8-4.22,5.48-4.13.87.02-.92.93-.35.99-1.28.08-1.13-.4-2.06-.5-3.1-.06-.67.13-3.19,0-3.3-.07-.06-1.29-.08-1.8-.21-1.75-.45-4.44-1.96-6.06-1.95-1.79.01-7.62,3.1-8.04,3-1.21-.26-1.05-3.49-1.9-3.97-.51-.29-3.28-.82-3.99-.86-2.62-.13-5.76,2.93-6.33-1.73-.13-1.07,3.34-1.07,4.03-.84.73.24.71,1.39,1.48,1.64.44.14,4.49.68,4.65.51.45-.47-.8-5.27-1.02-6.27-.62-2.87-1.19-5.86-1.81-8.8-2.31-10.87-5.73-21.5-6.15-32.7.38-1.58,1.28-2.71,2.47-3.77,2.9-2.56,8.34-3.27,12.16-3.94,11.46-1.99,23.52-1.91,34.97,0,4.08.68,9.87,1.82,13.62,3.39.47.2,3.54,1.75,3.66,1.91ZM70.89,218.67c1.19-2.61,3.29-5.14,4.44-7.76.94-2.15,2.29-5.87,2.95-8.13,1.29-4.44,1.3-5.19-3.16-6.86-7.81-2.93-21.74-4.41-30-4.51-6.88-.08-16.56,1.09-23.26,2.75-2.3.57-6.07,2.32-6.87,4.72s.33,8.74.82,11.58c1.85,10.7,4.74,22.76,7.27,33.41.72,3.04.13,4.09,3.62,3.95,2.58-.11,4.12.08,6.75.46.88-.57,6.03-1.29,6.08-1.59.19-1.13.11-4.47-.05-5.67-.56-4.04-1.63-8.03-2.55-12.04-.28-1.21-.71-6.02-1.43-6.53-1.02-.72-3.59.67-4.97.25-.38-2.09,4.96-1.08,4.95-2,0-.65-.64-1.9-.8-2.74-.73-4.03-1.26-8.07-2.05-12.09-.26-1.36-2.02-6.57-1.21-7.41.74-.77,14.37,2.51,16.51,2.98,1.7.37,14.05,2.57,14.04,3.85,0,.16-1.52,1.96-1.87,2.56-1.12,1.93-2.19,3.94-3.12,5.97l-10.5.06c-2.36.43-4.88.63-7.27.74-.47.02-1.38-.41-1.49-.29-.22.23,1.13,5.94,1.4,6.12.99.67,5.12-.64,6.51-.79,1.94-.21,3.87.19,5.79-.49l19.49-.49ZM60.16,205.51c-1.63-.21-3.09-.97-4.65-1.39-5.82-1.56-13.55-3.27-19.49-4.25-1.09-.18-2.18-.1-3.27-.1l3.59,21.15c.77-.07,1.41.44,1.36-.67-.06-1.34-2.14-6.51-1.36-7.27.33-.32,7.9.02,9.22,0,1.54,0,2.94-.02,4.49,0,1.92.02,3.85-.03,5.77,0l4.34-7.5ZM41.29,251.33c3.04.29,6.1.86,9.09,1.44,3.53.68,7.96,2.04,11.39,2.49,1.85.24,4.25.1,5.91-.76,7.2-6.85,18.23-14.58,22.84-23.42,1.4-2.68,2.5-4.6-.54-6.56-10.54-6.78-27.99-3.91-39.92-4.04l-10.55,1.33c.08,1.45,1.02,9.43,1.76,9.94,1.66,1.14,17.04-1.11,18.01-.25.12.11-.03,1.46-.1,1.88-.25,1.4-3.59,8.64-4.51,9.45-.51.45-4.69,2.34-5.59,2.67-2.5.9-5.29,1.14-7.78,2.08l-.32.42.34,3.33ZM38.14,222.25c-.04-.06-1.36-.17-1.34.22,1.56,7.94,4.08,15.88,4.05,24.01,3.68-1.04,9.56-1.85,12.57-4.2.92-.71,4.16-7.16,4.41-8.46.47-2.48-.62-1.11-2.36-.99-3.26.22-9.1.68-12.14.44-4.65-.37-3.22-.6-3.85-3.72-.19-.95-.69-1.77-.84-2.7-.17-1.04.05-3.79-.49-4.6ZM40.39,250.89l-.45-3.08-4.94.88c.28.96,5.18,2.4,5.39,2.2ZM30.06,248.69h-5.84c-.2,1.51.22,2.61,1.93,2.12l3.91-2.12Z"/>
  <path class="cls-1" d="M76.57,369.41c2.22.3,9.9,2.41,11.78,3.43,2.11,1.16,4.94,3.28,5.49,5.63,2.22,9.36-4.7,17.44-12.69,21.42s-18.18,6.72-27.04,6.52c-5.22-.12-12.37-.2-17.43.54-1.48.22-2.14.92-4.14.79-6.41-.4-9.4-6.41-8.77-12.13.72-6.64,7.89-16.46,13.03-20.71,4.21-3.48,9.91-5.78,14.63-8.57.52-2.9-.4-5.59-.26-8.62.49-10.47,5.82-22.92,16.32-27.18,3.67-1.49,9.29,1.05,10.76,4.63,3.5,8.49-2.26,16.58-8.42,21.9-4.9,4.23-10.86,7.11-16.78,9.76.13,2.83.22,5.7.38,8.54.04.75.43,1.45.46,2.19.25,6.79-.8,22.39-9.7,23.54-7.97,1.04-11.53-6.65-10.51-13.39.38-2.47,5.63-8.7,7.6-10.61,2.22-2.14,5.71-2.88,4.74-6.81-4.74,2.7-8.97,5.13-12.59,9.24-3.8,4.31-8.03,10.84-8.71,16.57-.46,3.86,1.43,8.16,5.03,9.97,3.33,1.67,5.09.08,8.27-.36,5.99-.83,12.68.23,18.79-.17,10.18-.67,29.5-6.05,34.15-15.86,1.53-3.22,3.05-9.33,1.03-12.47-.49-.76-3.82-3.3-4.74-3.72-6.43-2.96-21.39-3.98-28.32-2.88-.64.1-1.63.57-1.45-.54.55-.84,1.22-.59,2.01-.68,9.1-.95,18.34-2.02,26.98-5.27,7.42-2.79,12.5-5.9,15.58-13.37,4.29-10.42,1.14-24.59-12.44-24.57-1.3,0-2.35.45-3.57.5-3.35.12-6.82-.75-9.91-.46-8.72.81-18.56,4.06-26.3,8.13-8.69,4.57-12.08,10.41-14.94,19.28-1.57,4.86-3.87,12.7-3.03,17.69.08.45,3.22.91,2.69,2.66-.27.9-2.21,1.38-3.12.94-1.22-.59-.42-1.6-.43-2.63-.04-9.51,1.73-19.5,6.64-27.86,3-5.11,5.71-7.94,11.01-10.79,10.71-5.76,20.29-8.1,32.41-8.27,8.73-.12,17.35-1.63,21.9,7.17,5.15,9.96.85,23.36-8.66,29.13-7.3,4.42-14.35,5.55-22.53,6.99-.55.1-2.18.13-2.15.76,2.19.21,4.84-.29,6.96,0ZM52.53,354.65c-.36,3.56.27,7.62,0,11.24,1.8-.81,3.63-1.53,5.4-2.41,8.15-4.08,18-11.02,19.92-20.17,1.1-5.27-1.06-11.57-7.17-12.19-2.52-.25-5.46,1.72-7.38,3.26-6.37,5.11-9.96,12.24-10.78,20.28ZM52.08,367.65c-.16-.16-1.01.09-1.37.2-.28.09-2.99,1.46-3.12,1.57-.97.8,1.48,1.08,1.83,1.61,1.63,2.51-1.93,2.88-3.15,3.48-1.67.83-6.78,5.86-8.11,7.47-2.49,3-4.39,6.93-3.51,10.92.45,2.02,2.89,5.75,4.84,6.71,4.03,1.98,9.01-.73,10.58-4.62,3.07-7.57,2.43-13.48,2-21.38-.05-1,.22-5.74,0-5.95Z"/>
  <path class="cls-1" d="M324.29,224.54c.21.2,1.79,4.88,1.86,5.45.14,1.02-.1,2.08.03,3.06.78,6.16,1.61,12.32,2.27,18.5-.04.82-.31,1.62-.93,2.19l-4.93,1.99c4.4.19,8.88-.23,13.28-.02.97.05,1.77.39,2.67.47,2.17.19,8.11.27,9.54,1.88.51.57.93,4.65,1.03,5.82.79,8.94.26,16.68-.46,25.55-.12,1.43.64,6.34-1.54,6.39-.83.02-2.65-.99-3.73-1.21-5.9-1.21-14.27-.44-20.56-.54-10.14-.17-19.82.38-30.11,1.31-1.83.17-7.22,1.67-8.46.92-1.3-.79-.61-6.49-.75-8.19-.12-1.54-.75-3.29-.9-4.84-.16-1.66.28-3.74,0-5.29-.24-1.32-2.46-1.76-.43-3.51,1.38-1.2,2.36-.63,3.35.64.35.06.26-.39.23-.67-.43-5.19-2.22-11.46-3.11-16.78-.5-3-.49-6.53-1.05-9.54-.97-5.21-3.43-11.03-4.28-16.07-.73-4.3,3.06-3.31,5.85-3.75,1.78-.29,3.44-1.13,5.18-1.53,10.88-2.48,21.35-4.34,32.69-3.21.67.07,2.89.61,3.27.98ZM347.3,294.5c.95-8.57,1-17.15.92-25.79l-1.12-9.92c-.92-1.28-13.92-2.19-16.2-2.19-4.23,0-9.28-.14-13.45.91-1.33.34-2.66,1.01-3.99,1.38-2.3.63-1.71-.76-.18-1.5l12.79-4.2c1.48-.56,1.1-2.89,1.02-4.3-.31-5.28-1.26-13.75-2.28-18.91-.21-1.08-1.16-4.08-1.96-4.69-.5-.38-3.98-.81-4.96-.87-8-.48-16.46.5-24.25,2.26-5.05,1.14-10.04,2.67-15.04,3.98-.56.78,1.3,5.64,1.63,6.9,3.09,12.02,4.78,25.07,6.81,37.39.18,1.09.4,5.35.93,5.7,1.11.73,6.23-.08,7.81-.1.51,0,2.27.6,2.55.3.66-.72-.86-11.35-.45-13.22l-1.79.44c0-3.46-1.07-6.97-1.35-10.35-.33-3.98,1.16-3.16,1.36-4.4.47-2.94.01-10.15-.47-13.23-.12-.75-1.51-1.59-.18-1.94,2.01-.53,10.1.82,11.67,2.13,1.43,1.19,1.26,8.14,1.81,10.18-1.58.96-10.12,2.92-10.85,3.93-.81,1.11.12,5.38.26,6.85.09.94-.21,4.1.5,4.58.83.56,3.31-.32,4.26-.36,1.06-.05,2.24.68,3.55-.03,5.57-.12,11.32.42,16.66,1.74.8,1.62-.28,3.61-.23,5.05.02.56.43,1.17.43,1.8,0,1.62.28,7.52-.89,8.41-.21.16-1.41-.27-2.01-.28-4.11-.04-8.08-.26-12.14-.44-3.05-.13-5.79.46-8.78.46.67,1.77.16,3.87.46,5.5.17.92,1.09,1.3.92,2.65-.16,1.23-3.66,2.93-3.66-.43,0-2.29,1.26-1.72,1.4-2.27.11-.42.19-5.26-.02-5.43-.11-.09-2.52-.36-2.92-.38-1.87-.06-4.37.22-6.29.38-.98.08-2.48.27-2.84-.74l-.97-4.55c.26,1.4-1.76,1.17-1.83,1.58-.65,3.39.82,7.01.95,10.11.05,1.13-.41,1.86-.45,2.68-.05,1.19.81,2.75.43,4.14,1.97-.21,4.1-.69,6.06-.89,13.41-1.34,25.16-1.93,38.63-1.3,3.34.16,6.51-.75,9.91-.46,2.64.23,5.28,1.25,7.86,1.76ZM297.42,253.09c.37.38,8.76-3.21,10.14-3.49.8-1.07-1.14-5.57-.8-7.21-.55-2.36-2.77-1.72-4.5-2.19-.67-.18-1.26-.73-2.24-.93-.39-.08-3.37-.39-3.5-.27-.22.21.41,1.84.46,2.41.22,3.2.07,5.93.45,9.25.07.57-.11,2.31,0,2.43ZM297.42,266.75c-.15-3.97-.4-8-1.12-11.89-.99.63-.41,1-.37,1.65.13,2.17.68,4.27.63,6.46l.85,3.78ZM322.14,280.63v-12.34c0-.31-.74-.6-1.12-.67-3.8-.66-7.91-.65-11.7-1.34-2.75.85-5.72.12-8.42.57-3.1.52-1.78,1.32-1.67,3.2.15,2.79.16,5.1.45,7.93.06.62-.12,2.76,0,2.87.15.15,3.57.04,4.27,0,4.76-.22,9.94-.27,14.83-.01.83.04,3.02,1.06,3.37-.21Z"/>
  <path class="cls-1" d="M175.87,27.95c.75-.19.69-1.33.65-1.93-.2-2.98-1.8-7.11-2.25-10.2-.14-2.19,1.49-3.34,3.22-4.35,3.85-2.26,9.17-3.59,13.64-3.81,5.12-.25,9.17.4,10.91,5.65.66,1.98,2.71,13.74,3.32,14.15.26.18,5.55.11,6.47.05,3.54-.2,7.22-1.3,10.8-.91.41.04.71.06,1.1.25,1.42.69,3.2,6.27,3.96,8.01,2.08,4.76,4.73,10.15,5.45,15.36.22,1.6-.1,3.41.03,5.04,2.05-.04,4.05.65,6.06.89,2.41.29,4.98-.64,6.98,1.52.9.97,3.74,6.73,4.26,8.16,1.73,4.73,3.95,14.25,3.33,19.15-.24,1.88-1.53,1.88-3.33,2.01-6.76.5-13.69-.3-20.24-.02-11.4.47-23.61.58-35.02-.42-2.05-.18-5.45.72-6-2.09-.14-.72.25-1.37.15-1.93-.46-2.53-1.53-5.2-1.57-7.87l-4.65.5c-.94.31-.73,1.96-1.65,2.79-2.92,2.61-3.64-4.04-1.79-4.85.79-.35,2.23,1.14,3.36,1.15.69,0,4.16-.59,4.27-1.16.06-.29-1.52-4.79-1.75-5.74-2.92-11.72-5.08-23.64-8.02-35.32-.68-2.71.35-2.79-3.52-3.16-4.44-.42-9.45.09-13.65-1.59-1.96-.78-2.46-1.23-2.23-3.46.18-1.7.45-2.6,2.39-1.99,1.24.39,1.17,3.65-.62,3.47,1.5,2.15,5.73,1.97,8.29,2.22.42.04.8.42.92.42,1.63,0,5.51.32,6.74,0ZM204.41,27.94c-1.72-4.53-1.78-10-3.46-14.45-2.38-6.3-8-5.3-13.71-4.36-3.41.56-6.29,1.57-9.3,3.22-.54.29-1.83,1.04-2.07,1.49-.86,1.63.62,5.9,1.01,7.84.21,1.04.82,6.1,1.44,6.52l26.09-.25ZM209.38,56.99c.66.56,14.24-1.06,16.36-1.29,4.22-.46,7.38.89,6.42-4.96-1.01-6.17-4.73-15.45-7.66-21.12-.29-.57-.94-1.85-1.51-2.04-.93-.3-3.97.02-5.23.11-3.98.29-8.02.79-12,1.15l2.9,12.35c.67,1.07,4.89-.76,6.03.04.56.39,2.13,7.39,1.64,8.33-.64,1.21-5.78,2.32-6.49,1.72-.4-.34-1.01-6-1.47-7.15-.3-.74-.99-1.14-1.49-.32-.78,1.26,1.39,7.39,1.83,9.25.17.7.47,3.76.69,3.95ZM204.81,28.87c-.34-.23-5.93.63-7,.69-4.98.29-10.58.43-15.67.17-1.29-.07-2.49-.62-3.8-.46l9.89,44.06,22.91-2.65c-.94-1.64-2.18-11.77-2.73-12.3-.21-.2-1.31.04-1.77-.03-.38-1.28,1.02-.74,1.3-1.58,1.05-3.22-3.47-10-2.11-13.54.35-.9,2.07-.85,1.75-2.27-.58-1.51-2.25-11.74-2.77-12.09ZM213.8,42.09c-.51-.36-4.17.33-4.41,1.11-.21.67.99,6.93,1.35,7.17.76.52,4.03-.44,4.37-1.58.31-1.01-.73-6.3-1.31-6.71ZM252.44,85.18c.48-.48.14-6.57,0-7.63-.42-3.22-1.91-8.44-3.09-11.51-.68-1.76-3.41-7.76-4.83-8.48-1.77-.9-3.53-.31-5.3-.53-1.93-.24-4.41-.96-6.29-.92s-3.85,1.18-5.84,1.36c-5.05.46-11.08.44-16.12.57-.2,0-1.1.3-1.14.35-.7.95,1.97,10.04,2.2,11.85,4.05-.97,6.02-3.43,9.44.21,1.71,1.82,3.28,3.52.86,5.27-1.9,1.37-2.76.82-4.65,1.17-1.27.23-3.23,1.19-4.31.64-1.45-.74-1.18-5.59-2.52-5.94l-22.19,2.62,2.31,10.95c10.11,1.47,20.48.87,30.74.92,8.4.05,17.17.73,25.59.02.67-.06,4.94-.74,5.12-.93ZM213.39,76.41c.21.24,5.5-.44,6.32-.63.67-.16,2.83-.82,2.62-1.71-.2-.83-2.28-3.64-3.1-4.04-2.46-1.21-4.39,1.31-6.74,1.1l.9,5.29Z"/>
  <path class="cls-1" d="M455.6,195.37c4.55-1.7,9.19-4.53,14.15-4.85,5.83-.37,9.98,2.66,6.89,8.52-1.54,2.92-10.32,9.35-13.44,11.5-1.71,1.18-3.93,2.41-5.81,3.34l6.53,1.74c4.19,2.02,11.22,5.68,10,11.16-.76,3.4-4.16,7.05-6.94,9.05-5.93,4.26-9.51,5.98-16.63,2.8-2.25-1.01-6.48-4.21-8.45-4.49-1.63-.23.33,2.05-.42,3.12-1,1.41-3.69-.04-3.32-1.95.22-1.16,2.29-.94,2.62-2.03-5.07-1.97-10.87-5.58-16.08-6.93-2.32-.6-10.35-1.95-11.25,1.06-.13.44-.18,2.67-.08,2.78.54.64,1.55-1.41,2.11-1.67.52-.24,3.48-.76,3.7-.5.4.48.59,3.47-.02,3.89-.21.14-4.47-.29-5.12-.4-2.19-.36-2.73-4.07-1.11-5.49,3.18-2.78,11.38-1.2,15.05.19l13.02,6.17c.18,0,1.66-2.75,1.8-3.11.45-1.1-.02-.43.8-1.84,1.41-2.43,2.03-6.15,3.46-8.7-2.77.4-4.87,1.21-7.84.84-1.32-.16-2.05-.47-1.54-1.89.75-2.1,8.75-2.14,10.62-3.03l5.51-16.85c.07-.95.12-.63-.46-.45-3.48,1.07-8.86,3.46-12.12.87-3.76-2.99-.75-9.89,1.34-13.2,1-1.59,4.64-4.76,6.53-5.05,8.74-1.32,7.1,10.06,6.5,15.4ZM448.28,181.37c-4.76,1.27-11.8,15.5-4.95,17,1.83.4,2.56-.41,4.05-.7s3.6-.41,4.93-.87c3.43-1.2,1.95-3.22,2.84-6.05.39-2-.34-8.7-2.54-9.41-.7-.23-3.56-.17-4.33.03ZM475.69,193.29c-.08-.11-1.77-1.24-2.01-1.33-5.08-2.03-13.86,2.81-18.54,4.95l-5.38,17.41c4.97.7,9.56-2.39,13.43-5.11,2.64-1.85,8.52-6.04,10.61-8.1,1.7-1.68,3.5-5.68,1.89-7.82ZM454.56,215.29c-.59.12-6.15,2.7-6.37,3-1.06,2.78-2.01,5.61-3.17,8.35-.43,1.02-2.87,5.48-2.83,5.97.05.59,9.32,5.41,10.58,5.83,7.79,2.57,17.26-4.53,19.92-11.56,1.38-3.65-2.91-6.82-5.71-8.54-3.21-1.97-8.63-3.86-12.42-3.06ZM450.65,215.64c-.69-.31-1.83.22-1.34.43.69.31,1.83-.22,1.34-.43ZM447.5,216.08c-.24-.24-6.02.72-6.84,1-.66.23-1.5.43-1.69,1.2,3.01.95,4.45-.03,7.09-.78.47-.13,1.34-.04,1.45-.1.06-.03.04-1.27,0-1.32Z"/>
  <path class="cls-1" d="M411.56,281.73c.68.15,1.05-.13,1.6-.41,6.76-3.47,16.36-12.74,24.59-9.62,1.71.65,2.83,1.77,3.03,3.64.69,6.46-3.58,11.72-8.58,15.4-7.71,5.67-17.7,6.48-26.91,8.2.06,1.31-.37,3.74.57,4.72.37.39,1.1.17,1.25,1.22.51,3.64-4.56,4.05-3.53.54.17-.57.7-.82.82-1.84.09-.69.03-4.12-.75-4.24-6.04,1.05-12.56,1.62-18.39,3.54-2.51.82-5.64,1.47-4.15,4.55.7,1.44,5.97,1.73,7.85,2.43,1.55.58,4.99,2.59,5.98,3.83,1.16,1.45,1.32,3.28,2.24,4.84.02,1.99-3.31,3.7-3.61,1.32-.25-1.98,2.68-3.12.49-5.74-.28-.34-4.34-2.8-4.96-3.06-2.77-1.16-11.34-1.11-9.8-6.09.63-2.03,7.58-3.55,9.71-4.14,3.34-.93,7.09-1.59,10.75-2.23,1.09-.19,3.48.2,3.97-.51.75-1.08-1.31-7.86-.7-9.72-8.45,2.67-5.73-2.32.03-3.78.26-5.15-.44-10.74-.03-15.83.11-1.41.7-3.04.86-4.45.42-3.65.25-12.62,5.23-13.37,4.64-.7,6.26,3.36,7.18,7.02,2.12,8.45,1.08,17.06-4.73,23.8ZM414.1,275.87c2.57-5.42,3-16.47-.37-21.61-3.52-5.37-7.7-1.27-8.44,3.48-.61,3.94-1.13,9.61-1.38,13.63s.14,7.92.07,11.84c.61,1.85,5.1-.87,6.19-1.74,1.39-1.1,2.03-2.21,2.89-3.71.22-.38,0-1.01.27-1.45.18-.28.71-.3.77-.44ZM408.49,296.79c.23-.18,1.54.39,2.33.35,2.42-.14,8.08-1.67,10.62-2.41,6.88-2.01,14.81-6.78,17.55-13.64,1.98-4.97,1-9.33-5.2-9.08-7.2.29-19.71,10.13-26.14,14.04-.81.49-3.54,1.46-3.68,2.11.29,1.96.67,4.17.84,6.12.06.67-.13,3.19,0,3.31s2.92.1,3.32,0c.36-.08.25-.72.36-.81ZM408.86,283.93c-.87-.13-5.78,1.21-4.49,2.64l4.49-2.64ZM403.02,285.7c-.58-.58-3.83,1.76-4.04,2.64.7-.27,3.76-.72,4.01-.92.08-.07.1-1.66.04-1.72Z"/>
  <path class="cls-1" d="M358.09,356.19c1.41-.85,2.33-2.29,3.63-3.27,3.16-2.38,6.93-4.21,6.14,1.62-.6,4.39-8.53,17.05-11.57,20.81-.89,1.1-5.59,5.74-5.75,6.25-.57,1.84,1.01,5.85.36,8.07.82.24,3.35-.65,3.16.66-.36,2.47-4.92,6.53-4.92,2.63,0-.7.76-1.53.88-2.62.32-2.76-.64-5.42-.47-8.17-1.89.32-1.13,3.87-1.85,4.35-.66.44-3.01.22-3.12-1.05-.24-2.85,3.8-2.46,4.8-4.82-.58-2.1-.56-10.85-1.64-12.14-.26-.31-2.52,2.82-3.14,2.2-.55-.55,2.96-3.64,3.14-4.63.44-2.47-.75-6.18-.92-8.79-.32-5.17-.5-14.3.13-19.3.12-.97.87-4.14,1.29-4.9,2.94-5.29,11.69-3.08,14.7,1.34,2.47,3.62,1.67,6.39.29,10.28l-5.16,11.46ZM348.65,365.44c2.39-2.4,5.74-5.39,7.56-8.22,1.95-3.04,6.7-13.01,7.15-16.34.84-6.24-4.79-10.68-10.87-9.78-2.95.43-4.27,4.4-4.63,6.92-.66,4.71-.46,14.38-.13,19.3.18,2.67,1.19,5.4.92,8.13ZM350,379.54c.62.62,2.07-.88,2.48-1.31,4.54-4.84,11.27-14.91,13.59-21.04,1.26-3.33,2.34-7.11-2.55-4.27-2.17,1.26-3.51,3.02-5.18,4.59-3.06,2.88-5.98,5.9-9.01,8.81-.92,3.06.4,6.09.68,9.03.07.79-.15,4.04,0,4.19Z"/>
  <path class="cls-1" d="M99.26,82.14c-.18.23-1.26-.87-.89-1.32.18-.23,1.26.87.89,1.32Z"/>
</svg>