<?xml version="1.0" encoding="UTF-8"?>
<svg id="Ebene_1" data-name="Ebene 1" xmlns="http://www.w3.org/2000/svg" viewBox="0 0 500 267.39">
  <defs>
    <style>
      .cls-1 {
        fill: #5a339f;
      }

      .cls-2 {
        fill: #ff8968;
      }
    </style>
  </defs>
  <path class="cls-1" d="M298.73,5.14c-1.93-3.17-5.44-5.14-9.16-5.14h-36.16c-4.1,0-7.78,2.28-9.61,5.95l-93.65,188.25L56.5,5.95c-1.83-3.67-5.51-5.95-9.61-5.95H10.73C7.02,0,3.51,1.97,1.57,5.14c-1.03,1.68-1.57,3.62-1.57,5.6,0,1.69.41,3.39,1.18,4.89l124.75,243.2c1.85,3.6,5.5,5.83,9.55,5.83h29.35c4.04,0,7.7-2.24,9.55-5.83h0L299.12,15.63c1.69-3.3,1.54-7.33-.39-10.49Z"/>
  <path class="cls-1" d="M484.14,2.34l-213.28,109.85c-3.64,1.87-5.89,5.58-5.89,9.67v24.82c0,4.09,2.26,7.8,5.9,9.67l213.28,109.86c3.31,1.7,7.47,1.55,10.64-.38,3.22-1.96,5.22-5.52,5.22-9.29v-31.72c0-4.14-2.3-7.87-6-9.72l-161.24-80.83,161.24-80.83c3.7-1.86,6-5.58,6-9.72V12.01c0-3.77-2-7.33-5.22-9.29h0c-1.72-1.05-3.69-1.58-5.66-1.58-1.71,0-3.42.4-4.98,1.2Z"/>
  <g>
    <g>
      <path class="cls-2" d="M28.68,52.61c-.48-.92-.61-1.74-.38-2.48.23-.74.81-1.35,1.72-1.83l23.69-12.44c.92-.48,1.74-.61,2.48-.38.74.23,1.35.8,1.83,1.72l4.24,8.08c2.58,4.91,3.31,9.37,2.19,13.38-1.12,4.01-4.04,7.25-8.76,9.72-2.36,1.24-4.63,2-6.8,2.27-2.18.27-4.23.08-6.18-.58s-3.74-1.77-5.39-3.33c-1.65-1.56-3.12-3.57-4.42-6.04l-4.24-8.08ZM34.4,52.79l2.76,5.25c.9,1.72,1.9,3.1,3,4.14,1.09,1.04,2.28,1.76,3.58,2.16,1.29.4,2.69.47,4.2.21,1.51-.26,3.12-.84,4.85-1.75,3.44-1.81,5.56-4,6.37-6.58.8-2.58.32-5.57-1.46-8.95l-2.75-5.25-20.53,10.78Z"/>
      <path class="cls-2" d="M44.04,82.68c-.45-.86-.55-1.65-.31-2.36.24-.71.8-1.29,1.66-1.75l24.52-12.88c.89-.47,1.69-.6,2.4-.38.71.21,1.29.75,1.75,1.61.45.86.56,1.64.33,2.35-.23.71-.79,1.29-1.68,1.76l-24.52,12.88c-.86.45-1.65.58-2.37.39-.72-.19-1.31-.73-1.78-1.62Z"/>
      <path class="cls-2" d="M55.26,104.24c-1.71-3.25-2.53-6.31-2.49-9.19.05-2.88.89-5.49,2.53-7.83,1.64-2.35,3.99-4.33,7.08-5.95,2.33-1.23,4.61-1.99,6.82-2.28,2.22-.3,4.32-.15,6.32.45,1.99.6,3.84,1.64,5.52,3.13,1.68,1.49,3.15,3.41,4.38,5.77.82,1.55,1.45,3.21,1.9,4.98.45,1.76.59,3.57.43,5.43-.06.63-.27,1.14-.63,1.53-.37.39-.81.64-1.32.77-.52.13-1.02.13-1.51,0-.49-.13-.9-.4-1.23-.82-.32-.41-.48-.98-.46-1.69.06-1.38-.06-2.68-.35-3.91-.29-1.23-.79-2.51-1.48-3.84-1.08-2.05-2.4-3.57-3.96-4.56-1.56-.98-3.31-1.42-5.23-1.32-1.93.11-4.01.75-6.26,1.93-3.41,1.79-5.58,3.97-6.5,6.55-.92,2.57-.53,5.47,1.16,8.69.58,1.11,1.28,2.18,2.1,3.2.82,1.02,1.71,1.97,2.67,2.85l-2.92.21,8.87-4.66-2.41-4.58c-.36-.69-.47-1.32-.3-1.89.16-.56.55-1.01,1.16-1.33.64-.34,1.22-.4,1.75-.2.53.2.98.65,1.34,1.34l3.61,6.87c.36.69.46,1.33.28,1.9-.18.57-.62,1.04-1.31,1.4l-10.12,5.31c-.61.32-1.19.47-1.73.46-.54-.02-1.04-.24-1.52-.66-1.09-.99-2.19-2.2-3.31-3.63-1.12-1.43-2.09-2.91-2.89-4.43Z"/>
      <path class="cls-2" d="M64.55,121.73c-.45-.86-.55-1.65-.31-2.36.24-.71.8-1.3,1.66-1.75l24.52-12.88c.89-.47,1.69-.59,2.4-.38.71.21,1.29.75,1.75,1.61.45.86.56,1.64.33,2.35-.23.71-.79,1.29-1.68,1.76l-24.52,12.88c-.86.45-1.65.58-2.37.39-.72-.19-1.31-.73-1.78-1.62Z"/>
      <path class="cls-2" d="M73.56,138.88c-.45-.86-.55-1.65-.31-2.36.24-.71.8-1.3,1.66-1.75l22.48-11.81-4.26-8.12c-.38-.72-.47-1.39-.28-2,.19-.61.63-1.1,1.33-1.47.72-.38,1.37-.47,1.96-.26.59.21,1.07.67,1.45,1.39l11.33,21.57c.38.72.49,1.38.32,1.98s-.61,1.09-1.33,1.47c-.69.36-1.35.45-1.96.26-.61-.19-1.11-.65-1.49-1.37l-4.26-8.12-22.48,11.81c-.86.45-1.65.58-2.37.39-.72-.19-1.31-.73-1.78-1.61Z"/>
      <path class="cls-2" d="M81.3,153.62c-.35-.67-.48-1.28-.38-1.84.09-.56.38-1.02.85-1.37.47-.35,1.1-.56,1.88-.62l30.13-1.8c.99-.06,1.8.07,2.42.4.62.33,1.1.83,1.45,1.5.33.64.46,1.3.39,2-.08.7-.43,1.44-1.04,2.22l-18.56,23.82c-.48.64-1,1.06-1.57,1.25-.57.19-1.1.17-1.6-.06-.5-.23-.91-.67-1.25-1.31-.41-.78-.54-1.48-.39-2.11.15-.63.52-1.31,1.13-2.05l4.87-6.01-.28,3.01-9.23-17.57,2.64,1.48-7.69.64c-.99.06-1.77,0-2.34-.21-.56-.2-1.04-.66-1.42-1.38ZM111.47,153.02l-16.92,1.45.76-1.78,7.3,13.91-1.88-.34,10.78-13.15-.04-.08Z"/>
      <path class="cls-2" d="M98.29,185.17c-.45-.86-.56-1.65-.32-2.38.24-.73.79-1.32,1.65-1.77l24.02-12.61c.89-.47,1.68-.59,2.38-.37.7.22,1.27.76,1.73,1.62.45.86.57,1.64.35,2.34-.22.7-.77,1.28-1.66,1.75l-22.23,11.67,6.34,12.08c.39.75.5,1.43.32,2.03-.18.61-.63,1.1-1.35,1.48-.72.38-1.39.47-2,.28s-1.12-.66-1.51-1.41l-7.72-14.7Z"/>
      <path class="cls-2" d="M109.77,207.03c-.48-.92-.61-1.74-.38-2.48.23-.74.81-1.35,1.72-1.83l23.69-12.44c.92-.48,1.75-.61,2.48-.38.74.23,1.35.8,1.83,1.72l7.81,14.86c.36.69.46,1.32.3,1.89-.16.56-.58,1.02-1.25,1.37-.69.36-1.33.46-1.9.28-.57-.18-1.04-.61-1.4-1.31l-6.6-12.57-8.08,4.24,6.12,11.66c.38.72.48,1.36.31,1.91-.17.55-.61,1.01-1.3,1.37-.69.36-1.32.46-1.87.29-.55-.17-1.01-.62-1.39-1.34l-6.12-11.66-8.54,4.48,6.6,12.57c.36.69.47,1.32.3,1.89-.16.56-.59,1.03-1.29,1.39-.69.36-1.32.45-1.88.27-.56-.19-1.02-.63-1.38-1.32l-7.81-14.86Z"/>
    </g>
    <g>
      <path class="cls-2" d="M151.43,220.05c-.86.44-1.65.54-2.36.28-.71-.25-1.29-.81-1.73-1.68l-12.64-24.7c-.46-.89-.57-1.69-.35-2.38.23-.7.77-1.27,1.64-1.71.86-.44,1.64-.55,2.34-.33.7.22,1.27.78,1.73,1.68l5.46,10.68.08-.04,5.85-18.2c.22-.67.49-1.24.83-1.69.33-.45.78-.82,1.34-1.11.81-.41,1.5-.5,2.06-.26.56.24.95.66,1.17,1.25.22.59.21,1.25-.02,1.97l-6.03,18.35-1.2-2.45,19.41,6.45c.87.26,1.48.69,1.82,1.29.34.6.41,1.21.22,1.82-.2.61-.69,1.12-1.47,1.52-.67.34-1.28.48-1.83.4-.55-.07-1.22-.24-2.02-.5l-18.67-6.03-.08.04,5.74,11.22c.44.87.57,1.66.37,2.37-.2.72-.74,1.31-1.64,1.76Z"/>
      <path class="cls-2" d="M188.19,201.35c-2.85,1.46-5.66,2.1-8.44,1.94-2.78-.16-5.34-1.08-7.67-2.76-2.34-1.68-4.29-4.05-5.86-7.12-1.19-2.32-1.92-4.57-2.2-6.77s-.14-4.28.43-6.24c.56-1.96,1.54-3.74,2.92-5.35,1.38-1.6,3.14-2.96,5.3-4.06,2.87-1.47,5.69-2.13,8.45-1.97,2.76.16,5.3,1.07,7.63,2.73,2.33,1.66,4.28,4.03,5.85,7.1,1.19,2.32,1.92,4.58,2.21,6.79.29,2.21.15,4.31-.4,6.28s-1.52,3.77-2.91,5.37c-1.38,1.6-3.14,2.96-5.29,4.06ZM185.83,196.74c1.81-.93,3.14-2.14,3.98-3.62.84-1.49,1.2-3.2,1.07-5.14-.13-1.94-.76-4.01-1.89-6.22-1.71-3.35-3.79-5.56-6.22-6.64s-5.02-.92-7.76.48c-1.79.91-3.11,2.11-3.97,3.59-.86,1.48-1.23,3.18-1.11,5.11.12,1.93.76,4.01,1.9,6.24,1.7,3.32,3.78,5.53,6.24,6.63,2.46,1.1,5.05.96,7.76-.43Z"/>
      <path class="cls-2" d="M208.62,190.79c-.78.4-1.5.48-2.14.25-.65-.23-1.17-.74-1.57-1.52l-12.87-25.16c-.41-.81-.51-1.54-.28-2.21.23-.66.73-1.19,1.51-1.59.7-.36,1.32-.51,1.86-.45.54.06,1.14.32,1.81.79l20.13,13.84-1.34.69.55-24.42c0-.81.14-1.45.39-1.92.25-.47.73-.88,1.43-1.23.78-.4,1.49-.49,2.13-.27.64.22,1.17.73,1.58,1.54l12.87,25.16c.4.78.51,1.5.33,2.15s-.67,1.19-1.48,1.6c-.78.4-1.5.48-2.14.25s-1.17-.74-1.57-1.52l-9.92-19.38.92-.47-.59,20.53c-.04.62-.15,1.12-.34,1.5-.19.38-.55.71-1.08.98-.53.27-1.02.37-1.48.31-.46-.07-.93-.26-1.4-.58l-17.1-11.54,1.01-.51,9.94,19.43c.4.78.51,1.5.34,2.15s-.67,1.19-1.48,1.6Z"/>
      <path class="cls-2" d="M243.29,173.06c-.78.4-1.5.48-2.14.25-.65-.23-1.17-.74-1.57-1.52l-12.87-25.16c-.41-.81-.51-1.54-.28-2.2.23-.66.73-1.19,1.51-1.59.7-.36,1.32-.51,1.86-.45.54.06,1.14.32,1.81.79l20.13,13.84-1.34.69.55-24.42c0-.81.14-1.45.39-1.92.26-.46.73-.88,1.43-1.23.78-.4,1.49-.49,2.13-.27.64.22,1.17.73,1.58,1.54l12.87,25.16c.4.78.51,1.5.34,2.15s-.67,1.19-1.48,1.6c-.78.4-1.5.48-2.14.25-.65-.23-1.17-.74-1.57-1.52l-9.92-19.38.92-.47-.59,20.53c-.04.62-.15,1.12-.34,1.5-.19.38-.55.71-1.08.98-.53.27-1.02.37-1.48.31-.46-.07-.92-.26-1.4-.58l-17.1-11.54,1.01-.51,9.94,19.43c.4.78.51,1.5.34,2.15-.18.65-.67,1.19-1.48,1.6Z"/>
      <path class="cls-2" d="M287.75,150.42c-2.04,1.04-3.97,1.69-5.79,1.96s-3.53.14-5.12-.36c-1.6-.51-3.06-1.4-4.39-2.69-1.33-1.29-2.52-2.97-3.58-5.04l-7.69-15.03c-.47-.92-.59-1.72-.36-2.41.23-.68.78-1.24,1.65-1.69s1.64-.56,2.33-.35c.69.21,1.27.78,1.74,1.7l7.67,14.99c1.36,2.65,2.98,4.33,4.87,5.03,1.89.7,4,.46,6.31-.72s3.74-2.75,4.26-4.69.1-4.24-1.25-6.89l-7.67-14.99c-.47-.92-.59-1.72-.36-2.41.23-.68.78-1.24,1.65-1.69.84-.43,1.6-.54,2.29-.33.69.21,1.27.78,1.74,1.7l7.69,15.03c1.4,2.73,2.11,5.28,2.13,7.62.02,2.35-.65,4.46-2.01,6.34-1.36,1.88-3.4,3.51-6.11,4.89Z"/>
      <path class="cls-2" d="M307.17,140.37c-.81.41-1.55.51-2.21.28-.66-.23-1.2-.76-1.63-1.6l-12.74-24.91c-.44-.86-.57-1.64-.37-2.32.2-.68.64-1.2,1.34-1.56.64-.33,1.18-.45,1.63-.38.44.07,1.03.27,1.76.6l26.68,12.6-1.09.56-10.13-19.8c-.41-.81-.52-1.55-.31-2.22.2-.67.71-1.21,1.52-1.62.81-.41,1.54-.5,2.18-.27.65.23,1.18.75,1.59,1.56l12.85,25.12c.4.78.52,1.5.36,2.14-.16.65-.58,1.14-1.25,1.48-.64.33-1.22.46-1.72.4s-1.12-.25-1.86-.58l-26.64-12.63,1.05-.54,10.13,19.8c.43.84.55,1.59.36,2.25-.19.66-.69,1.2-1.5,1.61Z"/>
      <path class="cls-2" d="M336.98,125.13c-.86.44-1.65.54-2.36.28-.71-.25-1.29-.81-1.73-1.68l-12.62-24.66c-.46-.89-.58-1.69-.36-2.41.22-.71.76-1.29,1.62-1.73s1.65-.54,2.35-.31c.7.24,1.28.8,1.74,1.7l12.62,24.66c.44.87.57,1.66.37,2.37-.2.72-.74,1.31-1.64,1.76Z"/>
      <path class="cls-2" d="M347.11,119.94c-.87.44-1.65.54-2.36.28-.71-.25-1.29-.81-1.73-1.68l-12.64-24.7c-.46-.89-.57-1.69-.35-2.38.23-.7.77-1.27,1.64-1.71.87-.44,1.65-.55,2.34-.33.7.22,1.27.78,1.73,1.68l5.46,10.68.08-.04,5.85-18.2c.22-.67.49-1.24.83-1.69.33-.45.78-.82,1.34-1.11.81-.41,1.5-.5,2.06-.26.56.24.95.66,1.17,1.25.22.59.21,1.25-.02,1.97l-6.04,18.35-1.2-2.45,19.41,6.45c.87.26,1.48.69,1.82,1.29.34.6.41,1.21.22,1.82-.2.61-.69,1.12-1.47,1.52-.67.34-1.28.48-1.83.4-.55-.07-1.22-.24-2.02-.5l-18.67-6.03-.08.04,5.74,11.22c.44.87.57,1.66.37,2.37-.2.72-.74,1.31-1.63,1.76Z"/>
      <path class="cls-2" d="M370.89,107.78c-.67.34-1.29.46-1.85.36-.56-.1-1.02-.39-1.36-.86-.35-.47-.55-1.1-.6-1.89l-1.48-30.15c-.05-1,.09-1.8.43-2.41.34-.61.84-1.09,1.51-1.43.64-.33,1.31-.45,2.01-.37.69.09,1.43.44,2.21,1.06l23.62,18.82c.64.48,1.05,1.01,1.23,1.59.19.57.16,1.11-.08,1.6-.24.49-.68.9-1.32,1.23-.78.4-1.48.52-2.11.37-.63-.15-1.31-.54-2.04-1.15l-5.96-4.93,3.01.31-17.67,9.04,1.51-2.62.55,7.69c.05,1-.02,1.77-.23,2.34-.21.56-.67,1.03-1.4,1.4ZM370.62,77.6l1.27,16.94-1.77-.78,13.98-7.15-.36,1.87-13.03-10.92-.08.04Z"/>
      <path class="cls-2" d="M409.87,87.84c-.86.44-1.65.54-2.36.28-.71-.25-1.29-.81-1.73-1.68l-11.57-22.61-8.16,4.18c-.73.37-1.39.46-2.01.26-.61-.2-1.1-.64-1.45-1.34-.37-.73-.45-1.38-.24-1.97.21-.58.68-1.06,1.41-1.43l21.69-11.09c.73-.37,1.39-.47,1.98-.3.6.17,1.08.62,1.45,1.34.36.7.44,1.35.24,1.96-.2.61-.66,1.1-1.39,1.47l-8.16,4.18,11.57,22.61c.44.87.57,1.66.37,2.37-.2.72-.74,1.3-1.64,1.76Z"/>
      <path class="cls-2" d="M427.08,79.04c-.86.44-1.65.54-2.36.28-.71-.25-1.29-.81-1.73-1.68l-12.61-24.66c-.46-.89-.58-1.69-.36-2.41.22-.71.76-1.29,1.63-1.73.86-.44,1.65-.54,2.35-.31.7.24,1.28.8,1.74,1.7l12.62,24.66c.44.87.57,1.66.37,2.37-.2.72-.74,1.3-1.64,1.76Z"/>
      <path class="cls-2" d="M447.8,68.54c-2.85,1.46-5.66,2.1-8.44,1.94s-5.33-1.08-7.67-2.76c-2.34-1.68-4.29-4.05-5.86-7.12-1.18-2.32-1.92-4.58-2.2-6.77-.28-2.2-.14-4.28.43-6.24.56-1.96,1.54-3.74,2.92-5.35,1.38-1.6,3.14-2.95,5.29-4.05,2.87-1.47,5.69-2.13,8.45-1.97,2.76.16,5.3,1.07,7.63,2.73,2.33,1.66,4.28,4.03,5.85,7.1,1.19,2.32,1.92,4.58,2.21,6.79.29,2.21.15,4.31-.4,6.28-.56,1.98-1.53,3.77-2.91,5.37-1.38,1.6-3.14,2.96-5.29,4.06ZM445.45,63.94c1.81-.93,3.14-2.14,3.98-3.62.84-1.49,1.2-3.2,1.07-5.14-.13-1.94-.76-4.01-1.89-6.22-1.71-3.35-3.79-5.56-6.22-6.64-2.44-1.08-5.02-.92-7.76.48-1.79.91-3.11,2.11-3.97,3.59-.86,1.48-1.23,3.18-1.11,5.11.12,1.93.76,4.01,1.9,6.24,1.7,3.32,3.78,5.53,6.24,6.63,2.46,1.1,5.05.96,7.76-.43Z"/>
      <path class="cls-2" d="M468.23,57.98c-.81.41-1.54.51-2.21.28s-1.21-.76-1.63-1.59l-12.74-24.91c-.44-.86-.57-1.64-.37-2.32.2-.68.64-1.2,1.34-1.56.64-.33,1.18-.45,1.63-.38.44.07,1.03.27,1.76.6l26.68,12.6-1.09.56-10.13-19.8c-.41-.81-.52-1.55-.31-2.22.2-.67.71-1.21,1.52-1.62.81-.41,1.54-.5,2.18-.27.65.23,1.18.75,1.59,1.56l12.85,25.12c.4.78.52,1.5.35,2.14-.16.65-.58,1.14-1.25,1.49-.64.33-1.22.46-1.72.4-.51-.06-1.12-.25-1.86-.58l-26.64-12.63,1.05-.54,10.13,19.8c.43.84.55,1.59.36,2.25s-.69,1.2-1.5,1.61Z"/>
    </g>
  </g>
</svg>