<?xml version="1.0" encoding="UTF-8"?>
<svg id="Ebene_1" data-name="Ebene 1" xmlns="http://www.w3.org/2000/svg" viewBox="0 0 500 500">
  <defs>
    <style>
      .cls-1 {
        fill: #ff8968;
      }
    </style>
  </defs>
  <path class="cls-1" d="M59.4,153.9c-1.24-2.47-3.77-4.03-6.53-4.03h-15.72c-2.3,0-4.47,1.08-5.85,2.92C10.43,180.62.19,212.52,0,250.34c0,37.43,10.25,69.12,31.33,96.89,1.38,1.82,3.54,2.89,5.82,2.89h15.72c2.74,0,5.24-1.53,6.5-3.96,1.25-2.43,1.05-5.36-.54-7.59-18.4-25.92-27.35-54.78-27.35-88.24,0-35.13,8.91-64.17,27.25-88.79,1.65-2.22,1.91-5.18.67-7.65Z"/>
  <path class="cls-1" d="M181.48,241.79l-105.68-54.21c-2.27-1.16-4.98-1.06-7.15.27-2.17,1.33-3.5,3.69-3.5,6.24v15.71c0,2.78,1.57,5.31,4.06,6.55l77.04,38.32-77.04,38.32c-2.48,1.24-4.06,3.77-4.06,6.55v15.72c0,2.55,1.33,4.91,3.5,6.24,1.17.71,2.49,1.07,3.81,1.07,1.14,0,2.29-.27,3.34-.81l105.68-54.21c2.44-1.25,3.97-3.76,3.97-6.51v-12.75c0-2.74-1.53-5.25-3.97-6.51Z"/>
  <path class="cls-1" d="M431.58,187.84c-2.18-1.33-4.89-1.42-7.15-.26l-105.68,54.44c-2.43,1.25-3.96,3.76-3.96,6.5v12.3c0,2.74,1.53,5.25,3.96,6.5l105.68,54.44c1.05.54,2.2.81,3.35.81,1.32,0,2.64-.36,3.81-1.07,2.18-1.33,3.51-3.69,3.51-6.24v-15.72c0-2.77-1.56-5.3-4.03-6.54l-76.47-38.33,76.47-38.33c2.47-1.24,4.03-3.77,4.03-6.54v-15.71c0-2.55-1.33-4.92-3.51-6.24Z"/>
  <path class="cls-1" d="M468.61,152.69c-1.39-1.78-3.51-2.81-5.76-2.81h-15.49c-2.75,0-5.27,1.54-6.52,3.99s-1.01,5.39.6,7.62c18.37,25.26,27.3,54.1,27.3,88.17s-8.94,63.25-27.33,88.9c-1.6,2.23-1.81,5.16-.56,7.6,1.25,2.44,3.76,3.97,6.5,3.97h15.49c2.3,0,4.46-1.08,5.84-2.91,21.07-27.98,31.31-59.82,31.31-97.33s-10.56-70.52-31.39-97.2Z"/>
  <path class="cls-1" d="M311.39,304.69c-2.45-1.25-5.39-1.02-7.62.6-14.96,10.88-32.07,16.17-52.3,16.17s-37.56-5.3-52.76-16.2c-2.23-1.6-5.16-1.82-7.6-.56-2.44,1.25-3.97,3.76-3.97,6.5v9.48c0,2.3,1.08,4.46,2.91,5.84,17.64,13.28,37.68,19.74,61.28,19.74s44.4-6.67,61.24-19.81c1.78-1.39,2.81-3.51,2.81-5.76v-9.48c0-2.75-1.54-5.27-3.99-6.52Z"/>
</svg>