<?xml version="1.0" encoding="UTF-8"?>
<svg id="Ebene_1" data-name="Ebene 1" xmlns="http://www.w3.org/2000/svg" viewBox="0 0 500 500">
  <defs>
    <style>
      .cls-1 {
        fill: #fff;
      }
    </style>
  </defs>
  <path class="cls-1" d="M59.4,153.45c-1.24-2.47-3.77-4.03-6.53-4.03h-15.72c-2.3,0-4.47,1.08-5.85,2.92C10.43,180.17.19,212.06,0,249.89c0,37.43,10.25,69.12,31.33,96.89,1.38,1.82,3.54,2.89,5.82,2.89h15.72c2.74,0,5.24-1.53,6.5-3.96,1.25-2.43,1.05-5.36-.54-7.59-18.4-25.92-27.35-54.78-27.35-88.24,0-35.13,8.91-64.17,27.25-88.79,1.65-2.22,1.91-5.18.67-7.65Z"/>
  <path class="cls-1" d="M186.18,268.76l-47.15-105c-1.18-2.63-3.79-4.32-6.67-4.32h-14.12c-2.88,0-5.49,1.69-6.67,4.32l-47.15,105c-1.02,2.26-.82,4.89.53,6.97,1.35,2.08,3.66,3.34,6.14,3.34h15.94c2.92,0,5.56-1.74,6.72-4.42l31.55-73.3,31.55,73.3c1.15,2.68,3.8,4.42,6.72,4.42h15.94c2.48,0,4.79-1.26,6.14-3.34,1.35-2.08,1.55-4.71.53-6.97Z"/>
  <rect class="cls-1" x="185.86" y="324.57" width="128.51" height="26.01" rx="7.31" ry="7.31"/>
  <path class="cls-1" d="M388.66,163.76c-1.18-2.63-3.79-4.32-6.67-4.32h-14.12c-2.88,0-5.49,1.69-6.67,4.32l-47.15,105c-1.02,2.26-.82,4.89.53,6.97,1.35,2.08,3.66,3.34,6.14,3.34h15.94c2.92,0,5.56-1.74,6.72-4.42l31.55-73.3,31.55,73.3c1.15,2.68,3.8,4.42,6.72,4.42h15.94c2.48,0,4.79-1.26,6.14-3.34,1.35-2.08,1.55-4.71.53-6.97l-47.15-105Z"/>
  <path class="cls-1" d="M468.61,152.23c-1.39-1.78-3.51-2.81-5.76-2.81h-15.49c-2.75,0-5.27,1.54-6.52,3.99-1.25,2.45-1.01,5.39.6,7.62,18.37,25.26,27.3,54.1,27.3,88.17s-8.94,63.25-27.33,88.9c-1.6,2.23-1.82,5.16-.56,7.6,1.25,2.44,3.76,3.97,6.5,3.97h15.49c2.3,0,4.46-1.08,5.84-2.91,21.07-27.98,31.31-59.82,31.31-97.33s-10.56-70.52-31.39-97.2Z"/>
</svg>