<?xml version="1.0" encoding="UTF-8"?>
<svg id="Ebene_1" data-name="Ebene 1" xmlns="http://www.w3.org/2000/svg" xmlns:xlink="http://www.w3.org/1999/xlink" viewBox="0 0 500 500">
  <defs>
    <style>
      .cls-1 {
        fill: url(#Unbenannter_Verlauf_2-5);
      }

      .cls-2 {
        fill: url(#Unbenannter_Verlauf_2-3);
      }

      .cls-3 {
        fill: url(#Unbenannter_Verlauf_2-4);
      }

      .cls-4 {
        fill: url(#Unbenannter_Verlauf_2-6);
      }

      .cls-5 {
        fill: url(#Unbenannter_Verlauf_2-2);
      }

      .cls-6 {
        fill: url(#Unbenannter_Verlauf_2);
      }
    </style>
    <linearGradient id="Unbenannter_Verlauf_2" data-name="Unbenannter Verlauf 2" x1="250.5" y1="-2.08" x2="250.5" y2="497.72" gradientUnits="userSpaceOnUse">
      <stop offset="0" stop-color="#fff"/>
      <stop offset="1" stop-color="#5a339f" stop-opacity=".8"/>
    </linearGradient>
    <linearGradient id="Unbenannter_Verlauf_2-2" data-name="Unbenannter Verlauf 2" x1="495.63" y1="-2.08" x2="495.63" y2="497.72" xlink:href="#Unbenannter_Verlauf_2"/>
    <linearGradient id="Unbenannter_Verlauf_2-3" data-name="Unbenannter Verlauf 2" x1="495.68" y1="-2.08" x2="495.68" y2="497.72" xlink:href="#Unbenannter_Verlauf_2"/>
    <linearGradient id="Unbenannter_Verlauf_2-4" data-name="Unbenannter Verlauf 2" x1="495.82" y1="-2.08" x2="495.82" y2="497.72" xlink:href="#Unbenannter_Verlauf_2"/>
    <linearGradient id="Unbenannter_Verlauf_2-5" data-name="Unbenannter Verlauf 2" x1="65.41" y1="-2.08" x2="65.41" y2="497.72" xlink:href="#Unbenannter_Verlauf_2"/>
    <linearGradient id="Unbenannter_Verlauf_2-6" data-name="Unbenannter Verlauf 2" x1="28.37" y1="-2.08" x2="28.37" y2="497.72" xlink:href="#Unbenannter_Verlauf_2"/>
  </defs>
  <path class="cls-6" d="M496,297.45l-1.14-5.34-2.27-2.37-57.97-29.61c-1.87-.34-3.76.36-5.53.92-6.34,1.98-13.3,5.7-19.58,8.21-5.62,2.24-11.35,4.36-17.05,6.35,10.98-19.23,22.49-38.18,34.47-56.78.61-1.19.59-3.17-.49-4.05-23.69-11.3-47.05-23.42-71.4-33.24l30.21-20.04c.5-.43.83-.99.96-1.64.76-3.52-5.74-18.73-7.5-22.84-17.4-40.48-37.54-79.7-55.07-120.1-1.12-.44-4.08-2.74-5.06-1.37-14.72,44.36-29.83,88.62-47.86,131.69l-54.37-22.32c-.49-.63,1.18-2.92,1.6-3.61,5.15-8.33,14.69-18.53,18.58-26.9.35-.75.92-1.36.36-2.23-19.33-23.89-39.82-46.97-61.26-68.9-4.82-4.93-12.24-13.44-17.32-17.41-1.66-1.3-5.43-3.74-7.45-2.49-.53.32-4.7,6.44-5.4,7.53-4.6,7.14-9.07,14.29-13.74,21.41C90.01,95.89,48.74,159.87,5.52,222.43l-.52,2.93c.83,2.81,12.69,2.03,15.58,1.95,14.18-.39,28.36-1.12,42.56-1.57,8.07-.26,16.21-1.1,24.32-1.05l-33.35,63.58,53.36,27.6c-2.47,4.39-5.13,8.67-7.8,12.92-14.77,23.48-31.36,46.51-45.07,70.61-.52.91-1.53.62-1.45,2.71l15.24,40.7c9.26,17.05,16.33,35.11,22.93,53.36,1.68.17,3.36.31,5.04.43-6.89-17.5-14.11-34.71-21.87-52.69-5.91-13.7-10.25-28.11-16.26-41.78l.27-1.22,53.3-82.72.51-.33c33.14,16.03,66.13,32.4,99.06,48.86,9.28,18.16,19.81,35.77,29.11,53.9.93,1.82,5.62,10.87,5.31,12.12-7.12,7-12.2,15.75-18.18,23.7-10.01,13.31-20.17,26.38-30.26,39.5,2.31-.12,4.63-.29,6.93-.5l47.64-62.19c.47-1.62-1.48-5.16-2.28-6.83-3.49-7.3-8.23-14.39-12.07-21.54-6.01-11.17-11.79-22.47-17.85-33.61l82.16,43.25c4.81,1.3,3.39-2.03,4.35-4.65l25.49-40.67c.5-.01,1.9,4.76,2.16,5.6,3.16,10.37,6.11,21.33,7.97,31.94.18,1.03.38,2.25,1.12,3.02,23.08,11.83,46.43,23.39,70.17,33.85,4.18,1.84,10.13,5.34,14.47,4.09,8.89-2.56,23.57-12.3,32.51-16.93,9.6-4.97,19.67-9.34,29.06-14.71,2.46-1.41,5.6-2.71,6.83-5.29v-1.04c-.72-1.6-.74-4.32-.75-6.09-.01-5.97.16-12.07.23-18.08,0-.88-.33-2.31.52-2.85v-77.96l-.35-.63.35-.41v-1.04c-.85-.66-.85-2.98,0-3.64v-1.56ZM322.48,39.14l52.46,117.9c-5.97,4.42-12.34,8.12-18.55,12.13-2.12,1.37-10.17,7.76-11.82,7.7-21.18-8.77-42.21-17.99-63.88-25.47l41.78-112.25ZM278.66,155.57c14.5,4.7,28.89,10.51,43.03,16.38,5.39,2.24,12.14,4.84,17.2,7.5.48.25,1.22.31,1.26,1.05l-17.1,10.84c-6.49-5.61-13.51-11.43-21-15.6-6.49-3.61-14.21-7.09-21.36-9.01-1.35-.36-5.66-.49-5.57-1.97l3.52-9.2ZM225.16,272.43c1.08.21,15.71-11.23,17.96-12.82,12.31-8.68,24.95-16.92,37.23-25.66,14.85-10.56,29.13-21.94,44.29-32.06.69-.23.94.04,1.41.46.97.86,4.54,7.8,5.13,9.36,9.53,25.1-4.34,60.87-25.41,76.09-3.54,2.56-18.05,8.8-22.49,9.94-33.07,8.49-80.36-2.54-100.4-32.33-21.39-31.79-14.51-69.96,19.71-87.94,18.51-9.72,39.06-12.08,59.66-9.42-2.69,7.76-5.47,15.68-8.47,23.38-9.94,25.57-20.84,50.82-30.77,76.4-.91,2.12.53,3.48,2.15,4.61ZM273.5,169.84c17.28,2.62,33.93,12.33,46.16,24.69l-75.35,53.54,29.19-78.23ZM28.24,199.22v-.52c.33.17.33.35,0,.52ZM65.92,212.21h-1.02v-.51h1.02v.51ZM85.15,205.98c-9.75.77-18.65.54-28.22,1.01-4.9.24-10.14,1.4-15.1,1.58l14.95-25.12c17.9-31.34,34.07-63.77,51.6-95.29,6.35-11.42,14.55-22.28,20.99-33.81,3.32-5.94,5.97-12.23,9.25-18.17,5.03-9.11,11.27-17.71,15.47-27.2.43-.41,2.46,1.84,2.87,2.27,13.86,14.44,28.08,28.6,41.47,43.46,10.95,12.15,21.42,24.79,31.8,37.43v1.03s-21.65,28.62-21.65,28.62c-1.6.32-13.19-4.4-15.67-5.36-10.9-4.21-22.18-10.05-33.07-13.77-1.6-.55-3.64-1.67-5.24-.91-1.25.59-4.82,6.66-5.74,8.23-10.31,17.56-18.89,36.29-28.53,54.23-7.33,13.65-15.4,26.88-22.35,40.75-1.15.85-10.58.82-12.85,1ZM203.21,129.74c-5.03,7.84-11.7,16.48-17.35,23.99-12.22,16.26-25.28,31.91-37.91,47.84l-44.09,3.37,53.31-98,48.18,18.49c.58.69-1.63,3.52-2.14,4.32ZM205.86,358.78l-91.24-44.7,37.17-57.69c11.9,23.98,23.51,48.18,36.56,71.55,4.91,8.79,13.36,20.15,17.11,28.91.28.65.53,1.19.4,1.93ZM301.42,408.2c-29.43-14.2-58.01-30.14-86.85-45.5-22.06-36.02-41.78-73.43-59.96-111.62-1.11-1.21-3.02-1.99-4.63-1.18-14.47,19.65-26.03,41.36-39.77,61.55-9.07-4.54-18.53-8.41-27.56-13.02-1.47-.76-2.68-1.88-4.09-2.61-2.37-1.24-18.03-8.84-18.24-10.11l32.87-61.41,48.36-1.12c.95-.02,1.83-.48,2.6-.49,3.3-.05,8.07,1.84,10.99-.81,19.57-30.68,37.91-62.16,57.91-92.55l55.87,21.59-4.65,12.98c-13.29-1.77-28.4-1.57-41.59,1.21-15.06,3.17-38.74,16.48-46.63,30.16-19.66,34.1-5.53,73.25,25.56,93.8,25.36,16.77,72.43,20.73,99.44,6.42,24.66-13.06,39.14-44.27,37.01-72.01-.73-9.59-4.07-16.59-9.09-24.51l21.29-14.69c24.01,10.43,47.96,21.25,70.9,33.94l-36.92,60.79c-17.59,6.56-35.03,13.86-52.89,19.65-2.89.94-11.64,2.48-13.14,4.35-.45.55-.92,1.68-.94,2.42l12.65,56.72-28.49,46.08ZM328.38,308.37l47.67-16.63-38.44,58.72-9.23-42.09ZM487.82,308.13c-.45,16.85-1.05,33.65-1.55,50.4-.49,16.35-.61,32.71-2.14,49.03l-57.59,31.75c-23.9-11.75-48.75-21.31-72.77-32.73-5.58-15.8-9.61-32-14.02-48.19v-1.81s44.74-68.5,44.74-68.5l49.22-19.01c18.18,8.75,36.53,17.25,53.96,27.47.43.51.19,10,.15,11.58Z"/>
  <path class="cls-5" d="M496,409.72c-.72-1.6-.74-4.32-.75-6.09-.01-5.97.16-12.07.23-18.08,0-.88-.33-2.31.52-2.85v27.03Z"/>
  <path class="cls-2" d="M496,302.65c-.85-.66-.85-2.98,0-3.64v3.64Z"/>
  <polygon class="cls-3" points="496 304.73 495.65 304.1 496 303.69 496 304.73"/>
  <rect class="cls-1" x="64.9" y="211.7" width="1.02" height=".51"/>
  <path class="cls-4" d="M28.24,198.7c.33.17.33.35,0,.52v-.52Z"/>
</svg>