<?xml version="1.0" encoding="UTF-8"?>
<svg id="Ebene_1" data-name="Ebene 1" xmlns="http://www.w3.org/2000/svg" xmlns:xlink="http://www.w3.org/1999/xlink" viewBox="0 0 500 500">
  <defs>
    <style>
      .cls-1 {
        fill: url(#Unbenannter_Verlauf_2-18);
      }

      .cls-2 {
        fill: url(#Unbenannter_Verlauf_2-10);
      }

      .cls-3 {
        fill: url(#Unbenannter_Verlauf_2-5);
      }

      .cls-4 {
        fill: url(#Unbenannter_Verlauf_2-3);
      }

      .cls-5 {
        fill: url(#Unbenannter_Verlauf_2-4);
      }

      .cls-6 {
        fill: url(#Unbenannter_Verlauf_2-9);
      }

      .cls-7 {
        fill: url(#Unbenannter_Verlauf_2-12);
      }

      .cls-8 {
        fill: url(#Unbenannter_Verlauf_2-7);
      }

      .cls-9 {
        fill: url(#Unbenannter_Verlauf_2-6);
      }

      .cls-10 {
        fill: url(#Unbenannter_Verlauf_2-15);
      }

      .cls-11 {
        fill: url(#Unbenannter_Verlauf_2-8);
      }

      .cls-12 {
        fill: url(#Unbenannter_Verlauf_2-13);
      }

      .cls-13 {
        fill: url(#Unbenannter_Verlauf_2-14);
      }

      .cls-14 {
        fill: url(#Unbenannter_Verlauf_2-16);
      }

      .cls-15 {
        fill: url(#Unbenannter_Verlauf_2-2);
      }

      .cls-16 {
        fill: url(#Unbenannter_Verlauf_2-17);
      }

      .cls-17 {
        fill: url(#Unbenannter_Verlauf_2-11);
      }

      .cls-18 {
        fill: url(#Unbenannter_Verlauf_2);
      }
    </style>
    <linearGradient id="Unbenannter_Verlauf_2" data-name="Unbenannter Verlauf 2" x1="313.26" y1="128.74" x2="553.4" y2="368.88" gradientUnits="userSpaceOnUse">
      <stop offset="0" stop-color="#fff"/>
      <stop offset="1" stop-color="#5a339f" stop-opacity=".8"/>
    </linearGradient>
    <linearGradient id="Unbenannter_Verlauf_2-2" data-name="Unbenannter Verlauf 2" x1="342.25" y1="139.35" x2="575.87" y2="372.97" xlink:href="#Unbenannter_Verlauf_2"/>
    <linearGradient id="Unbenannter_Verlauf_2-3" data-name="Unbenannter Verlauf 2" x1="154.4" y1="140.21" x2="385.02" y2="370.83" xlink:href="#Unbenannter_Verlauf_2"/>
    <linearGradient id="Unbenannter_Verlauf_2-4" data-name="Unbenannter Verlauf 2" x1="126.66" y1="136.11" x2="360.5" y2="369.95" xlink:href="#Unbenannter_Verlauf_2"/>
    <linearGradient id="Unbenannter_Verlauf_2-5" data-name="Unbenannter Verlauf 2" x1="289.39" y1="135.62" x2="524.27" y2="370.49" xlink:href="#Unbenannter_Verlauf_2"/>
    <linearGradient id="Unbenannter_Verlauf_2-6" data-name="Unbenannter Verlauf 2" x1="269.57" y1="146.48" x2="492.99" y2="369.9" xlink:href="#Unbenannter_Verlauf_2"/>
    <linearGradient id="Unbenannter_Verlauf_2-7" data-name="Unbenannter Verlauf 2" x1="366.74" y1="135.03" x2="597.01" y2="365.3" xlink:href="#Unbenannter_Verlauf_2"/>
    <linearGradient id="Unbenannter_Verlauf_2-8" data-name="Unbenannter Verlauf 2" x1="185.44" y1="139.28" x2="414.15" y2="368" xlink:href="#Unbenannter_Verlauf_2"/>
    <linearGradient id="Unbenannter_Verlauf_2-9" data-name="Unbenannter Verlauf 2" x1="214.54" y1="137.82" x2="439.32" y2="362.6" xlink:href="#Unbenannter_Verlauf_2"/>
    <linearGradient id="Unbenannter_Verlauf_2-10" data-name="Unbenannter Verlauf 2" x1="242.51" y1="142.2" x2="466.84" y2="366.53" xlink:href="#Unbenannter_Verlauf_2"/>
    <linearGradient id="Unbenannter_Verlauf_2-11" data-name="Unbenannter Verlauf 2" x1="345.89" y1="466.62" x2="346.39" y2="467.12" xlink:href="#Unbenannter_Verlauf_2"/>
    <linearGradient id="Unbenannter_Verlauf_2-12" data-name="Unbenannter Verlauf 2" x1="96.72" y1="135.09" x2="330.11" y2="368.48" xlink:href="#Unbenannter_Verlauf_2"/>
    <linearGradient id="Unbenannter_Verlauf_2-13" data-name="Unbenannter Verlauf 2" x1="69.57" y1="137.87" x2="296.24" y2="364.54" xlink:href="#Unbenannter_Verlauf_2"/>
    <linearGradient id="Unbenannter_Verlauf_2-14" data-name="Unbenannter Verlauf 2" x1="4.53" y1="139.98" x2="234.89" y2="370.33" xlink:href="#Unbenannter_Verlauf_2"/>
    <linearGradient id="Unbenannter_Verlauf_2-15" data-name="Unbenannter Verlauf 2" x1="38.81" y1="141.68" x2="261.98" y2="364.86" xlink:href="#Unbenannter_Verlauf_2"/>
    <linearGradient id="Unbenannter_Verlauf_2-16" data-name="Unbenannter Verlauf 2" x1="-100.5" y1="137.44" x2="135.8" y2="373.74" xlink:href="#Unbenannter_Verlauf_2"/>
    <linearGradient id="Unbenannter_Verlauf_2-17" data-name="Unbenannter Verlauf 2" x1="-63.74" y1="132.68" x2="168.89" y2="365.31" xlink:href="#Unbenannter_Verlauf_2"/>
    <linearGradient id="Unbenannter_Verlauf_2-18" data-name="Unbenannter Verlauf 2" x1="-32.09" y1="140.05" x2="201.35" y2="373.5" xlink:href="#Unbenannter_Verlauf_2"/>
  </defs>
  <path class="cls-18" d="M433.65,71.13c.57,10.51,1.79,21.2,2.21,31.71,1.63,41.65-1.98,84.97-2.94,126.79-1.27,55.2.67,108.27,2.98,163.32.09,1.96-.72,3.86-.76,5.73-.71,29.01-1.36,57.54-1.2,86.31,1.23-.53,2.49-.6,3.69-.32-.19-28.5.47-56.68,1.2-85.99.8-31.8-2.03-58.22-2.99-89.29-2.71-87.34,7.73-171.99.77-260.35-.97-12.37-3.15-24.68-4.43-36.99h-2.21s3.68,45.64,3.68,45.64c.2,4.46-.23,8.99.01,13.43Z"/>
  <path class="cls-15" d="M456.54,286.29c1.12,63.17,6.63,126.08,2.21,189.23-.46,3.75-.76,7.5-.94,11.24,1.32-.05,2.63.07,3.91.36.55-29.01,3.77-58.46,2.97-87.52-.4-14.69-2.36-29.5-2.98-44.15-1.11-26.4-1.03-53.24-1.49-79.71-.84-48.63,3.14-97.43.74-146-.83-16.75-3.29-33.02-2.94-49.95.36-17.28,3-35.55,1.5-52.87-.12-1.44-.15-2.96-1.5-3.32l-2.99,45.58c-.74,22.62,1.39,44.77,2.25,67.27,1.91,49.97-1.63,99.76-.74,149.84Z"/>
  <path class="cls-4" d="M265.22,271.85c-2.7,54.36,4.37,112.24.74,167.21.78,12.01,1.18,24.44,1.5,36.47.08,3.1.18,6.21.27,9.33,1.21-.11,2.42-.24,3.63-.37-1.55-56.05-1.89-112.36-2.45-168.37-.14-13.66-.72-29.92,0-43.3.88-16.45,2.86-29.64,2.28-47.07-1.07-32.21-2.91-62.4-2.28-95.09.65-33.84,4.24-67.82,2.28-101.82-.1-1.72.21-3.11-1.14-4.26-1.33,1.39-1.67,3.14-1.86,5.25-1.35,15.19.66,34.2.05,50.01-1.46,37.6-4.18,75.36-3.02,113.34.48,15.62,3.07,32.44,2.84,47.99-.15,10.24-2.34,20.63-2.84,30.7Z"/>
  <path class="cls-5" d="M239.4,214.26c1.2,77.41-.7,154.86,1.51,232.48l-.8,38.42c.03.34.04.68.07,1.03,1.48-.14,2.97-.26,4.45-.36-.02-.87-.03-1.75-.06-2.62-.4-15.2-.28-29.87-.03-45.19.57-34.73-.34-66.18-1.45-100.81-.99-30.85,1.37-59.72.71-90.26-.67-30.93-2.68-62.3-1.48-93.25,1.5-38.55,4.47-77.45,5.23-116.14.12-6.15.72-15.09-2.62-19.73l-3.35,59.03.03,38.46c-3.75,32.99-2.73,65.89-2.22,98.95ZM245.68,34.15c.48.32.48.64,0,.96v-.96Z"/>
  <path class="cls-3" d="M401.82,131.64c.14,11.94,2.6,25.34,3.05,37.42.62,16.57-.12,34.26-.06,50.99.27,77.62,1.66,155.71,2.28,233.33.08,10.02,0,20.2-.12,30.45.55.18,1.09.35,1.62.49.72-.14,1.45-.24,2.17-.32l.02-30.61-.8-6.64-.74-37.46.8-78.85c-4.1-52.1.35-104.28-1.48-156.57-.74-21.25-3.05-37.39-2.24-59.51.33-8.98,0-15.42-.04-23.98-.08-17.77,2.11-51.18-.34-66.82-.87-5.54-2.4-2.79-2.63,1.41-1.5,27.6.82,56.15.07,83.66-.19,7-1.65,16.19-1.57,23.01Z"/>
  <path class="cls-9" d="M377.55,482.07c1.04-.02,2.04.08,3.03.23-.82-12.77-2.07-25.82-2.37-38.44-.45-18.66.76-35.54,1.51-53.83,2.36-57.66-3.03-115.43,4.46-172.85v-59.63l-1.54-25.85v-65.4c1.33-6.92.5-14.04.78-21.08.1-2.61,1.64-9.86,1.47-11.52-.02-.21-1.07-1.91-1.48-.99-1.02,1.49-1.45,3.42-1.86,5.28-5.15,23.45-1.48,80.56-1.1,107.12.55,38.8-.37,69.05-2.95,107.58-2.56,38.19,1.04,72.56.03,109.54-.41,14.99-2.51,30.13-3.02,45.06-.85,24.84.96,49.96,2.24,74.85.26-.03.52-.05.79-.06Z"/>
  <path class="cls-8" d="M477.96,92.26c1.21,29.67,4.24,59.54,5.2,89.29,1.41,43.58-6.83,88.71-4.46,132.59.85,15.71,3.14,32.38,3.72,47.99,1.4,37.55-5.94,74.93-1.47,112.38.08,1.82.13,3.63.17,5.45.78-.99,1.86-1.65,3.09-1.86-.33-8.54-.74-17.07-1.07-25.64-1.1-28.22,3.95-58.49,2.98-87.45-.55-16.36-2.71-32.67-3.72-48.95-2.7-43.26,5.83-89.03,4.46-132.59-.94-30.05-4.06-60.24-5.24-90.2-.91-23.02,2.98-46.61,1.52-69.21-.08-1.3-.36-3.41-1.11-4.31-3.09,3.22-2.6,8.35-2.58,12.96.05,19.62-2.28,39.72-1.48,59.55Z"/>
  <path class="cls-11" d="M297.71,481.91c1.21-.46,2.46-.84,3.71-1.19-.19-48.15-5.23-96.34-2.97-144.53.41-8.8,2.53-18.11,2.98-26.86,1.63-31.84-2.79-65.23-3.72-96.97-1.31-44.8,4.25-89.73,5.23-134.47.3-13.57,1.15-35.24-.01-48.09-.19-2.11-.56-3.84-1.87-5.25-1.67-.4-1.02.95-1.1,2.38-1.83,32.86-.06,68.61-2.22,101.82-7.4,50.78-.85,100.35.04,150.77.37,21.01-2.09,36.85-3.02,56.67-2.28,48.57,2.91,97.16,2.95,145.71Z"/>
  <path class="cls-6" d="M323.22,475.27c1.27-.42,2.58-.63,3.93-.5-.17-9.35-.37-18.69-.62-28.03-.94-34.42-1.96-68.3-2.15-102.86-.32-58.02,6.09-116.42,1.41-174.82,1.21-34.46,3.89-69.17,4.49-103.66.2-11.16.91-27.9,0-38.5-.12-1.44-.15-2.96-1.5-3.32-.22,3.61-1.27,7.5-1.48,11.06-1.06,18.29-.78,38.16-1.48,56.67-1.64,43.1-2.78,82.62-2.22,125.82.41,31.37-.99,58.15-2.95,89.34-1.71,27.09-.11,60.8.73,88.37.81,26.79,1.29,53.61,1.84,80.43Z"/>
  <path class="cls-2" d="M350.65,477c1.47.1,2.8.78,3.94,1.78-.57-39.21-1.06-78.44-3.71-117.53,9-83.01.43-166.6,7.46-249.73-1.65-25.29,1.47-52.8-.98-77.58-.15-1.56-.1-5.44-2-4.58.53,16.53-.96,32.98-.78,49.51.36,33.12-1.25,64-2.19,96.96-1.34,46.97.34,94.12-1.48,141.2-.81,20.97-3.61,37.73-2.94,59.55,1.02,33.43,1.87,66.92,2.68,100.42Z"/>
  <path class="cls-17" d="M346.12,466.39v.96c.48-.32.48-.64,0-.96Z"/>
  <path class="cls-7" d="M211.33,188.31c-3.49,97.68,3.15,196.05-.39,293.91,1.5.14,2.87.6,4.14,1.28,1.18-7.37.51-14.94.65-22.43.81-42-.63-83.76-.74-125.83-.13-49.24-1.45-98.47.07-147.84.6-19.56-2.39-39.31-1.54-58.68.63-14.27,3.16-27.38,2.98-42.22-.15-12.69-.18-24.79,0-37.47.14-9.88-.42-19.68-2.22-29.29h-2.2c1.06,15.13.8,30.43.77,45.67-.02,10.33.44,21.27,0,31.7-.42,9.99-2.57,20.72-3.02,30.65-.89,19.86,2.22,40.42,1.5,60.55Z"/>
  <path class="cls-12" d="M179.34,476.74c1.31.22,2.59.51,3.8.89.05-10.65.09-21.29.09-31.93,0-22.36-2.01-41.45-2.91-63.36-1.61-38.83,5.3-84.24,4.46-123.86-.11-3.53.09-7.08-.04-10.6-.46-13.35-2.65-26.88-2.98-40.3-.33-13.23.47-27.95.74-41.39.7-34.56,2.59-69.12,3.76-103.66.36-10.58.09-24.12-.74-34.67-.13-1.67.18-3.15-1.15-4.26-1.79-.59-1.24,5.19-1.16,6.31.16,2.29,2.11.4,1.53,3.28l-2.2-.96.02,30.3c-8.51,98.8,1.7,197.8-5.97,296.72,1.17,39.19,3.41,78.29,2.75,117.49ZM184.38,27.43v-.96c.48.32.48.64,0,.96ZM184.02,37.04h.72v1.91h-.72v-1.91Z"/>
  <path class="cls-13" d="M116.94,487.17c.58-.22,1.16-.42,1.74-.62-.19-3.02-.36-6.04-.43-9.06-1.75-72.13,13.51-143.96,7.39-216.2l2.98-39.35c-.07-8.01.1-16.04.04-24.05-.3-40.27-2.6-80.71-2.95-120.94-.13-15.14.87-32.39-.01-47.15-.33-5.59-3.11-13.32-3.73-3.82-.91,13.91.04,30.9.04,45.19,0,51.49,4.1,103.72,2.22,155.61-.48,13.32-2.7,26.9-3.01,40.26-.67,28.34,4.16,58.45-1.44,87.46.42,30.55-5.16,60.96-5.91,91.25-.34,13.83.63,28.01,1.22,42.08.62-.22,1.25-.43,1.86-.66ZM123.46,24.55h.72v1.91h-.72v-1.91ZM123.46,28.39h.72v1.91h-.72v-1.91ZM122.71,36.08h1.47v1.91h-1.47v-1.91ZM124.18,63.92h-.72v-2.87h.72v2.87ZM124.03,43.48l-1.32-3.55c3.76.25,1.77,7.36,2.21,10.55l-.89-7Z"/>
  <path class="cls-10" d="M146.74,479.52c1.29-1.29,2.58-2.57,4.09-3.52.08-6.28.27-12.55.65-18.78,1.25-20.23,5.85-40.19,6.71-60.43.9-21.29-.96-43.79-.8-65.4.17-23.13,1.76-46.86.8-70.12-.6-14.62-3.21-30.32-3.76-45.06-1.67-45.33,2.93-93.54,0-139.36,1.26-16.41,2.2-33.16.02-49.42-1.14-1.2-1.33.03-1.47,1.42-.57,5.81.26,13.11,0,19.22-1.95,44.8-1.93,89.52-2.24,134.44-.2,29.29,2.67,54.25,3.76,82.61,1.26,33.01-.87,70.07-.8,103.82,0,5.21.91,10.54.8,16.32-.47,25.16-6.41,49.71-7.41,74.89-.26,6.43-.34,12.89-.34,19.37ZM152.62,81.22v-.96c.48.32.48.64,0,.96ZM153.72,66.81h-.72v-1.91h.72v1.91ZM153.72,62.96h-.72v-1.91h.72v1.91ZM153.74,32.24h.72v6.71h-.72v-6.71Z"/>
  <path class="cls-14" d="M19.33,490.22c-.15-17.31-1.33-35.12-.78-52.2.54-16.7,2.47-32.87,2.28-49.95-.13-11.69-1.39-23.62-.76-35.49.54-10.26,3.2-20.44,3.72-30.7,2.37-47.22-3-97.57-.8-145.12.31-6.74,1.94-14.29,2.24-21.1.71-16.09-2.43-30.43-3.69-46.1-1.68-20.92-3.37-48.42-2.99-69.2.06-3.07,2.06-19.86,1.5-20.61l-2.91.05c-4.25,23.79-1.54,48.42-.05,72.47,1.31,21.17,4.67,45.51,3.69,66.26-.33,7.04-1.94,14.92-2.24,22.06-.39,9.19.74,18.21.8,26.9.24,35.89,1.71,77.13,0,112.46-.51,10.58-3.19,21.07-3.72,31.66-.84,16.99,1.23,34.62.76,51.9-.31,11.43-1.91,23.09-2.28,34.5-.55,16.74-.38,34.43-.19,52.08,1.62.76,3.48.64,5.4.12Z"/>
  <path class="cls-16" d="M45.32,484.08c1.29.25,2.57.58,3.83.96.14-21.88.44-43.77-.31-66.19-.89-26.91,2.66-41.07,5.68-66.58,5.78-48.76,2.59-101.21,3.18-150.51.22-18.58-2.99-36.33-3.72-54.7-.76-19.19.34-44.2,1.51-63.43.6-9.87,2.91-21.01,2.98-30.79.05-6.91-1.55-15.95-1.55-23.01,0-5.51,1.19-11.73,1.53-17.28-2.1-2.2-3.62,2.77-4.2,5.11-2.68,10.81.25,25.54-.21,37.19-1.19,29.84-5.83,60.11-4.46,90.24.59,13.08,3.2,26.21,3.72,39.35,1.15,29.28-1.63,60.66.74,90.37.09,1.95-.72,3.86-.76,5.73-.51,21.21-.11,43.09-2.43,64.07-1.6,14.47-5.02,29.19-6.35,43.62-1.6,17.42.11,36,.66,53.67.44,14.16.35,28.18.16,42.19Z"/>
  <path class="cls-1" d="M83.54,476.44c.72-16.13,4.55-32.84,5.23-48.91,1.36-31.7-.44-64.44-.8-96.05-.25-22.04,3.33-35.41,5.11-55.87,2.78-31.95-5.16-66.49-1.35-98.78.22-41.64-.18-83.17-1.54-124.87-.28-8.52.62-18.92.03-26.95-.22-3.01-.39-5.07-2.95-4.32-.09,5.83-1.15,12.14-1.21,17.94-.12,11.47,1.46,24.41,1.67,36.17,1.07,58.93-3.11,118.86,1.74,177.87.38,25.99-6.28,48.71-5.93,74.96.43,32.48,2.33,66.39.8,98.94-.73,15.65-4.51,31.28-5.23,46.98-.28,6.02-.32,12-.21,17.96h4.45c-.08-4.94-.04-9.95.19-15.08ZM88.37,43.76v-.96c.48.32.48.64,0,.96Z"/>
</svg>