<?xml version="1.0" encoding="UTF-8"?>
<svg id="Ebene_1" data-name="Ebene 1" xmlns="http://www.w3.org/2000/svg" viewBox="0 0 1424.45 450.38">
  <defs>
    <style>
      .cls-1 {
        fill: #fff;
      }

      .cls-2 {
        fill: #5a339f;
        stroke: #5a339f;
        stroke-miterlimit: 10;
      }
    </style>
  </defs>
  <g>
    <path class="cls-1" d="M169.43,239.38c-.97-4.17,12.49-18.99,12.31-21.79-.11-1.62-14.67-7.11-17.07-12.52l9.44-10.86c1.35-1.22,1.94-2.84,1.42-4.62-.54-1.86-16.08-9.23-19.17-10.65-1.94-.89-5.56-1.07-5.8-1.24-1.25-.9,14.34-26.46,12.52-28.16-1.58-1.47-17.26,1.1-20.33,3.13l-2.34-64.19c-3.12-3.17-1.64-.99-2.71.43-5.3,7.01-7.47,13.74-11.36,21.54l-5.51,7.78-6.28-72-4.78.94c-4.08,14.8-6.05,32.38-10.94,46.74-.58,1.71-.72,3.74-3.05,3.98-4.18-30.2-19.02-57.94-28.17-86.89-3.69-3.4-4.51,5.06-4.74,7.82-1.15,14.03-1.16,29.8-1.56,43.83-.43,15.1.8,29.72,1.58,44.63-2.23.37-2.17-2.73-2.66-4.35-6.47-21.42-10.1-45.85-25.49-62.94.27,9.64-.37,19.38-.09,29.03,1.32,45.24,8.41,91.82,4.79,137.68-.12,1.56-1.31,9.72-1.63,10.12-.54.67-13.97-.4-17.07,1.71-1.98,22.04-2.12,44.29-1.75,66.48.79,47.33,3.79,95.15,6.41,142.28.3,5.4-1.95,10.76-1.73,14.16.47,7.31,13.03,2.22,18.09,2.23,10.22.02,20.36,2.32,31.33,1.71,11.57-.64,24.52-3.97,35.95-4.74,8.98-.61,32.1,2.97,36.47-5.79,3.23-6.5,2.34-31.74,1.98-40.43-.22-5.36-3.13-11.57-1.41-16.93,1.45-4.51,20.71-7.25,21.61-11.32.97-4.35-8.37-8.56-7.83-13.87.66-6.37,17.47-17.34,13.46-22.82-1.12-1.54-6.72-3.19-6.83-5.39-.26-5,13.66-17.91,13.43-21.97-.12-2.18-9.07-7.12-9.12-10.93-.05-3.39,4.88-4.18,7.09-7.07,7.15-9.32-5.34-10.78-5.45-16.36-.11-5.96,10.91-14.61,11-18.8.02-.85-13.49-7.22-14.03-9.56Z"/>
    <path class="cls-1" d="M526.04,291.06c-.41-.59-10.82-6.34-12.57-6.99-4.04-1.5-11.95-3.47-16.25-4.1-2.12-.31-8.1.18-8.48-.14-.52-.44,6.84-10.98,4.7-12.51-2.62-1.87-15.1-1.02-15.65-1.58-.46-.46,1.53-10.93,1.94-12.92.55-2.71,4.93-9.26.31-10.52-3.41-.93-15.99,6.44-17.85,4.63-1.87-1.83-4.07-27.73-1.59-32.03-.07-6.5,1.92-11.49-5.54-7.11-2,1.18-15.74,13.36-16.39,12.56l-9.41-57.91c-2.72-.54-3.17.67-4.36,2.68-2.25,3.82-3.5,10.17-5.75,14.6-2.47,4.88-6.47,11.89-10.23,15.58-1.53-22.25-12.05-42.38-15.67-64.18-3.63-.34-2.58-.29-3.25,2.2-2.55,9.49-3.44,19.97-6.56,29.47l-4.26,10.6c-5.29-21.97-19.72-40.05-31.03-58.98-7.03-11.77-12.76-24.6-20.64-35.72l-2.97,1.73,8.95,185.78c-14.97.17-30.16,1.7-45.81,5.89-4.97,1.33-13.77,4.27-17.32,7.72-3.98,3.86-8.59,21.49-8.72,27.39-.09,4.23,1.63,7.48,1.71,10.95.77,29.98.87,57.78,3.13,87.65.92,12.1-4.45,20.91,11.7,21.28,6.5.15,11.82-3.2,17.28-3.35,3.7-.1,6.97,1.64,10.83,1.73,46.79,1.09,95.58-4.4,142.49-6.36,19.97-.84,43.45,2.11,62.69.08,9.83-1.04,12.12-5.8,13.12-15.06,2.53-23.45,1.63-49.75,1.62-73.35,0-5.56.95-38.1-.19-39.73Z"/>
    <path class="cls-1" d="M1404.48,263.63c-.55-10.75.91-22.32.1-32.97-.19-2.49-1.23-10.36-1.83-12.26-1.61-5.12-16.37-5.26-18.23-7.6-4.08-5.14.22-25.41-3.45-29.42-1.32-1.44-9.82,5.05-11.71,6.29-1.37.89-1.74,2.64-3.18,0-3.95-7.23-4.79-33.01-8.59-37.59-2.18-2.63-2.74.81-3.45,2.02-3.92,6.72-6.5,14.36-10.04,21.27-.82,1.6-1.76,5.04-3.71,4.88-1.03-10.21-6.17-19.35-9.44-28.91-3.24-9.46-5.75-21.05-9.23-29.9-.69-1.76-1.54-4.35-4.02-3.79-5.47,1.23-9.59,45.23-8.76,52.29l-2.98,10.31c-1.78-17.08-11.16-31.42-18.5-46.46l-7.32-9.87c-4.63,2.16-3.55,21.05-3.9,25.84-.2,2.67-1.47,5.12-1.61,7.78-.47,8.56.4,17.29.01,25.85-4.76-2.71-4.48-8.71-7.8-13.32-3.58-4.96-10.73-11.29-17.23-10.15,1.08,12.41,2.98,25.29,1.55,37.55l-4.04-10.82c-.35-2.78-10.05-11.25-11.61-9.52-.81.9,0,20.63,0,24.26,0,.22-2.37,2.69-3.1,3.04-2.7,1.32-13.88-2.32-14.09,1.64-.14,2.7,7.43,14.21,4.67,19.58h-30.52c-.57,0-2.68,2.37-2.34,3.9.23,1.02,5.03,4.55,6.27,6.26,3.27,4.5,7.12,9.19,10.08,13.4,8.3,11.82-12.69,14.61-19.55,17.86-3.09,1.46-7.63,4.61-10.51,6.69-1.08.78-2.48-.16-2.02,2.75,1.11,6.94,15.75,10.78,21.21,14.87,1.74,1.31,8.91,8.23,8.52,10.01-1.38,6.12-21.45,13.54-26.45,17.47-1.37,1.08-3.68,2.61-3.2,4.6.99,4.11,20.35,9.41,24.96,12.63,2.47,1.73,14.14,13.57,14.13,15.58,0,3.59-19.92,5.87-18.74,13.28,4.49,1.84,25.75,8.42,27.48,10.9,2.53,3.62-2.28,5.6-1.77,7.92,1.19,5.46,7.61,4.13,8.55,7.19,1.15,3.77-.75,20,.17,20.96.31.33,5.38,0,6.89-.16,31.14-3.39,62.81-17.29,94.22-20.05,7.75-.68,15.62.37,23.35-.12,6.77-.43,17.05-3.22,23.45-3.22,6.43,0,16.76,2.86,23.5,3.27,11.92.73,4.94-14.17,8.66-22.69,2.27-34.74-3.08-69-4.84-103.3Z"/>
    <path class="cls-1" d="M879.79,198.79c-4.22-5.11-2.01,9.25-4.68,7.82.22-3.82-4.63-5.31-7.83-6.27l4.68-4.66c-8.45-4.34-18.2-4.02-27.37-6.3l-50.89.02c-.7-.67,6.85-16.46,4.69-18.77-1.68-1.79-16.13,9.08-17.21,7.82-1.28-1.5-1.4-12.99-1.95-16.06-.45-2.53-3.5-16.83-5.1-16.79-1.31.03-6.48,15.26-8.28,18.3-.67,1.14-1.42,4.86-3.46,2.03-.56-.78-2.9-15.34-3.91-18.8-3.59-12.32-7.29-25.02-11.33-37.19-5.21-15.69-6.56-9.23-8.27,3.52-2.23,16.64-1.76,34.83-3.07,51.71-.19,2.48-1.17,4.63-1.61,7l-10.16-20.32-3.9,15.62c.28-5.08-16.98-23.98-20.36-20.33-1.78,1.92,3.86,21.64,4.55,25.96.69,4.32.02,8.91,1.7,13.16-4.21-2.85-5.72-8.07-9.33-11.79-3.38-3.48-9.49-8.68-8.7-.73.25,2.49,2.86,13.49,2.38,14.08-.89,1.11-14.6-17.74-16.95-6.84-.9,4.17,8.06,14.23,6.01,16.23-20.75,2.7-44.87,3.37-64.16,11.76-16.15,7.03-12.35,20.21-14.08,34.44-2.4,19.81-5.65,39.49-6.36,59.38-.22,6.24-.86,35.14.83,38.44,2.79,5.47,12.78,4.9,18.02,4.68-.63,1.92-7.98,4.96-4.7,7.81,1.92,1.67,43.81-.21,50.95-.07,55.84,1.07,106.89-1.27,162.69-3.08,7.86-.26,38.55,1.55,42.73-1.88,1.52-1.25,6.18-15.36,7.38-15.32,2.99.09-.73,12.67-1.19,14.54-.62,2.52-1.53,3.11,1.96,4.25.94-5.24,2.66-11.17,3.16-16.41,4.18-43.35,14.45-75.15,5.05-119.35-.71-3.32-1.38-16.94-1.95-17.62Z"/>
    <path class="cls-1" d="M1112.06,163.29c-1.79-1.17-4.76-1.49-5.2-1.82-3.19-2.39,1.06-2.68,2.23-3.21,3.97-1.79,22.81-5.47,22.79-8.51,0-1.25-5.59-4.53-7.2-5.3-5.08-2.41-13.59-5.76-18.98-7.63-6.09-2.11-12.95-3.3-19.2-5.08-1.36-.95,6.8-18.01,7.9-21.05.98-2.73,6.96-20.4,6.19-21.19-2.86-2.93-17.67,14.21-20.34,16.43-7.04,5.87-3.98-.85-5.09-7.44-2.12-12.67-3.27-15.3-14.9-19.53-17.4-6.34-37.67-7.56-56.08-9.66-14.92-1.7-32.24-4.18-46.83-4.92-2.05-.1-12,1.18-13.02,1.89-4.49,3.12-3.57,38.76-3.41,45.95.49,21.84.08,45.45,1.56,67.31.13,1.95,2.35,8.03,1.61,8.57-1.81,1.31-14.92.76-17.28,2.3-1.63,1.06-7.44,13.7-6.2,14.93.83.83,19.99-.61,23.48,0,.46,16.93-.59,34-.07,50.94.65,21.31,1.64,44.32,4.92,65.51.66,4.25,3.83,22.02,5.34,24.39,3.91,6.12,15.12,1.75,20.31,1.56,22.11-.81,51.29,2.32,73.61,4.7,6.12.65,17.21,5.54,22.02,1.7,4.09-3.26,1.65-14.3,2.2-19.7,1.98-19.49,8.46-38.91,7.86-58.67,1.86.17,2.7,2.12,3.44,3.59,3.11,6.17,6.05,15.8,9.9,21.4,4.64,6.74,6.48,2.13,7.04-3.82.3-3.22.25-7.76-.03-11.01-.4-4.77-7.27-27.77-6.26-28.94,1.46-1.7,27.2,16.81,31.21,18.11,2.17.7,3.87.71,4.64-1.85,1.08-3.61-6.9-32.27-8.8-37.84-1.48-4.35-14.34-28.76-12.97-30.07,2.04-1.94,30.56,7.48,36.39,8.25,1.93.25,2.04,2.06,4.28-1.2-11.53-18.99-17.61-36.4-37.03-49.07Z"/>
  </g>
  <g>
    <path class="cls-2" d="M95.8,97.87c2.33-.24,2.47-2.27,3.05-3.98,4.89-14.36,6.86-31.94,10.94-46.74l4.78-.94,6.28,72,5.51-7.78c3.89-7.81,6.06-14.54,11.36-21.54,1.08-1.42-.41-3.6,2.71-.43l2.34,64.19c3.07-2.02,18.76-4.6,20.33-3.13,1.82,1.7-13.77,27.26-12.52,28.16.24.17,3.86.35,5.8,1.24,3.09,1.42,18.63,8.79,19.17,10.65.52,1.78-.07,3.4-1.42,4.62l-9.44,10.86c2.4,5.41,16.97,10.9,17.07,12.52.18,2.8-13.28,17.63-12.31,21.79.54,2.34,14.05,8.71,14.03,9.56-.08,4.19-11.11,12.84-11,18.8.1,5.58,12.59,7.04,5.45,16.36-2.22,2.89-7.14,3.69-7.09,7.07.06,3.81,9,8.75,9.12,10.93.23,4.05-13.68,16.97-13.43,21.97.11,2.21,5.71,3.86,6.83,5.39,4.01,5.48-12.8,16.46-13.46,22.82-.55,5.31,8.8,9.52,7.83,13.87-.91,4.06-20.17,6.81-21.61,11.32-1.72,5.36,1.19,11.57,1.41,16.93.36,8.69,1.25,33.93-1.98,40.43-4.36,8.77-27.49,5.18-36.47,5.79-11.43.78-24.38,4.1-35.95,4.74-10.97.61-21.11-1.69-31.33-1.71-5.06-.01-17.61,5.08-18.09-2.23-.22-3.4,2.03-8.76,1.73-14.16-2.62-47.13-5.62-94.96-6.41-142.28-.37-22.19-.23-44.45,1.75-66.48,3.1-2.11,16.53-1.04,17.07-1.71.32-.4,1.5-8.56,1.63-10.12,3.62-45.86-3.47-92.43-4.79-137.68-.28-9.65.36-19.39.09-29.03,15.39,17.09,19.02,41.53,25.49,62.94.49,1.63.43,4.72,2.66,4.35-.78-14.91-2.01-29.53-1.58-44.63.4-14.02.41-29.79,1.56-43.83.23-2.76,1.05-11.22,4.74-7.82,9.15,28.94,23.98,56.68,28.17,86.89ZM95.79,110.4c-4.81-31.54-18.83-60.6-28.19-90.78-2.71-.37-1.52,3.58-1.55,5.46-.46,23.96-1.03,46.6.07,70.37.08,1.81.55,26.02-4.76,19.64l-18.5-55.86-4.98-8.31c.23,6.49-.35,13.09-.03,19.58,2.2,44.74,7.34,89.28,4.8,134.66-.13,2.3-2.17,9.56-1.64,10.09.77.77,6.52-1.44,8.57-1.6,16.12-1.24,32.31-3.6,48.38-6.4,12.47-2.17,16.66-4.61,29.84-4.44,5.5.07,11.03-.21,16.51-.08-1.05,5.86,2.95,12.73,2.91,18.01-.33,48.23-2.49,97.12-1.42,145.63,1.2,10.72,6.42,2.21,10.58,1.04,5.21-1.47,10.24,1.92,4.27-6.49-2.11-2.97-5.96-4.18-5.19-8.38,1.02-5.55,14.62-16.25,13.72-20.47-.6-2.81-6.71-4.2-6.16-9.53s12.12-15.72,12.12-18.85c0-4.05-10.39-10.77-10.41-14.11,0-1.48,11.03-5.68,12.45-10.95.2-.76-11.77-6.76-10.87-10.77,1.84-2.37,12.37-16.25,12.38-17.41.02-1.83-13.38-7.96-13.9-8.72-2.52-3.7,12.34-20.54,12.37-22.57.02-1.25-15.85-6.47-17-14.35-.53-3.62,11.56-10.38,10.77-13.8-.28-1.22-14.81-8.66-17.19-9.46-2.01-.68-6.04-.56-6.3-.73-3.22-2.15,12.14-27.18,10.97-28.16-3.22-2.7-17.99,5.6-18.78,4.69-.39-.45-1.52-9.84-1.64-11.67-1.04-16.03.93-33.22.06-49.37-4.44,2.26-4.74,8.36-6.97,12.59-2.27,4.3-7.02,13.84-9.53,17.08-7.72,9.94-4.1-1.26-3.81-5.37,1.07-15.18-3.37-33.29-4.75-48.53-.4-4.35.32-8.95.02-13.32-4.67-.78-2.49,1.16-3.25,3.72-4.34,14.64-6.42,30.02-10.05,44.87-.68,2.79-.62,3.64-3.91,3.07ZM140.97,206.08c-.47-.73-5.34-1.67-6.8-1.81-13.72-1.35-39.62,6.79-54.96,9.29-15.9,2.59-32.8,5.5-48.86,7.57-2.48.32-5.43-2.12-6.39,1.35-1.9,6.84-.09,29.97-.14,38.98-.25,44.32,1.28,89.9,3.12,134.56.53,12.89,1.81,26.54,1.58,39.21-.04,2.22-2.68,6.13.79,6.98,1.86.46,5.25-1.5,7.75-1.59,11.33-.43,22.55,2.21,32.93,1.61,14.27-.83,34.15-6.33,46.93-6.34,4.28,0,8.3,2.06,14.1,1.65,9.41-.67,12.63-2.15,13.36-11.68,1.28-16.75-1.45-33.66-1.71-50.08-.81-50.14.88-100.32.1-150.35-2.24-4.41.35-16.03-1.79-19.33Z"/>
    <path class="cls-2" d="M379.19,173.4l4.26-10.6c3.12-9.5,4.01-19.98,6.56-29.47.67-2.49-.38-2.53,3.25-2.2,3.62,21.79,14.14,41.93,15.67,64.18,3.76-3.69,7.77-10.71,10.23-15.58,2.24-4.43,3.49-10.79,5.75-14.6,1.18-2.01,1.63-3.22,4.36-2.68l9.41,57.91c.65.8,14.38-11.38,16.39-12.56,7.46-4.39,5.47.6,5.54,7.11-2.47,4.3-.28,30.2,1.59,32.03,1.86,1.81,14.44-5.56,17.85-4.63,4.62,1.25.24,7.8-.31,10.52-.4,1.99-2.4,12.46-1.94,12.92.56.55,13.03-.29,15.65,1.58,2.14,1.53-5.22,12.07-4.7,12.51.38.32,6.36-.17,8.48.14,4.3.63,12.2,2.6,16.25,4.1,1.75.65,12.16,6.4,12.57,6.98,1.14,1.63.19,34.17.19,39.73,0,23.61.91,49.9-1.62,73.35-1,9.26-3.28,14.02-13.12,15.06-19.24,2.03-42.71-.92-62.69-.08-46.91,1.96-95.69,7.44-142.49,6.36-3.86-.09-7.13-1.83-10.83-1.73-5.46.15-10.78,3.49-17.28,3.35-16.15-.37-10.79-9.18-11.7-21.28-2.26-29.87-2.36-57.67-3.13-87.65-.09-3.47-1.81-6.71-1.71-10.95.13-5.9,4.73-23.53,8.72-27.39,3.56-3.45,12.35-6.39,17.32-7.72,54.21-14.52,102.89,2.87,156.3-1.8,9.64-.84,19.57-4.95,29.09-1.41.12-3.3,5.5-21.13,4.7-21.91-1.02-.99-17.76,5.75-20.35,3.13-.47-.47.24-10.76.03-13.33-.25-3.1-1.48-5.87-1.66-9.29-.21-4.04,2.15-15.87,1.62-16.52-.87-1.08-20.45,17.11-23.46,14.08-.63-.63.26-14.49-.14-17.86-.6-5.1-2.15-13.57-3.13-18.78-.45-2.38-2.55-14.39-3-15.01-2.02-2.82-2.79.87-3.46,2.03-2.68,4.6-11.58,27.43-17.65,26.15-4.44-.94-1.18-8.98-1.3-11.46-.64-13.1-9.85-31.65-12.8-44.88-2.16,1.34-1.88,3.34-2.53,5.29-1.42,4.24-6.69,26.52-7.66,27.57-.42.46-3.77.02-4.76-.7-1.24-.9-3.03-9.9-4.33-12.89-7.47-17.27-16.69-29.07-25.96-44.47-6.46-10.73-11.05-22.86-18.94-32.71l8.56,174.59-3.07,2.28-9.23-183.76,2.97-1.73c7.87,11.12,13.6,23.95,20.64,35.72,11.31,18.93,25.74,37,31.03,58.98ZM377.6,272.03c-2.38-.43-4.52-1.44-7-1.61-26.72-1.93-51.37-1.02-77.98,3.48l-10.48,4.37c5.44-.25,11.01.39,16.45.03,21.27-1.38,42.46-5.25,64.17-3.13l14.84-3.14ZM484.04,278.27c2.3-1.9-2.57-4.09-3.84-4.76-12.99-6.87-24.87-2.92-38.41.08l14.83,3.15c4.86-1.58,24.93,3.59,27.42,1.53ZM488.74,270.46c-1.28.19-4.28-.34-4.69,0-.43.36,3.32,9.76,4.69,0ZM307.18,422.26l211.41-8.49c1.16-.79,2.66-9.1,2.87-11.21,1.39-13.96,1.53-28.28,1.8-42.04.16-8.55,1.05-63.87-.83-66.62-.63-.92-7.76-5.66-9.32-6.33-14.56-6.26-41.84-5.94-58.05-7.69-17.98-1.95-38.34-5.65-56.27-6.39-12.49-.51-29.32,4.06-42.29,4.82-20.97,1.21-41.64,1.69-62.61,3.13-15.54,1.07-22.07-5.82-26.71,12.42-4.88,19.17-.1,63.73.88,85.35l1.53,43.07c13.97-.87,29-.15,42.26-4.7l-4.68,4.69Z"/>
    <path class="cls-2" d="M1235.51,175.12c1.56-1.73,11.26,6.75,11.61,9.52l4.04,10.82c1.43-12.26-.46-25.15-1.55-37.55,6.5-1.14,13.65,5.19,17.23,10.15,3.32,4.61,3.04,10.61,7.8,13.32.38-8.56-.48-17.28-.01-25.85.15-2.66,1.41-5.11,1.61-7.78.36-4.79-.73-23.68,3.9-25.84l7.32,9.88c7.35,15.03,16.73,29.37,18.51,46.46l2.98-10.31c-.83-7.05,3.29-51.05,8.76-52.29,2.48-.56,3.33,2.03,4.02,3.79,3.48,8.85,5.99,20.43,9.23,29.9,3.27,9.56,8.41,18.7,9.44,28.91,1.95.16,2.89-3.28,3.71-4.88,3.53-6.9,6.12-14.54,10.04-21.27.7-1.21,1.27-4.65,3.45-2.02,3.8,4.59,4.65,30.36,8.59,37.59,1.44,2.64,1.81.89,3.18,0,1.9-1.24,10.4-7.73,11.71-6.29,3.67,4.01-.63,24.28,3.45,29.42,1.86,2.35,16.62,2.49,18.23,7.6.6,1.9,1.64,9.76,1.83,12.26.82,10.65-.65,22.22-.1,32.97,1.76,34.3,7.11,68.56,4.84,103.3-3.72,8.52,3.26,23.43-8.66,22.69-6.74-.42-17.07-3.27-23.5-3.27-6.41,0-16.68,2.79-23.45,3.22-7.74.49-15.61-.56-23.35.12-31.41,2.76-63.07,16.66-94.22,20.05-1.51.16-6.58.49-6.89.16-.92-.96.98-17.18-.17-20.96-.94-3.06-7.36-1.74-8.55-7.19-.51-2.32,4.3-4.3,1.77-7.92-1.73-2.47-22.99-9.05-27.48-10.9-1.18-7.41,18.73-9.69,18.74-13.28,0-2.02-11.66-13.85-14.13-15.58-4.61-3.22-23.96-8.52-24.96-12.63-.48-1.99,1.84-3.52,3.2-4.6,5-3.93,25.07-11.35,26.45-17.47.4-1.77-6.77-8.7-8.52-10.01-5.46-4.09-20.1-7.93-21.21-14.87-.47-2.91.94-1.97,2.02-2.75,2.88-2.08,7.42-5.23,10.51-6.69,6.85-3.24,27.84-6.03,19.55-17.86-2.96-4.21-6.81-8.9-10.08-13.4-1.24-1.71-6.05-5.24-6.27-6.26-.34-1.53,1.78-3.9,2.34-3.9h30.52c2.76-5.37-4.81-16.88-4.67-19.58.21-3.96,11.39-.32,14.09-1.64.72-.35,3.1-2.82,3.1-3.04,0-3.63-.81-23.36,0-24.26ZM1254.29,161.04c-1.33,1.64,1,36.63,0,42.26-1.69-.23-3.94.92-4.79-.95-2.84-6.26-3.82-12.86-7.4-18.93-.73-1.25-1.17-4.56-3.46-2.02-1.2,1.33,2.2,15.68-2.4,21.86-5.16,6.94-12.78,1.06-13.25,1.61-.77.91,7.2,21.91.77,21.91h-28.96c1.64,4.94,19.2,22.72,18.6,25.56-.27,1.26-4.73,6.93-6.12,8.05-5.86,4.73-12.5,4.93-18.8,7.81-1.97.9-9.89,5.27-9.32,7.86.69,3.11,15.42,8.49,19.53,11.79,1.89,1.51,9.99,10.42,9.99,11.72-.01,4.72-21.77,16.26-26.43,18.82-1.21.67-4.39.38-3.1,3.07,1.62,3.38,14.72,6.46,19.26,8.92,8.27,4.48,15.3,12.65,19.87,20.81l-18.78,10.19c3.69-.07,6.05,3.15,9.02,4.29,5.79,2.21,12.16,1.72,17.16,7.08,3.79,4.07-1.59,7.08-1.15,9.75.18,1.1,2.55,3.28,3.94.83,1.69-3,1.08-48.21.84-55.66-.45-13.99-2.86-29.54-3.28-43.68-.41-13.98-1.48-35.39-.01-48.68.16-1.48.39-2.39.92-3.77.78-1.99,10.57-12.42,12.69-13.92,7.25-5.1,16.6-4.09,24.85-4.89,29.95-2.92,60.44-4.4,90.83-3.24,4.12.16,22.27,3.44,24.19,1.63.98-.92-1.1-5.76-1.08-7.31.03-2.17,1.22-4.19,1.15-6.02-.08-2.41-.22-12.51-3.18-10.94-2.45,1.3-10.33,9.43-12.53,7.05-2.48-2.68-5.3-30.43-7.85-35.99l-6,8.85c-1.17,2.16-6.06,13.95-6.71,14.41-.73.51-5.83.42-6.01.18-.65-.91-.69-10.18-2.43-12.46l-17.19-45.41c-5.78,7.36-5.24,58.78-8.69,60.98-.42.27-4.39.18-4.54.01-.81-.9-4.2-18.09-5.55-21.87-3.97-11.07-11.8-22.32-17.22-32.87-1.06,1.65-2.03,5.26-2.21,7.17-1.34,13.86-.11,30.48-1.81,43.58-.32,2.49-4.05,12.82-6.14,7.89-2.92-6.88-3.94-15.3-9.35-21.51-.68-.78-7.56-6.22-7.87-5.84ZM1399.69,219.12c-.6-.88-15.31-4.65-17.81-4.88-30.28-2.84-63.63-1.78-93.91.04-10.81.65-39.19.42-47.04,6.18-2.36,1.73-2.79,4.24-4.33,5.85-2.9,3.04-6.31,2.48-7.29,9.15-1.28,8.77-.24,23.37-.15,32.87.17,17.56,2.48,35.24,3.29,53.07,1.27,28.09-1.09,57.2-.08,85.38,6.05,1.11,11.28-1.82,16.83-2.75,46.62-7.78,85.12-21.95,134.2-19.13,7.12.41,14.09.46,21.16,1.53-1.38-8.72,1.32-17.61,1.64-25.76,1.28-32.24-3.25-63.63-4.84-95.48-.54-10.78.82-22.24.1-32.97-.13-1.97-1.39-12.56-1.76-13.11Z"/>
    <path class="cls-2" d="M762.41,165.93c2.04,2.83,2.79-.89,3.46-2.03,1.79-3.04,6.97-18.27,8.28-18.3,1.6-.04,4.65,14.26,5.1,16.79.55,3.07.67,14.56,1.95,16.06,1.08,1.26,15.53-9.61,17.21-7.82,2.16,2.31-5.39,18.1-4.69,18.77l50.89-.02c9.16,2.28,18.92,1.96,27.37,6.3l-4.68,4.66c3.2.96,8.05,2.44,7.83,6.27,2.67,1.44.46-12.92,4.68-7.82.56.68,1.24,14.3,1.95,17.62,9.39,44.2-.87,76.01-5.05,119.35-.51,5.24-2.22,11.17-3.16,16.41-3.49-1.14-2.58-1.73-1.96-4.25.46-1.87,4.18-14.45,1.19-14.54-1.21-.03-5.86,14.07-7.38,15.32-4.18,3.43-34.86,1.63-42.73,1.88-55.79,1.81-106.84,4.15-162.69,3.08-7.14-.14-49.03,1.74-50.95.07-3.28-2.85,4.07-5.89,4.7-7.81-5.24.22-15.23.79-18.02-4.68-1.69-3.31-1.06-32.21-.83-38.44.71-19.88,3.96-39.57,6.36-59.38,1.72-14.23-2.07-27.42,14.08-34.44,19.29-8.39,43.41-9.06,64.16-11.76,2.05-1.99-6.91-12.05-6.01-16.23,2.35-10.9,16.06,7.95,16.95,6.84.48-.6-2.13-11.6-2.38-14.08-.79-7.95,5.32-2.75,8.7.73,3.62,3.72,5.12,8.93,9.33,11.79-1.68-4.25-1.01-8.84-1.7-13.16-.69-4.32-6.33-24.04-4.55-25.96,3.38-3.64,20.63,15.26,20.36,20.33l3.9-15.62,10.16,20.32c.44-2.38,1.42-4.52,1.61-7,1.31-16.88.84-35.07,3.07-51.71,1.71-12.75,3.05-19.21,8.27-3.52,4.04,12.17,7.74,24.87,11.33,37.19,1.01,3.46,3.35,18.02,3.91,18.8ZM760.86,170.62c-.78-.88-3-14.04-3.92-17.22-3.12-10.8-6.42-21.75-9.76-32.5-.99-3.19-1.73-8.45-5.1-9.76-.09,19.17-3.54,38.03-3.13,57.14l-3.16,13.29c-6.54-3.72-6.79-13.76-9.39-20.34-2.71-.38-1.51,3.58-1.55,5.46-.04,1.84.32,8.26,0,8.63-.15.17-4.44.1-4.6-.07-.43-.47-1.43-5.58-2.58-7.63-2.21-3.94-6.01-9.65-9.23-12.68-.99-.93-4.11-4.59-5.49-3.1-1.3,1.4,8.94,32.08,5.51,37.6-1.11,1.79-2.11,1.92-3.97.77-4.95-3.07-6.31-11.57-11.72-14.89-2.06,4.37,5.16,25.82-3.9,16.42-3.23-3.35-4.96-8.52-10.19-10.16-1.85-.58.63,13.27,6.25,14.1,4.83.71,13.6.24,18.82,0,15.9-.71,32.55-3.92,48.47-4.74,9.96-.52,23.81,1.54,32.89.02,4.73-.8,10.3-12.28,8.61-14.07-1.86-1.97-13.79,9.21-16.48,4.74-2.07-3.45-.27-20.94-2.3-26.66-4.1-.62-2.42.37-3.23,2.23-.85,1.96-6.5,18.31-10.84,13.42ZM616.84,349.04c3.86-1.51,6.83,2.38,8.85,2.75,7.93,1.43,20.27-1.67,29.52-1.19,55.53,2.84,109.06-1.26,164.3-3.13,7.92-.27,37.09,1.53,41.53-.73,2.4-1.22,5.8-8.94,7.01-11.78,15.15-35.74,5.99-81.59,8.7-119.81-.77-6.87-16.09-18.37-22.88-19.38-17.66-2.62-36.78-1.59-54.7-1.7-29.61-.18-59.44.8-89.22,3.13-24.99,1.95-74.55,3.81-95.78,15.35-7.23,3.93-5.19,5.69-7.11,11.66-.58,1.79-2.4,2.91-2.72,5.2-.41,2.96,1.81,7.05,1.21,10.45-4.64,26.02-8.79,58.38-8.25,84.94.1,5.1-.2,16.26,4.95,17.72,13.14,1.2,27.3,1.49,39.65,5.75l-19.59-.78-5.46,1.55ZM879.8,225.4v56.35l3.2-19.49c-.65-9.27.63-19.1-.05-28.27-.13-1.78-.74-8.4-3.15-8.59Z"/>
    <path class="cls-2" d="M920.6,205.3c-1.24-1.23,4.57-13.86,6.2-14.93,2.36-1.54,15.47-.99,17.28-2.3.74-.54-1.48-6.62-1.61-8.57-1.47-21.86-1.06-45.47-1.56-67.31-.16-7.2-1.08-42.83,3.41-45.95,1.02-.71,10.97-1.99,13.02-1.89,14.6.74,31.91,3.22,46.83,4.92,18.41,2.1,38.68,3.32,56.08,9.66,11.63,4.24,12.78,6.87,14.9,19.53,1.1,6.6-1.95,13.32,5.09,7.44,2.67-2.22,17.48-19.37,20.34-16.43.77.79-5.21,18.47-6.19,21.19-1.09,3.04-9.25,20.1-7.9,21.05,6.24,1.78,13.11,2.97,19.2,5.08,5.39,1.87,13.9,5.22,18.98,7.63,1.61.77,7.19,4.05,7.2,5.3.02,3.04-18.82,6.72-22.79,8.51-1.17.53-5.43.82-2.23,3.21.44.33,3.41.66,5.2,1.82,19.42,12.67,25.51,30.08,37.03,49.07-2.24,3.26-2.35,1.45-4.28,1.2-5.83-.76-34.34-10.19-36.39-8.25-1.38,1.31,11.48,25.71,12.97,30.07,1.9,5.57,9.88,34.23,8.8,37.84-.77,2.56-2.47,2.56-4.64,1.85-4.01-1.3-29.75-19.81-31.21-18.11-1,1.17,5.86,24.17,6.26,28.94.27,3.25.33,7.79.03,11.01-.56,5.95-2.4,10.57-7.04,3.82-3.85-5.61-6.79-15.23-9.9-21.4-.74-1.48-1.58-3.42-3.44-3.59.6,19.77-5.87,39.19-7.86,58.67-.55,5.4,1.89,16.44-2.2,19.7-4.82,3.84-15.9-1.05-22.02-1.7-22.32-2.39-51.5-5.52-73.61-4.7-5.19.19-16.4,4.56-20.31-1.56-1.51-2.37-4.69-20.15-5.34-24.4-3.28-21.19-4.27-44.2-4.92-65.51-.51-16.94.53-34.01.07-50.94-3.48-.61-22.64.83-23.48,0ZM1077.11,260.1c1.58-1.1.22-33.32.08-38.44-.85-32.2-3.16-64.84-4.79-96.94-.52-10.21,2.17-32.23-6.28-39.11-4.54-3.7-19.73-7.53-25.91-8.53-19.74-3.19-45.96-7-65.59-7.97-4.47-.22-25.23-.69-27.46.76-2.6,1.69-2.93,6.49-3.16,9.37-1.45,18.75,1.29,37.86,1.71,56.34.4,17.48-.46,35.05-.06,52.51,2.77-1.61,5.54.24,8.54.08,6.85-.37,8.99-.29,15.69-.06,4.92.17,11.15-.77,15.66-.02,8.36,1.39,7.03,14.04-.26,16.93-13.03,1.23-25.06,3.22-38.07.27.99,24.49-1.33,49.99-.03,74.37.7,13.14,2.72,30.59,4.9,43.62.72,4.29,3.31,18.61,5.26,21.34,2.66,3.73,26.4-.4,32.93-.06,18.83.98,38.88,2.89,57.74,4.87,5.03.53,15.79,4.98,19.81,2.29,2.73-1.82,1.13-15.78,1.61-20.29,1.88-17.69,10.57-47.78,7.66-64.3-.34-1.92-4.78-7.37-3.1-8.64.35-.27,2.82,1.79,3.11,1.59ZM1125.64,150.51c-.48-2.02-2.46-3.51-4.29-4.31-6.72-2.91-16.9-6.97-23.79-9.08-3.79-1.16-11.04-.16-13.46-3.77-2.5-3.72,4.92-16.75,6.74-21.56,1.96-5.17,3.72-10.7,5.06-16.06l-18.83,16.67c.36,10.87-.28,21.79.04,32.65.97,33.3,2.93,66.92,4.74,100.12.38,6.94-.95,15.32.04,21.88,1.29,8.63,10.66,19.93,12.48,29.01,4.89,1.41,3.29-5.42,2.97-8.47-.62-5.89-1.9-14.41-3.39-20.09-.71-2.71-6.91-15.82-5.86-16.83,1.54-1.47,17.88,7.96,20.83,9.68s16.18,12.56,18.29,10.65c-4.12-24.93-13.7-47.32-25.01-69.65,3.02-4.53,5.48-.5,8.97.4,4.51,1.16,9.44,1.27,13.34,2.31,2.77.74,17.47,6.76,18.35,5.9s-3.46-8.69-4.4-10.46c-5.45-10.23-16.43-27.31-26.32-33.15-3.14-1.85-11.24-3.48-13.09-4.92-2.73-2.12.85-2.76,2.02-3.44,7.96-4.68,15.66-5.93,24.59-7.51ZM944.09,202.18c.34-.33.25-8.07-.69-9.49-2.92-4.4-17.91-1.27-18.11,8.68-.02.94,18.13,1.46,18.81.81ZM987.91,191.22c-1.32-1.28-31.67,0-36.78,0-.29,0-5.26,1.4-5.49,1.58-.37.29,1.38,8.91,1.71,9.25,1.47,1.51,20.63,2,24.2,1.78,2.34-.14,13.96-1.73,14.89-2.33,1.96-1.25,1.89-9.86,1.47-10.27Z"/>
    <path class="cls-2" d="M106.74,338.91v61.04c-20-.16-24.71,4.36-23.5-18.02.14-2.67,1.51-5.12,1.61-7.78.4-10.18-1.39-20.73,1.55-30.54,2.74-.37,1.47,3.55,1.55,5.46.26,6.74-1.39,11.65-1.58,17.21-.15,4.26-1.06,29.47.02,30.55.61.61,16.62.61,17.23,0,.64-.64.14-15.18.07-18.08-.06-2.37-1.09-4.61-1.09-6.48-.02-4.62,2.04-27.65,1.02-28.67-.61-.62-9.33.64-11.6-.14l-8.74-2.98c8.01.87,15.56-1.18,23.47-1.58Z"/>
    <path class="cls-2" d="M69.18,337.35v57.91c-4.88-.54-19.95,9.29-20.43.86-.63-10.9.64-22.04.06-32.97,3-6.78-.05-16.21,2.69-22.33,1.9-4.23,13.11-3.46,17.68-3.48ZM66.05,340.48c-13.43-2.14-11.06,5.19-14.09,14.87v41.48c2.6-.28,14.09-3.17,14.09-5.48v-50.87Z"/>
    <path class="cls-2" d="M358.67,344.16c1.34,1.93-1.35,9.77-1.48,13.08-.31,7.65,2.3,35.86-3.06,39.2-6.45.29-19.48,10.21-25.14,6.36-4.05-2.76-.14-17.52.13-21.99.67-11.23.68-22.47,1.55-33.67,6.13,2.65,1.69,9.04,1.53,13.28,1.68,5.84-3.66,37.66-1.53,39.94,1.26,1.35,18.41-4.71,20.89-6.15,2.71-1.57,2.8-16.14,2.69-19.73-.15-4.82-2.08-8.61-1.71-14.03.29-4.28,3.09-9.18,3.19-12.51.04-1.48-15.56-.68-18.04-.8s-4.38-1.37-2.32-3.13c.5-.42,6.56.26,8.63.03,3.3-.37,12.39-3.18,14.69.12Z"/>
    <path class="cls-2" d="M296.22,353.41c.18-.16,4.64-.63,4.71.79.24,4.35-2.61,13.64-3.18,18.73-.69,6.1-2.13,17.86-1.41,23.42.14,1.09,1.24,5.11,1.63,5.38,2.56,1.77,16.71-1.46,17.11-3.94,1.59-9.71-.64-25.15-.16-35.87.13-2.94,2.01-7.45,1.57-9.15-.91-3.55-10.01-2.76-13.26-2.54-3.38.23-11.31,4.61-10.15-1.54,6.27-.28,19.45-4.07,24.39-.13,4.86,3.88.87,10.3.64,14.97-.44,8.84,1.84,29.18-.16,35.83-.98,3.26-17.34,7.34-21.08,4.23-5.73-4.76-2.38-11.52-2.18-16.54.42-10.51,2.53-20.38,2.91-29.81.06-1.55-1.81-3.48-1.38-3.85Z"/>
    <path class="cls-2" d="M1326.62,330.4c-3.31,3.12,2.98,17.82,3.99,22.75.61,2.96-.14,6.39.58,8.81,1.2,4.05,11.66,1.75,12.34-2.9,1.31-8.98-2.89-23.32-3.21-32.86-1.17-2.75,2.6-3.1,3.19-2.38.67.82,1.27,18.2,1.54,21.16.37,4.04,3.4,16.53,1.43,19.37-.38.55-11.45,3.05-12.93,2.9-8.15-.81-5-9.89-6.04-15.7-1.18-6.64-8.96-18.98-2.71-23.75.49-.38,10.45-5.99,10.87-5.55,3.18,3.35-8.42,7.56-9.06,8.16Z"/>
    <path class="cls-2" d="M1377.94,358.25c-1.12,1.42-16.38,2.27-17.1,1.45-2.27-2.59-3.61-31.1-6.37-36.64,2.24-3.66,4.77-.5,8.56-.69,3.32-.16,6.61-2.38,10.22-1.68-.13,1.98-5.93,4.05-7.36,4.37-2.27.51-7.99.04-8.29.32-.79.75,3.94,17.92,4.54,21.27,1.3,7.31-2.2,10.97,8.81,10.11,9.79-.76,4.14-10.32,3.84-16.5-.25-4.94.2-9.96.03-14.89,1.56-.61,3.12,5.16,3.12,5.47,0,3.99.85,26.32,0,27.39Z"/>
    <path class="cls-2" d="M743.63,313.05c-.38-.45.26-6.35-.11-8.51-.46-2.67-4.6-12.08-2.99-13.35.34-.27,7.2-1.52,8.55-1.64,12.96-1.11,27.61-.93,40.75-1.49,4.39-.19,6.47-4.14,7.78,1.52,2.51-3.59,6.1-3.43,10.17-3.12.46,2.96-1.18,4.22-3.89,4.71-9.52,1.69-25.47-.53-36.09-.09-3.42.14-6.2,1.44-9.29,1.66-2.76.2-14.36-.54-14.89-.02-1.45,1.42,4.53,12.39,3.14,15.65,20.96-5.13,42.71-5.55,64.17-7.03,9.28-4.62-5.66-20.22-4.71-21.13,2.57-2.43,10.1,9.67,10.65,12.03,4.34,18.83-17.92,12.05-30.24,12.98-10.43.79-27.25,2.65-37.21,5.05-1.72.42-5.58,3.06-5.8,2.8Z"/>
    <path class="cls-2" d="M641.1,300.53c-2.69.7-3.23,7.17-1.66,9.49,1.58,2.33,22.16,1.71,26.78,1.54,8.3-.31,15.88-2.17,25.04-1.71,3.04.15,13.43,2.92,14.79,1.63s-6.53-12.6,0-14.08c-.38,3.52,5.21,15.12,3.14,17.21-1.23,1.25-9.23-1.43-11.71-1.59-16.51-1.02-32.41,2.7-48.62,1.66-2.03-.13-12.72-1.21-13.23-1.64-.56-.48-1.1-12.71,2.54-13.88,6.18-1.99,19.16.52,26.13-1.26,9.76,2.99,21.92-.5,31.56,1.08,1.83.3,3.67,1.06,3.93,3.1-2.55,1.22-6.1-1.56-7.04-1.56h-51.65Z"/>
    <path class="cls-2" d="M834.4,195.67c1.7.77-2.29,2.63-4.69,1.55-1.7-.77,2.29-2.63,4.69-1.55Z"/>
    <path class="cls-2" d="M1058.35,191.2c-17.66,2.72-35.21,7.35-53.22,6.28-3.37-20.32-.77-14.27,14.89-15.63,2.67-.23,5.11-1.38,7.77-1.62,7.71-.68,15.75-.8,23.5-1.52,5.97,1.03,5.84,7.86,7.06,12.49ZM1053.64,183.39c-1.72-1.48-39.41,1.12-45.39,0-.14,4.83-1.05,9.9,4.1,12.23,11.44-1.74,22.95-4.21,34.41-5.83,1.83-.26,6.6.09,6.89-.15.24-.2.23-6.05,0-6.25Z"/>
  </g>
</svg>