<?xml version="1.0" encoding="UTF-8"?>
<svg id="Ebene_1" data-name="Ebene 1" xmlns="http://www.w3.org/2000/svg" xmlns:xlink="http://www.w3.org/1999/xlink" viewBox="0 0 500 500">
  <defs>
    <style>
      .cls-1 {
        stroke-width: 1.07px;
      }

      .cls-1, .cls-2, .cls-3, .cls-4, .cls-5, .cls-6, .cls-7, .cls-8, .cls-9, .cls-10, .cls-11, .cls-12, .cls-13, .cls-14, .cls-15, .cls-16, .cls-17, .cls-18, .cls-19 {
        fill: none;
      }

      .cls-1, .cls-2, .cls-3, .cls-4, .cls-5, .cls-6, .cls-8, .cls-9, .cls-10, .cls-11, .cls-12, .cls-13, .cls-14, .cls-15, .cls-16, .cls-17, .cls-18, .cls-19 {
        stroke: #5a339f;
      }

      .cls-1, .cls-2, .cls-3, .cls-4, .cls-6, .cls-10, .cls-11, .cls-14, .cls-15, .cls-16, .cls-17, .cls-19 {
        stroke-miterlimit: 10;
      }

      .cls-20 {
        clip-path: url(#clippath-4);
      }

      .cls-2 {
        stroke-width: 1.44px;
      }

      .cls-3, .cls-13 {
        stroke-width: 1.61px;
      }

      .cls-4 {
        stroke-width: .89px;
      }

      .cls-5, .cls-8, .cls-9, .cls-12, .cls-13, .cls-18 {
        stroke-linejoin: round;
      }

      .cls-5, .cls-11 {
        stroke-width: 4px;
      }

      .cls-6 {
        stroke-width: 2.69px;
      }

      .cls-21 {
        opacity: .5;
      }

      .cls-21, .cls-22, .cls-23 {
        fill: #fff;
      }

      .cls-8 {
        stroke-width: 2.16px;
      }

      .cls-8, .cls-9, .cls-12 {
        stroke-linecap: round;
      }

      .cls-24 {
        clip-path: url(#clippath-1);
      }

      .cls-25 {
        clip-path: url(#clippath-5);
      }

      .cls-26 {
        clip-path: url(#clippath-3);
      }

      .cls-22 {
        opacity: .4;
      }

      .cls-9 {
        stroke-width: 3.31px;
      }

      .cls-10, .cls-18 {
        stroke-width: 2.61px;
      }

      .cls-12 {
        stroke-width: 1.33px;
      }

      .cls-23 {
        opacity: .6;
      }

      .cls-27 {
        clip-path: url(#clippath-2);
      }

      .cls-14 {
        stroke-width: 2.07px;
      }

      .cls-15 {
        stroke-width: 2.21px;
      }

      .cls-16 {
        stroke-width: .83px;
      }

      .cls-17 {
        stroke-width: 1.74px;
      }

      .cls-28 {
        clip-path: url(#clippath);
      }

      .cls-19 {
        stroke-width: 1.35px;
      }
    </style>
    <clipPath id="clippath">
      <ellipse class="cls-7" cx="419.72" cy="82.45" rx="63.66" ry="64.34"/>
    </clipPath>
    <clipPath id="clippath-1">
      <path class="cls-7" d="M250.64,157.74h0c0-41.46-33.25-75.06-74.27-75.06h0,0c41.02,0,74.27-33.61,74.27-75.06h0s0,0,0,0c0,41.46,33.25,75.06,74.27,75.06h0,0c-41.02,0-74.27,33.61-74.27,75.06h0Z"/>
    </clipPath>
    <clipPath id="clippath-2">
      <ellipse class="cls-7" cx="420.16" cy="253.06" rx="41.06" ry="41.5"/>
    </clipPath>
    <clipPath id="clippath-3">
      <path class="cls-7" d="M250.64,301.55h0c0-27.02-21.67-48.92-48.41-48.92h0,0c26.73,0,48.41-21.9,48.41-48.92h0s0,0,0,0c0,27.02,21.67,48.92,48.41,48.92h0,0c-26.73,0-48.41,21.9-48.41,48.92h0Z"/>
    </clipPath>
    <clipPath id="clippath-4">
      <ellipse class="cls-7" cx="419.99" cy="415.36" rx="25.31" ry="25.58"/>
    </clipPath>
    <clipPath id="clippath-5">
      <path class="cls-7" d="M250.64,445.25h0c0-16.66-13.36-30.16-29.84-30.16h0,0c16.48,0,29.84-13.5,29.84-30.16h0s0,0,0,0c0,16.66,13.36,30.16,29.84,30.16h0,0c-16.48,0-29.84,13.5-29.84,30.16h0Z"/>
    </clipPath>
  </defs>
  <rect class="cls-23" x="-2" y="-2" width="504" height="168.92"/>
  <rect class="cls-22" x="-2" y="165.54" width="504" height="168.92"/>
  <rect class="cls-22" x="-2" y="333.08" width="504" height="168.92"/>
  <rect class="cls-23" x="-169.35" y="165.35" width="503.02" height="168.31" transform="translate(-167.35 331.66) rotate(-90)"/>
  <rect class="cls-21" x="-.6" y="165.36" width="503.02" height="168.31" transform="translate(1.39 500.43) rotate(-90)"/>
  <rect class="cls-22" x="166.34" y="166.34" width="503.02" height="168.31" transform="translate(167.35 668.34) rotate(-90)"/>
  <g>
    <ellipse class="cls-11" cx="419.06" cy="82.01" rx="62.99" ry="63.67"/>
    <g class="cls-28">
      <g>
        <line class="cls-6" x1="331.5" y1="83.26" x2="416.8" y2="169.48"/>
        <line class="cls-6" x1="341.55" y1="73.2" x2="426.86" y2="159.42"/>
        <line class="cls-6" x1="351.6" y1="63.14" x2="436.91" y2="149.36"/>
        <line class="cls-6" x1="361.66" y1="53.08" x2="446.96" y2="139.3"/>
        <line class="cls-6" x1="371.71" y1="43.02" x2="457.01" y2="129.24"/>
        <line class="cls-6" x1="381.76" y1="32.96" x2="467.07" y2="119.18"/>
        <line class="cls-6" x1="391.81" y1="22.9" x2="477.12" y2="109.12"/>
        <line class="cls-6" x1="401.87" y1="12.84" x2="487.17" y2="99.06"/>
        <line class="cls-6" x1="411.92" y1="2.78" x2="497.23" y2="89"/>
        <line class="cls-6" x1="421.97" y1="-7.28" x2="507.28" y2="78.95"/>
      </g>
    </g>
  </g>
  <g>
    <g>
      <g>
        <line class="cls-14" x1="80.1" y1="15.44" x2="13.29" y2="82.96"/>
        <line class="cls-14" x1="87.56" y1="23.06" x2="20.75" y2="90.58"/>
        <line class="cls-14" x1="95.02" y1="30.68" x2="28.21" y2="98.21"/>
        <line class="cls-14" x1="102.48" y1="38.3" x2="35.68" y2="105.83"/>
        <line class="cls-14" x1="109.95" y1="45.93" x2="43.14" y2="113.45"/>
        <line class="cls-14" x1="117.41" y1="53.55" x2="50.6" y2="121.07"/>
        <line class="cls-14" x1="124.87" y1="61.17" x2="58.06" y2="128.69"/>
        <line class="cls-14" x1="132.33" y1="68.79" x2="65.53" y2="136.32"/>
        <line class="cls-14" x1="139.8" y1="76.42" x2="72.99" y2="143.94"/>
        <line class="cls-14" x1="147.26" y1="84.04" x2="80.45" y2="151.56"/>
      </g>
      <g>
        <line class="cls-14" x1="12.58" y1="83.68" x2="79.74" y2="151.56"/>
        <line class="cls-14" x1="80.45" y1="15.8" x2="147.61" y2="83.68"/>
      </g>
    </g>
    <polygon class="cls-5" points="79.56 152.82 10.17 82.68 79.56 12.54 148.95 82.68 79.56 152.82"/>
  </g>
  <g>
    <path class="cls-9" d="M250.64,156.63h0c0-40.74-32.68-73.77-72.99-73.77h0,0c40.31,0,72.99-33.03,72.99-73.77h0s0,0,0,0c0,40.74,32.68,73.77,72.99,73.77h0,0c-40.31,0-72.99,33.03-72.99,73.77h0Z"/>
    <g class="cls-24">
      <g>
        <g>
          <line class="cls-15" x1="252.11" y1="9.55" x2="179.15" y2="83.28"/>
          <line class="cls-15" x1="259.87" y1="17.48" x2="186.91" y2="91.22"/>
          <line class="cls-15" x1="267.63" y1="25.41" x2="194.68" y2="99.15"/>
          <line class="cls-15" x1="275.39" y1="33.34" x2="202.44" y2="107.08"/>
          <line class="cls-15" x1="283.15" y1="41.27" x2="210.2" y2="115.01"/>
          <line class="cls-15" x1="290.91" y1="49.21" x2="217.96" y2="122.94"/>
          <line class="cls-15" x1="298.67" y1="57.14" x2="225.72" y2="130.87"/>
          <line class="cls-15" x1="306.44" y1="65.07" x2="233.48" y2="138.81"/>
          <line class="cls-15" x1="314.2" y1="73" x2="241.24" y2="146.74"/>
          <line class="cls-15" x1="321.96" y1="80.93" x2="249" y2="154.67"/>
        </g>
        <g>
          <line class="cls-15" x1="178.38" y1="84.07" x2="248.24" y2="154.69"/>
          <line class="cls-15" x1="186.61" y1="75.83" x2="256.48" y2="146.45"/>
          <line class="cls-15" x1="194.84" y1="67.59" x2="264.71" y2="138.21"/>
          <line class="cls-15" x1="203.08" y1="59.35" x2="272.94" y2="129.97"/>
          <line class="cls-15" x1="211.31" y1="51.12" x2="281.18" y2="121.73"/>
          <line class="cls-15" x1="219.55" y1="42.88" x2="289.41" y2="113.49"/>
          <line class="cls-15" x1="227.78" y1="34.64" x2="297.64" y2="105.25"/>
          <line class="cls-15" x1="236.01" y1="26.4" x2="305.88" y2="97.02"/>
          <line class="cls-15" x1="244.25" y1="18.16" x2="314.11" y2="88.78"/>
          <line class="cls-15" x1="252.48" y1="9.92" x2="322.35" y2="80.54"/>
        </g>
      </g>
    </g>
  </g>
  <g>
    <ellipse class="cls-10" cx="419.29" cy="252.19" rx="41.06" ry="41.5"/>
    <g class="cls-27">
      <g>
        <g>
          <line class="cls-17" x1="421.31" y1="194.89" x2="363.86" y2="252.96"/>
          <line class="cls-17" x1="427.43" y1="201.14" x2="369.97" y2="259.21"/>
          <line class="cls-17" x1="433.54" y1="207.39" x2="376.08" y2="265.46"/>
          <line class="cls-17" x1="439.65" y1="213.63" x2="382.2" y2="271.7"/>
          <line class="cls-17" x1="445.76" y1="219.88" x2="388.31" y2="277.95"/>
          <line class="cls-17" x1="451.87" y1="226.12" x2="394.42" y2="284.19"/>
          <line class="cls-17" x1="457.99" y1="232.37" x2="400.53" y2="290.44"/>
          <line class="cls-17" x1="464.1" y1="238.62" x2="406.65" y2="296.69"/>
          <line class="cls-17" x1="470.21" y1="244.86" x2="412.76" y2="302.93"/>
          <line class="cls-17" x1="476.32" y1="251.11" x2="418.87" y2="309.18"/>
        </g>
        <g>
          <line class="cls-17" x1="363.25" y1="253.58" x2="418.27" y2="309.19"/>
          <line class="cls-17" x1="421.61" y1="195.19" x2="476.63" y2="250.8"/>
        </g>
      </g>
    </g>
  </g>
  <g>
    <g>
      <g>
        <line class="cls-19" x1="79.91" y1="208.8" x2="36.37" y2="252.81"/>
        <line class="cls-19" x1="84.77" y1="213.77" x2="41.23" y2="257.78"/>
        <line class="cls-19" x1="89.64" y1="218.74" x2="46.09" y2="262.75"/>
        <line class="cls-19" x1="94.5" y1="223.71" x2="50.96" y2="267.72"/>
        <line class="cls-19" x1="99.37" y1="228.67" x2="55.82" y2="272.68"/>
        <line class="cls-19" x1="104.23" y1="233.64" x2="60.69" y2="277.65"/>
        <line class="cls-19" x1="109.09" y1="238.61" x2="65.55" y2="282.62"/>
        <line class="cls-19" x1="113.96" y1="243.58" x2="70.41" y2="287.59"/>
        <line class="cls-19" x1="118.82" y1="248.55" x2="75.28" y2="292.56"/>
        <line class="cls-19" x1="123.68" y1="253.51" x2="80.14" y2="297.53"/>
      </g>
      <g>
        <line class="cls-19" x1="35.9" y1="253.28" x2="79.68" y2="297.52"/>
        <line class="cls-19" x1="40.82" y1="248.36" x2="84.59" y2="292.61"/>
        <line class="cls-19" x1="45.73" y1="243.45" x2="89.51" y2="287.69"/>
        <line class="cls-19" x1="50.65" y1="238.53" x2="94.42" y2="282.78"/>
        <line class="cls-19" x1="55.56" y1="233.62" x2="99.34" y2="277.86"/>
        <line class="cls-19" x1="60.48" y1="228.7" x2="104.25" y2="272.94"/>
        <line class="cls-19" x1="65.4" y1="223.78" x2="109.17" y2="268.03"/>
        <line class="cls-19" x1="70.31" y1="218.87" x2="114.09" y2="263.11"/>
        <line class="cls-19" x1="75.23" y1="213.95" x2="119" y2="258.2"/>
        <line class="cls-19" x1="80.14" y1="209.04" x2="123.92" y2="253.28"/>
      </g>
    </g>
    <polygon class="cls-18" points="79.56 298.34 34.33 252.63 79.56 206.91 124.79 252.63 79.56 298.34"/>
  </g>
  <g>
    <path class="cls-8" d="M250.64,300.83h0c0-26.56-21.3-48.08-47.57-48.08h0,0c26.27,0,47.57-21.53,47.57-48.08h0s0,0,0,0c0,26.56,21.3,48.08,47.57,48.08h0,0c-26.27,0-47.57,21.53-47.57,48.08h0Z"/>
    <g class="cls-26">
      <g>
        <g>
          <line class="cls-2" x1="251.6" y1="204.96" x2="204.04" y2="253.02"/>
          <line class="cls-2" x1="297.12" y1="251.49" x2="249.57" y2="299.55"/>
        </g>
        <g>
          <line class="cls-2" x1="203.54" y1="253.53" x2="249.08" y2="299.56"/>
          <line class="cls-2" x1="208.91" y1="248.16" x2="254.44" y2="294.19"/>
          <line class="cls-2" x1="214.27" y1="242.8" x2="259.81" y2="288.82"/>
          <line class="cls-2" x1="219.64" y1="237.43" x2="265.18" y2="283.45"/>
          <line class="cls-2" x1="225" y1="232.06" x2="270.54" y2="278.08"/>
          <line class="cls-2" x1="230.37" y1="226.69" x2="275.91" y2="272.71"/>
          <line class="cls-2" x1="235.74" y1="221.32" x2="281.28" y2="267.34"/>
          <line class="cls-2" x1="241.1" y1="215.95" x2="286.64" y2="261.97"/>
          <line class="cls-2" x1="246.47" y1="210.58" x2="292.01" y2="256.6"/>
          <line class="cls-2" x1="251.84" y1="205.21" x2="297.38" y2="251.23"/>
        </g>
      </g>
    </g>
  </g>
  <g>
    <ellipse class="cls-3" cx="419.46" cy="414.83" rx="25.31" ry="25.58"/>
    <g class="cls-20">
      <g>
        <g>
          <line class="cls-1" x1="420.7" y1="379.51" x2="385.29" y2="415.3"/>
          <line class="cls-1" x1="424.47" y1="383.36" x2="389.06" y2="419.15"/>
          <line class="cls-1" x1="428.24" y1="387.21" x2="392.82" y2="423"/>
          <line class="cls-1" x1="432.01" y1="391.06" x2="396.59" y2="426.85"/>
          <line class="cls-1" x1="435.77" y1="394.91" x2="400.36" y2="430.7"/>
          <line class="cls-1" x1="439.54" y1="398.76" x2="404.13" y2="434.55"/>
          <line class="cls-1" x1="443.31" y1="402.61" x2="407.89" y2="438.4"/>
          <line class="cls-1" x1="447.08" y1="406.46" x2="411.66" y2="442.26"/>
          <line class="cls-1" x1="450.85" y1="410.31" x2="415.43" y2="446.11"/>
          <line class="cls-1" x1="454.61" y1="414.16" x2="419.2" y2="449.96"/>
        </g>
        <g>
          <line class="cls-1" x1="384.91" y1="415.68" x2="418.83" y2="449.96"/>
          <line class="cls-1" x1="388.91" y1="411.68" x2="422.83" y2="445.96"/>
          <line class="cls-1" x1="392.9" y1="407.68" x2="426.82" y2="441.97"/>
          <line class="cls-1" x1="396.9" y1="403.68" x2="430.82" y2="437.97"/>
          <line class="cls-1" x1="400.9" y1="399.69" x2="434.82" y2="433.97"/>
          <line class="cls-1" x1="404.9" y1="395.69" x2="438.81" y2="429.97"/>
          <line class="cls-1" x1="408.89" y1="391.69" x2="442.81" y2="425.97"/>
          <line class="cls-1" x1="412.89" y1="387.69" x2="446.81" y2="421.97"/>
          <line class="cls-1" x1="416.89" y1="383.69" x2="450.8" y2="417.97"/>
          <line class="cls-1" x1="420.88" y1="379.69" x2="454.8" y2="413.97"/>
        </g>
      </g>
    </g>
  </g>
  <g>
    <g>
      <g>
        <line class="cls-16" x1="79.78" y1="388.08" x2="52.93" y2="415.21"/>
        <line class="cls-16" x1="106.76" y1="415.64" x2="79.92" y2="442.77"/>
      </g>
      <g>
        <line class="cls-16" x1="52.65" y1="415.5" x2="79.63" y2="442.77"/>
        <line class="cls-16" x1="55.68" y1="412.47" x2="82.66" y2="439.74"/>
        <line class="cls-16" x1="58.71" y1="409.44" x2="85.69" y2="436.71"/>
        <line class="cls-16" x1="61.74" y1="406.41" x2="88.72" y2="433.68"/>
        <line class="cls-16" x1="64.77" y1="403.38" x2="91.75" y2="430.65"/>
        <line class="cls-16" x1="67.8" y1="400.35" x2="94.78" y2="427.62"/>
        <line class="cls-16" x1="70.83" y1="397.32" x2="97.81" y2="424.59"/>
        <line class="cls-16" x1="73.86" y1="394.28" x2="100.84" y2="421.56"/>
        <line class="cls-16" x1="76.89" y1="391.25" x2="103.87" y2="418.53"/>
        <line class="cls-16" x1="79.92" y1="388.22" x2="106.9" y2="415.5"/>
      </g>
    </g>
    <polygon class="cls-13" points="79.56 443.28 51.68 415.1 79.56 386.92 107.44 415.1 79.56 443.28"/>
  </g>
  <g>
    <path class="cls-12" d="M250.64,444.81h0c0-16.37-13.13-29.64-29.33-29.64h0,0c16.2,0,29.33-13.27,29.33-29.64h0s0,0,0,0c0,16.37,13.13,29.64,29.33,29.64h0,0c-16.2,0-29.33,13.27-29.33,29.64h0Z"/>
    <g class="cls-25">
      <g>
        <g>
          <line class="cls-4" x1="251.23" y1="385.71" x2="221.92" y2="415.34"/>
          <line class="cls-4" x1="254.35" y1="388.9" x2="225.03" y2="418.53"/>
          <line class="cls-4" x1="257.46" y1="392.09" x2="228.15" y2="421.71"/>
          <line class="cls-4" x1="260.58" y1="395.27" x2="231.27" y2="424.9"/>
          <line class="cls-4" x1="263.7" y1="398.46" x2="234.39" y2="428.09"/>
          <line class="cls-4" x1="266.82" y1="401.65" x2="237.51" y2="431.27"/>
          <line class="cls-4" x1="269.94" y1="404.83" x2="240.63" y2="434.46"/>
          <line class="cls-4" x1="273.06" y1="408.02" x2="243.74" y2="437.65"/>
          <line class="cls-4" x1="276.17" y1="411.21" x2="246.86" y2="440.83"/>
          <line class="cls-4" x1="279.29" y1="414.39" x2="249.98" y2="444.02"/>
        </g>
        <g>
          <line class="cls-4" x1="221.6" y1="415.65" x2="249.67" y2="444.03"/>
          <line class="cls-4" x1="224.91" y1="412.34" x2="252.98" y2="440.72"/>
          <line class="cls-4" x1="248.07" y1="389.17" x2="276.14" y2="417.55"/>
          <line class="cls-4" x1="251.38" y1="385.86" x2="279.45" y2="414.24"/>
        </g>
      </g>
    </g>
  </g>
</svg>