<?xml version="1.0" encoding="UTF-8"?>
<svg id="Ebene_1" data-name="Ebene 1" xmlns="http://www.w3.org/2000/svg" viewBox="0 0 1424.45 450.38">
  <defs>
    <style>
      .cls-1 {
        fill: #fff;
      }

      .cls-2 {
        fill: #5a339f;
        stroke: #5a339f;
        stroke-miterlimit: 10;
      }
    </style>
  </defs>
  <g>
    <path class="cls-1" d="M204.75,250.39c-1.2-.18-4.72.1-4.89-.07-.63-.62.15-14.86.02-17.61-.52-10.72-1.13-21.69-1.78-32.51-1.3-21.89-4.44-45.06-9.27-66.52-1.95-8.69-9.13-12.34-16.94-15.1,4.46-4.93,13.33-8.56,4.46-14.83-4.05-2.86-9.12-2.69-13.96-2.33-1.06.08-3.77,1.2-4.03.93-.32-.34.23-7.31-.19-9.29-.31-1.46-3.24-6.41-4.36-7.37-4.37-3.75-12.08.94-12.57.41-.84-.92-1.82-6.21-2.55-7.85-3.91-8.78-16.2-18.92-21.88-6.16-1.12,2.51-2.27,8.61-3.59,10.42-1.06,1.44-23.36-15.43-33.14-11.05-7.48,3.35-1.33,13.98-2.44,15.57-1.88,2.69-18.14-2.38-17.63,6.68.08,1.38,2.31,5.5,1.79,5.94-.17.14-2.79.17-4.26.71-14.21,5.23-4.69,11.9,2.45,18.24-1.27-.15-2.13.26-3.18.88-2.28,1.34-10.62,8.36-12.16,10.4-9.37,12.34-6.08,34.17-5.4,48.71.69,14.76,1.29,29.53,2.71,44.21.61,6.35-.24,2.92-4.05,3.11-3,.15-12.11,2.05-14.68,3.4-1.66.87-2.79,3.41-2.99,5.18-.96,8.65,1.75,19.32,2.77,28l1.05,30.53c1.11,3.75,17.51,6,22.72,4.46,1.21,17.59,2.69,35.22,5.1,53.44.73,5.51-1.6,8.03,4.19,12.05,7.17,4.97,32.77,9.31,42.37,10.87,20.51,3.34,50,8,70.29,6.43,3.13-.24,16.24-6.32,20.54-11.5,1.99-.06,3.55-3.83,4.03-5.43,2.24-7.43,3.64-22.25,4.66-30.53.42-3.42.89-7.1,1.33-10.82,7.07.09,14.22-.16,15.44-.38,7.04-1.27,4.67-12.36,4.95-17.6.33-6.29,1.38-12.33.96-18.98-.14-2.22-.75-7.61-1.34-9.48-2.37-7.54-17.89-4.58-18.55-5.36-.35-.41-1.28-10.44-.91-10.83.43-.45,8.71.79,10.16,1.13,5.33,1.23,10.39,5.43,16,3.85-1.33-1.8-1.47-4.43-2.81-6.21-2.51-3.31-14.15-7.07-18.46-7.71Z"/>
    <path class="cls-1" d="M1199.95,182.57c-2.64-5.76-.99-11.22-7.19-15.17-2.89-1.84-8.35-3.22-10.85-5.07-1.87-1.39-5.33-7.46-7.61-9.76-5.52-5.56-12.62-7.91-20.4-6.81-1.47.21-2.76,1.05-4.36,1.21-9.94.94-18.81-16.89-30.33-11.75-5.59,2.49-8.29,9.56-14.73,10.99-3.62.8-6.29-.35-10.04.52-6.71,1.55-8.58,6.45-15.98,6.38-7.11-.07-15.82-3.53-22.19,2.13-3.36,2.98-2.25,6.56-2.72,10.07-.91,6.82-10.77,7.84-14.16,14.22-2.73,5.14-.99,7.79-1.27,12.66-.25,4.29-7.24,8.62-8.74,12.58-1.62,4.31-.26,6.11.3,9.84,1.07,7.05-5.18,12.41-4.29,19.79.32,2.66,2.45,4.61,2.95,7.2,1.08,5.66-2.25,10.29.64,16.43,1.68,3.57,6.75,6.13,8.03,9.32.66,1.65-.24,2.63-.06,4.06,1.06,8.8,8.88,12.32,14.56,17.07,5.26,4.39,3.26,9.06,6.93,13.85,1.21,1.58,4.01,3.72,5.84,4.5,1.22.53,3.37.42,3.92,1.05,2.65,3.06-3.01,11.1,4.73,15.65,3.8,2.24,9.37.74,9.76,1.05.38.3-.41,4.93-.22,6.35,1.21,8.95,6.5,14.55,15.43,16.04,10.58,1.76,22.22,1.62,32.86,1.74,10.55.12,21.58,1.11,31.93-1.36,3.23-.77,4.31-2.14,5.16-5.29.59-2.19.91-11.17,1.25-11.66.11-.16,1.24.53,1.94.54,4.28.09,10.59-1.77,10.08-7.19-.14-1.48-2.2-8.35-1.47-9.22.17-.2,3.75-.16,5.21-.78.62-.27,3.98-3.17,4.5-3.78,2.37-2.78-.61-5.57.07-6.76.4-.69,8.62-5.02,10.54-7,2.13-2.22,2.02-5.09,3.96-6.98,2.46-2.39,7.71-3.36,9.86-6.84,4.12-6.68-2.24-15.69-1.25-22.33.66-4.47,7.59-9.38,7.94-14.65.32-4.73-4.64-10.22-4.56-12.75.07-2.31,4.51-6.82,5.17-10.03,1.63-7.9-2.1-13.06-6.51-18.96-4.49-6-11.47-14.26-14.59-21.08Z"/>
    <path class="cls-1" d="M986.99,282.39c-.52-1.01-4.25-5.35-5.08-5.57l-10.42-2.79c1.81-2.37,4.67-5.57,5.88-8.22,3.39-7.42,2.45-41.36,2.68-51.69.53-23.62,2.42-51.77-.5-75.02-.41-3.24-2.48-14.55-3.78-16.95-3.04-5.62-11.94-9.8-17.73-11.94-1.35-.5-5.55-1.12-6.02-1.69-.32-.38-.59-7.82-1.4-9.82-.82-2.04-5.83-5.55-7.87-6.39-15.05-6.23-36.1-9.52-52.4-10.94-11.55-1.01-37.73-.79-44.46,10.31-2.84,4.69.29,10.17-.51,11.73-.38.74-5.08,2.98-6.32,3.81-7.12,4.76-15.14,10.21-16.67,19.33-3.99,23.9-2.79,49.53-2.51,73.72.14,12.37-1.41,48.56,4.14,57.74,1.68,2.78,12.77,14.72,12.75,15.73-.02,1.06-5.22,3.13-6.41,3.61-8.83,3.57-15.22,2.55-20.07,12.58-4.31,8.91-4.59,17.7-4.86,27.41-.34,12.05.17,26.21,2.9,37.8.4,1.71.15,3.95.93,5.54.24.49,2.45,3.16,2.61,3.05l41.66,4.52c-.18,2.37.05,4.48,1.07,5.75.66.83,2.8,2.35,3.55.99.63-1.13,1.31-3.43,1.96-6.02l28.57,3.1c.47.1.84.15.94.12,0,0,.02,0,.02-.01l8.33.9c-.29.67-.6,1.33-.92,1.98-.78,1.55-4.91,7.63-4.91,8.22,0,1.9,3.98,2.45,5.48,1.7,1.27-.63,3.6-4.14,4.4-5.52,1.07-1.85,1.98-3.73,2.77-5.65l26.87,2.91c.16,1.64.37,3.23.73,4.61.42,1.65,3.91,9.01,5.91,7.82,1.21-.72.62-6.47,0-11.71l47.2,5.12c1.31-11.82,1.9-23.73,2.25-35.61.56-18.68,1.26-40.55.25-59.06-.09-1.63-.31-4.04-1.04-5.48Z"/>
    <path class="cls-1" d="M455.36,186.61c-.9-6.33-.67-8.52-7.17-10.68-10.08-3.36-17.29-.1-26.65-.88-.76-.06-2.57-.33-2.57-1.15v-12.65c0-.57-3.73-9.61-4.31-10.57-.83-1.38-1.22-1.77-2.6-2.6-8.11-4.88-20.47-3.71-29.54-5.8-.82-.59,7.06-17.68,5.17-19.29-.12-.1-2.59-.52-3-.43-2.51.56-2.76,3.87-3.76,5.86-1.58,3.17-4.19,7.18-5.45,10.18-.41.97-.5,1.91-.4,2.94-1.59.06-1.41.33-1.48-1.12-.1-2.3-.56-3.9-.76-5.94-.25-2.44.62-5.97-.69-8.07-1.49-2.37-5.99-1.79-5.99-.13v14.51c-4.83-.57-4.21-6.57-6.79-9.95-.67-.87-2.96-2.66-3.98-2.68-.37,0-2.49.67-2.57.78-1.13,1.57,3.34,10,2.92,10.36-.43.37-6.8-.26-8.19,0l-.73-15.26c-2-9.99,2.1-22.51-9.4-27.79-6.98-3.21-14.79-2.86-22.16-3.88-5.37-.74-12.06-2.7-17.25-2.88-3.37-.11-9.01,1.68-12.65,2.13-5.56.68-11.29.64-16.67,2.3v3.72c2.27,1.62,13.33.09,14.14.75.2.16-2.25,3-2.81,4.25-1.32,2.97-2.87,9.24-3.15,12.47-1.73,20.1.03,45.85.76,66.21.62,17.15,1.55,34.21,2.21,51.36.76,20.01,1.09,40.28,2.98,60.26,1.01,10.69,7.62,12.82,15.12,17.61,15.18,9.71,30.71,19.02,47.19,26.46,1.39.63,2.9.61,4.11,1.1,3.97,1.61,2.4,10.73,2.77,14.34.45,4.44,1.62,8.99,2.18,13.44.45,3.62.89,17.59,3.2,19.5.28.23,3.43,1.03,3.56.9,1.13-1.18-1.24-14.79-1.5-17.47-.17-1.72.19-3.51.02-5.23-.6-6.33-3.56-17.9-1.49-23.62.35-.96,2-.84,2.21-1.7.5-1.97-9.32-15.78-10.02-19.61-.16-.88.43-1.73.3-2.58-1.85-12.75-2.67-32.78-1.25-45.38.1-.86,1.05-1.61,1.07-2.32.03-1.28-2.66-3.67-2-5.58,4.44.43,9.41.32,13.77.73,11.92,1.12,23.74,3.94,35.69,4.49,6.26.28,23.74.81,25.53-7.23l-.6-19.57h25.67c.46,0,5.85-1.9,6.59-2.33,1.21-.72,3.21-2.61,3.45-3.99l-1.47-34.23c-1.16-4.52-.92-9.51-1.57-14.06Z"/>
    <path class="cls-1" d="M771.22,294.81c-.39-2.82-1.96-12.02-4.87-12.98-3.92-1.29-9.61,1.78-9.94,1.39-.26-.32-.63-5.87-.83-6.98-1.48-8.32-3.39-20.93-6.46-28.51-2.8-6.92-8.07-8.79-14.84-10.45-13.41-3.29-31.41-4.89-45.17-5.42-15.95-.62-32.06.53-48.02.03-.15-1.43.67-2.68.75-4.07.4-6.55-2.56-7.52-4.13-13.01-1.36-4.77-.53-9.02-1.42-13.45-1.36-6.73-5.93-12.89-7.52-19.27-.96-3.86-.94-8.04-2.18-11.95-1.66-5.24-4.32-10.92-6.01-16.31-.42-1.34-.11-2.81-.47-3.99-.53-1.74-3.42-3.68-5.12-2.43-.76.56-2.99,11.75-3.83,14.02-1.87,5.04-4.43,5.33-4.33,11.36.13,7.8-2.13,10.47-2.88,17.14-.34,3.05.39,6.55-.22,9.45-.84,4.01-5.07,5.4-5.73,11.38-.62,5.63.15,5.09-2.11,10.54-1.84,4.43-.37,7.68.56,12.09-2.73-.47-5.19.64-7.77.78-7.8.43-16.03-.44-23.85-.05-15.42.78-30.79,4.34-46.11,5.97-3.62.39-15.48-.03-17.81,1.55-.86.59-.99,1.75-1.34,1.98-1.06.7-6.34,1.04-8.21,1.84-3.63,1.54-5.13,8.88-6.13,12.46-3.39,12.05-4.87,26.54-4.1,39.07.07,1.13,1.34,5.07.76,5.57-.13.11-2.41-.05-3.27.07-3.03.43-11.23,2.5-12.21,5.65-1.42,4.59-.64,10.71-.92,15.51,1.7,5.44-.96,15.36,5.77,17.28,1.49.43,14.13.75,15.47-1.06,1.75,8.27,4.11,16.28,7.42,22.82,1.85,3.64,6.9,11.59,9.86,14.14,5.96,5.14,22.56,4.66,30.34,4.46,36.89-.98,74.07-3.63,110.83-7.47,29.26-3.05,61.13-7.18,89.1-16.55,8.69-2.91,15.44-5.44,19-14.48,2.49-6.32,3.8-13.67,4.44-21.2,5.95.66,14.51-1.02,15.04-4.7.27-1.84.16-4.75.07-6.7-.22-4.6-.95-10.89-1.59-15.52Z"/>
    <path class="cls-1" d="M1387.64,320.28c-1.5-.04-8.01,1.05-8.72.45-.45-.38-.1-9.27-.03-10.82.46-9.93,1.4-20.13,2.33-30.05.2-2.09,3.34-62.06,2.51-63.05-.05-.06-.82-.47-1.55-.84l1.32-22.46c-.69-3,.27-6,.09-9.11-.14-2.36-1.6-5.39-.7-7.72.6-1.55,7.39-3.66,8.19-4.48,1.48-1.51,1.04-16.09.95-19.18-.06-1.95-.73-3.84-.8-5.8-.63-15.89-.09-32.7-2.27-48.43-.55-3.92-.45-6.41-3.46-9.48-4.99-5.09-6.19-4.23-12.7-6.2-11.12-3.36-20.47-7.54-32.3-10.46-28.26-6.97-57.17-12.18-85.54-18.81-4.74-1.11-10.71-3.56-15-4.24-3.14-.5-4.98-.49-4.8,2.72.5,8.62,5.18,20.42,6.82,29.54,1.23,6.87,1.99,13.98,3.08,20.91.7,4.42-.64,6.8,4.9,9.56,6.24,3.11,18.33,7.79,25.16,9.99,2,.64,7.81,2.44,11.48,2.98-.07,7.26.14,14.54.08,21.8-4.08,1.1,2.16.85-.63,2.97-1.64,1.24.46,1.21.28,3.01-.72,7.18-.58,15.37-.42,22.82.02.88.2,5.39-.04,5.59-.1.09-1.81-.4-2.89-.21-4.3.75-7.85,3.05-9.21,6.6-2.35,6.13-1.48,14.34-1.73,20.75-.47,6.34-2.44,14.39-1.9,20.65.18,2.08,2,3.99,4.2,4.83,2.2.83,5.31.11,7.68.33l-.04,52c1.06,6,.17,10.77,8.3,12.56,5.77,1.27,12.23,1.05,17.88-.5,1.51,5.15.54,10.7.76,16.03.05,1.25.77,2.45.82,3.88.26,8.27-.3,16.57.01,24.84-2.29.15-2.07,1.2-2.5,1.51-.24.17-4.55-.02-6.2.32-8,1.65-9.23,8.51-10.58,14.53-.46,2.05-1.17,4.24-1.52,5.9-.82,3.94-.37,9.63-.77,13.73-1.17,11.95-3.72,26.23-2.3,37.89.18,1.46-.57,5.1,1.91,5.57.49.09.9-.1,1.23-.46l99.17-25.61c.67-.04,1.57-.22,1.91-.71.21-.3,1.07-5.32,1.14-6.22,1.38-16.93,1.04-34.06,2.28-51.01l2.35-13.7c-.2-2.18-5.89-4.65-8.24-4.71Z"/>
  </g>
  <g>
    <path class="cls-2" d="M163.77,247.61l27.07,1.81c-.28-8.24.36-16.59.01-24.83-.07-1.53-.87-2.95-.93-4.48-1.36-30.34-2.85-60.11-11.67-89.38-3.96-6.23-20.64-9.62-27.83-10.97-20-3.78-41.76-4.9-62-2.99-19.39,1.83-39.4,12.54-41.06,33.84-1.35,17.37,1.72,38.39,2.73,55.94,2.75,47.56,3.61,96.61,10.74,143.56.26,1.7-.22,3.57.24,5.18.86,3.04,7.76,4.74,10.67,5.58,26.47,7.63,56.26,8.31,83.45,12.19,5.84,1.42,16.42-3.08,20.79.86,5.61,5.05-3.01,6.03-7.23,6.36-20.29,1.57-49.79-3.1-70.29-6.43-9.6-1.56-35.2-5.89-42.37-10.87-5.79-4.02-3.46-6.54-4.19-12.05-5.09-38.5-6.06-74.38-9.03-112.78-.07-.89-.76-5.6-.94-5.83-.68-.86-9.69.89-11.12,1.71-.89.51-1.3,2.28-1.42,3.27-.89,7.3,1.37,17.73,1.76,25.21-.74,5.53.59,11.05.9,16.24.19,3.21-.85,10.66.82,12.71.86,1.05,4.33,2.37,4.58,3.55.83,3.92-12.02,2.56-13.37-1.98l-1.05-30.53c-1.02-8.68-3.73-19.35-2.77-28,.2-1.77,1.33-4.31,2.99-5.18,2.58-1.35,11.69-3.26,14.68-3.4,3.81-.19,4.66,3.24,4.05-3.11-1.42-14.68-2.01-29.45-2.71-44.21-.68-14.54-3.97-36.37,5.4-48.72,1.55-2.04,9.89-9.06,12.16-10.4,1.06-.62,1.92-1.04,3.18-.88-7.14-6.33-16.66-13-2.45-18.24,1.47-.54,4.09-.57,4.26-.71.53-.43-1.71-4.55-1.79-5.94-.51-9.07,15.74-3.99,17.63-6.68,1.11-1.58-5.04-12.22,2.44-15.57,9.78-4.38,32.08,12.49,33.14,11.05,1.32-1.8,2.47-7.9,3.59-10.41,5.68-12.76,17.97-2.62,21.88,6.16.73,1.64,1.7,6.93,2.55,7.85.49.53,8.2-4.15,12.57-.41,1.12.96,4.05,5.91,4.36,7.37.42,1.98-.13,8.95.19,9.28.26.28,2.97-.85,4.03-.93,4.84-.35,9.91-.53,13.96,2.33,8.87,6.27,0,9.9-4.46,14.83,7.81,2.76,14.99,6.41,16.94,15.1,4.83,21.47,7.97,44.63,9.27,66.52.64,10.82,1.26,21.79,1.78,32.51.13,2.75-.64,16.99-.02,17.61.17.17,3.69-.11,4.89.07,4.31.64,15.95,4.4,18.46,7.71,1.35,1.78,1.49,4.4,2.81,6.21-5.62,1.58-10.67-2.62-16-3.85-1.45-.33-9.73-1.57-10.16-1.13-.38.39.55,10.42.91,10.83.66.78,16.18-2.19,18.55,5.36.59,1.88,1.2,7.27,1.34,9.49.42,6.65-.63,12.69-.96,18.98-.27,5.25,2.09,16.33-4.95,17.6-2.49.45-8.63-.65-9.42-3.21-1.19-3.85,5.29-2.83,6.13-5.48.8-2.51-.08-8.43.11-11.62.09-1.54.88-2.98.93-4.48.23-7.15-.17-14.14-.91-21.22-1.71.29-10.45-.38-10.83,0-1.1,1.1.28,26.63.02,31.15-.47,8.12-1.8,17.83-2.81,26.07s-2.41,23.1-4.66,30.53c-.56,1.87-2.62,6.76-5.1,5.11-.17-.11-.34-1.56-.93-2.22-2.06-2.29-3.15.1-2.81-5.4,1.32-20.82,6.95-42.86,8.17-64.02.74-12.8-.67-25.67-.91-38.36-3.8.36-27.73-2.06-28.88-.9-.2.2.08,4.21-.2,5.67-.43,2.23-2.17,7.55-4.03,8.6-4.12,2.33-18.28-1.91-21.1-5.63-2.09-2.78-1.72-8.88-1.74-12.24-4.29.16-32.31-2.17-33.37-.88-.3.37-1.29,7.57-1.88,9.4-1.01,3.17-1.26,5.39-4.95,5.85-4.92.61-15.18-1.03-18.94-4.42-1.01-.91-1.67-2.07-2.03-3.38-2.04-7.35-1.88-28.77.66-35.94.47-1.33,1.75-3.76,2.97-4.29,4.09-1.78,10.81-2.29,14.6.36,1.12.78,1.28,2.53,2.01,2.65,1.97.33,3.06-.58,5.32.82,4.52,2.81,2.44,18.28,3.18,18.93,2.7,2.36,27.21.2,32.42.97-.22-4.72-1.46-21.48,4.18-23.34,1.52-.5,10.5-.35,12.33.05,2.17.48,2.89,2.23,4.28,2.94,1.74.88,5.5.7,6.15,2.88.38,1.3-.06,2.93.16,4.35.13.85.86,1.65.86,1.85v14.89ZM170.88,106.96c-.51-.55-5.58-.88-6.64-.83-3.57.16-14.35,3.91-13.84-2.18.36-4.27,3.31-9.11-.6-13.35-2.05-2.23-5.28,1.05-8.07.9-11.13-.6-8.32-17.64-16.31-18.96-1.8-.3-1.14.49-1.56,1.18-2.24,3.66-1.86,8.77-5.18,11.96-6.71,6.44-17.17-2.68-23.28-5.66-1.77-.87-9.21-4.06-10.52-3.79-3.75.77,2.03,10.16-.47,13.98-3.52,5.38-15.57,1.53-17.19,3.11-1.02.99,3.55,6.82,1.41,9.98-.76,1.12-10.7,1.21-11.34,4.01-.37,1.65,6.8,7.51,8.6,7.68,2.08.2,8.89-2.82,11.93-3.41,18.38-3.58,46.08-2.77,64.66-.14,7.44,1.05,15.42,3.06,22.67,5.07,1.25-1.74,7.04-4.57,6.6-6.35-.12-.47-.83-1.2-1.16-2.01-.14-.34.39-1.09.3-1.2ZM93.39,225.95c-4.88-.03-8.18-1.21-9.53,4.46-1.79,7.5-.87,12.26-.38,19.44.12,1.79-.34,9.98.05,10.32.62.54,9.1,2.38,8.51-.79,2.28-11.13,2.23-22.19,1.35-33.44ZM154.75,227.76c-.32-.32-8.73-.34-9.02,0-.22.26-.84,5.7-.92,6.75-.46,6.23-.77,20.15.23,25.96.64,3.71,2.69,5.03,6.48,5.2.69.03,1.95-5.08,2.11-6.11.42-2.65.97-7.05,1.14-9.69.17-2.8.77-21.34-.01-22.12Z"/>
    <path class="cls-2" d="M1391.07,172.21c-.8.82-7.59,2.93-8.19,4.48-.9,2.33.56,5.37.7,7.72.19,3.11-.78,6.12-.09,9.11l-2.25,7.59c-.43-3.18-1.26-6.26-1.51-9.45-2.01-25.03-1.16-50.29-6.39-75.03-.48-2.28-3.9-16.63-4.61-17.33-.4-.4-2.48-1.23-3.23-1.5-5.52-1.96-13.95-2.41-19.98-2.63-14.95-.54-30.38.44-45.38.06-2.4.3-4.52,2.03-5.42,3.89-2.27,4.67-1.58,12.31-1.9,17.34-.6,9.47-1.2,19.26-1.56,28.74-.45,11.81.47,25.71-.83,37.21-.07.61-.56,3.52-.7,3.66-.14.13-1.99-.55-3.09-.39-1.69.24-4.99,1.61-6.04,2.76-3.16,3.49-2.02,12.52-2.4,16.92-.62,7.16-1.59,14.4-2.33,21.55-.05.53-.12,2.85,0,2.95.97.81,16.85-1.39,19.63-.64,2.62.15,4.02-8.66,3.39-9.12-.37-.27-5.22-.74-6.66-1.2-1.16-.38-2.8-1.31-3.84-1.95-.47-.29-2.31-.55-.98-1.46,1.89-1.3,4.82-.18,6.6-.06,3.72.26,11.11.47,12.51,4.42.55,1.55-2.88,13.38-4.48,14.28-2.89,1.63-10.22-1.69-13.41.25-.63.38-1.18,3.92-1.26,4.93-1.27,17.04,1.06,35.2,0,52.36-.09,3.07,4.43,3.4,7.31,3.59,3.8.25,18.22-1.44,19.51,2.37.76,2.23-.04,7,.12,9.7.46,7.52,1.43,15.29.74,22.84,2.03,8.48-.51,17.22.05,25.85l58.45-17c-1.9-2.09.89-4.51.65-5.44-.48-1.85-2.35-1.88-2.23-6.01.32-10.85,1.39-21.87,2.36-32.66.7-7.8.62-18.35,3.6-25.7.22-.53,1.57-3.17,1.78-3.4.1-.11,2.83,1.3,2.93,1.42.83.99-1.22,10.54-1.41,12.63-.93,9.92-1.87,20.12-2.33,30.05-.07,1.55-.42,10.44.03,10.82.71.6,7.22-.49,8.72-.45,2.35.06,8.04,2.54,8.24,4.71l-2.35,13.7c-1.25,16.95-.9,34.08-2.28,51.01-.07.9-.93,5.92-1.14,6.22-.55.79-2.59.79-2.71.64s-.73-3.06-.79-3.59c-1.12-11.14.48-22.9.82-33.97.16-5.37-.48-11.1-.06-16.39.13-1.68,2.16-3.53-.99-2.8-17.54,5.23-34.87,11.03-52.41,16.25-3.36,1-7.04,1.31-10.4,2.27-8.4,2.41-17.56,7.09-25.96,8.67-.93.17-3.16.06-3.28.15-.25.18.12,4.48.01,5.57-1.43,14.98-2.24,30.18-3.85,45.1-.12,1.13-.75,5.26-2.69,4.89-2.48-.46-1.73-4.11-1.91-5.57-1.42-11.66,1.12-25.94,2.3-37.89.4-4.1-.06-9.78.77-13.73.35-1.66,1.05-3.85,1.52-5.9,1.36-6.02,2.58-12.88,10.58-14.53,1.66-.34,5.96-.15,6.2-.32.43-.31.21-1.36,2.5-1.51-.32-8.27.24-16.57-.01-24.84-.04-1.43-.77-2.63-.82-3.88-.22-5.33.74-10.88-.76-16.03-5.65,1.55-12.11,1.77-17.88.5-8.13-1.78-7.24-6.56-8.3-12.56l.04-52c-2.38-.22-5.49.5-7.68-.33-2.21-.84-4.02-2.75-4.2-4.83-.54-6.25,1.42-14.31,1.9-20.65.25-6.41-.61-14.62,1.73-20.75,1.36-3.55,4.91-5.85,9.21-6.6,1.07-.19,2.78.3,2.89.21.24-.19.06-4.71.04-5.59-.17-7.46-.31-15.65.42-22.82.18-1.8-1.92-1.76-.28-3.01,2.79-2.12-3.45-1.88.63-2.97.07-7.83-.2-15.67-.07-23.49.03-1.7.77-3.3.85-5.18.28-6.33-1.37-12.11.27-18.64,1.29-5.13,6.05-9.08,12.38-9.06,17.92.06,39.22-.42,56.84,1.27,4.51.43,16.76,5.05,17.98,8.91.32,1.03,0,2.11.24,3.06,4.89,19.33,6.58,35.98,7.62,55.62.09,1.72-.41,10.38,0,10.8.13.14,3.31-1.75,3.47-1.95.71-.89.5-13.77.38-16.04-.21-3.82-1.35-8.58-1.56-12.4-.62-11.33-.52-22.69-1.54-33.99-.45-5.02.24-13.43-4.98-16.69-3.56-2.22-11.47-3.84-15.95-5.4-7.53-2.62-14.7-5.71-22.7-7.51l-97.86-21.73.07,3.53c4.48,16.26,6.99,32.81,8.73,49.45.94,2.46,3.87,2.29,6.1,3.31,7.36,3.37,14.9,6.31,22.24,9.7,3.5,3.9-.69,2.74-4.06,1.65-6.83-2.2-18.93-6.88-25.16-9.99-5.55-2.76-4.21-5.14-4.9-9.56-1.09-6.93-1.85-14.05-3.08-20.91-1.64-9.13-6.32-20.93-6.82-29.54-.19-3.21,1.65-3.23,4.8-2.72,4.29.69,10.26,3.14,15,4.24,28.37,6.63,57.28,11.84,85.54,18.81,11.84,2.92,21.18,7.1,32.3,10.46,6.51,1.97,7.71,1.11,12.7,6.2,3.01,3.07,2.92,5.55,3.46,9.48,2.19,15.72,1.64,32.54,2.27,48.43.08,1.96.75,3.85.81,5.8.09,3.09.53,17.67-.95,19.18Z"/>
    <path class="cls-2" d="M1368.92,193.26c.25.19,4.4-.45,6.21,1.59,1.59,1.79,1.22,6.37,1.47,8.56,1.24,11.01,3.45,27.11,1.49,37.85-.36,1.96-.8,4.61-3.4,4.96-5.41.73-11.56.2-16.85.71-2.94.28-8.12,2.4-10.73,1.93-.55-.1-.44-.94-.72-1.09-.77-.4-1.88-.27-2.46-.87-.59-.6-1.06-2.71-1.16-3.6-.89-8.05-.62-17.37-.79-25.47-.17-7.75-1.29-23.62.38-30.46,1.39-5.69,8.21-4.91,13.01-2.49,2.23,1.12,5.48,4.07,1.5,5.05-2.75.68-6.72-3.45-7.94.41l.78,52.63c.61.56,6.71-1.24,8.15-1.28,1.13-.03,2.21.6,3,.54,1.45-.11,9.02-.96,9.47-1.34,1.16-.99.67-6.94,1.69-8.69l-2.39-35.9c-.4-.46-.56-1.1-1.43-.71-3.61,1.63-9.24,1.9-12.36-.64-1.76-1.43-3.01-2.9.4-2.96,1.91-.03,3.83.09,5.72-.05l3.9-27.41c-3.96-.45-6.07,1.62-9.25-.97-2.53-2.06-1.89-2.31,1.14-2.98,4.23-.93,7.87-.66,11.73,1.2,6.33,3.06,2.48,9.58,1.83,14.24-.41,2.95-.43,6.23-.82,9.11-.18,1.33-1.92,7.88-1.56,8.16Z"/>
    <path class="cls-2" d="M1312.01,155.35c1.25.9,17.59-1.92,20.69-2.24,6.88-.71,14.03-.89,21.03-1.84,2.69-.36,6.1-1.57,8.83-1.67,1.46-.05,2.32,1.94,4.04,1.83.2,1.14-1.37.45-2.32.99-.59.34-.5,1.29-1.31,1.62-1.58.64-5.82,1.21-7.89,1.65-14.12,2.96-28.71,3.87-42.95,6.3-2.01,2.59-.22,5.02-.12,7.4.12,2.88-.3,14.1-1.92,16.04-.9,1.07-3.12.48-4.56.7-4.27.65-10.88,3.15-11.98-2.37-.8-3.98-.3-13.86-.05-18.32.13-2.29,1.04-4.93,1.31-7.28.1-.87-.54-1.59-.2-2.85.55-2.05,5.15-2.92,7.15-3.76,3.27-1.38,5.49-4.25,9.44-1.74,3.41,2.17.52,5.33.79,5.53ZM1305.86,156.66c-.51-.44-5.33,1.21-5.42,1.72.23,2.91-2.47,22.31-1.5,23.13.25.21,4.34-.15,5.39,0,.17-3.59.45-7.21.75-10.8s.06-4.58-.05-7.82c-.04-1.34,1.34-5.77.83-6.22Z"/>
    <path class="cls-2" d="M170.02,335.2c1.7,2.52-1.52,4.86-4.04,5.31-18.97,3.38-52.73-7.99-70.23-16.31-3.94-1.87-12.59-6.19-15.86-8.51-1.61-1.14-3.46-3.24-4.56-4.91,18.28,4.86,34.65,14.83,53.03,19.6,9.27,2.4,22.8,5.27,32.25,4.77,1.93-.1,8.02-1.98,9.39.05Z"/>
    <path class="cls-2" d="M128.39,288.41c.26.33.96,3.13.72,3.45-1.9,2.54-16.16,3.86-15.6-3.22.26-3.35,4.81-1.42,6.48-1.3,1.98.14,7.22-.47,8.4,1.07Z"/>
    <path class="cls-2" d="M268.68,93.92c5.37-1.66,11.11-1.62,16.67-2.3,3.63-.45,9.28-2.24,12.65-2.13,5.19.17,11.87,2.13,17.25,2.88,7.37,1.02,15.18.67,22.16,3.88,11.51,5.29,7.41,17.8,9.41,27.79l.73,15.27c1.39-.26,7.76.36,8.19,0s-4.06-8.79-2.92-10.36c.08-.11,2.19-.79,2.57-.78,1.02.02,3.32,1.81,3.98,2.68,2.58,3.38,1.96,9.38,6.79,9.95v-14.51c0-1.67,4.5-2.24,5.99.13,1.32,2.1.45,5.63.69,8.07.21,2.04.67,3.64.76,5.94.06,1.45-.12,1.18,1.48,1.12-.1-1.03,0-1.97.4-2.94,1.26-3,3.87-7.01,5.45-10.18.99-1.99,1.24-5.3,3.76-5.86.41-.09,2.88.33,3,.43,1.89,1.61-5.98,18.71-5.17,19.29,9.07,2.09,21.43.92,29.54,5.8,1.38.83,1.77,1.23,2.6,2.6.58.96,4.31,10,4.31,10.57v12.65c0,.82,1.81,1.09,2.57,1.15,9.36.78,16.57-2.48,26.65.88,6.5,2.16,6.27,4.35,7.17,10.68.65,4.55.41,9.54,1.57,14.06l1.47,34.23c-.24,1.38-2.23,3.28-3.45,3.99-.74.44-6.13,2.33-6.59,2.33h-25.67l.6,19.57c-1.79,8.03-19.27,7.51-25.53,7.23-11.95-.54-23.76-3.36-35.69-4.49-4.36-.41-9.33-.3-13.77-.73-.67,1.91,2.03,4.3,2,5.58-.02.72-.98,1.46-1.07,2.32-1.42,12.59-.6,32.62,1.25,45.38.12.86-.46,1.7-.3,2.58.7,3.84,10.52,17.64,10.02,19.61-.21.86-1.87.74-2.21,1.7-2.07,5.72.89,17.29,1.49,23.62.16,1.72-.19,3.51-.02,5.23.26,2.67,2.63,16.28,1.5,17.47-.13.13-3.28-.67-3.56-.9-2.3-1.91-2.75-15.88-3.2-19.5-.56-4.46-1.73-9.01-2.18-13.44-.37-3.61,1.2-12.73-2.77-14.34-1.21-.49-2.72-.47-4.11-1.1-16.48-7.45-32.01-16.75-47.19-26.46-7.5-4.8-14.11-6.92-15.12-17.61-1.89-19.97-2.21-40.24-2.98-60.26-.66-17.15-1.59-34.2-2.21-51.36-.74-20.36-2.49-46.11-.76-66.21.28-3.23,1.82-9.51,3.15-12.47.56-1.26,3.01-4.09,2.81-4.25-.81-.66-11.87.87-14.14-.75v-3.72ZM413.76,174.26c.14-.12-1.29-2.22-1.46-3.37-.36-2.5.15-5.25-.21-7.97-.29-2.17-1.88-7.87-2.94-9.71-.95-1.65-5.16-2.88-7.1-3.31-16.96-3.81-38.22-4.16-55.63-5.38-17.09-1.19-34.76-3.52-52.08-2.25-3.42.25-7.6,2.2-10.77.76l3.05,111.51c1.05,1.51,17.91.66,21.16.79,16.37.65,33.49,1.04,49.82,2.26,13.49,1.01,44.22,8.37,55.67,2.87,5.17-2.49,3.17-5.33,3.47-10.3-10.98-.63-22.92.89-33.78-.07-5.64-.5-14.31-1.98-19.97-3.09-2.83-.56-11.08-2.43-12.5-4.61-.77-1.18-1.71-3.27.39-3.39,4.95-.27,10.83,1.91,15.85,2.78,14.32,2.47,30.65,3.51,45.22,2.47.91-.06,3.96-.31,4.09-1.25.61-4.3-.62-2.59-2.66-3.96-.55-.37-2.97-2.81-3.34-3.37-1.86-2.76-5.08-17.32-3.37-19.78.88-1.27,9.02-2.36,11.17-2.96,1.02-.28,1.78-1.19,2.4-1.33,2.12-.49,9.31,4.39,8.42,7.67-.38,1.38-1.14.79-1.97.5-1.26-.44-3.31-2.06-4.34-2.08-.64-.02-8.87,2.47-9.16,2.85-1.56,1.99,1.38,12.55,3.56,13.63.61.3,5.9,1.03,7.07,1.11,5.48.39,19.61.7,24.19-1.12.51-.2,3.47-1.82,3.59-1.99.39-.56.23-11.75.16-13.67-.17-5.19-1.47-10.87-.77-16.34l-2.59-20.47c-.65-.61-1.54-1.13-2.41-1.31-6.62-1.4-12.07.17-18.46-.14-1.26-.06-2.43-.68-3.69-.77-5.95-.43-12.6-.62-18.47-1.65-1.66-.29-3.53-2.76-2.74-3.54,2.01-1.99,10.73.36,11.16,0ZM312.58,261.31l-25.29-1.49c.12,3.33-.17,6.72-.01,10.06.31,6.53.9,14.31,1.49,20.83,1.03,11.38,8.85,13.25,16.62,18.34,1.25.82,12.64,9.42,13.14,8.8l-5.95-56.54Z"/>
    <path class="cls-2" d="M343.08,177.24c-.68-.79-6.42.68-7.8.75-3.64.19-14.21.65-16.58-1.66-.79-.77-.73-3.45.29-3.59,4.88-.36,9.94-.34,14.8-.7,8.29-.6,16.98-1.17,25.24-2.29,2-.27,4.03-1.85,5.36-2.01,1.48-.17,4.02,1.31,5.87,1.35s3.25-.89,5.1-.77c2.48.16,9.36,2.12,10.51,4.48.34.69-.12,1.47.11,2.17,1.43,4.25,3.6,13.89,2.36,18.12-1.4,4.77-14.97,4.55-18.86,4.95-4.53.47-10.64,2.53-14.91.8-3.76-1.52-9.03-11.09-10.36-14.93-.6-1.72-.9-6.43-1.12-6.69ZM380.21,174.34c-1.69-1.71-9,.39-11.45.68-3.56.43-6.97.94-10.49,1.41-5.87.78-9.34-2.15-7.42,6.8.36,1.65,4.21,9.16,5.35,9.53,3.08,1,8.62-.42,11.79-.65,4.65-.34,11.56,1.3,13.66-4.24-.8-2.08-.66-12.74-1.44-13.53Z"/>
    <path class="cls-2" d="M308.2,247.84c.73.51,6.74.48,7.26-1.13.55-1.68.29-12.3.13-14.82-.12-1.9-.81-7.53-1.6-8.81-1.63-2.61-2.94.48-5.45.3-1.04-.08-4.11-1.88-4.13-2.61s4.84-2.78,5.9-3.01c6.04-1.35,9.29,1.84,10.29,7.64.4,2.29.81,6.35.94,8.73.16,2.85.48,14.37-.14,16.3-.29.91-1.28,1.31-2.11,1.61-3.72,1.36-8.97.88-12.87.18-5.93-1.06-3.91-4.66-4.25-9.14-.13-1.69-2.23-9.03,1.72-8.44,5.2.77,2.45,11.91,4.31,13.21Z"/>
    <path class="cls-2" d="M305.21,197.41c-.59.85,1.09,3.24.67,3.64-.17.16-2.49.09-3.03-.31-1.05-.78-.14-4.47-2.52-1.89-1.64,1.78-1.34,8.17-1.15,10.77.41,5.83,2.18,12.34,3.04,18.16,1.96-.44,4.02.7,5.6.77,1.32.06,2.46-.83,3.64-.75,3.32.23,3.37,4.28-.77,4.49-1.13.06-6.54-.66-7.98-.91-5.35-.91-6.22-3.7-7.15-8.47-1.01-5.18-3.39-20.53-1.98-24.88,1.52-4.69,13.05-5.97,13.8-2.56.36,1.61-1.9,1.56-2.16,1.93Z"/>
    <path class="cls-2" d="M1179.63,314.52c-.73.87,1.34,7.74,1.47,9.22.51,5.42-5.8,7.27-10.08,7.19-.7-.01-1.83-.7-1.94-.54-.33.48-.66,9.47-1.25,11.66-.85,3.15-1.92,4.52-5.16,5.29-10.35,2.47-21.38,1.48-31.93,1.36-10.64-.12-22.28.02-32.86-1.74-8.93-1.48-14.22-7.09-15.43-16.04-.19-1.42.6-6.05.22-6.35s-5.96,1.19-9.76-1.05c-7.74-4.55-2.08-12.59-4.73-15.65-.55-.63-2.7-.53-3.92-1.05-1.83-.78-4.63-2.92-5.84-4.5-3.67-4.78-1.67-9.46-6.93-13.85-5.68-4.75-13.5-8.27-14.56-17.07-.17-1.44.73-2.41.06-4.06-1.28-3.19-6.35-5.76-8.03-9.32-2.89-6.14.44-10.78-.64-16.43-.49-2.58-2.63-4.54-2.95-7.2-.9-7.39,5.35-12.74,4.29-19.79-.56-3.73-1.92-5.53-.3-9.84,1.49-3.96,8.49-8.29,8.74-12.58.28-4.87-1.46-7.52,1.27-12.66,3.38-6.37,13.25-7.39,14.16-14.22.47-3.51-.63-7.09,2.72-10.07,6.37-5.65,15.07-2.2,22.19-2.13,7.4.07,9.28-4.82,15.98-6.37,3.75-.87,6.42.28,10.04-.52,6.45-1.42,9.15-8.49,14.73-10.99,11.53-5.15,20.39,12.69,30.33,11.75,1.6-.15,2.89-1,4.36-1.21,7.77-1.1,14.88,1.25,20.4,6.81,2.28,2.3,5.73,8.37,7.61,9.76,2.5,1.86,7.96,3.24,10.85,5.07,6.2,3.95,4.55,9.41,7.19,15.17,3.13,6.82,10.1,15.08,14.59,21.08,4.41,5.9,8.14,11.06,6.51,18.96-.66,3.22-5.1,7.73-5.17,10.03-.08,2.53,4.88,8.02,4.56,12.75-.36,5.27-7.28,10.19-7.94,14.65-.99,6.64,5.37,15.65,1.25,22.33-2.15,3.48-7.4,4.45-9.86,6.84-1.94,1.88-1.83,4.76-3.96,6.98-1.91,1.99-10.14,6.31-10.54,7-.68,1.19,2.3,3.98-.07,6.76-.52.61-3.88,3.51-4.5,3.78-1.46.63-5.04.58-5.21.78ZM1166.79,154.57c-.88-.74-4.78-3.17-5.81-3.3-4.03-.53-9.68,1.14-13.96,1.1-3.44-.03-8.18-2.15-11.11-3.95-2.93-1.8-9.92-8.59-12.98-7.97-1.79.36-6.42,6.38-8.48,7.94-6.21,4.67-12.26,2.47-18.92,4.05-3.71.88-7.06,5.37-12.91,6.34-6.09,1.01-14.07-2.45-19.33-.41-2.67,1.03-1.37,5.06-1.67,7.52-1.31,10.62-13.88,9.68-15.95,18.2-1,4.13.61,7.73-.68,11.78-1.21,3.79-5.65,6.01-7.53,9.47-2.99,5.49.8,9.55.04,15.13-.45,3.3-4.8,8.58-4.64,13.31.08,2.42,2.37,4.59,2.88,7.13,1.03,5.16-1.18,9.58-.28,14.27.88,4.64,8.76,8.35,9.47,14.13.15,1.25-.55,2.41-.39,3.66.85,6.97,15.89,13.05,17.98,19.54.86,2.67.55,7.37,3.51,8.91,2.6,1.35,6.98.27,10.31,2.44,2.73,1.77,2.06,5.32,5.76,5.81-1.14-12.29-.53-24.57-1.74-36.83-.14-1.43-1.1-2.7-1.19-4.34-.08-1.55.14-5.73.31-7.35.3-2.85,1.63-5.26,3.72-7.18,7.2-6.61,19.14-11.13,28.78-11.92-.42-1.32-2.22-.8-3.5-1.96-.5-.45-1.77-2.41-1.4-2.83,1.21-1.37,14.2.6,16.93.68,6.4.18,12.55-.62,19.02.24,27.56,3.65,26.87,28.29,27.61,50.62l-1.11,21.37c3.74-.38,12.22-.66,12.82-5.38.41-3.23-1.12-3.81,1.78-6.75,2.72-2.75,9-4.74,10.45-7.72.5-1.03.47-2.31.96-3.31,2.35-4.81,11.68-5.66,12-11.22.46-7.82-5.25-14.09-1.05-22.16,1.31-2.52,5.21-5.53,5.72-8.25,1.01-5.5-4.17-10.08-4.1-14.37.06-3.26,4.79-7.48,5.47-10.57,1.4-6.43-2.71-10.86-6.38-15.41-7.13-8.82-13.64-17.29-16.64-28.46-.28-1.05-.87-3.33-1.42-4.04-1.28-1.64-10.97-5.24-13.43-6.5-2.77-3.67-5.36-8.51-8.91-11.48ZM1126.05,243.18c-1.04.43-1.27,1.96-2.91,2.39-2.32.62-5.61.29-8.17.71-8.75,1.43-19.6,4.53-25.88,11.26-1.65,1.77-2.77,4.14-2.81,6.57-.13,8.4,2.17,18.1,2.39,26.71.32,12.39-.13,24.91.28,37.29.19,5.8.78,11.44,7.25,12.67,4.39.84,11.61,1.64,16.17,2,9.84.79,23.78,1.23,33.6.86,3.1-.12,11.51-.52,13.6-2.35,1.81-1.58,2.89-13.05,3.02-16,.63-13.95,1.16-30.95.61-44.78-.68-17.2-1.57-35.53-22.39-37.19-1.78-.14-14.07-.43-14.76-.15ZM1082.41,321.6c.17-.24-.31-5.23-.87-5.92-.23-.29-6.44-3.42-6.64-3.12-.19.28.39,5.97.93,6.66.22.28,6.38,2.67,6.58,2.38ZM1173.03,315.85c-.14-.12-3.59.19-3.71.33-.29.34.63,7.44.05,8.96.25.23,3.64-1.21,3.99-1.8.4-.67-.04-7.25-.33-7.49Z"/>
    <path class="cls-2" d="M1104.31,298.76c.17-.22-1.77-2.61.93-3.68,5.2-2.06,10.08-.1,11.87,5.2l.3,21.48c-1.17,2.32-3.27,4.24-5.88,4.73-1.27.24-6.76-.02-7.8-.4-1.31-.49-3-2.82-3.33-4.22-1.08-4.51-1.5-15.22-.88-19.9.56-4.23,4.48-2.78,4.79-3.19ZM1107.01,320.92c.52.45,1.98-.31,2.52-.97,1.82-2.22-.06-11.18-.17-14.55-.04-1.28.65-2.67.47-3.77-.33-2.11-3.13-2.14-3.14-1.2-.03,2.69-.46,19.83.32,20.5Z"/>
    <path class="cls-2" d="M1148.88,297.98c.52.45,1.83,3.69,2.02,4.56.99,4.54.88,18.31-.77,22.6-1.44,3.75-9.39,2.64-12.54,1.47-5.71-2.12-3.35-11.11-3.09-15.94.19-3.53-1.43-9.32,3.28-10.97,1.39-.48,3.92-.18,4.52-.7.73-.62-.34-2.64,3.13-2.26.46.05,3.2,1,3.45,1.23ZM1143.64,321.44c-.19-4.71.82-9.4.84-14.1.01-3.5-2.97-2.66-3.37.65-.22,1.83-.23,6.01-.2,8.07.01.95.3,5.38.51,5.57.12.11,1.62-.23,2.22-.19Z"/>
    <path class="cls-2" d="M1102.67,334.11c1.28-.52,4.94-.64,6.57-.69,6.44-.22,12.99.45,19.44.55,3.66.06,12.04-1.8,14.61,1.4,1.73,2.17,1.51,3.68-1.37,4.18-6.99,1.19-14.06-.04-21.05-.35-3.99-.18-15.19.58-18.01-1.43-1.35-.96-2.06-2.89-.19-3.65Z"/>
    <path class="cls-2" d="M858.16,374.96c-.76,1.36-2.89-.16-3.55-.99-2.88-3.6.52-13.81,1.71-18.02.23-.8,1.02-1.57,1.1-2.03.13-.75-2.49-2.58-2.86-4.22-1.15-5.17,1.57-13.77,2.38-18.98,1.31-8.46,2.06-17.07,4.47-25.36-1.83.24-8.62-1.95-9.1-3.25s2.83-3.36,1.48-7.23c-1-2.85-8.54-13.36-10.94-14.99-1.58-1.07-2.34.43-3.76,1-4.97,2-11.06,3.37-15.66,5.49-2.64,1.22-4.71,2.68-5.97,5.45-5.93,13.09-5.98,28.35-5.81,42.56.05,4.04,2.11,27.97.23,29.32-.16.12-2.37-2.56-2.61-3.05-.78-1.59-.53-3.83-.93-5.54-2.74-11.6-3.24-25.76-2.9-37.8.27-9.71.55-18.5,4.86-27.41,4.85-10.02,11.24-9.01,20.07-12.58,1.19-.48,6.39-2.55,6.41-3.61s-11.07-12.95-12.75-15.73c-5.55-9.18-3.99-45.37-4.14-57.74-.28-24.19-1.49-49.82,2.51-73.72,1.52-9.12,9.54-14.57,16.67-19.33,1.24-.83,5.94-3.07,6.32-3.81.8-1.56-2.33-7.04.51-11.73,6.73-11.1,32.91-11.32,44.46-10.31,16.3,1.42,37.35,4.72,52.4,10.95,2.04.84,7.04,4.35,7.87,6.39.81,2,1.08,9.44,1.4,9.82.47.57,4.68,1.19,6.02,1.69,5.79,2.14,14.69,6.31,17.73,11.94,1.3,2.4,3.37,13.71,3.78,16.95,2.92,23.25,1.04,51.41.5,75.02-.23,10.33.7,44.27-2.68,51.69-1.21,2.65-4.07,5.86-5.88,8.22l10.42,2.79c.83.22,4.56,4.56,5.08,5.57.73,1.43.95,3.84,1.04,5.48,1.01,18.5.31,40.38-.25,59.06-.35,11.88-.94,23.8-2.25,35.61-1.17-.96-2.63-5.66-3.32-6.28-.61-.54-.31,1.86-1.45,1.15.18-17.68.95-35.38.91-53.07-.01-8.41-.05-16.94-.28-25.35-.1-3.78.11-12.88-.84-15.92-1.33-4.27-11.43-1.9-14.98-2.17-2.27,2.4-4.77,4.62-6.96,7.11-2,2.26-8.18,9.29-9.23,11.46-1.68,3.48,1.93,7.28-4.22,9.45-1.45.51-5.5.37-5.63.88l4.94,49.97c-.38,2.69-.89,5.9-3.33,7.43-.97.6-3.01.65-3.42,1.44-.87,1.65,2.77,19.21.59,20.49-2,1.18-5.49-6.17-5.91-7.82-.88-3.42-.91-8.1-1.31-11.69-2.49-1.15-4.79-2.79-6.06-5.31-2.13-18.86-3.32-37.85-4.16-56.82-9.71-.71-9.45-13.22-8.25-20.44,1.06-6.35,6.45-8.64,12.25-10.15,4.61-1.2,5.11-.38,9.13.54,7.15,1.65,9.49,1.61,13.16,8.52.75,1.42-.05,2.82,1.88,2.84,4.16-5.16,8.41-10.31,12.7-15.37,8.11-9.6,10.28-9.64,11.27-23.66,1.65-23.33,1.51-50.1,1.24-73.6-.16-13.69.07-39.19-4.41-51.51-1.11-3.06-5.35-6.65-8.35-7.93-13.92-5.93-38.96-7.98-54.34-8.39-3.9-.1-13.88,1.81-16.36-1.52-.08-.1,1.24-1.65,1.79-1.87,7.18-2.85,32.19-.8,40.69.24,3.6.44,7.73,1.37,11.28,2.18,1.01-7.62-2.59-10.21-9.31-12.54-17.56-6.09-58.78-13.16-75.98-5.26-1.78.82-5.05,2.76-5.88,4.54-.53,1.15-1.66,6.86-1.32,7.72.35.88,6.76-1.14,8.29-.9,1.63.25,5.84,1.76,4.73,3.93-1,1.96-11.18,2.29-13.91,3.31-3.8,1.42-13.93,8.26-16.57,11.28-2.85,3.26-4.01,6.42-4.77,10.7-4.18,23.53-2.97,48.77-2.72,72.64.16,14.88-1.07,34.01,1.51,48.33,1.28,7.1,6.35,12.58,11.02,17.94,5.38,6.18,12.2,11.34,16.14,18.62,2.18-2.1,2.56-5.89,5.46-7.36,1.12-.57,9.37-1.31,10.86-1.18,7.11.64,12.06,3.33,14.27,10.32.91,2.88.52,13.87-.45,16.72-1.5,4.43-6.6,1.42-7.81,3.38-.58.94-1.02,3.02-1.23,4.21-1.69,9.26-2.49,18.87-4.42,28.06-.79,3.74-3.61,15.52-7.55,16.46-.93.22-2.18-.3-2.21-.2-1.06,3.94-2.96,14.05-4.53,16.89ZM938.87,303.79c.13.3,2.44-.69,2.67-1.83.16-.8-.32-9.25-.48-10.67-.16-1.38-.87-5.46-1.77-6.27-.29-.26-6.69-2.9-7.15-2.94-1.86-.17-9.3,2.32-10.68,3.66-2.76,2.68-2.57,11.54-1.5,15.29,1.09-1.79-.02-4.37.52-6.42.6-2.27,3.95-4.55,6.1-5.26.9-.29,5.32-.98,5.96-.84.71.16,5.62,3.99,5.94,4.55.75,1.32.45,8.68.38,10.72ZM931.97,295.01c-1.87-.44-4.16.97-4.48,2.83-.75,4.4.26,14.23.51,19.2.69,13.65,1.44,29.12,2.99,42.61.07.65.46,3.84.71,3.83,2.67-.11,5.77-2.09,8.61-1.92-2.44-2.64-2.9-7.65-3.49-11.35-2.87-17.98-4.38-37.01-4.86-55.2ZM879.06,297c1.04-2.43.95-8.95-.98-10.71-.75-.68-8.82-1.54-10.19-.75-2.48,1.43-7.31,12.83-6.56,14.41.55,1.16,1.35.48,1.72-.68.73-2.27,1.08-6.01,2.76-7.63,1.06-1.02,2.97-.09,4.18-.18.72-.05.75-1.18,1.34-1.16,5.05.18,5.13,3.55,7.73,6.7ZM869.89,305.97c-.62-1.79,1.76-2.73,2.07-3.96.19-.74.21-2.3.22-3.17,0-.77.36-2.22-.69-2.32-1.64,7.1-4.15,14.08-5.7,21.2-.89,4.07-1.26,9.15-2,13.3-.96,5.39-3.65,13.98-2.89,19.19.12.83,1.99,1.08,2.08,1.02.44-.31,2.5-8.92,2.81-10.43,2-9.66,3.99-21.85,5.34-31.64.39-2.87-1.08-2.74-1.24-3.19Z"/>
    <path class="cls-2" d="M897.64,384.96c-1.5.75-5.48.19-5.48-1.7,0-.59,4.13-6.67,4.91-8.22,8.09-16.12,5.4-37.65,6.14-55.23.2-4.79,1.56-11.07,1.45-15.41-.03-1.21-1.44-2.35-1.74-3.86-.89-4.52-2.07-21.47-1.51-25.85.23-1.83,2.4-8.45,2.18-8.85-.14-.26-3.32-.12-3.88.12-.85.37-2.06,2.38-2.39,3.28-1.07,2.87-1.91,11.11-2.18,14.54-1.02,12.62,4.43,22.96,5.39,35.15,1.02,12.91-1.82,25.95-4.52,38.44-.51,2.36-4.64,14.17-6.37,14.78-.33.12-3.45-.71-3.54-.87-.27-.47,2.43-8.68,2.81-10.43,1.75-8.14,3.57-17.26,4.35-25.59,2.05-21.85-8.07-40.27-3.97-62.09.24-1.29,2.01-6.52,1.84-6.83-.28-.52-10.1,1.03-11.83,1.07-5.92.14-11.89-.33-17.58-2.01-3.29-.98-7.15-1.69-10.06-2.7-1.98-.69-5.8-2.1-7.51-2.95-1.41-.7-4.67-4.53-5.43-5.98-2.73-5.22-3.06-20.74-3.37-27.21-1.27-26.77-.99-53.65-.56-80.46,2.1-11.22,10.81-22.66,22.62-23.98,4.41-.49,11.37-.08,15.93.23,17.38,1.21,34.83,4.22,52.33,4.37,5.62.05,6.53.28,12.17,1.09,6.39.92,9.72-.8,15.52,3.31,16,11.32,12.73,28.24,13.1,45.28.33,14.96,1.42,30.67,1.08,45.54-.24,10.62-1.36,27.17-7.49,35.89-2.66,3.79-5.61,4.3-9.95,4.87-11.65,1.52-24.37,1.28-36.14,2.64-1.3.17-2.37,1.08-2.96,2.23-4.06,7.82-1.8,23.57-.75,32.38,1.03,8.71.11,12.32-.36,20.86-1.07,19.49,2.47,40.79-7.83,58.61-.8,1.38-3.13,4.89-4.4,5.52ZM961.47,205.1c-1.05-13.83-.25-27.82-.94-41.66-.28-5.6-.85-16.99-3.63-21.59-2.56-4.24-5.81-6.84-10.65-7.84-17.98-3.7-38.85-3.3-57.35-4.65-2.79-.2-6.23-1.23-9.35-1.46-6.93-.51-20.41-1.68-26.18,2-10.34,6.6-12.3,16.06-12.74,27.42-.67,17.44-.47,35,.22,52.42,3.72-1.58,5.23-4.19,6.01-8.03,1.52-7.48,2.25-18.14,2.87-25.95.84-10.49.82-21.02,1.06-31.52,2.48-6.24,9.92-5.05,15.3-4.93,1.13.02,2.24-.69,3.34-.4,9.62,2.48,6.16,18.18,12.85,21.72,2.8,1.48,11.08,1.5,14.63,1.55,5.47.07,13.68.08,18.35-2.93,4.92-3.17,2.81-13.31,5.59-17.67,1.59-2.5,10,.11,12.47.55,1.46.26,2.88.04,4.47.38,3.07.66,8.9,2.99,11.18,5.12,1.41,1.32,2.65,11.51,2.96,14.11,1.6,13.48,1.32,27.33,2.9,40.84.61,1.66,4.99,1.81,6.66,2.53ZM961.46,210.57c-2.21-2.64-9.95,1.4-12.21-5.4-1.19-3.57-1.59-13.86-1.96-18.3-.84-9.94-.31-24.94-3.03-34.09-1.63-5.47-5.79-4.35-10.14-5.06-1.97-.32-5.88-2.46-7.05-.65-1.48,2.28-1.28,8.77-2.62,12.31-3.4,8.98-19.41,8.63-27.44,8.24-7.83-.39-20.33-1.4-24.22-9.42-1.2-2.47-2.42-11.66-3.87-12.99s-8.99-1.12-10.59.68c-1.97,2.21-1.15,13.65-1.33,17.18-.59,11.53-1.53,23.81-3.14,35.22-.37,2.65-1.11,7.89-1.86,10.24-1.47,4.61-6.07,7.99-10.88,5.92-.12,8.24-.21,16.7.45,24.95.49,6.27-.26,14.45,6.41,16.95,24.41,9.16,47.5,2.11,72.54,2.52,8.79-1.98,19.86-.66,28.38-2.4,9.29-1.89,10.91-15.46,11.91-23.33.33-2.6,1.38-21.69.66-22.55Z"/>
    <path class="cls-2" d="M883.15,190.19c.58.68,3.12-.72,4.67,2.45,1.08,2.21.38,6.05,1.02,7.62.11.28,4.95-.46,6.11-.46,3.78.01,13.9,0,16.51,2.28.8.7,1.25,2.19.64,3.18-1.17,1.93-5.4.39-7.15.29-2.12-.12-15.09-.89-15.8-.53-1.02.51-.92,5.71-1.25,6.93-.38,1.42-2.1,5.18-3.38,5.58-3.88,1.19-12.36-1.17-16.95.09-2.4-.77-6.57-1.07-8.28-2.9-2.19-2.34-1.93-16.56-1.32-20.03.55-3.1,1.35-8.2,4.48-9.1,3.65-1.06,16.31-.52,19.42,1.38,1.51.92,1.02,2.91,1.29,3.23ZM882.13,190.76c-3.36.71-12.91-1.48-15.16.56-1.58,1.44-2.66,7.32-2.89,9.56-.39,3.74.56,7.51,0,11.24,2.17-.22,14.59.53,15.23.07.27-.19,1.55-2.47,1.68-2.93.37-1.28,1.01-5.79,1.15-7.26.36-3.75-.54-7.5-.01-11.24Z"/>
    <path class="cls-2" d="M929.82,188.14c.49-.31-1.97-4.38,5.46-1.63,2.5.93,5.27,2.97,6.17,5.55,1.37,3.92.89,20.25-.62,24.11-.66,1.69-.99,2.11-2.8,2.51-2.85.63-11.51,1.46-14.4,1.35-2.24-.08-5.12-.58-6.67-2.3-1.3-1.45-1.62-10.11-1.53-12.48.13-3.36.84-9.31,1.67-12.45.24-.89,1.53-2.7,2.21-3.41,3.81-3.99,10.04-.96,10.51-1.26ZM921.98,214.54c.28.6,11.94-.78,12.89-2.46.17-.3.76-5.45.83-6.38.22-2.89.36-13.21-1.61-14.87-1.35-1.14-1.28,1.56-2.44,2.06s-3.5-.27-5.2.47c-2.83,1.24-3.82,6.35-4.29,9.21-.25,1.53-.58,11.13-.19,11.97Z"/>
    <path class="cls-2" d="M932.14,251.1c-.19.16-2.73.11-3.32-.08-4.16-1.32-4.38-5.88-6.74-8.3-10.47-10.71-33.5-8.83-43.04,2.13-2.13,2.45-4.58,9.71-8.26,7.45-5.72-3.51,3.05-13.18,6.48-15.81,14.34-11.01,36.42-8.72,49.86,2.72,1.99,1.7,7.51,9.8,5.04,11.89Z"/>
    <path class="cls-2" d="M641.1,231.88c15.96.5,32.07-.65,48.02-.03,13.76.53,31.76,2.13,45.17,5.42,6.77,1.66,12.04,3.53,14.84,10.45,3.06,7.58,4.97,20.19,6.46,28.51.2,1.12.57,6.67.83,6.98.32.39,6.02-2.67,9.94-1.39,2.92.96,4.48,10.16,4.87,12.98.64,4.63,1.37,10.92,1.59,15.52.09,1.94.2,4.85-.07,6.7-.79,5.5-8.35,5.19-9.49.62-.9-3.61,1.25-2.18,3.61-3.62.18-8.83-.33-17.6-1.55-26.32-1.74-.19-6.84,0-7.83,1.42-1.13,1.6.36,5.02.45,7.08.65,14.63.7,33.08-4.67,46.73-3.56,9.05-10.3,11.57-19,14.48-27.97,9.36-59.84,13.49-89.1,16.55-36.76,3.84-73.93,6.49-110.83,7.47-7.79.21-24.39.68-30.35-4.46-2.96-2.55-8.01-10.5-9.86-14.14-7.07-13.96-9.83-34.65-11.53-50.22-.36-3.35,1.46-4.5-2.52-4.04-2.69.31-7.36,1.74-7.88,4.77-1.08,6.33.71,15.55.09,22.22.56,1.92,7.7.69,6.59,4.54-.58,2.02-6.1,1.41-7.64.97-6.74-1.92-4.07-11.85-5.77-17.28.29-4.8-.5-10.92.92-15.51.98-3.16,9.18-5.22,12.21-5.65.86-.12,3.14.04,3.27-.07.58-.5-.69-4.43-.76-5.57-.77-12.53.71-27.03,4.1-39.07,1.01-3.59,2.51-10.92,6.13-12.46,1.87-.8,7.15-1.14,8.21-1.84.35-.23.48-1.39,1.34-1.98,2.33-1.59,14.19-1.17,17.81-1.55,15.32-1.64,30.69-5.19,46.11-5.97,7.83-.4,16.06.48,23.85.05,2.58-.14,5.05-1.25,7.77-.78-.93-4.41-2.39-7.65-.56-12.09,2.26-5.45,1.49-4.91,2.11-10.54.66-5.98,4.89-7.37,5.73-11.38.61-2.9-.13-6.41.22-9.45.75-6.66,3.01-9.33,2.88-17.13-.1-6.04,2.46-6.32,4.33-11.36.84-2.27,3.08-13.47,3.83-14.02,1.7-1.25,4.59.69,5.12,2.43.36,1.19.05,2.65.47,3.99,1.69,5.38,4.35,11.07,6.01,16.31,1.24,3.91,1.22,8.1,2.18,11.95,1.59,6.38,6.16,12.54,7.52,19.27.89,4.43.06,8.68,1.42,13.45,1.57,5.49,4.53,6.47,4.13,13.01-.08,1.39-.9,2.64-.75,4.07ZM636.63,231.88c-.76-2.5.86-5.78.74-7.78-.12-1.89-4.03-8.28-4.86-11.55-1.99-7.84-1.24-12.25-4.68-20.62-3.18-7.75-6.04-14.01-7.03-22.73l-3.52-8c.36,3.87-4.45,8.57-5.1,10.95-.4,1.45.97,5.84.58,8.71-.4,2.92-2.49,5.78-2.86,9.04-.59,5.22.62,11.43-2.41,16.18-1.05,1.64-3,2.66-3.46,4.73-.59,2.65.16,5.77-.32,8.61-.42,2.5-2.5,4.46-2.79,6.13-.22,1.24-.18,7.63,1.2,7.84l34.5-1.52ZM508.45,246.5c-2.97,2.34-14.27,1.4-16.74,5.99-2.09,3.89-4.02,14.63-4.55,19.25-2.43,21,1.37,66.72,10.94,85.63,1.97,3.89,7.4,11.9,10.6,14.7,5.19,4.55,23.74,3.55,30.88,3.42,34.69-.66,69.61-3.22,104.11-6.75,29.31-3,65.91-6.93,93.37-17.48,2.86-1.1,7.79-2.81,9.28-5.6,1.18-2.21,3.07-8.2,3.75-10.77,5.72-21.66,1.59-55.48-4.29-77.14-1.56-5.76-2.16-10.96-7.99-13.59-9.64-4.34-26.89-5.55-37.57-6.32-41.2-2.97-82.35-.28-123.48,1.49-5.66.24-11.5-.35-17.13-.02-15.35.89-30.83,4.17-46.1,5.98-3.22.38-2.54-.77-5.07,1.22Z"/>
    <path class="cls-2" d="M590.4,307.86c.23.32.25,4.21.1,4.37-.44.49-9.65-1.49-11.17-1.85-5.8-1.36-14.84-5.38-20.38-4.79-3.3.35-6.86,2.3-10.36,2.29-1.56.57-1.77,6.18-2.72,8.06l41.94-2.27c3.83,7.78-4.11,5.64-8.84,5.98-9.94.72-19.77,1.06-29.76,1.49-2.92.13-8.59,2.78-9.14-1.28-.4-2.91,1.58-4.39,2.45-6.9,1.09-3.12.58-6.02,1.25-8.42.76-2.73,4.08-1.67,6.03-2.15,4.41-1.09,8.65-3.65,13.49-2.75,3.44,1.41,26.13,6.83,27.12,8.21Z"/>
    <path class="cls-2" d="M595.71,351.65c-1.7.41-3.32.87-5.02,1.3-2.29.58-11.9,3.3-13.21,3.2-2.34-.18-2.13-2.72-.61-3.81,1.79-1.28,6.74-3.39,8.98-4.24,17.42-6.64,49.84-11.28,68.3-9.88,3.69.28,6.47,1.89,4.43,5.99-1.38,2.78-5.07.78-7.41.7-19.69-.65-36.84,2.26-55.46,6.73,1.49.26,4.29-1.05,3.72,1.48l-5.95.75,2.23-2.23Z"/>
    <path class="cls-2" d="M662.67,305.16c1.32-6.18,12.31-5.25,16.75-5.57,5.63-.41,11.38-1.27,17.14-.79.96.08,1.46,0,2.21.77,2.17,2.25,2.93,6.56,2.04,9.54-.33,1.12.31,1.86-1.31,1.63-2.54-.36-2.15-4.57-3.82-5.99-6.08.37-12.48-.38-18.51.02-1.83.12-9.03,1.06-10.04,1.87-1.63,1.3.74,4.91,0,7.08,3.04-.2,6.31.27,9.31,0,6.31-.55,12.89-3.15,19.34-2.25,1.94.27,2.55,2.35,1.53,3.78-1.43,1.98-12.73,1.88-15.61,2.24-3.91.5-8.65,2.06-12.73,2.22-1.19.05-6.31-.93-6.31-1.91,0-3.32-.59-9.88,0-12.65Z"/>
    <path class="cls-2" d="M605.38,350.92c.81.37-1.09,1.25-2.23.73-.81-.37,1.09-1.25,2.23-.73Z"/>
  </g>
</svg>