<?xml version="1.0" encoding="UTF-8"?>
<svg id="Ebene_1" data-name="Ebene 1" xmlns="http://www.w3.org/2000/svg" viewBox="0 0 527.96 851.09">
  <defs>
    <style>
      .cls-1 {
        fill: #fff;
      }
    </style>
  </defs>
  <path class="cls-1" d="M527.96,851.09H0V0h527.96v851.09ZM400.84,208.02c.29-.3.81-.42,1.09-.77,6.53-8.36,2.59-34.06,1.87-44.64-2.54-37.08-2.37-74.27-4.1-111.33-.37-7.95,1.81-17.74-7.39-21.12-19.44-7.15-43.77-6.04-64.04-3.21-3.7.52-8.13.95-11.77,1.82-4.55,1.1-5.95,2.91-6.34,7.56-.32,3.78.47,8.51.34,12.56-.86,26.34-.48,52.44-.23,78.68.16,17.11-.38,35.23.55,52.34.71,13,.52,23.6,14.32,28.76,14.91,5.58,27.77,4.24,43.18,4.01,8.21-.12,16.56.34,24.76-.75,3.45-.46,5.48-1.56,7.78-3.93ZM270.96,58.37c-8.14-5.01-25.33-6.87-34.96-7.63-9.91-.79-19.92-1.08-29.87.01-3.06.34-10.79,1.4-13.15,3.05-.25.18-2.76,2.65-2.85,2.83-1,1.88-1.27,4.93-.79,7.02-4.96-1.58-3.38,5.71-4.43,8.64l.7.19-.68.55c-1.64,16.01-1.91,32.11-2.37,48.15-.49,17.01-1.35,28.94,2.79,45.39,1.07,4.26,6.72,8.53,10.7,10.35,5.46,2.5,12.29,1.52,18.23,1.76,10.77.44,21.42.9,32.24.7,6.84-.13,16.07.02,22.71-1.04,8.46-1.36,11.05-15.16,11.73-22.21,1.79-18.66.12-37.67-.69-56.32-.5-11.69,1.83-34.6-9.29-41.44ZM162.04,72.29c-3.71-2.65-7.29-2.22-11.48-2.95-5.88-1.02-11.91-2.32-17.85-2.77-7.13-.55-14.43.11-21.6-.2-3.19-.14-6.55-.91-9.8-1.03-10.6-.4-21.05.59-31.55,1.03-11.39.48-37.06-.21-46.24,4.68-5.77,3.08-2.55,10.14-2.28,15.01.19,3.38-.79,8.13-.89,11.69-.27,9.48-1.5,24.41,5.12,31.58,10.09,10.95,39.41,11.08,53.77,12.38,16.55,1.5,33.28,2.96,49.88,4.07,4.41.3,8.87.78,13.28.97,8.65.36,13.16-.03,17.32-8.03,6.03-11.58,7.38-30.7,7.55-43.69.1-7.39,1.49-17.94-5.22-22.74ZM181.08,241.62c-.28-.32-2.5-1.72-3.01-1.92-1.02-.4-6.12-1.3-7.21-1.26-.28,0-1.79.31-1.85.38-.14.17.21,2.9-1.07,2.54-.32-.09-.74-.63-1.15-.54-1.78.41-1.73,9.16-1.9,10.7-.97,8.97-2.5,17.68-.97,26.77.58,3.49,2.77,6.05,6.33,6.56.6.09,4.07.15,4.41,0,.07-.03,1-1.05,1.06-1.14,4.16-5.95,3.19-16.17,3.8-23.4.47-5.57,1.32-11.14,2.35-16.66,0-.4-.55-1.78-.78-2.05ZM198.04,285.87c3.6-12.35,3.99-25.3,5.18-38.06-.68-5.54-8.91-9.59-13.88-7.32v2.37c-3.83-3.09-4.72-1.26-5.08,2.89-.39,4.48-.3,9.38-.69,13.91-.57,6.64-2.87,15.1-.49,21.54,1.45,3.92,5.58,3.43,8.77,4.12,1.95.42,4.59,2.48,6.2.55ZM62.54,256.33c-4.1-3.2-16.4-3.91-21.65-3.28-1.84.22-4.88.72-5.52,2.62-.88,2.63-.83,9.59.28,12.04.12.26.56.33.75.69.3.55.47,1.73.8,1.98.59.45,4.86,1.72,5.82,1.91,2.62.51,4.17-.02,6.35.11,4.28.24,9,.99,13.25,1.02,2.3.02,2.77-.58,3.61-2.49,1.03-2.32,1.41-6.33,1.31-8.91-.05-1.23-.33-3.97-1.14-4.8-.22-.23-1.09.02-.92-.78l-1,.67c.09-1.33-1.03-.08-1.93-.78ZM126.77,258.28c-5.98-3.32-22.68-5.37-28.49-1.79-.71.44-.44,1.83-2.25,1.65l.67,1.69-3.73-.34c-.45.43-.46,10.9-.25,12.3.31,2.03.56,2.13,1.8,3.3.26.25.37.84.56.96.25.15,3.56.62,4.12.64,4.04.14,8.54-.61,12.62-.57s12.36,2.03,15.73-.19c2.52-1.66,4.01-8.28,3.91-11.17-.09-2.65-2.45-5.24-4.69-6.48ZM421.57,260.36c-3.59-2.99-4.71-1.96-8.83-1.88-16.03.28-32.06.74-47.86,2.67-3.47.43-6.57.78-9.97,1.91-.94.87.05.79.1.85.72.86-.42.92-1.1.68l-.02,1.01-.67-.35c.4,1.67-1.23.45-1.02,1.7,1.26-.58,1.82.65,1.93.68,1.03.24,3.75-.55,5.03-.67,3.37-.32,6.8-.41,10.17-.69,5.26-.43,10.45-1.43,15.78-1.01-2.1,5.72-3.92,11.55-5.95,17.29-.97,2.73-5.9,12.85-4.25,15.07.22.3.78.22,1,.42,1.47,1.34.85,1.47,3.28,1.52,1.5.03,3.92-.02,5.41-.06.71-.02,3.28-.63,3.84-.89,1.79-.84,5.58-11.86,6.42-14.28,1.58-4.54,2.45-9.49,4.46-13.87.86-1.88,2.43-3.48,3.2-5.45l2.29-.43c.06.72-.6,1.03-.85,1.69-1.71,4.51-2.77,9.37-4.42,13.91s-6.06,12.52-5.93,17.14c.04,1.38.4,2.84,1.46,3.8,4.79,4.33,9.85-.52,15.14-.77l.81-.47c.07-.76.82-1.07,1.01-1.45,2.58-5.24,3.9-11.47,5.78-16.94,1.98-5.75,4.01-11.5,6.25-17.14-.48-1.65-1.19-2.92-2.48-3.99ZM295.8,263.65c-.85-.51-5-.46-6.19-.42-4.74-.28-12.63,2.79-16.94,2.37-1.07-.1-2.6-1.69-4.18-1.95-5.31-.89-10.92-1.16-16.19-2.13-.7-.13-1.11-.78-1.78-.93-1.9-.45-9.31,1.25-11.44,1.66-3.46.66-6.88,1.59-10.38,2.01l.68.67c-2.63-.47-4.67,1.49-7.13,1.36l-.03,1.66-1.66.71c.77.19,1.26.55,2.11.62,1.31.11,7.36-1.04,9.23-1.32,1.12-.17,2.28-.85,3.46-.95l13.7-1.73c-1.22,2.77-2.33,5.63-2.88,8.63-.51,2.75-.66,8.37.57,10.82.2.4.98,1.61,1.3,1.78s.76-.17.94-.09c.1.04.48.84,1.62,1.23,3.32,1.12,10.76.6,14.55.37,1.61-.09,4.69-.18,6.05-.48.41-.09.89-.09,1.23-.38,2.21-1.85,2.62-13.87,1.37-16.79l20.35-1.7c-.94,5.72-2.02,11.57-2.22,17.33.38,1.19,2.54,2.22,3.74,2.37,3.02.38,7.73-.65,11.06-.57,1.88.04,8.04,1.36,9.16.08.38-.44.86-2.28,1.09-2.99,1.35-4.33,2.32-9.34,3.49-13.82.15-.56.16-1.14.15-1.71h24.09s-1.35-.68-1.35-.68l2.03-.17c-1.16-.58-1.66-1.55-3.05-1.19l1.36-1.01h-2.71s.68-1.02.68-1.02l-19.85-1.71c-3.65,1.37-5.72-.99-8.8-1.36-1.83-.22-4.2.07-6.13.02-2.16-.05-4.29-.77-6.6-.01l.68,1.69-1.35.17c1.8,1.6,4.06,1.93,6.3,2.52l.14-.65.55.68c1.56.23,8.47-.01,8.9,1.23.13.38.06.87.02,1.28-.33,3.4-2.42,7.89-2.85,11.42-1.24,4.04-1.83,2.75-5.09,2.69-3.56-.06-7.14.08-10.7.01.52-3.41.91-6.85,1.44-10.26.35-2.23,1.8-4.57.26-6.55-.58-.74-1.32-.7-1.86-1.2-.42-.38-.71-1.46-.95-1.6ZM197.37,321.37c-1.12-.98-2.33.98-3.3,1.5-.35,7.49-.97,14.96-.67,22.5l1.01.17c-1.22.26-.11,1.76-.16,2.72-.04.84-.8,1.88-.85,2.39-.01.15.61.12.67.38.37,1.58-.8,4.36,2.03,4.19,1.15-9.17.5-18.45,1.36-27.66.17-1.8,1.62-4.67-.1-6.18ZM172.02,327.72c-3.51.98-2.71,4.69-3.06,7.29-.8,6.03-1.77,12.89-1.02,19.02.42,3.45,5.44,6.86,8.42,7.87,4.32,1.47,9.89,2.93,14.31,1.78.35-1.61-.23-2.19-.85-3.4-4.04.85-8.84-.2-12.72-1.49-4.83-1.6-5.47-4.41-5.77-9.16-.46-7.41,2.09-14.69.69-21.91ZM210.59,340.05c-1.61-1.59-10.52-3.66-11.01-.92-.03.19.25,1.39.31,1.44.4.34,4.88.67,5.74.87.81.19,1.5.5,1.67,1.39.55,2.85.48,6.58.72,9.52l-.71.82.69.18-.04.29c-.69.67-.46,1.71-.72,2.36-.14.34-1.74,2.4-2.12,2.97-.17.26-.18.68-.19.99l-1.01-.68c-.11,1.37-.9,3.1-2.38,3.4.37,1.94,2.32,2.45,3.95,1.56.3-.16,3.71-3.01,4.07-3.39,2.54-2.63,3.28-12.42,2.85-16.01-.11-.94-1.2-4.18-1.82-4.8ZM159.13,358.95c.45-2.32-.61-4.26-.7-6.62s.82-8.89,3.08-9.84c1.07-.45,2.43.35,2.4-1.37s-2.48-2.84-4.01-2.78c-4.89.21-5.84,10.99-5.43,14.57.35,3.02,1.26,5.73,4.65,6.04ZM83.73,358.85c-1.1.42-5-.53-6.17-.95-1.26-.45-7.36-3.9-8-3.37.17.74,1.17,1.57,1.74,2.16.28.29.52.57.97.56.27.7-2.7-.44-1.35.5,1.45,1,6.52,3.89,8.05,4.17,1.63.3,6.11.43,7.7.05.77-.18,2.93-1.59,3.49-2.11.89-.83.78-1.87.17-2.86-1.28-2.1-2.22.32-3.39.84-.69.31-2.36.68-3.2,1ZM225.21,427.76c1.85-1.9-1.92-5.94-5.11-4.26-1.12.59-4.12,4.2-4.61,5.29-.36.8-1.3,4.6-1.29,5.4.03,1.71,2.48,5.83,4.65,5.87-.33-3.53.3-6.45,2.44-9.29.13-.17,1.51-1.67,1.61-1.75.7-.57,2-.94,2.31-1.26ZM92.5,432.06c-14.45-6.36-32.82-6.98-46.65,1.43-.38.23-2.98,2.03-3.04,2.21-.09.27.41.82.28.97-.68.74-.57-.88-1.01-.67l-.16,1.38c-1.33-.01-.62.48-.97.87-1.73,1.92-3.77,3.76-5.58,5.62.23,5.28,1.72,5.16,5.42,2.3,4.65-3.6,7-7.35,12.94-10.21,14.89-7.17,30.86-3.76,44.44,4.19,1.27.74,2.22,2.39,4.07,2.24,3.43-.28-1.24-5.85-2.43-6.69-1.57-1.12-5.56-2.85-7.3-3.62ZM140.03,432.71c-.44-.23-1.09-.15-1.59-.45.06.7-.13,1.53,0,2.2.04.21,1.65,3.65,1.8,3.8,5.61,5.63,18.79,12.97,26.87,14.02,11.51,1.49,24.85-1.53,33.38-9.39,2.2-2.02,4.35-4.4,1.23-6.9-2.72-2.19-5.07,2.22-6.89,3.72-4.19,3.46-9.99,5.57-14.94,6.69-12.14,2.76-22.59-1.37-32.69-7.81-2.28-1.45-5.35-4.92-7.18-5.88ZM230.27,440.18c-3.09-3.07-5.82-1.61-4.05,2.51.29.68,4.37,5.58,4.95,6.1.88.79,3.5,1.34,4.47,2.51,7.63-1.92,15.37-1.68,23.08-2.42,3.38-.32,7.24-1.41,10.53-1.69,1.71-.14,8.94.39,9.67-.17,1.18-.89-.02-5.29-2.23-5.58-6.98-.93-15.96,1.61-23.11,2.29-3.2.31-6.84.17-10.12.4s-7.33,1.88-10.37-.5c-1.13-.89-1.85-2.49-2.82-3.46ZM355.17,440.15c-.29-.31-1.54-.75-2.04-.7-2.15.2-5.56,1.49-7.97,1.89-8.34,1.4-18.29,2.44-26.71,2.36-3.7-.03-8.78-1.04-12.2-.55-2,.28-3.55,1.62-2.92,3.81.1.34.65.32.81.58.13.2-.14.47.09.69,1.24,1.18,6.78.57,8.8.66,9.17.43,17.91.32,27.08-.72,5.21-.59,10.37-1.75,15.48-2.84,1.42-.64.25-4.44-.42-5.18ZM285.17,472.5c-1.34-1.84-4.48-3.64-5.83-.96-1.01,2-1.95,9.47-2.42,12.19s-1.39,12.98-2.75,14.56-3.15,1.89-3.33,4.5c-.06.86.29,1.48.29,2.26,0,1.85.01,3.72-.06,5.57-2.67.63-6.08.61-6.4,3.95-.1,1.04.2,2.39-.07,3.32-.24.8-1.78,1.54-2.3,2.79-.9,2.17-.36,6.11.08,8.41.25,1.3.93.71,1.42,1.26.33.38.58,1.55,1.21,2.03-1.93-.31-3.18.32-4.89.98-.77,1.22.11,2.19,1.34,2.4,9.47,1.58,23.34.16,33.22,0,3.99-.06,9.75-.44,13.56.04,2.68.34,2.82,2.18,3.05,4.68.6,6.55-1.46,16.38-2.48,22.99-1.72,11.18-2.5,27.4-17.52,27.19-2.84-.04-5.69-.73-8.53-.87-6.98-.35-14.74-.07-21.66-.73-1.16-.11-6.86-1.36-7.63-1.87-.66-.44-.97-2.54-1.04-3.37-.79-9.28.35-19.87.7-29.19.15-3.97-.35-8.34,0-12.23.17-1.97,1.49-4.62.67-6.38-.07-.14-2.23-2.06-2.38-2.12-.55-.23-1.64.28-2.32.23-1.17.94-.63,16.18-.71,18.8-.24,7.86-2.53,29.15,1.01,35.28,1.35,2.33,3.52,3.43,6.03,4.15,5.86,1.68,10.08,1.06,15.85,1.46,6.04.42,11.1.84,17.32,1,5.83.15,10.15,2,15.41-2.22,8.3-6.65,9.32-23.61,10.58-33.53.69-5.49,3.09-18.5.18-23.01-.41-.63-.87-.78-1.24-1.22-.68-.8-.58-2.12-2.03-1.44l.34-1.01c-2.45-.59-4.9-1.16-7.47-1.02.59-2.95,2.72-4.62.13-7.43-.53-.57-1.75-1.08-2.06-1.5s-3.72-8.35-4.07-9.34c-1.54-4.41.12-8.84-1.85-13.02-.69-1.47-2.32-2.01-3.16-3.02-1.41-1.71-1.95-7.53-2.74-9.81-.37-1.06-1.13-1.62-1.54-2.53-1.58-3.56-1.55-8.97-3.9-12.21ZM74.77,473.54c-.51-.37-.51-.88-1.58-1.31-3.42-1.36-6.69.57-10,1.34-3.77.88-6.94.5-9.88,3.35-1.14,1.1-3.06,4.1-4.52,4.65-4.01,1.51-8.93-.48-11.37,3.55-1.23,2.03-1.39,4.65-2.79,6.79-.79,1.22-.67,1.39-2.29,2.04-1.37.56-2.47.83-3.76,1.4-.85.38-1.75.56-2.57,1.11-3.85,2.57-1.1,9.65-2.23,13.36-.26.85-1.7,2.06-2.13,3.31-2.47,7.2,2.8,9.65,5.22,14.94.25.55,1.02,2.27.97,2.72-3.53,1.97.22,6.1,1.88,8.34,2.37,3.2,5.67,7.5,9.87,7.75.61.04.96-.42,1.47-.6.22,1.51.44,3.38.76,4.84.16.71.69,1.38.86,2.2.97,4.73,1.02,11.76,4.22,15.48,3.92,4.56,14.14,4.56,19.8,4.33.16,0,.09.55.38.63,3.83,1.06,10.39.88,14.52,1.37,6.83.82,13.67,2.91,20.61,1.68,2.03-2.02,1.64-4.49,1.99-6.91.17-1.15.54-2.19.63-3.42.37-5.4.02-11.06.7-16.48.51.2.83.43,1.43.29,1.16-.28,3.89-2.27,5.35-2.83,1.57-.6,3.86-1.17,5.52-1.2,4.77-3.43-1-12.43.93-16.01.19-.36,2.26-2.12,2.59-2.75.89-1.7,1.01-4.62.81-6.52-.35-3.19-3.26-6.38-4.04-9.53-.29-1.15-.78-4.27-.75-5.39.09-3.02,2.1-2.61.69-7.11s-5.72-8.06-10.07-9.96c-.91-.4-2.05-.41-2.88-.78-.44-.19-1.67-1.88-2.24-2.33-4.18-3.29-7.99-4.5-13.46-4.09-2.9.22-4.13,1.71-6.97-.51s-4.4-5.39-7.68-7.77ZM186.06,502.06c-.57-.61-.62-1.17-1.57-1.65-3.85-1.92-4.42,1.64-5.66,4.32-1.92.29-2.58-.82-3.86,1.26-.81,1.32-.8,2.89-.22,4.32-1.88,0-4.15-2.42-5.95-1.38-2.84,1.65-1.12,4.87-.16,7.15-2.95-.61-3.71,1.42-2.35,3.79.47.83,1.98,1.32,2.01,2.65l-9.5,1.02.34,1.01c-1.01.03-1.35.07-1.29,1.1.01.22.24,1.09.35,1.2,2.75,1.18,5.54-.15,8.22-.27,9.83-.46,28.64,2.42,37.83,5.96,2.1.81,5.78,1.89,5.79,4.42.01,3.45-.69,7.39-1.03,10.85-.79,8.14-2.34,25.89-6.54,32.5-2.53,3.99-6.3,2.44-9.92,2.29-8.14-.34-27.85-.2-34.39-3.61-3.14-1.63-5.02-7.12-5.14-10.47-.31-8.42,1.69-17.91,1.43-26.44.49-2.09.39-4.38.65-6.47.17-1.39,1.44-3.13.46-4.59-.07-.11-1.96-1.63-2.09-1.67-.6-.17-2.14.28-2.5.77-.12.16-.9,3.33-.96,3.79-.67,5.13-.37,10.8-.69,15.94-.64,10.16-3.62,23.05,4.85,30.93,6.52,6.08,22.36,5.37,30.95,5.87,4.97.29,11.75,1.54,16.57.99,2.34-.27,3.44-.84,4.77-2.7,3.27-4.6,4.98-16.21,5.87-21.96,1.01-6.52,1.92-13.39,2.47-19.94.22-2.59.18-5.15,0-7.73-1.8-1.58-3.08-3.18-5.21-4.37-3.38-1.89-6.78-2.32-10.24-3.42-.11-.03-.46-1.06-1.52-.6,1.13-1.79,2.25-2.97,1.39-5.26-.25-.67-1.39-1.38-1.86-2.23-.42-.77-.48-1.67-.89-2.43-.33-.61-2.83-2.36-3.02-2.89-.72-2,.57-3.44.68-5,.21-2.99-3.19-4.45-5.74-3.6-.52-.77-.75-1.97-1.25-2.68-.29-.41-.79-.5-1.06-.79ZM407.7,573.99c2.25-3.67.75-5.83,1.73-8.97.4-1.27,2.03-2.28,2.63-3.48,1.87-3.78.03-8.05,1.05-11.85.44-1.62,1.61-2.76,1.55-4.59-.06-2.05-3.16-7.68-4.61-9.33-4.07-4.65-7.34-1.71-12.53-2.4-1.66-.22-4.13-1.41-5.82-1.65-1.28-.18-2.69.17-3.98-.09-1.99-.41-5.32-2.68-7.22-2.96-1.09-.16-2.28.1-3.37-.03-3.85-.43-7.95-1.8-11.69-.14-.61.27-2.58,2.19-2.9,2.22-1.42.12-3.49-.91-5.1-1.05-1.48-.13-2.96.28-4.4.16-2.05-.16-4.5-1.06-6.52-1.07-1.75,0-5.29,1.35-7.08,1.9-1.04.31-2.12.03-3.28,1.04-.17.15-2.38,3.54-2.46,3.76-.9,2.55.3,8.58-.19,11.67-.23,1.44-1.33,4.9-1.76,6.72-.36,1.51-1.74,5.37-1.6,6.5.12.96,1.21,2.51,1.57,3.54.88,2.48,2.56,9.55,3.6,11.16.16.24.73.31.94.58,1,1.26,3.2,3.94,3.99,1.14l-4.88-14.69c.6-4.06,2.81-9.02,3.2-12.94.29-2.94-.69-6.58-.22-9.06.04-.2,2.09-3.16,2.29-3.37,1.35-1.35,2.14-.64,3.49-1.02s3.61-1.58,4.78-1.51c.8.05,1.85.75,2.79.88,2.46.35,5.53-.27,7.42.05,1.4.24,3.85,1.42,5.44,1.32,2.28-.14,4.19-2.72,5.79-3.02,2.51-.47,5.5.93,8.13,1,.81.02,1.65-.45,2.71-.36,1.84.16,6.03,3.01,8.16,3.39,1.78.32,4.71.35,6.85.61,3.53.43,6.81,1.14,10.38.45,2.48,2.98,2.83,5.44.73,8.8-.3-1.44-1.38-1.72-2.1-2.49-.34-.36-.12-1.24-1.02-1.52-1.91-.6-7.89.11-10.45-.07-5.77-.41-11.74-1.7-17.63-2.04-7.37-.42-19-.63-26.1.39-1.18.17-5.44.88-5.85,1.77l-1.78,7.9c-.74,13.82-2.69,29.34-1.09,43.09.08.64.68.46.67.63-.22,3.49.08,4.78,2.3,7.62,1.46,1.87,2.46,2.45,4.71,2.47.18,0,.12.58.61.69,3.76.82,6.52.16,10.25.27,11.38.32,27.69,5.19,33.89-7.14.95-1.89,2-4.78,2.83-7,.7-1.86,1.66-6.56,2.63-7.89.71-.97,3.22-1.67,4.3-2.41,1.88-1.29,1.51-3.68,2.21-5.33.23-.53,1.49-1.47,1.97-2.26ZM502.32,552.94c-3.31-5.05-8.8-4.86-14.19-5.66-11.1-1.65-24.1-2.92-35.3-3.36-2.43-.09-4.89.07-7.32,0l.31.99-.97.53,1.27,2.21c3.6.23,7.16,1.01,10.76,1.36,6.84.66,13.84.78,20.69,1.37.89.08,2.48.3,3.34.47.34.07.99.05.9.54-2.57-.15-4.95,1.12-7.37,1.79-.77,1.5-2.23,2.89-3.13,4.24-1.7,2.53-1.08,4.88-5.51,3.71-2.19-.58-5.56-1.24-7.36-2.48-1.2-.83-1.95-2.07-2.88-3.09-.13-.14-.65-.03-.8-.18-.22-.21-.79-2.44-1.16-3.1-.81-1.44-3.1-3.08-4.76-3.41-1.99-.4-3.35.22-4.5,1.86-.33.48-1.74,3.69-1.86,4.24-.89,4.02,1.02,5.94,1.02,9.14,0,2.38-.94,5.04-1.1,7.42l-5.37,4.63,2.07-16.08,2.19-11.93c-.04-.66-1.95-2.89-2.58-3.05-.1-.02-1.86.54-1.95.6-.43.3-1.51,5.61-1.69,6.63-2.36,13.61-5.08,32.77-4.52,46.42.29,7.02,1.32,17.62,10.04,18.8,10.74,1.46,21.99-.99,32.57-.67,5.49.16,15.36,1.92,20.24-.09,2.29-.94,3.71-4.08,4.56-6.3,4.73-12.23,6.6-32.25,6.29-45.36-.09-4.03.3-8.76-1.95-12.2ZM135.92,621.8c-2.02-1.49-9.08-3.89-11.6-4.19-3.31-.4-7.09.51-10.04,2.03-1.6.83-1.26,1.59-2.01,2.73-4.14,6.25-3.48,9.26-4.03,16.41-.54,6.98-2.41,18.62,2.38,24.1s13.89,7.54,21.12,6.19c3.08-.57,6.98-.89,4.79-4.62-1.64-2.8-3.4-.91-5.72-.72-1.66.14-9.54.27-10.68-.19-3.32-1.33-6.39-8.63-7.06-11.95-1.34-6.63-.67-22.28,4.85-26.9,2.88-2.41,7.51-2.11,11.03-1.2,3,.77,5.85,3.16,9.15,2.55.47-.48-1.53-3.78-2.18-4.26ZM294.75,629.22c-1.47-1.54-2.56-1-4.03-1.23-9.26-1.44-17.88-3.3-20.89,8.17-1.89,7.2-2.22,15.29-2.8,22.65-.25,3.2-1.51,11.69-.37,14.29.17.4,3.28,3.04,3.8,3.33,5.49,3.01,14.68,2.28,20.7,1.02,1.41-.3,2.8-.65,2.26-2.26-.44-1.33-2.21-2.08-3.52-2.28-3.22-.47-9.67,1.34-13.49.95-.79-.08-4.48-1.1-4.98-1.46-.52-.38-.4-4.79-.34-5.79.37-6.61,1.57-13.91,2.65-20.43.69-4.21.66-11.04,4.98-13.34,5.55-2.95,8.87-.1,14.26.04,1.01.03,1.9-.18,2.86-.39.44-.53-.65-2.8-1.09-3.26ZM354.45,631.97c-1.28-.91-7.81-2.71-9.53-2.86-3.65-.32-12.37-.26-14.57,3.1-2.85,4.34-2.5,8.28-3.29,13-1.48,8.89-3.22,19.48-2.67,28.54.67,11.13,10.86,12.85,20.2,12.41,1.38-.07,3.2-.39,4.56-.69-.66,6.43-1.94,12.82-2.7,19.23-.07.57.31,1.24.25,1.41-.01.04-.49.07-.58.31-.48,1.26-.53,2.24-2.07,2.96-4.64,2.16-14.33.55-19.48.51-3.02-.02-5.99.63-8.95.29-.61-.42-.14-13.22-.07-14.72.26-5.31.58-11.64,1.08-16.91.45-4.78,2.22-4.01,4.72-7.17-.69-1.07-1.17-2.71-2.62-2.81-.38-.03-.65.4-.95.43-.38.04-.81-.2-1.26-.1-.26.06-3.53,2.05-3.67,2.21-.73.83-.89,2.85-1.02,3.99-.65,5.61-.12,12.58-.31,18.36-.17,5.21-1.23,10.63-.7,15.94.26,2.65,2.79,6.22,5.62,6.3,2.24.06,5.34-.85,7.46-.95,2.86-.15,6.26.54,9.13.6,4.37.09,15.53.32,17.66-4.42,1.08-2.41,1.43-10.5,1.91-13.69.68-4.45,1.78-9.17,2.33-13.63,1.21-9.7-1.04-14.75-10.77-16.71-1.43-.29-6.57-1.08-7.67-.72-1.6,1.94.01,2.91,1.46,3.88.22.15.28.65.43.74.51.31,4.25,0,5.44.16,6.37.92,6.31,4.06,6.02,9.76-3.1-.18-6.21.94-9.33,1.04s-10.3-.77-10.94-4.35c-.81-4.48.16-16.23.78-21.14s2.32-17.97,5.23-21.16c.29-.31.83-.14.97-.29l.07-.95c3.77,1,8.26-.21,12.06.32,1.51.21,6.56,2.87,7.46,1.38.57-.94-.87-3.04-1.67-3.61ZM80.39,642.33c.25-2.23-.36-5.62-2.38-6.9-1.83-1.16-8.43-2.09-10.62-1.86-1.51.16-7.03,1.87-7.17,3.51-.26,2.87,1.01,7.81,1.2,10.88.17,2.87-.26,5.8.17,8.66.19.31,2.08,1.02,2.57,1.16,2.16.62,9.35.37,11.6-.25,1-.27,1.63-.36,1.91-1.52.35-1.42-1.65-1.29-2.08-1.45-.3-.11-.11-.5-.76-.69-2.59-.76-5.62,1.68-8.26.32-.34-5.14-1.22-10.11-.04-15.22l4.75-.35-1.01-1.35c1.32.14,3.54-.17,4.41,1.01l-1.69.68c2.52-1.21,2.63,2.28,3.48,2.97.42.34,3.61.8,3.96.4ZM191.67,645.38c.99-1.66-.49-3.81-2.03-4.52-3.25-1.5-9.41.03-11.64,2.88-.55.7-1.62,2.79-1.82,3.61-.42,1.71-.97,10.11-.73,11.79.13.91,1.3,3.99,1.92,4.62,2.63,2.68,13.01,4.29,16.03,2.18.94-.66,2.14-2.05,1.54-3.22-.06-.11-1.65-1.66-1.77-1.7-1.95-.54-4.34,1.25-6.38,1.38-1.08.07-5.91-.38-6.26-1.29-.79-2.07.96-7.56.38-10.06.82-6.44,5.47-6.35,10.78-5.67ZM232.26,670.19c2.4.26,5.19-.19,7.63,0-.52,3.66-.93,7.36-1.35,11.04-.36,3.16-.43,6.66-1.34,9.24-.34.96-.79,3.19-1.35,3.94-.32.42-3.87,1.16-4.62,1.23-1.44.13-9.72.23-10.03-.88-.08-4.98-.22-9.93-.32-14.92-.08-3.86-.9-11.54.58-15,.18-.42.71-.39.77-.66.18-.84-.11-2.03.03-2.95-2.19-1.84-6.44-.57-6.83,2.31-.7,5.19.54,11.38.71,16.64.14,4.19-.26,8.87-.03,12.93.2,3.46.28,3.03,2.37,5.1.95.94-.06,1.35,2.32,1.76,3.63.62,14.08.86,17.31-.49.16-.07,2.58-2.1,2.66-2.26.57-1.05,1.39-4.33,1.67-5.64,1.46-6.82,2.32-16.51,2.87-23.6.15-1.93.54-7.01.37-8.82-.04-.47-.74-2.08-1.03-2.4-.09-.1-2.14-1.4-2.28-1.43-1.28-.23-8.54-.25-9.37.24-.35.21-.51.95-.92,1.21.88.2.54.84.73,1.12.03.05.61-.16,1.22.3.54.41.95,1.27,1.34,1.41,1.33.46,3.47.14,4.86.06v5.43c-2.1.06-4.18.44-6.29.35-.69-.03-4.27-.38-4.57-.52-1.01-.49-.75-3.96-.67-5.09.24-3.28,1.42-8.9,3.54-11.4,1.38-1.63,4.79-1.65,6.79-1.32.78.13,1.54.91,1.71.91.1,0,1.75-.89,1.81-.98.94-1.48-1.48-4.41-3.18-4.68-1.5-.24-6.58-.28-8.11,0-.47.09-1.96.72-2.31.99-1.35,1.05-3.9,6.35-4.24,8.06-.54,2.69-1.37,8.17-1.06,10.75.09.78.67,3.01,1.01,3.67.08.16,2.31,2.43,2.45,2.54.65.48,4.31,1.71,5.16,1.8ZM193.94,654.05c-1.68-.7-1.76-.06-3.07-.14-1.38-.08-6.06-1.35-5.86,1.13.05.63,2.65,2.7,3.2,2.86,1.44.41,3.59-.56,5.05.39.74.49,3.5,4.78,3.84,5.66,1.2,3.16,1.29,10.02.92,13.37-.15,1.34-.41.98-.24,2.91.02.19-.55.14-.65.37-5.4,13.18-16.67,17.92-27.49,6.74-3.15-3.25-4.36-6.28-4.73-10.87-.52-6.39,1.14-9.61,5.15-14.2.46-.53,2.93-2.64,2.99-2.84.43-1.55-.57-3.27-2.18-3.16-4.85.33-10.5,8.65-11.03,13.1-1.32,11.18,4.74,20.19,13.91,25.74,22.38,13.53,37.84-20.24,25.31-36.33-1.6-1.13-3.32-3.98-5.12-4.73ZM290.92,702.24c9.26-8.93,13.57-26.02,4.6-36.63-3.76-4.45-11.86-8.35-16.95-4.35-.29,1.26,2.06,3.05,3.04,3.36.76.24,3.88-.39,5.28-.22,4.72.59,7.83,6.82,8.26,11.08s-.1,10.46-1.76,14.44c-2.36,5.65-11.73,14.27-17.47,16.13-16.31,5.26-24.13-9.6-21.07-23.79.34-1.57,3.86-8.04.14-7.87-2.41.11-4.56,5.5-4.89,7.54-2.41,14.69,6.87,31.47,23.2,30,6.79-.61,12.98-5.22,17.62-9.69ZM111.19,744.75c-1.45.82-3.14.47-4.65-.05-3.18-1.1-6.85-3.72-10.05-5.22-6.72-3.16-26.04-10.6-32.78-9.13-4.2.92-6.4,4.56-7.54,8.41-1.07,3.6-1.51,8.61-1.55,12.37-.02,1.99.3,9.04,1.45,10.29.83.89,4.37,2.27,5.69,2.28l3.39,1.36c-2.7,2.05-5.95,4.22-7.89,7.05-.57.82-.62,1.64-1.6,2.21-1.46,6.2-4.33,24.92,5.85,24.77,1.56-.02,4.44-1.51,5.43-1.22,1.89.56,5.62,5.51,8.01,6.24-.23,1.14-.45,2.33-.94,3.4-.17.37.23.55-.53.48-.93-.09-4.79-3.46-6-4.19-2.91-1.77-5.57-3.31-9.06-2.2-2.17,1.41,4.69,4.87,5.56,5.52l4.91,4.43c-.09.39-1.49.5-1.85.53-1.75.14-7.22.24-8.7-.17-.87-.24-.9-.9-.99-1.71-.25-2.39.79-10.33-1.03-11.54-.3-.2-2.72-.61-2.97-.47-.65.39-1.02,3.91-1.08,4.87-.16,2.43-.32,9.51,1.37,11.18.47.46,3.81,1.78,4.55,1.9,2.99.5,10.99.53,13.77-.18,1.62-.41,5.58-2.54,6.59-3.92,1.47-2.02,1.69-5.05,2.26-7.43l.99-.02c-.35.67.3,1.14.35,1.85.37,4.5.16,9.81.7,14.24.14,1.18,1.55,5.29,2.46,5.84,2.56,1.54,4.27.76,6.79,1.19,2.21.38,4.78,1.72,6.98,2.18,1.68.36,5.21.4,6.88.06,1.05-.21,4.92-1.33,5.5-1.97,1.95-2.15,1.3-6.75,1.19-9.3-.28-6.52.03-13.86-1.08-20.3-.69-4.01-2.55-7.88-3.3-11.64-.08-.38-.02-.78-.02-1.17,4.69-.28,9.4.19,14.1,0s13-1.34,17.18-3.17c1.19-.52,3.18-1.74,4.27-2.5,1.7-1.19,2.19-1.6,2.76-3.71.91-3.34.52-9.18-.67-12.43-.21-.58-2.48-3.02-2.51-3.26,1.11-7.18.17-14.66-2.38-21.44-.57-1.51-1.87-4.44-3.24-5.24-3.01-1.77-3.58,1.32-6.27,1.85l-.16-.67c-.62-.14-.21.57-.34.67-.67.56-.94-1.86-1.43-.09-.84.28-1.56.32-1.79-.59-1.38.35-.55,1.34-1.01,2.05-.33.51-2.33.55-2.23,1.68-.83.31-.55-.51-.92-.65-.32-.13-2.31-.47-2.45-.34.22,2.13-1.85,1.6-2.4,3.03l-.67-.17-.33-1.18-.73,2.35c-1.29-.39-2.48.86-3.72,1.54-.31.17-.75-.12-.91-.05-.09.04-.95,1.35-1.19,1.48ZM255.38,739.22c-7.75-3.41-22.27-8.15-30.58-7.6-4.89.33-9.7.33-14.59.68-4.01.28-11.72.85-14.31,4.19-4,5.15-3.08,24.06-3.5,30.94-.08,1.25-.9,2.68-.69,4.06l1.02-.84c-.23,1.93-1,2.45.29,4.26-1.47,1.48-3.01,2.98-3.86,4.93-.99-.21-1.42,1.56-1.53,2.51-.52,4.72,1.33,13.85,1.7,19.02.13,1.85-.21,3.95.02,5.75.08.65.68,1.26.69,1.69,0,.17-.81.36-1.13.95-4.13,7.74,10.24,7.9,14.35,8.22,6.96.53,15.72,1.16,22.64.78,1.11-.06,2.22-.32,3.3-.6l-.17.68c1.41.59,1.75-.68,1.85-.67,9.41,1.34,19.74.3,29.32-.49,4.79-.39,8.93-.2,13.69-1.65,1.77-.54,3.96-1.75,5.21-3.09.32-.34,1.54-1.78,1.84-2.17,3.97-5.16,3.76-19.26,3.4-25.72-.09-1.63-.38-5.18-.85-6.61-.63-1.93-4.68-4.22-6.62-4.75l1.03-1.5c-1.24-4.73-2.22-9.56-4.38-13.98-4.84-9.91-7.93-14.5-18.15-19ZM462,768.08c-14.99-7.92-31.52-8.48-47.62-11.93-6.61-1.42-11.57-1.89-18.23-2.47-6.4-.55-12.76-2.15-18.9,1.05-.62.32-2.56,2.3-2.83,3-1.59,4.04.63,9.91,1.37,14.09.59,3.32,1.08,6.68,1.53,10.03l-18.19,2c-10.17,1.3-17.89,1.9-26.98,7.29-8.37,4.96-11.5,8.6-14.09,18.15-.69,2.54-1.28,7.47-.78,9.99.14.72,1.59.88,1.67.94.1.09-.21.73-.15,1.05.11.64.69.52.83.89.25.68-.48,1.66,1.47,1.03.54-.17,2.11-2.47,2.89-2.95,3.76-2.31,12.67-4.61,17.13-5.87,7.6-2.14,15.43-3.85,23.32-5.86,1-.26,6.15-2.19,6.76-1.55-.08,2.62,2.02,4.59,1.68,7.28-.1.8-1.02,1.03,0,2.32.85,1.07,1.57-.22,1.71-.1l.17.68c.44-.32,1.02-.71,1.53-.86,11.06-3.26,22.4-4,33.77-5.25,7.01-.78,14.08-1.43,21.06-2.36.54-.07.55-.06.48.49-1.35,1.49-2.65,2.7-.85,4.57.51.04,1.69-1.39,1.99-1.56,5.72-3.29,26.49-4.99,33.96-5.88,1.02-.12,5.01-.11,5.75-.66.31-.23.11-.79.28-.96.22-.21.71-.12.95-.28.32-.22-.14-.98.67-1l-3.05-.85,3.39-.34-.67.67,1.35.68.17-2.38c-1.45.02-3.14.85-4.43.99-16.76,1.88-33.71,1.61-50.51,3.13-12.55,1.13-25.54,2.64-37.77,4.96-.83.16-5.57,1.05-5.85.77.46-2.2-.9-3.76-1.02-5.77,1.46.42,1.45-.76,1.74-.97.15-.11,2.93.82,3.35-.72l-2.03-1.02,1.69-.68-.17,1.01,1.87-1.35c-.93.01-1.25.75-1.52-.35-1.5.14-.81,1.66-2.89.52-.16-.09-.44-.44-.34-.51l2.88-.34c.56-.45-.42-.38-.68-.35-1.14.11-5.48,1.56-5.94,1.23-2.57-5.04-6.73-9.64-11.67-12.44-.5-.28-.99-.36-1.55-.31-.58-.44.05-.61.51-.67,1.1-.14,2.27-.09,3.43-.29,2.19-.37,3.65-.5,5.74-.72,2.58-.27,5.14-.63,7.75-.66,1.09.35-.3,2.99,2.27,3.85,2.96,1,4.42-.46,3.46-3.39l.76-.5,11.56.99.14-.65.55.69c2.18-.07,4.24.55,6.4.68,1.02.06,1.91-.59,2.72.32l.5-.67c.26,1.51,3.26.87,4.58,1.02,3.26.38,6.56.9,9.81,1.31l.55,2.76c.72.1.73.03.69-.67.64.44.91.81,1.68.33-.42,1.25,1.44,1.75,1.89.52.2-.56-.32-2.08-.19-2.21,2.69-.16,5.22.86,7.73,1.26,9.67,1.54,19.82,2.72,29.34,4.94,3.13.73,6.16,1.81,9.27,2.64,2.25-.42,3.95-2.92,2.81-5.06-1.73.41-1.69-1.69-1.81-3.1,1.16.27,1.63,1.39,2.34,1.89.65.45,1.85.85,2.44,1.3,1.77,1.35,7.76,7.19,9.48,7.32.99.07,3.41-1.18,4.34-1.74,6.73-4.1,6.37-6.43.2-10.95s-13.43-7.38-20.88-8.64c-.35-.28-1.88-6.26-2.62-7.56-1.1-1.93-4.26-4.25-6.13-5.24Z"/>
  <path d="M111.19,744.75c.24-.14,1.11-1.44,1.19-1.48.16-.07.6.22.91.05,1.24-.68,2.43-1.93,3.72-1.54l.73-2.35.33,1.18.67.17c.55-1.43,2.61-.9,2.4-3.03.14-.12,2.13.22,2.45.34.37.15.09.96.92.65-.11-1.13,1.89-1.17,2.23-1.68.46-.71-.37-1.7,1.01-2.05.23.91.95.86,1.79.59.49-1.76.76.65,1.43.09.12-.1-.28-.81.34-.67l.16.67c2.69-.53,3.26-3.62,6.27-1.85,1.37.8,2.67,3.74,3.24,5.24,2.55,6.78,3.49,14.26,2.38,21.44.03.24,2.3,2.68,2.51,3.26,1.19,3.25,1.58,9.09.67,12.43-.57,2.1-1.06,2.52-2.76,3.71-1.09.76-3.08,1.98-4.27,2.5-4.18,1.84-12.57,3-17.18,3.17s-9.41-.29-14.1,0c0,.38-.06.78.02,1.17.75,3.76,2.6,7.63,3.3,11.64,1.11,6.43.8,13.78,1.08,20.3.11,2.55.76,7.15-1.19,9.3-.58.64-4.44,1.75-5.5,1.97-1.66.34-5.19.29-6.88-.06-2.21-.47-4.77-1.8-6.98-2.18-2.52-.43-4.22.35-6.79-1.19-.92-.55-2.32-4.66-2.46-5.84-.54-4.42-.33-9.73-.7-14.24-.06-.7-.7-1.17-.35-1.85l-.99.02c-.57,2.38-.78,5.41-2.26,7.43-1.01,1.38-4.97,3.51-6.59,3.92-2.77.71-10.77.68-13.77.18-.74-.12-4.08-1.43-4.55-1.9-1.69-1.67-1.53-8.75-1.37-11.18.06-.96.44-4.48,1.08-4.87.25-.15,2.67.27,2.97.47,1.82,1.21.78,9.15,1.03,11.54.09.81.12,1.47.99,1.71,1.47.4,6.95.3,8.7.17.36-.03,1.76-.14,1.85-.53l-4.91-4.43c-.87-.65-7.73-4.11-5.56-5.52,3.48-1.11,6.14.42,9.06,2.2,1.2.73,5.06,4.11,6,4.19.76.07.36-.11.53-.48.49-1.07.71-2.26.94-3.4-2.39-.73-6.12-5.68-8.01-6.24-.99-.29-3.87,1.19-5.43,1.22-10.18.15-7.31-18.57-5.85-24.77.98-.57,1.04-1.39,1.6-2.21,1.94-2.82,5.19-5,7.89-7.05l-3.39-1.36c-1.32-.01-4.86-1.4-5.69-2.28-1.16-1.24-1.48-8.3-1.45-10.29.04-3.76.48-8.76,1.55-12.37,1.14-3.85,3.35-7.49,7.54-8.41,6.74-1.47,26.06,5.97,32.78,9.13,3.2,1.5,6.87,4.12,10.05,5.22,1.52.53,3.2.87,4.65.05ZM135.33,737.45l-4.01.63c-.81,2.11,2.11,2.93,2.05,4.2-.04.86-.49,1.67-.61,2.5-.6,4.26-.9,8.55-1.49,12.77-.16,1.13-1.7,7.28-1.31,7.68.52.12.8-.11,1.21-.31.73-.35,4.54-3.15,5.08-3.74,4.63-5.08,1.79-18.04-.92-23.72ZM86.18,739.77l-7.12-2.04c.3,2.25-2.07,2.87-3.41,4.22-3.77,3.81-7.39,8.42-10.86,12.48l-4.32,3.39.34,2.24,4.1,1.04c.89-.63,1.62-1.48,2.42-2.2,6.05-5.42,11.95-11.87,17.83-17.97.48-.5,1.27-.27,1.02-1.17ZM64.13,740.11l-2.03-.34-1.36,4.41c.65.62,2.12-2.11,2.37-2.46.38-.52,1.33-.46,1.02-1.61ZM120.11,742.83l-8.79,4.46c.79,1.75-.29,1.68-.85,2.69-1.47,2.62.5,8.18-2.02,10.87l-3.27,15.58,9.1-3.79c0-2.06.16-4.1.48-6.14.28-1.77.85-5.2,1.3-6.79.08-.28.62-.26.61-.41-.12-1.92-.01-1.77.75-3.66.95-2.35.9-5.39,1.42-8.15.29-1.57.94-3.11,1.27-4.67ZM101.11,746.9c-1.44-.23-2.94-2.18-4.39-1.53-1.03.46-4.77,3.92-5.96,4.93-1.97,1.68-3.74,3.99-6.17,5.18.11.67-2.34,1.84-1.8,2.27.3.24,1.68-.53,2.08-.72,1.97-.96,5.04-2.68,7.08-3.47.49-.19,1.34.17,1.71-.07,1.05-.68,1.1-2.95,1.59-3.2,2.11-1.11,2.99,1.18,3.14,1.02l1.4-4.04,1.15.3.16-.67ZM103.48,747.93l-2.03-.69,1.19,1.69.84-1ZM93.31,756.4l-9.48,3.75c.2,1.46-.27,3.15-.23,4.5.08,2.98.65,4.16.05,7.01-.12.56-.55,1.85-.53,2.19,0,.28,1.06-.02.69.87l-1.01-.34c.05,4.79-2,9.29-3.05,13.91l12.82-5.82.07-3-.68-.68c-.63.63-1.03,1.51-1.02,2.38-.15.13-.52-.3-.6-.58-.3-1.06.01-5.81.29-6.98.19-.8.14-.6.3-1.75.27-1.89,2.99-14.79,2.39-15.46ZM79.06,758.78l-3.92,2.02c-.42-1.49-.44-.04-1.33.7s-2.52,1.02-3.23,2.02c1.28.57,2.17-1.14,2.46-1.28.26-.12.67.18.93.06,1.52-.76,3.16-1.62,4.66-2.42.67-.36.45-.31.43-1.1ZM78.38,763.53c-.63-.08-.99-.01-1.35.51l.85,1.18.51-1.69ZM68.2,765.23l-1.7.34v.67c.32-.08,2.02-.76,1.7-1.01ZM127.92,765.91c-1.22-1.09-1.42,2.22-.17.68.18-.22.26-.6.17-.68ZM68.2,769.3c-.22-.24-1.17.49-1.42.68-5.08,3.88-7.23,7.99-7.73,14.42-.13,1.63-.43,10.8,1.52,10.94.89-.71,1.99-.44,2.9-.76,2.79-.96,1.63-1.27,2.47-3.3.3-.72.93-1.21,1.16-1.89.18-.53.62-3.89.43-4.15-1.33.05-.59,1.48-1.69,1.36.37-2.94.3-5.99.71-8.96.17-1.22.45-2.55.67-3.72.28-1.55.98-3.03.99-4.63ZM141.83,771.68l-2.52,2.25c-1.06-.01-.76.73-1,1-1.07,1.15-2.12,2.06-2.93,3.54.37.33,5.45-2.94,5.66-3.48.32-.8.49-2.37.79-3.3ZM125.54,774.04c-1.11-1.58-4.32.76-5.87,1.43-1.95.84-4.06,1.65-5.92,2.9l-7.54,3.14c2.09.09,4.59-.69,6.61-.7,2.46-.02,5.08.84,7.64.36-.45-1.38,1.6-3.61,2.54-4.75.59-.72,1.7-1.99,2.55-2.38ZM102.47,787.29c.25-.24-1.03-3.84-2.13-3.35l-15.51,7.59c.42.67,1.29.59,1.38,1.35.23,1.94-.95,1.7-1.06,2.11-.22.85.34,1.95.35,2.82.28.26,1.76-1.1,2.1-1.38,1.63-1.31,2.63-2.77,3.74-4,.15-.17,2.58-1.22,3.23-1.65,1.35-.9,3.31-2.66,4.57-3.41.61-.36,2.49.08,3.31-.09ZM104.65,800.67c.74-.71,1.48-.68,1.59-2.01.05-.63-.89-6.05-1.22-5.94-2.05,1.53-4.34,2.85-6.35,4.43-.65.51-3.6,3.97-4.34,3.37l.68-1.01c-.16,0-.35-.05-.5,0-.3.11-5.01,3.34-5.25,3.57-.72.7-.55,1.24-.73,1.48-.06.07-1.25-.45-1.6.61l.29,7.92c.44.54,9.91-6.29,10.83-6.98,2.08-1.57,4.77-3.66,6.62-5.43ZM78.38,794.42l-5.09,2.37c.88-.32,2.85,2.54,3.39,2.04.05-1.68.84-3.04,1.7-4.41ZM107.56,807.65l-1.7.34c-.11.6.66.96.62,1.47-.1,1.5-6.7,5.15-8.18,6.01-.91.53-2.12,1.24-3.54,1.61-.58.15-1.21.05-1.8.07l.35.67c-1.85-.66-3.47,1.25-5.39,1.4-.14,1.29-.14,2.75.62,3.88,2.84-.05,5.15,1.17,7.82,1.85-.38-1.16-.49-2.18.36-3.2l10.84-8.34v-5.77ZM101.45,825.98c3.77-.93,6.63-.87,6.1-5.77l-2.7,1.96c-.9.54-1,1.88-1.55,2.44-.51.51-1.62.46-1.85,1.36Z"/>
  <path d="M255.38,739.22c10.22,4.5,13.31,9.09,18.15,19,2.16,4.42,3.15,9.25,4.38,13.98l-1.03,1.5c1.94.53,5.99,2.82,6.62,4.75.47,1.43.76,4.99.85,6.61.35,6.46.57,20.56-3.4,25.72-.3.39-1.53,1.82-1.84,2.17-1.25,1.34-3.44,2.56-5.21,3.09-4.76,1.45-8.9,1.26-13.69,1.65-9.59.79-19.91,1.83-29.32.49-.11-.02-.44,1.26-1.85.67l.17-.68c-1.08.28-2.18.54-3.3.6-6.92.38-15.67-.25-22.64-.78-4.11-.31-18.48-.48-14.35-8.22.32-.6,1.13-.78,1.13-.95,0-.44-.6-1.05-.69-1.69-.23-1.8.11-3.9-.02-5.75-.37-5.17-2.22-14.3-1.7-19.02.1-.95.54-2.72,1.53-2.51.85-1.95,2.39-3.45,3.86-4.93-1.29-1.81-.52-2.33-.29-4.26l-1.02.84c-.21-1.38.61-2.81.69-4.06.43-6.89-.49-25.79,3.5-30.94,2.59-3.34,10.3-3.9,14.31-4.19,4.89-.34,9.7-.35,14.59-.68,8.31-.56,22.83,4.18,30.58,7.6ZM225.98,736.04c-3.46.63-7,.4-10.48.38-.52,2.04-2.05,3.44-2.99,5.32-3.73,7.4-5.58,15.14-5.19,23.49l-1.86-2.71-.84,1.01c.49-1.62-1.01-1.61-.68-3.06l-.67.34c.28-2.42-.21-4.88-.01-7.31.41-5.08,2.45-9.73,4.18-14.13.26-.67.7-1.28.92-1.98-3.69-.47-7.16.55-8.41,4.31-2.74,8.2-2.52,19.67-3.14,28.46-.09,1.22-.38,2.36-.66,3.55,2.24-.83,4.48-1.73,6.68-2.64s3.61-1.82,6.17-2.24c3.85-.63,8.52-.64,12.09-1.3.09-.02.19-.99,1.64-.6.26.07.22.66.37.65.57-.03,1.7-.71,2.41-.82,4.1-.63,9.69-.99,13.91-.87,2.41.07,5,.51,7.41.72l.21-.7.96.84,7.18.17v-1.02s-1.04-.19-1.04-.19c-.14-2.85.27-5.99.02-8.8-.12-1.33-.78-4.74-1.09-6.04-.36-1.48-2.36-7.64-3.08-8.63-.37-.51-1.79-1.09-2.35-1.46-.32-.21-.38-.71-.82-.95-.28-.15-2.4-.84-2.49-.75l1.35,22.4c-.78.18-1.31-.47-1.95-.61-.39-.09-.81.25-1.05.19-.15-.04-1.42-1.97-1.52-2.35-.75-2.71-.61-4.98-.92-7.59-.55-4.55-.85-9.19-1.74-13.67-3.32-.74-6.7-1.54-10.12-1.41l2.4,1.57c1.06,2.03-1.04,2.99-1.97,4.8-3.57,6.93-3.67,15.62-2.47,23.15-1.6.35-1.75-.66-2.45-1.24-.1-.09-.59.22-.77-.08-.26-.44-.18-1.15-.42-1.65-.27-.56-.88-.62-1.1-1.02-.62-1.15-.57-9.98-.34-11.78.58-4.63,2.38-9.79,4.75-13.75ZM260.74,747.09c-.31-.26-.45-.74-.84-1.03-.59-.43-3.96-2.55-4.4-2.22,1.17,1.91,1.3,4.17,1.78,6.19.17.72.71,1.39.86,2.2.74,4.1.42,8.64.44,12.8l-1.04.19.17.62c1.21-.72.17,1.46-.17,1.75,1.98.1,4.29.49,6.18,1.05,1.48.44,3.96,1.57,5.76,2.11.43.13,2.5.73,2.64.58-.35-3.56-1.22-7.48-2.66-10.74-1.61-3.64-5.94-11.15-8.72-13.5ZM257.19,763.53c-1.15-.25-.49.77-.69,1.46-.03.1-.89.72-1,1.77-.03.27,1.28-.07,1.02.84l.67-.16v-3.9ZM236.83,769.63l-.3-1.2-17.68,1.2c-.09.99.85,1.27,1.64,1.41l.08.44c.26,1.74-.63,1.93-.89,2.89-1.75,6.36-.44,12.31.18,18.68l-1.01-.67c.78,1.38-.64.67,0,1.69-.55.13-.69-.19-1.03-.5-1.67-1.5-3.78-10.78-4.03-13.28-.35-3.51.56-6.62,1.32-9.98l-8.23,1.38-1.94,1c-.1.94.03.54.52.66.89.22,1.8.33,2.56.91.39,1.36-.98,3.71-1.29,5.13-.88,4.07-1.36,8.27-1.06,12.45.27,3.67,1.61,7.35,1.65,11.05l-.51-.68-.17.68h-.68s0-.68,0-.68l-1.01.68c.39-1.46-.86-2.2-1.14-3.09-2.28-7.33-3.36-17.41-1.07-24.74.19-.61.62-1.11.85-1.7-4.29,2.16-10.18,3.38-10.87,8.98s.82,13.81,1.36,19.7c.15,1.59-.09,3.31,0,4.92,8.53-1.05,17-2.07,25.63-1.68l5.58-.36c-.65-1.59-1.52-3.28-2.05-4.9-1.07-3.23-2.58-8.24-2.38-11.58.04-.69.38-3.73.51-4.23.56-2.13,2.42-4.09,4.29-5.21,2.48-1.48,8.78-2.7,11.67-2.62,1.11.03,3.86,1.21,4.18,2.31.22.79-.11,2.4.1,3.61,1.03,5.93,2.77,10.62,1.57,16.94-.43,2.29-.98,5.23-3.82,4.85l-1.86,1.17c4.7-1,9.6-.47,14.4-.66l.52-1.04c.07.47-.39.96.49,1.03,2.08.16,4.37-.15,6.48-.03,4.92.27,9.66.86,14.47,1.81.61.12,1.35,1.04,2.22.47.15-.37.53-.54.73-.85.75-1.11.85-2.29,1.27-3.39.16-.42.72-.41.73-.45.07-.18-.25-2.43.09-3.77.19-.77.27.28.29-1.76.07-5.51.33-11.93-.67-17.32-.07-.36-.19-.64-.47-.88-2.37-1.73-5.23-2.58-7.92-3.61-.42-.16-.35-.69-.66-.77-1.08-.27-2.65-.28-3.83-.69.52,1.22.63,2.56.69,3.88.35,8.33.04,16.78-1.37,24.97l-.34-1.02-1.01.68.33-4.07c-.41.16-.83,1.54-.93,1.95-.15.59-.08,1.19-.08,1.78l-.51-1.36-.84,1.36,1.01-1.87-1.35.17c.21-8.96.95-18.05-.68-26.91l-7.13-.91c1.35,1.58,1.52,3.57,1.71,5.58.54,5.6.27,12.74-.36,18.34-.27,2.44-.86,4.9-1.36,7.3l-1.01-1.36.67.68.68-3.39-1.01.34-.34-1.35c-.35,1.26.44,2.15-.82,2.93-.31.19-.82.09-.87.14-.1.09.79,2.71-.69,2.37-.73-.84.56-8.94.64-10.73.26-6.06.12-12.21-.71-18.21l-2.73-2.71c-2.71-.17-6.71.64-9.25-.22-.49-.17-2.7-1.79-2.19-2.4l1.01.34ZM194.08,774.39v-1.36s-1.01.34-1.01.34l1.01,1.01ZM236.77,781.58c-3.98-.56-8.96.3-10.29,4.68-1.6,5.27.45,11.01,2.25,15.92,1.59.38,7.99-1.94,8.53-3.1.47-.99,1.24-4.36,1.3-5.52.16-3.01-.79-6.24-.76-9.52,0-.14-1.39-1.21-1.03-2.46ZM190.35,800.86l-.67-3.05c.26.69-.68,3.26.67,3.05ZM262.96,798.83v-.5s-.67-.51-.67-.51l-.34,1.01h1.02Z"/>
  <path d="M462,768.08c1.87.99,5.02,3.31,6.13,5.24.74,1.3,2.28,7.28,2.62,7.56,7.45,1.26,14.76,4.17,20.88,8.64s6.53,6.84-.2,10.95c-.93.57-3.35,1.82-4.34,1.74-1.72-.12-7.71-5.97-9.48-7.32-.6-.45-1.79-.85-2.44-1.3-.71-.5-1.18-1.62-2.34-1.89.12,1.41.08,3.51,1.81,3.1,1.14,2.14-.56,4.64-2.81,5.06-3.1-.83-6.14-1.91-9.27-2.64-9.52-2.22-19.67-3.4-29.34-4.94-2.51-.4-5.04-1.42-7.73-1.26-.14.13.39,1.65.19,2.21-.45,1.23-2.31.73-1.89-.52-.78.48-1.04.1-1.68-.33.04.7.04.77-.69.67l-.55-2.76c-3.25-.41-6.55-.93-9.81-1.31-1.32-.15-4.32.49-4.58-1.02l-.5.67c-.81-.91-1.71-.26-2.72-.32-2.16-.13-4.22-.75-6.4-.68l-.55-.69-.14.65-11.56-.99-.76.5c.96,2.93-.5,4.39-3.46,3.39-2.58-.87-1.18-3.51-2.27-3.85-2.6.03-5.16.39-7.75.66-2.09.22-3.55.35-5.74.72-1.16.2-2.33.14-3.43.29-.46.06-1.09.23-.51.67.56-.05,1.06.03,1.55.31,4.94,2.8,9.1,7.4,11.67,12.44.46.33,4.8-1.12,5.94-1.23.27-.03,1.24-.1.68.35l-2.88.34c-.1.07.17.42.34.51,2.08,1.14,1.39-.39,2.89-.52.27,1.1.59.36,1.52.35l-1.87,1.35.17-1.01-1.69.68,2.03,1.02c-.42,1.54-3.2.61-3.35.72-.29.22-.28,1.4-1.74.97.12,2.01,1.48,3.57,1.02,5.77.28.28,5.02-.62,5.85-.77,12.23-2.31,25.23-3.82,37.77-4.96,16.8-1.51,33.75-1.25,50.51-3.13,1.29-.14,2.98-.97,4.43-.99l-.17,2.38-1.35-.68.67-.67-3.39.34,3.05.85c-.81.02-.35.78-.67,1-.24.16-.73.07-.95.28-.18.17.03.72-.28.96-.74.55-4.73.54-5.75.66-7.47.88-28.24,2.59-33.96,5.88-.29.17-1.48,1.59-1.99,1.56-1.81-1.88-.5-3.08.85-4.57.07-.55.05-.56-.48-.49-6.98.93-14.05,1.58-21.06,2.36-11.37,1.26-22.71,1.99-33.77,5.25-.51.15-1.09.54-1.53.86l-.17-.68c-.14-.12-.86,1.17-1.71.1-1.02-1.29-.1-1.51,0-2.32.34-2.7-1.76-4.67-1.68-7.28-.61-.64-5.76,1.29-6.76,1.55-7.9,2.01-15.72,3.72-23.32,5.86-4.46,1.25-13.37,3.55-17.13,5.87-.78.48-2.35,2.78-2.89,2.95-1.96.63-1.22-.35-1.47-1.03-.14-.38-.72-.26-.83-.89-.06-.32.25-.96.15-1.05-.08-.07-1.53-.23-1.67-.94-.5-2.52.08-7.44.78-9.99,2.59-9.55,5.72-13.19,14.09-18.15,9.09-5.39,16.81-5.99,26.98-7.29l18.19-2c-.45-3.35-.94-6.72-1.53-10.03-.74-4.18-2.97-10.06-1.37-14.09.27-.7,2.21-2.68,2.83-3,6.14-3.2,12.51-1.61,18.9-1.05,6.67.58,11.62,1.05,18.23,2.47,16.11,3.45,32.63,4.01,47.62,11.93ZM420.4,785.25l-2.23-23.73c-4.19-1.04-8.56-.93-12.83-1.43-3.98-.46-7.85-1.52-11.91-1.66-2.93-.11-11.27-.27-11.73,3.57-.64,5.33.77,11.16,1.68,16.32.17.97-.39,2.84.7,3.37l22.4,1.87c-.37-1.92,3.27-12.53,2.18-13.28-6.46-.71-11.5-5.55-18.25-4.39-.43.12-.57,2-.54,2.51.21,2.91,2.14,7.23,2.6,10.32.07.48.14.95.09,1.44-.58.03-1.14.07-1.69-.18-.5-.23-3.44-2.95-3.71-3.49-.9-1.83-3.04-9.59-2.67-11.34.46-2.22,6.93-3.15,8.91-2.97,3.93.34,9.69,2.72,13.47,3.82,1.28.37,5.2,1.2,5.95,1.7.26.17,1.48,2.26,1.43,2.76l-2.69,13.77,8.82,1.02ZM460.33,771.11c-5.29-3.25-17.91-6.2-24.23-7.5-3.79-.78-7.8-1.35-11.62-1.78-.46,8.03.06,16.05.71,24.07l43.06,7.16c-.96-4.81-1.55-10.41-3.16-14.99-.83-2.36-2.58-5.62-4.75-6.95ZM482.36,788.46c-3.49-1.78-7.23-3.06-11.06-3.88,1.24,1.6-.23,5.15,2.38,5.09-1.02-1.46,2.17-.3,2.61-.07l12.24,8.16c2.68-.32,3.35-1.82,1.45-3.86-1.61-1.72-6.11-4.67-7.61-5.44ZM363.74,804.6c1.7-1.15,3.24-.87,5.09-1.53-2.76-3.54-6.31-7.24-10.28-9.41-11.36-6.19-26.06.58-32.28,10.96-2.25,3.75-3.49,7.99-4.61,12.19.43.43,2.17-1.31,2.46-1.45,3.65-1.69,9.1-3.1,13.06-4.23,7.79-2.23,18.76-5.58,26.55-6.54-.25.17-.74.39-.68.68l4.07-1.01c-.92-.2-1.75.46-2.55.52-.31.02-.68-.2-.85-.18ZM368.82,803.58l-1.35.34v.33s1.35,0,1.35,0v-.68Z"/>
  <path d="M400.84,208.02c-2.3,2.37-4.33,3.47-7.78,3.93-8.2,1.09-16.55.63-24.76.75-15.41.22-28.27,1.57-43.18-4.01-13.79-5.16-13.61-15.76-14.32-28.76-.93-17.11-.39-35.23-.55-52.34-.25-26.24-.63-52.34.23-78.68.13-4.05-.65-8.79-.34-12.56.39-4.66,1.8-6.47,6.34-7.56,3.64-.88,8.07-1.31,11.77-1.82,20.27-2.84,44.6-3.94,64.04,3.21,9.2,3.38,7.02,13.17,7.39,21.12,1.73,37.06,1.56,74.25,4.1,111.33.73,10.59,4.66,36.29-1.87,44.64-.27.35-.79.47-1.09.77ZM397.88,203.04c5.44-9.24,2.23-30.48,1.48-41.12-2.54-36.07-2.82-72.15-4.41-108.26-.13-3.02.21-6.21.02-9.19-.09-1.38-.86-7.64-1.28-8.56-.22-.48-.62-.76-1.1-.93-3.17-.8-6.26-2.36-9.43-3.13-16.13-3.91-31.79-1.82-48.08-.75-3.35.22-6.28.94-9.93,1.6-3.05.55-6.54.23-8.8,2.57-.35.36-.65.93-.77,1.43-.22,5.86.13,11.77-.01,17.64-.42,17.12-.07,34.13,0,51.22.1,24.79-.55,49.73.67,74.33.27,5.49-.05,10,1.1,15.55.62,3.03,1.51,6.22,4.6,7.62,14.3,6.48,34.9,5.12,50.5,4.71,4.89-.13,10.42-.08,15.24-.55,2.12-.21,7.12-1.17,8.73-2.36.1-.07,1.42-1.7,1.48-1.8Z"/>
  <path d="M74.77,473.54c3.28,2.38,4.9,5.6,7.68,7.77s4.07.72,6.97.51c5.47-.41,9.28.8,13.46,4.09.57.44,1.8,2.13,2.24,2.33.83.37,1.97.39,2.88.78,4.34,1.89,8.61,5.33,10.07,9.96s-.6,4.08-.69,7.11c-.03,1.12.46,4.24.75,5.39.79,3.15,3.7,6.34,4.04,9.53.21,1.9.08,4.82-.81,6.52-.33.63-2.4,2.39-2.59,2.75-1.93,3.58,3.83,12.59-.93,16.01-1.66.03-3.95.6-5.52,1.2-1.46.56-4.19,2.55-5.35,2.83-.6.15-.92-.09-1.43-.29-.68,5.42-.33,11.08-.7,16.48-.08,1.22-.46,2.27-.63,3.42-.35,2.42.04,4.9-1.99,6.91-6.94,1.23-13.78-.87-20.61-1.68-4.13-.49-10.69-.31-14.52-1.37-.29-.08-.22-.63-.38-.63-5.67.23-15.88.22-19.8-4.33-3.2-3.72-3.25-10.75-4.22-15.48-.17-.81-.7-1.49-.86-2.2-.33-1.46-.54-3.33-.76-4.84-.51.18-.86.63-1.47.6-4.2-.25-7.5-4.55-9.87-7.75-1.66-2.24-5.41-6.37-1.88-8.34.05-.45-.72-2.17-.97-2.72-2.42-5.29-7.69-7.74-5.22-14.94.43-1.26,1.87-2.47,2.13-3.31,1.13-3.71-1.62-10.79,2.23-13.36.82-.55,1.72-.74,2.57-1.11,1.29-.57,2.39-.84,3.76-1.4,1.62-.66,1.49-.83,2.29-2.04,1.4-2.14,1.56-4.76,2.79-6.79,2.45-4.03,7.37-2.04,11.37-3.55,1.46-.55,3.39-3.55,4.52-4.65,2.94-2.85,6.12-2.47,9.88-3.35,3.32-.77,6.58-2.7,10-1.34,1.07.42,1.06.93,1.58,1.31ZM99.08,527.29c.25.05.52.51,1.02.34l.02-1.01c2.18.03,1.16-.06,1.8.88.25.36,1.03.67,1.2,1.08,1.21,2.83,2.74,11.7,2.76,14.84,0,.47-.2.77-.35,1.18.4.34,4.92-2.03,5.68-2.29.93-.32,2.42.02,3.42-.82l.36-4.21c-1.14-.89-.92-3.41-1.17-4.91-.13-.79-.85-2.34-.83-2.83.1-2.53,3.32-4.11,3.7-6.86.68-4.94-2.08-6.98-3.5-11.03-.76-2.17-1.13-4.85-1.01-7.14.16-3.13,1.67-4.52-.19-7.6-.31-.51-1.94-2.35-2.4-2.69-1.97-1.46-4.8-1.2-6.85-2.56-1.93-1.27-3.67-4.04-6.02-4.93-3.65-1.38-9.15,1.39-13.88-.37-3.43-1.28-5.93-4.83-8.19-7.34-.36-.4-2.23-2.28-2.53-2.32-1.17-.05-2.06.71-3.13.96-2.57.58-6.29.83-8.65,1.53-2.89.86-4.35,6.03-8.99,7.3-1.65.45-3.83.29-5.26.51-5.13.8-3.68,2.75-5.27,6.61-.56,1.36-1.98,3.44-3.28,4.19-1.75,1.01-7.03,2.02-7.81,3.73-.84,1.84.34,7.39-.2,9.98-.43,2.05-2.39,3.48-2.87,5.27-1.38,5.13,4.45,9.41,6.11,13.93,1.06,2.89-.17,2.52-.7,4.4-.48,1.68,4.86,6.74,6.55,7.4.58.22,1.15.46,1.79.41-.15-5.97-2.72-12.14.68-17.65l-.68,3.05c1.41.18.24-2.53,1.69-2.38l-1.01-.67c5-8.1,19.04-8.12,27.56-6.69,8.23,1.38,16.37,3.46,24.56,4.96,1.68.31,4.36-.35,5.73,1.4.88,1.13.18,1.52.17,2.37-4.48-.89-10.08-1.36-14.72-2.08-10.79-1.68-22.47-4.87-33.21-1.57-7.1,2.18-6.73,9.24-6.36,15.35.27,4.48,1.08,8.09,1.88,12.38s1.43,9.82,2.62,13.67c.88,2.87,5.18,3.28,7.93,3.61,8.63,1.03,17.43,1.42,26.08,2.42,2.64.3,12.5,2.5,14.28,1.38.48-.3.63-.73.8-1.23,1.06-3.02,1.53-10.14,1.73-13.54.41-7.07.74-16.11-.02-23.09-.29-2.7-1.04-4.18-1.02-7.3Z"/>
  <path d="M407.7,573.99c-.48.79-1.75,1.73-1.97,2.26-.7,1.64-.33,4.04-2.21,5.33-1.09.74-3.6,1.44-4.3,2.41-.97,1.33-1.94,6.03-2.63,7.89-.83,2.22-1.88,5.11-2.83,7-6.2,12.34-22.5,7.46-33.89,7.14-3.73-.1-6.49.56-10.25-.27-.49-.11-.44-.69-.61-.69-2.25-.02-3.25-.59-4.71-2.47-2.21-2.84-2.52-4.13-2.3-7.62.01-.17-.6.01-.67-.63-1.6-13.75.35-29.27,1.09-43.09l1.78-7.9c.41-.89,4.67-1.6,5.85-1.77,7.1-1.02,18.73-.81,26.1-.39,5.9.33,11.87,1.63,17.63,2.04,2.56.18,8.54-.53,10.45.07.91.28.69,1.16,1.02,1.52.72.77,1.8,1.05,2.1,2.49,2.1-3.36,1.75-5.82-.73-8.8-3.57.69-6.85-.02-10.38-.45-2.14-.26-5.07-.29-6.85-.61-2.13-.38-6.32-3.24-8.16-3.39-1.06-.09-1.9.38-2.71.36-2.63-.07-5.61-1.47-8.13-1-1.6.3-3.51,2.88-5.79,3.02-1.58.1-4.04-1.08-5.44-1.32-1.89-.32-4.95.31-7.42-.05-.94-.14-1.99-.83-2.79-.88-1.17-.07-3.47,1.14-4.78,1.51s-2.15-.33-3.49,1.02c-.2.2-2.25,3.17-2.29,3.37-.48,2.48.51,6.12.22,9.06-.39,3.92-2.6,8.89-3.2,12.94l4.88,14.69c-.8,2.81-2.99.13-3.99-1.14-.21-.27-.78-.34-.94-.58-1.04-1.6-2.73-8.68-3.6-11.16-.36-1.03-1.46-2.58-1.57-3.54-.14-1.14,1.24-4.99,1.6-6.5.44-1.82,1.53-5.28,1.76-6.72.49-3.09-.71-9.12.19-11.67.07-.21,2.29-3.61,2.46-3.76,1.16-1.01,2.24-.72,3.28-1.04,1.79-.54,5.33-1.9,7.08-1.9,2.02.01,4.47.91,6.52,1.07,1.44.11,2.93-.29,4.4-.16,1.62.14,3.68,1.16,5.1,1.05.32-.03,2.29-1.94,2.9-2.22,3.73-1.66,7.84-.29,11.69.14,1.09.12,2.28-.13,3.37.03,1.9.28,5.23,2.55,7.22,2.96,1.28.26,2.7-.09,3.98.09,1.69.24,4.16,1.43,5.82,1.65,5.19.69,8.46-2.25,12.53,2.4,1.45,1.65,4.54,7.28,4.61,9.33.06,1.82-1.12,2.97-1.55,4.59-1.03,3.8.81,8.07-1.05,11.85-.59,1.2-2.23,2.21-2.63,3.48-.98,3.14.52,5.3-1.73,8.97ZM402.08,548c-1.73-.09-3.52.12-5.26,0-7.07-.51-14.12-1.98-21.16-2.52l-25.82.17c-.03,1.66-1.4,2.95-1.69,4.58-2.36,13.1-2.97,29.33-2.4,42.77.14,3.24-.13,7.81,3.9,8.3,3.64.44,8.41-.15,12.25,0,8.39.32,21.12,4.04,26.56-4.64,4.96-7.92,7.88-22.69,9.91-31.83l3.71-16.82ZM404.8,560.22c3.61-2.48,3.21-6.74,2.37-10.52l-1.61,5.34-.75,5.18ZM403.09,570.06c1.26-2.26,1.06-4.62,1.02-7.12l-1.09,5.53c-.1.61-1.38,1.77.06,1.6Z"/>
  <path d="M270.96,58.37c11.12,6.84,8.79,29.76,9.29,41.44.81,18.66,2.47,37.66.69,56.32-.68,7.05-3.27,20.85-11.73,22.21-6.64,1.07-15.87.92-22.71,1.04-10.81.2-21.47-.27-32.24-.7-5.94-.24-12.77.74-18.23-1.76-3.98-1.82-9.63-6.1-10.7-10.35-4.14-16.44-3.28-28.38-2.79-45.39.46-16.04.73-32.14,2.37-48.15l.68-.55-.7-.19c1.05-2.92-.53-10.22,4.43-8.64-.48-2.08-.2-5.14.79-7.02.09-.18,2.6-2.66,2.85-2.83,2.36-1.65,10.1-2.71,13.15-3.05,9.95-1.1,19.96-.8,29.87-.01,9.63.77,26.82,2.62,34.96,7.63ZM225.69,55.08l-.19-.56c-8.15,1.4-18.17.38-26.06,2.78-.73.22-3.8,2.52-4.33,3.13-1.56,1.79-1.42,4.36-2.44,6.38-.49.96-.86,1.81-1.97,1.25l-1.36,12.4c-1.38,17.88-1.89,35.74-2.4,53.61-.26,9.22-1.32,24.82,2.5,33.17,1.69,3.69,8.78,6.09,12.6,6.37,4.07.29,8.47-.1,12.59.02,16.11.47,32.61,1.18,48.83,0,2.78-.2,5.73-.83,7.61-2.99,6.37-7.27,6.2-27.59,6.16-37.23-.05-12.65-1.06-25.35-1.74-38.01-.41-7.64-.02-15.86-1.04-23.4-.88-6.49-2.13-8.86-8.12-11.22-6.25-2.46-11.82-2.34-18.39-3.95-.28-.07-.25-.6-.41-.6-7.25-.07-14.59-1.03-21.85-1.15Z"/>
  <path d="M502.32,552.94c2.25,3.43,1.86,8.17,1.95,12.2.31,13.11-1.57,33.13-6.29,45.36-.85,2.21-2.27,5.35-4.56,6.3-4.88,2.01-14.75.25-20.24.09-10.58-.31-21.83,2.14-32.57.67-8.72-1.19-9.75-11.79-10.04-18.8-.57-13.65,2.16-32.81,4.52-46.42.18-1.02,1.26-6.33,1.69-6.63.08-.06,1.85-.62,1.95-.6.62.15,2.54,2.39,2.58,3.05l-2.19,11.93-2.07,16.08,5.37-4.63c.17-2.38,1.1-5.03,1.1-7.42,0-3.2-1.91-5.12-1.02-9.14.12-.54,1.53-3.76,1.86-4.24,1.15-1.65,2.51-2.26,4.5-1.86,1.66.33,3.95,1.97,4.76,3.41.37.66.94,2.89,1.16,3.1.15.14.67.04.8.18.93,1.02,1.67,2.25,2.88,3.09,1.8,1.24,5.17,1.91,7.36,2.48,4.43,1.17,3.81-1.19,5.51-3.71.91-1.35,2.37-2.74,3.13-4.24,2.42-.67,4.8-1.94,7.37-1.79.09-.49-.56-.47-.9-.54-.87-.18-2.46-.4-3.34-.47-6.85-.59-13.85-.7-20.69-1.37-3.59-.35-7.16-1.13-10.76-1.36l-1.27-2.21.97-.53-.31-.99c2.43.07,4.89-.1,7.32,0,11.2.43,24.21,1.71,35.3,3.36,5.39.8,10.88.61,14.19,5.66ZM498.01,553.87c-.97-.72-12.8-2.97-12.8-2.3,2.08.37,3.92.95,5.7,2.12,6.48,4.26,5.64,11.07,4.83,17.91-.45,3.78-.77,4.54,1.7,7.89.44.6.48,1.65,1.35,1.44l.67-13.7.69-.39c-1.08-.22-.25-1.88-.32-3.06-.1-1.65-.89-9.05-1.81-9.91ZM449.9,554.8c-1.62-.21-1.44,1.19-1.77,2.1-.24.66-.77.98-.91,1.81-.55,3.26,1.61,4.73,1.71,7.45.05,1.31-1.25,8.12-1.76,9.41-.74,1.89-2.82,2.39-4.05,3.48-2.12,1.87-7.23,10.64-7.72,13.33-.74,4.04-.36,12.89.7,16.79.5,1.85.66,2.62,2.56,3.21,2.65.81,12.96.77,16.22.68s6.28-1.08,9.44-1.25c7.18-.4,18.26,1.99,24.67.15,3.31-.95,4.51-5.09,5.48-8.02.88-2.68,3.34-11.86,2.73-14.12-.41-1.52-1.49-3.9-2.13-5.06-2.21-4.05-6.6-8.09-5.76-13.47.59-3.82,1.33-6.01.68-9.89-.13-.78.17-1.72-.12-2.43-.04-.11-1.61-1.61-1.71-1.67-.19-.1-3.01-1.05-3.19-1.07-.26-.02-4.7.97-5.02,1.11-1.06.44-3.08,3.21-3.7,4.28-1.69,2.94-.69,4.37-4.66,5.17-3.59.73-11.69-1.64-14.78-3.73-1.2-.82-2.01-2.53-2.79-3.27-.85-.81-2.53-1.09-3.25-2.62-.17-.36.16-.78.09-.94-.04-.08-1.14-.47-.94-1.41Z"/>
  <path d="M162.04,72.29c6.72,4.8,5.32,15.36,5.22,22.74-.18,12.99-1.52,32.11-7.55,43.69-4.16,8-8.67,8.39-17.32,8.03-4.41-.18-8.87-.67-13.28-.97-16.6-1.11-33.33-2.57-49.88-4.07-14.36-1.31-43.68-1.44-53.77-12.38-6.61-7.17-5.38-22.11-5.12-31.58.1-3.56,1.07-8.31.89-11.69-.27-4.87-3.49-11.94,2.28-15.01,9.18-4.89,34.85-4.2,46.24-4.68,10.5-.44,20.95-1.43,31.55-1.03,3.25.12,6.62.9,9.8,1.03,7.17.31,14.47-.35,21.6.2,5.94.46,11.97,1.75,17.85,2.77,4.19.73,7.76.29,11.48,2.95ZM161.4,75.98c-.91-.98-6.96-2.06-8.64-2.39-14.97-2.87-28.06-2.41-43.02-3.15-3.41-.17-7.07-.99-10.48-1.03-16.26-.2-34.5,1.53-50.8,2.62-4.96.33-17.48.09-21.26,3.24-.1.09-.48,1.66-1.77,1.82.17.54.41,1.08.38,1.67-.61,13.07-3.11,29.64-1.02,42.4,1.74,10.67,17.03,11.9,25.59,13.1,23.23,3.24,47.77,4.26,71.25,5.77,6.42.41,12.95,1.51,19.33,1.71s11.23.09,14.56-6.17c4.37-8.22,4.57-15.79,6.34-24.49.26-1.3.16-1.83.32-3.47.81-7.95,1.56-16.08,1.03-24.12-.09-1.44-.96-6.58-1.82-7.52Z"/>
  <path d="M285.17,472.5c2.35,3.25,2.32,8.65,3.9,12.21.41.92,1.17,1.48,1.54,2.53.79,2.28,1.33,8.11,2.74,9.81.83,1.01,2.47,1.55,3.16,3.02,1.97,4.18.3,8.6,1.85,13.02.35.99,3.76,8.93,4.07,9.34s1.54.93,2.06,1.5c2.59,2.81.46,4.48-.13,7.43,2.57-.13,5.02.44,7.47,1.02l-.34,1.01c1.45-.68,1.35.64,2.03,1.44.38.44.84.59,1.24,1.22,2.91,4.52.51,17.52-.18,23.01-1.25,9.92-2.28,26.88-10.58,33.53-5.26,4.22-9.57,2.37-15.41,2.22-6.22-.16-11.28-.58-17.32-1-5.76-.4-9.99.22-15.85-1.46-2.5-.72-4.68-1.82-6.03-4.15-3.54-6.13-1.25-27.42-1.01-35.28.08-2.62-.46-17.87.71-18.8.68.06,1.77-.45,2.32-.23.15.06,2.31,1.98,2.38,2.12.82,1.77-.49,4.41-.67,6.38-.34,3.89.16,8.26,0,12.23-.36,9.32-1.49,19.91-.7,29.19.07.83.38,2.93,1.04,3.37.77.51,6.46,1.76,7.63,1.87,6.92.66,14.69.38,21.66.73,2.84.14,5.69.83,8.53.87,15.01.21,15.8-16,17.52-27.19,1.02-6.61,3.07-16.44,2.48-22.99-.23-2.5-.37-4.34-3.05-4.68-3.81-.48-9.56-.1-13.56-.04-9.88.15-23.75,1.58-33.22,0-1.23-.21-2.12-1.17-1.34-2.4,1.71-.66,2.96-1.29,4.89-.98-.63-.47-.87-1.65-1.21-2.03-.49-.56-1.17.04-1.42-1.26-.44-2.3-.97-6.24-.08-8.41.52-1.25,2.06-1.99,2.3-2.79.28-.93-.02-2.28.07-3.32.32-3.35,3.73-3.33,6.4-3.95.07-1.85.06-3.71.06-5.57,0-.78-.35-1.41-.29-2.26.18-2.62,2.02-2.97,3.33-4.5s2.28-11.87,2.75-14.56,1.41-10.18,2.42-12.19c1.35-2.67,4.5-.88,5.83.96ZM283.66,484.87c-.83-.26-.82.67-.92,1.28-.48,3.12-1.61,14.75-3.27,16.59-1,1.1-2.6,1.09-2.87,3.1-.14,1.02.28,1.69.29,2.61.08,6.01.6,8.05-6.46,8.33l-.06,4.86c-4.57,3-2.42,5.92-2.32,10.41,3.47.13,6.95-.29,10.39-.29,5.1,0,10.03.41,15.22-.06.8-.07,4.27-.45,4.61-.91.8-1.07.52-3.57,2-3.86.28-.46-2.31-2.37-2.67-2.97-.92-1.55-1.24-4-1.92-5.47-.98-2.11-3.16-4.84-3.72-7.14-.45-1.85.22-9.48-.5-10.19l-.61.27-3.03-3.58-4.16-12.98Z"/>
  <path d="M186.06,502.06c.27.29.77.38,1.06.79.5.7.73,1.91,1.25,2.68,2.55-.85,5.95.61,5.74,3.6-.11,1.55-1.4,3-.68,5,.19.53,2.69,2.28,3.02,2.89.41.76.47,1.66.89,2.43.47.86,1.61,1.56,1.86,2.23.86,2.29-.26,3.48-1.39,5.26,1.07-.46,1.41.56,1.52.6,3.45,1.1,6.86,1.54,10.24,3.42,2.13,1.19,3.4,2.79,5.21,4.37.17,2.57.21,5.14,0,7.73-.55,6.55-1.45,13.41-2.47,19.94-.89,5.75-2.6,17.36-5.87,21.96-1.32,1.86-2.42,2.44-4.77,2.7-4.82.55-11.6-.7-16.57-.99-8.59-.5-24.42.21-30.95-5.87-8.47-7.89-5.49-20.78-4.85-30.93.32-5.13.02-10.81.69-15.94.06-.46.84-3.64.96-3.79.36-.48,1.9-.93,2.5-.77.13.04,2.02,1.56,2.09,1.67.97,1.46-.29,3.19-.46,4.59-.26,2.09-.16,4.39-.65,6.47.26,8.53-1.73,18.02-1.43,26.44.12,3.35,2.01,8.83,5.14,10.47,6.54,3.41,26.26,3.27,34.39,3.61,3.62.15,7.39,1.7,9.92-2.29,4.2-6.62,5.75-24.36,6.54-32.5.34-3.45,1.04-7.4,1.03-10.85,0-2.52-3.69-3.61-5.79-4.42-9.19-3.55-28-6.42-37.83-5.96-2.68.13-5.47,1.45-8.22.27-.11-.11-.34-.98-.35-1.2-.06-1.03.29-1.07,1.29-1.1l-.34-1.01,9.5-1.02c-.03-1.34-1.54-1.83-2.01-2.65-1.35-2.37-.6-4.41,2.35-3.79-.97-2.28-2.68-5.5.16-7.15,1.8-1.05,4.07,1.38,5.95,1.38-.58-1.43-.59-3,.22-4.32,1.28-2.08,1.94-.97,3.86-1.26,1.25-2.69,1.82-6.24,5.66-4.32.96.48,1,1.04,1.57,1.65ZM185.1,510.83c-.64-.64-.95-.79-1.02-1.86-1.24,2.51-1.31,2.79-4.22,2.4-.58,2.67,1.15,7.1-3.41,5.57l-3.4-2.2c.31,2.38,2.49,3.9,1.32,6.41l-1.66.21c1.29,1.76,2.66,1.06,4.22,1.35,3.38.65,7.35,1.9,10.62,2.46,1.08.19,2.23.08,3.3.43.75.04,3.64-3.41,3.23-3.73-1.83.59-1.84-.92-2.74-1.5-.43-.27-1.11-.06-1.37-.4-.67-.86-.21-2.82,1.05-2.86v-.33c-1.84.08-2.54-3.19-3.5-4.31-.54-.63-1.72-.92-2.43-1.64Z"/>
  <path d="M421.57,260.36c1.29,1.07,2,2.34,2.48,3.99-2.24,5.65-4.27,11.39-6.25,17.14s-3.2,11.7-5.78,16.94c-.19.38-.94.69-1.01,1.45l-.81.47c-5.29.26-10.35,5.1-15.14.77-1.06-.96-1.42-2.41-1.46-3.8-.13-4.62,4.24-12.48,5.93-17.14s2.71-9.4,4.42-13.91c.25-.66.91-.97.85-1.69l-2.29.43c-.77,1.97-2.34,3.57-3.2,5.45-2.01,4.37-2.88,9.33-4.46,13.87-.84,2.42-4.63,13.44-6.42,14.28-.55.26-3.12.86-3.84.89-1.49.05-3.91.1-5.41.06-2.43-.05-1.81-.18-3.28-1.52-.22-.2-.78-.12-1-.42-1.65-2.22,3.29-12.34,4.25-15.07,2.03-5.74,3.85-11.57,5.95-17.29-5.33-.42-10.52.58-15.78,1.01-3.38.28-6.8.37-10.17.69-1.28.12-4,.92-5.03.67-.11-.03-.67-1.26-1.93-.68-.21-1.25,1.42-.03,1.02-1.7l.67.35.02-1.01c.68.24,1.82.17,1.1-.68-.05-.06-1.04.02-.1-.85,3.4-1.13,6.5-1.48,9.97-1.91,15.8-1.94,31.83-2.39,47.86-2.67,4.12-.07,5.24-1.11,8.83,1.88ZM356.61,263.91h-1.01s0,.68,0,.68l1.01.34v-1.02ZM418.02,264.93l-8.48-.34c.04.94.06,1.79-.16,2.72-.92,3.87-3.94,10.18-5.43,14.25-.4,1.08-.59,2.54-1.03,3.72-1.56,4.19-3.98,8.13-4.9,12.57,2.83-.04,5.76-1.44,8.5-2.27,1.37-2.33,2.32-4.53,3.38-6.99.58-1.34.96-2.49,1.52-3.98,2.45-6.47,4.91-12.97,6.61-19.68ZM395.97,264.93l-5.12.55-5.62,13.31c-.96,4.78-3.45,9.12-4.95,13.71-.15.45-.75,1.52-.26,1.8,2.96.54,4.93-.16,6.4-2.79,1.57-2.81,3.28-7.76,4.41-10.9,1.85-5.19,2.97-10.61,5.16-15.68Z"/>
  <path d="M354.45,631.97c.8.57,2.24,2.67,1.67,3.61-.9,1.48-5.95-1.17-7.46-1.38-3.8-.53-8.29.68-12.06-.32l-.07.95c-.13.15-.68-.02-.97.29-2.91,3.19-4.64,16.42-5.23,21.16s-1.58,16.65-.78,21.14c.65,3.58,7.89,4.45,10.94,4.35s6.23-1.22,9.33-1.04c.3-5.7.36-8.85-6.02-9.76-1.19-.17-4.93.15-5.44-.16-.15-.09-.21-.6-.43-.74-1.45-.97-3.07-1.95-1.46-3.88,1.1-.36,6.23.43,7.67.72,9.73,1.96,11.98,7.01,10.77,16.71-.56,4.46-1.66,9.18-2.33,13.63-.49,3.19-.83,11.28-1.91,13.69-2.13,4.75-13.29,4.51-17.66,4.42-2.87-.06-6.27-.74-9.13-.6-2.12.11-5.22,1.02-7.46.95-2.83-.08-5.36-3.64-5.62-6.3-.53-5.31.53-10.73.7-15.94.19-5.78-.34-12.75.31-18.36.13-1.15.3-3.16,1.02-3.99.14-.16,3.4-2.15,3.67-2.21.45-.1.88.14,1.26.1.31-.03.57-.46.95-.43,1.45.1,1.93,1.74,2.62,2.81-2.5,3.16-4.27,2.39-4.72,7.17-.49,5.28-.82,11.6-1.08,16.91-.07,1.5-.54,14.3.07,14.72,2.96.33,5.93-.32,8.95-.29,5.15.04,14.84,1.65,19.48-.51,1.55-.72,1.6-1.69,2.07-2.96.09-.24.57-.27.58-.31.06-.17-.31-.84-.25-1.41.76-6.41,2.04-12.8,2.7-19.23-1.36.3-3.19.63-4.56.69-9.34.44-19.53-1.28-20.2-12.41-.55-9.06,1.19-19.65,2.67-28.54.79-4.72.44-8.66,3.29-13,2.21-3.36,10.92-3.42,14.57-3.1,1.72.15,8.24,1.95,9.53,2.86Z"/>
  <path d="M295.8,263.65c.24.14.53,1.21.95,1.6.54.49,1.28.45,1.86,1.2,1.54,1.98.09,4.32-.26,6.55-.53,3.41-.92,6.85-1.44,10.26,3.56.07,7.14-.08,10.7-.01,3.26.06,3.85,1.35,5.09-2.69.43-3.53,2.52-8.02,2.85-11.42.04-.41.12-.89-.02-1.28-.43-1.24-7.35-1-8.9-1.23l-.55-.68-.14.65c-2.24-.59-4.5-.92-6.3-2.52l1.35-.17-.68-1.69c2.31-.75,4.44-.04,6.6.01,1.93.05,4.3-.24,6.13-.02,3.09.36,5.16,2.72,8.8,1.36l19.85,1.71-.68,1.01h2.71s-1.36,1.02-1.36,1.02c1.39-.35,1.9.62,3.05,1.19l-2.03.17,1.35.67h-24.09c0,.58,0,1.15-.15,1.72-1.17,4.48-2.14,9.49-3.49,13.82-.22.71-.7,2.55-1.09,2.99-1.12,1.28-7.28-.04-9.16-.08-3.33-.07-8.03.95-11.06.57-1.2-.15-3.37-1.18-3.74-2.37.2-5.76,1.28-11.6,2.22-17.33l-20.35,1.7c1.25,2.92.84,14.94-1.37,16.79-.34.29-.82.29-1.23.38-1.36.3-4.45.38-6.05.48-3.79.22-11.23.75-14.55-.37-1.15-.39-1.53-1.19-1.62-1.23-.18-.07-.61.27-.94.09s-1.1-1.37-1.3-1.78c-1.23-2.45-1.07-8.07-.57-10.82.55-3,1.66-5.86,2.88-8.63l-13.7,1.73c-1.18.1-2.34.78-3.46.95-1.87.28-7.91,1.43-9.23,1.32-.85-.07-1.33-.43-2.11-.62l1.66-.71.03-1.66c2.46.13,4.49-1.83,7.13-1.36l-.68-.67c3.5-.41,6.92-1.34,10.38-2.01,2.12-.41,9.54-2.11,11.44-1.66.67.16,1.07.81,1.78.93,5.28.97,10.88,1.24,16.19,2.13,1.58.26,3.12,1.85,4.18,1.95,4.31.42,12.2-2.65,16.94-2.37,1.2-.05,5.35-.09,6.19.42ZM268.39,270.36c1.35-3.04-3.25-2.08-5.22-2.41-1.79-.3-7.03-2.15-8.33-1.16-.55.42-1.04,1.4-1.39,2.03-1.09,1.93-3.27,7.96-3.35,10.23-.04,1.15.58,2.83.36,4.16.71,1.14,15.91-.04,18.26-.65-.03-1.25.77-2.02,1.01-3.23.57-2.89.13-6.06.03-8.97h-1.36Z"/>
  <path d="M232.26,670.19c-.84-.09-4.51-1.32-5.16-1.8-.14-.1-2.37-2.38-2.45-2.54-.34-.66-.92-2.89-1.01-3.67-.3-2.57.52-8.06,1.06-10.75.34-1.72,2.89-7.01,4.24-8.06.35-.27,1.84-.9,2.31-.99,1.52-.28,6.61-.24,8.11,0,1.71.28,4.12,3.2,3.18,4.68-.06.09-1.71.98-1.81.98-.18,0-.93-.78-1.71-.91-2-.33-5.41-.31-6.79,1.32-2.12,2.5-3.3,8.12-3.54,11.4-.08,1.13-.34,4.6.67,5.09.3.14,3.87.49,4.57.52,2.12.09,4.19-.29,6.29-.35v-5.43c-1.4.08-3.53.41-4.86-.06-.39-.13-.8-1-1.34-1.41-.61-.46-1.18-.25-1.22-.3-.18-.27.15-.92-.73-1.12.41-.26.56-1,.92-1.21.83-.5,8.09-.48,9.37-.24.14.03,2.19,1.33,2.28,1.43.29.31.99,1.92,1.03,2.4.17,1.81-.22,6.89-.37,8.82-.55,7.09-1.41,16.78-2.87,23.6-.28,1.31-1.1,4.59-1.67,5.64-.08.15-2.5,2.19-2.66,2.26-3.23,1.35-13.68,1.11-17.31.49-2.38-.41-1.37-.82-2.32-1.76-2.09-2.06-2.17-1.63-2.37-5.1-.23-4.06.16-8.74.03-12.93-.17-5.25-1.41-11.44-.71-16.64.39-2.89,4.63-4.15,6.83-2.31-.14.91.16,2.1-.03,2.95-.06.27-.59.24-.77.66-1.48,3.46-.66,11.14-.58,15,.1,4.99.24,9.94.32,14.92.3,1.11,8.59,1.01,10.03.88.75-.07,4.3-.81,4.62-1.23.56-.75,1.01-2.98,1.35-3.94.91-2.58.98-6.08,1.34-9.24.42-3.67.83-7.38,1.35-11.04-2.45-.19-5.23.26-7.63,0Z"/>
  <path d="M290.92,702.24c-4.64,4.47-10.82,9.08-17.62,9.69-16.34,1.47-25.62-15.31-23.2-30,.33-2.04,2.49-7.43,4.89-7.54,3.72-.16.2,6.3-.14,7.87-3.06,14.19,4.76,29.05,21.07,23.79,5.74-1.85,15.11-10.48,17.47-16.13,1.67-3.99,2.19-10.14,1.76-14.44s-3.54-10.49-8.26-11.08c-1.4-.18-4.52.45-5.28.22-.98-.3-3.33-2.1-3.04-3.36,5.09-4.01,13.19-.1,16.95,4.35,8.96,10.61,4.66,27.7-4.6,36.63Z"/>
  <path d="M193.94,654.05c1.8.75,3.53,3.6,5.12,4.73,12.53,16.09-2.93,49.86-25.31,36.33-9.18-5.55-15.24-14.56-13.91-25.74.53-4.45,6.18-12.77,11.03-13.1,1.6-.11,2.6,1.61,2.18,3.16-.05.2-2.53,2.31-2.99,2.84-4.01,4.59-5.67,7.81-5.15,14.2.37,4.6,1.58,7.62,4.73,10.87,10.82,11.18,22.09,6.45,27.49-6.74.09-.23.66-.18.65-.37-.16-1.93.1-1.57.24-2.91.37-3.35.28-10.21-.92-13.37-.34-.88-3.1-5.17-3.84-5.66-1.45-.95-3.61.02-5.05-.39-.55-.16-3.15-2.23-3.2-2.86-.2-2.48,4.48-1.21,5.86-1.13,1.31.08,1.39-.57,3.07.14Z"/>
  <path d="M198.04,285.87c-1.61,1.93-4.25-.13-6.2-.55-3.19-.69-7.31-.2-8.77-4.12-2.38-6.44-.08-14.9.49-21.54.39-4.53.29-9.43.69-13.91.37-4.15,1.25-5.98,5.08-2.89v-2.37c4.98-2.27,13.21,1.78,13.89,7.32-1.18,12.75-1.57,25.7-5.18,38.06ZM193.36,281.84c2.76-6.56,3.01-13.88,4.12-20.83-.7-3.26,1.73-12.53.36-14.95-1.29-2.28-4.86-1.42-6.57-1.92-.63-.18-.81-1.1-1.59-.95-.11,4.04-.67,8.04-1.02,12.05-.13,1.43.14,2.98,0,4.4-.69,6.84-2.85,13.78-1.33,20.69l6.04,1.5Z"/>
  <path d="M135.92,621.8c.65.48,2.65,3.78,2.18,4.26-3.3.61-6.15-1.78-9.15-2.55-3.52-.91-8.15-1.21-11.03,1.2-5.52,4.62-6.18,20.27-4.85,26.9.67,3.32,3.74,10.61,7.06,11.95,1.14.46,9.02.33,10.68.19,2.33-.2,4.08-2.08,5.72.72,2.19,3.74-1.71,4.05-4.79,4.62-7.24,1.35-16.13-.48-21.12-6.19s-2.91-17.12-2.38-24.1c.55-7.15-.11-10.16,4.03-16.41.76-1.14.42-1.91,2.01-2.73,2.95-1.53,6.73-2.43,10.04-2.03,2.53.3,9.58,2.7,11.6,4.19Z"/>
  <path d="M181.08,241.62c.23.27.78,1.65.78,2.05-1.03,5.52-1.88,11.09-2.35,16.66-.6,7.23.37,17.45-3.8,23.4-.06.09-.99,1.11-1.06,1.14-.34.15-3.81.09-4.41,0-3.56-.52-5.75-3.07-6.33-6.56-1.52-9.09,0-17.8.97-26.77.17-1.54.12-10.29,1.9-10.7.42-.1.84.45,1.15.54,1.28.35.93-2.37,1.07-2.54.06-.07,1.57-.38,1.85-.38,1.09-.03,6.19.87,7.21,1.26.5.2,2.73,1.59,3.01,1.92ZM171.25,280.1c.35-.26,2.36-3.62,2.46-4.16.71-4.08.34-8.81.7-12.87.57-6.35,1.58-12.7,2.28-19.03-.16-.89-5.41-1.29-6.35-1.17-.02.72.07,1.45-.04,2.17-1.35,8.59-2,17.81-2.65,26.5l.7,8.62c.76.45,2.21.47,2.91-.05Z"/>
  <path d="M294.75,629.22c.44.46,1.53,2.74,1.09,3.26-.96.22-1.85.42-2.86.39-5.39-.14-8.71-2.99-14.26-.04-4.32,2.3-4.29,9.13-4.98,13.34-1.07,6.52-2.28,13.82-2.65,20.43-.06,1-.18,5.41.34,5.79.49.36,4.19,1.38,4.98,1.46,3.82.39,10.27-1.42,13.49-.95,1.31.19,3.08.94,3.52,2.28.54,1.61-.85,1.96-2.26,2.26-6.02,1.27-15.21,2-20.7-1.02-.53-.29-3.63-2.93-3.8-3.33-1.14-2.61.12-11.09.37-14.29.58-7.36.91-15.45,2.8-22.65,3.02-11.47,11.64-9.61,20.89-8.17,1.46.23,2.56-.31,4.03,1.23Z"/>
  <path d="M126.77,258.28c2.23,1.24,4.59,3.83,4.69,6.48.1,2.89-1.38,9.51-3.91,11.17-3.37,2.22-11.71.23-15.73.19s-8.58.71-12.62.57c-.56-.02-3.86-.49-4.12-.64-.19-.11-.3-.71-.56-.96-1.24-1.16-1.49-1.26-1.8-3.3-.21-1.4-.2-11.87.25-12.3l3.73.34-.67-1.69c1.81.18,1.54-1.21,2.25-1.65,5.82-3.58,22.52-1.54,28.49,1.79ZM97.38,272.06c4.68.37,9.48-.45,14.1-.35,5.76.12,13.65,3.05,14.72-5.27.37-2.86.25-3.83-2.35-5.06-4.7-2.22-14.31-2.63-19.42-1.8-.96.16-1.71.81-2.78.95-1.45.19-3.18-.02-4.59-.35,1.29,1.57.34,2.98.33,4.56-.03,2.44.05,4.88.01,7.31Z"/>
  <path d="M92.5,432.06c1.74.77,5.74,2.5,7.3,3.62,1.18.84,5.86,6.41,2.43,6.69-1.85.15-2.8-1.5-4.07-2.24-13.58-7.95-29.55-11.36-44.44-4.19-5.94,2.86-8.29,6.61-12.94,10.21-3.7,2.86-5.19,2.99-5.42-2.3,1.81-1.86,3.84-3.7,5.58-5.62.35-.39-.36-.88.97-.87l.16-1.38c.44-.21.34,1.41,1.01.67.14-.15-.36-.7-.28-.97.06-.18,2.66-1.98,3.04-2.21,13.84-8.41,32.2-7.8,46.65-1.43Z"/>
  <path d="M140.03,432.71c1.84.96,4.91,4.42,7.18,5.88,10.1,6.44,20.55,10.57,32.69,7.81,4.95-1.12,10.75-3.23,14.94-6.69,1.81-1.5,4.17-5.91,6.89-3.72,3.11,2.5.96,4.88-1.23,6.9-8.53,7.86-21.87,10.89-33.38,9.39-8.08-1.05-21.26-8.39-26.87-14.02-.15-.15-1.76-3.59-1.8-3.8-.13-.67.06-1.5,0-2.2.49.31,1.14.22,1.59.45Z"/>
  <path d="M62.54,256.33c.9.7,2.02-.55,1.93.78l1-.67c-.17.8.7.55.92.78.81.83,1.09,3.56,1.14,4.8.11,2.58-.27,6.58-1.31,8.91-.85,1.91-1.31,2.51-3.61,2.49-4.25-.04-8.97-.78-13.25-1.02-2.17-.12-3.72.4-6.35-.11-.95-.18-5.23-1.46-5.82-1.91-.33-.25-.5-1.43-.8-1.98-.19-.35-.64-.42-.75-.69-1.11-2.45-1.16-9.41-.28-12.04.64-1.9,3.68-2.4,5.52-2.62,5.25-.64,17.55.07,21.65,3.28ZM63.11,258.48c-2.27.16-4.46-1-6.65-1.33s-5.82-.6-8.11-.71c-1.91-.09-7.34-.28-8.46,1.37-.73,1.06-.82,8.86-.2,9.94l2.89.91,18.28.27c2.48-2.78,1.26-7.09,2.26-10.46Z"/>
  <path d="M230.27,440.18c.97.97,1.69,2.56,2.82,3.46,3.03,2.39,7.03.74,10.37.5s6.92-.1,10.12-.4c7.15-.69,16.13-3.22,23.11-2.29,2.21.3,3.41,4.69,2.23,5.58-.74.56-7.97.03-9.67.17-3.29.27-7.15,1.36-10.53,1.69-7.7.74-15.45.49-23.08,2.42-.97-1.17-3.59-1.72-4.47-2.51-.57-.51-4.65-5.42-4.95-6.1-1.78-4.11.96-5.57,4.05-2.51Z"/>
  <path d="M355.17,440.15c.67.74,1.84,4.53.42,5.18-5.11,1.1-10.27,2.25-15.48,2.84-9.17,1.04-17.91,1.15-27.08.72-2.03-.09-7.56.52-8.8-.66-.23-.22.04-.49-.09-.69-.16-.26-.72-.24-.81-.58-.63-2.18.92-3.52,2.92-3.81,3.42-.48,8.5.52,12.2.55,8.42.07,18.37-.97,26.71-2.36,2.42-.4,5.82-1.69,7.97-1.89.49-.05,1.75.39,2.04.7Z"/>
  <path d="M80.39,642.33c-.35.4-3.54-.06-3.96-.4-.84-.68-.96-4.18-3.48-2.97l1.69-.68c-.87-1.18-3.09-.87-4.41-1.01l1.01,1.35-4.75.35c-1.18,5.11-.3,10.09.04,15.22,2.65,1.37,5.68-1.08,8.26-.32.65.19.46.57.76.69.42.16,2.42.04,2.08,1.45-.29,1.16-.91,1.25-1.91,1.52-2.25.62-9.44.86-11.6.25-.49-.14-2.38-.85-2.57-1.16-.43-2.86,0-5.79-.17-8.66-.19-3.07-1.46-8-1.2-10.88.15-1.64,5.66-3.35,7.17-3.51,2.2-.23,8.8.7,10.62,1.86,2.02,1.28,2.63,4.67,2.38,6.9Z"/>
  <path d="M191.67,645.38c-5.31-.68-9.96-.77-10.78,5.67.58,2.5-1.17,8-.38,10.06.35.91,5.18,1.36,6.26,1.29,2.05-.13,4.44-1.92,6.38-1.38.12.03,1.72,1.59,1.77,1.7.6,1.17-.6,2.56-1.54,3.22-3.02,2.12-13.41.51-16.03-2.18-.62-.63-1.79-3.7-1.92-4.62-.23-1.68.31-10.08.73-11.79.2-.82,1.28-2.91,1.82-3.61,2.23-2.85,8.38-4.37,11.64-2.88,1.54.71,3.02,2.86,2.03,4.52Z"/>
  <path d="M172.02,327.72c1.4,7.22-1.15,14.5-.69,21.91.3,4.75.94,7.56,5.77,9.16,3.88,1.29,8.68,2.34,12.72,1.49.62,1.21,1.2,1.8.85,3.4-4.42,1.16-9.99-.31-14.31-1.78-2.98-1.01-8-4.42-8.42-7.87-.75-6.13.22-13,1.02-19.02.35-2.6-.46-6.31,3.06-7.29Z"/>
  <path d="M210.59,340.05c.62.61,1.71,3.86,1.82,4.8.43,3.59-.31,13.38-2.85,16.01-.36.38-3.76,3.23-4.07,3.39-1.64.88-3.58.38-3.95-1.56,1.48-.3,2.26-2.03,2.38-3.4l1.01.68c.01-.32.02-.74.19-.99.37-.57,1.98-2.63,2.12-2.97.26-.65.03-1.69.72-2.36l.04-.29-.69-.18.71-.82c-.24-2.94-.17-6.67-.72-9.52-.17-.89-.85-1.2-1.67-1.39-.87-.2-5.34-.53-5.74-.87-.06-.05-.35-1.25-.31-1.44.49-2.73,9.4-.67,11.01.92Z"/>
  <path d="M197.37,321.37c1.73,1.52.27,4.38.1,6.18-.86,9.21-.21,18.49-1.36,27.66-2.83.16-1.66-2.61-2.03-4.19-.06-.26-.69-.23-.67-.38.05-.5.81-1.55.85-2.39.05-.96-1.06-2.46.16-2.72l-1.01-.17c-.3-7.54.32-15.01.67-22.5.96-.52,2.18-2.48,3.3-1.5Z"/>
  <path d="M225.21,427.76c-.31.32-1.61.69-2.31,1.26-.11.09-1.49,1.59-1.61,1.75-2.13,2.84-2.77,5.76-2.44,9.29-2.16-.04-4.62-4.16-4.65-5.87-.01-.8.93-4.6,1.29-5.4.49-1.09,3.48-4.7,4.61-5.29,3.2-1.69,6.96,2.36,5.11,4.26Z"/>
  <path d="M159.13,358.95c-3.4-.31-4.31-3.01-4.65-6.04-.41-3.58.54-14.36,5.43-14.57,1.53-.06,3.99,1.06,4.01,2.78s-1.33.92-2.4,1.37c-2.26.95-3.17,7.55-3.08,9.84s1.15,4.3.7,6.62Z"/>
  <path d="M83.73,358.85c.85-.32,2.51-.69,3.2-1,1.17-.53,2.11-2.94,3.39-.84.6.99.71,2.02-.17,2.86-.56.52-2.71,1.93-3.49,2.11-1.59.37-6.07.24-7.7-.05-1.53-.28-6.6-3.16-8.05-4.17-1.35-.94,1.62.2,1.35-.5-.45.01-.69-.27-.97-.56-.57-.58-1.57-1.41-1.74-2.16.64-.54,6.74,2.91,8,3.37,1.18.42,5.07,1.37,6.17.95Z"/>
  <path class="cls-1" d="M93.31,756.4c.6.68-2.12,13.57-2.39,15.46-.16,1.15-.12.95-.3,1.75-.27,1.17-.58,5.92-.29,6.98.08.28.45.71.6.58-.01-.86.38-1.75,1.02-2.38l.68.68-.07,3-12.82,5.82c1.05-4.63,3.1-9.12,3.05-13.91l1.01.34c.37-.89-.68-.59-.69-.87-.01-.34.42-1.63.53-2.19.6-2.85.03-4.03-.05-7.01-.03-1.35.43-3.05.23-4.5l9.48-3.75Z"/>
  <path class="cls-1" d="M120.11,742.83c-.33,1.56-.98,3.1-1.27,4.67-.52,2.76-.47,5.8-1.42,8.15-.76,1.89-.87,1.75-.75,3.66,0,.15-.53.12-.61.41-.45,1.59-1.02,5.02-1.3,6.79-.32,2.04-.47,4.08-.48,6.14l-9.1,3.79,3.27-15.58c2.51-2.69.55-8.24,2.02-10.87.56-1.01,1.65-.94.85-2.69l8.79-4.46Z"/>
  <path class="cls-1" d="M86.18,739.77c.24.89-.54.66-1.02,1.17-5.88,6.1-11.78,12.55-17.83,17.97-.8.72-1.53,1.57-2.42,2.2l-4.1-1.04-.34-2.24,4.32-3.39c3.47-4.06,7.09-8.67,10.86-12.48,1.34-1.35,3.71-1.98,3.41-4.22l7.12,2.04Z"/>
  <path class="cls-1" d="M104.65,800.67c-1.85,1.77-4.54,3.87-6.62,5.43-.92.69-10.38,7.52-10.83,6.98l-.29-7.92c.35-1.05,1.54-.53,1.6-.61.19-.23,0-.77.73-1.48.24-.23,4.95-3.46,5.25-3.57.15-.05.34,0,.5,0l-.68,1.01c.74.6,3.68-2.86,4.34-3.37,2.01-1.58,4.3-2.9,6.35-4.43.33-.11,1.27,5.31,1.22,5.94-.11,1.32-.85,1.29-1.59,2.01Z"/>
  <path class="cls-1" d="M68.2,769.3c-.01,1.6-.71,3.08-.99,4.63-.21,1.16-.49,2.49-.67,3.72-.42,2.96-.34,6.02-.71,8.96,1.1.13.36-1.31,1.69-1.36.19.26-.25,3.62-.43,4.15-.23.68-.87,1.17-1.16,1.89-.84,2.03.32,2.34-2.47,3.3-.91.31-2.01.04-2.9.76-1.95-.14-1.65-9.31-1.52-10.94.5-6.43,2.65-10.54,7.73-14.42.25-.19,1.2-.92,1.42-.68Z"/>
  <path class="cls-1" d="M135.33,737.45c2.71,5.68,5.54,18.64.92,23.72-.54.59-4.35,3.39-5.08,3.74-.41.2-.69.43-1.21.31-.38-.4,1.16-6.55,1.31-7.68.59-4.21.89-8.51,1.49-12.77.12-.83.56-1.65.61-2.5.06-1.27-2.86-2.09-2.05-4.2l4.01-.63Z"/>
  <path class="cls-1" d="M107.56,807.65v5.77l-10.84,8.34c-.85,1.02-.74,2.04-.36,3.2-2.67-.68-4.98-1.9-7.82-1.85-.76-1.13-.77-2.58-.62-3.88,1.92-.15,3.54-2.06,5.39-1.4l-.35-.67c.59-.02,1.22.08,1.8-.07,1.42-.37,2.64-1.08,3.54-1.61,1.48-.86,8.07-4.51,8.18-6.01.04-.51-.74-.87-.62-1.47l1.7-.34Z"/>
  <path class="cls-1" d="M102.47,787.29c-.83.17-2.71-.28-3.31.09-1.26.76-3.22,2.52-4.57,3.41-.65.43-3.08,1.48-3.23,1.65-1.11,1.23-2.12,2.69-3.74,4-.34.28-1.82,1.63-2.1,1.38-.01-.87-.58-1.97-.35-2.82.11-.41,1.29-.17,1.06-2.11-.09-.76-.97-.68-1.38-1.35l15.51-7.59c1.1-.49,2.38,3.11,2.13,3.35Z"/>
  <path class="cls-1" d="M101.11,746.9l-.16.67-1.15-.3-1.4,4.04c-.16.16-1.03-2.13-3.14-1.02-.48.25-.54,2.52-1.59,3.2-.37.24-1.22-.12-1.71.07-2.03.8-5.11,2.51-7.08,3.47-.4.2-1.78.96-2.08.72-.54-.43,1.9-1.6,1.8-2.27,2.43-1.19,4.2-3.51,6.17-5.18,1.19-1.01,4.93-4.46,5.96-4.93,1.45-.65,2.95,1.3,4.39,1.53ZM89.24,753.68c.71.04,1.27.13,1.69-.51l-.5-.5-1.19,1.01Z"/>
  <path class="cls-1" d="M125.54,774.04c-.85.39-1.96,1.66-2.55,2.38-.94,1.15-2.99,3.37-2.54,4.75-2.56.48-5.18-.38-7.64-.36-2.02.01-4.52.79-6.61.7l7.54-3.14c1.86-1.25,3.97-2.05,5.92-2.9,1.55-.67,4.76-3.02,5.87-1.43Z"/>
  <path class="cls-1" d="M101.45,825.98c.24-.91,1.35-.86,1.85-1.36.56-.56.65-1.9,1.55-2.44l2.7-1.96c.52,4.9-2.34,4.83-6.1,5.77Z"/>
  <path class="cls-1" d="M141.83,771.68c-.3.93-.47,2.5-.79,3.3-.21.54-5.29,3.81-5.66,3.48.8-1.48,1.86-2.38,2.93-3.54.25-.27-.06-1.01,1-1l2.52-2.25Z"/>
  <path class="cls-1" d="M78.38,794.42c-.85,1.37-1.65,2.73-1.7,4.41-.54.5-2.51-2.36-3.39-2.04l5.09-2.37Z"/>
  <path class="cls-1" d="M64.13,740.11c.31,1.15-.64,1.09-1.02,1.61-.25.34-1.72,3.08-2.37,2.46l1.36-4.41,2.03.34Z"/>
  <path class="cls-1" d="M79.06,758.78c.02.79.24.74-.43,1.1-1.5.81-3.13,1.67-4.66,2.42-.26.13-.67-.18-.93-.06-.3.14-1.18,1.85-2.46,1.28.71-1,2.32-1.27,3.23-2.02s.91-2.19,1.33-.7l3.92-2.02Z"/>
  <polygon class="cls-1" points="103.48 747.93 102.64 748.93 101.46 747.24 103.48 747.93"/>
  <path class="cls-1" d="M78.38,763.53l-.51,1.69-.85-1.18c.36-.53.73-.59,1.35-.51Z"/>
  <path class="cls-1" d="M68.2,765.23c.33.25-1.37.94-1.69,1.01v-.67s1.69-.34,1.69-.34Z"/>
  <path class="cls-1" d="M127.92,765.91c.09.08.01.46-.17.68-1.25,1.54-1.06-1.77.17-.68Z"/>
  <path class="cls-1" d="M236.83,769.63l-1.01-.34c-.51.61,1.7,2.24,2.19,2.4,2.54.86,6.54.05,9.25.22l2.73,2.71c.84,6.01.97,12.16.71,18.21-.08,1.79-1.36,9.89-.64,10.73,1.47.34.58-2.27.69-2.37.05-.05.56.06.87-.14,1.26-.78.47-1.66.82-2.93l.34,1.35,1.01-.34-.68,3.39-.67-.68,1.01,1.36c.5-2.4,1.08-4.86,1.36-7.3.63-5.6.89-12.74.36-18.34-.19-2.02-.36-4.01-1.71-5.58l7.13.91c1.63,8.87.89,17.96.68,26.91l1.35-.17-1.01,1.87.84-1.36.51,1.36c0-.59-.07-1.2.08-1.78.1-.41.52-1.79.93-1.95l-.33,4.07,1.01-.68.34,1.02c1.41-8.19,1.72-16.64,1.37-24.97-.05-1.31-.17-2.66-.69-3.88,1.17.41,2.75.42,3.83.69.31.08.24.61.66.77,2.69,1.03,5.55,1.87,7.92,3.61.28.24.41.52.47.88,1,5.39.73,11.81.67,17.32-.02,2.05-.1.99-.29,1.76-.34,1.34-.02,3.59-.09,3.77-.02.04-.57.04-.73.45-.43,1.11-.53,2.28-1.27,3.39-.21.31-.59.48-.73.85-.88.57-1.62-.35-2.22-.47-4.82-.96-9.55-1.54-14.47-1.81-2.11-.12-4.4.19-6.48.03-.88-.07-.42-.56-.49-1.03l-.52,1.04c-4.81.18-9.7-.34-14.4.66l1.86-1.17c2.85.38,3.39-2.56,3.82-4.85,1.19-6.32-.55-11.01-1.57-16.94-.21-1.21.12-2.82-.1-3.61-.32-1.11-3.07-2.28-4.18-2.31-2.89-.08-9.19,1.13-11.67,2.62-1.87,1.12-3.73,3.08-4.29,5.21-.13.5-.47,3.55-.51,4.23-.21,3.34,1.3,8.34,2.38,11.58.54,1.62,1.4,3.31,2.05,4.9l-5.58.36c-8.63-.39-17.1.64-25.63,1.68-.1-1.6.14-3.33,0-4.92-.54-5.9-2.07-13.89-1.36-19.7s6.58-6.82,10.87-8.98c-.23.58-.66,1.09-.85,1.7-2.29,7.32-1.21,17.4,1.07,24.74.28.89,1.53,1.63,1.14,3.09l1.01-.68v.68s.68,0,.68,0l.17-.68.51.68c-.04-3.7-1.38-7.38-1.65-11.05-.3-4.18.17-8.38,1.06-12.45.31-1.42,1.68-3.77,1.29-5.13-.76-.57-1.67-.68-2.56-.91-.49-.12-.61.28-.52-.66l1.94-1,8.23-1.38c-.76,3.36-1.67,6.47-1.32,9.98.25,2.5,2.35,11.78,4.03,13.28.34.3.48.63,1.03.5-.64-1.02.78-.31,0-1.69l1.01.67c-.63-6.37-1.93-12.32-.18-18.68.26-.96,1.15-1.15.89-2.89l-.08-.44c-.79-.13-1.73-.41-1.64-1.41l17.68-1.2.3,1.2Z"/>
  <path class="cls-1" d="M225.98,736.04c-2.37,3.96-4.16,9.12-4.75,13.75-.23,1.8-.28,10.63.34,11.78.21.4.82.46,1.1,1.02.24.5.16,1.21.42,1.65.18.3.67,0,.77.08.7.59.85,1.59,2.45,1.24-1.2-7.54-1.1-16.22,2.47-23.15.93-1.81,3.03-2.77,1.97-4.8l-2.4-1.57c3.42-.12,6.8.67,10.12,1.41.89,4.48,1.19,9.12,1.74,13.67.31,2.62.17,4.89.92,7.59.11.38,1.37,2.32,1.52,2.35.24.06.66-.28,1.05-.19.64.15,1.16.8,1.95.61l-1.35-22.4c.09-.1,2.21.59,2.49.75.44.25.5.74.82.95.56.37,1.98.95,2.35,1.46.72.99,2.72,7.15,3.08,8.63.31,1.3.97,4.71,1.09,6.04.26,2.81-.16,5.95-.02,8.8l1.04.19v1.02s-7.18-.17-7.18-.17l-.96-.84-.21.7c-2.41-.21-5-.65-7.41-.72-4.23-.12-9.81.24-13.91.87-.71.11-1.84.79-2.41.82-.15,0-.11-.58-.37-.65-1.44-.4-1.55.58-1.64.6-3.57.66-8.24.68-12.09,1.3-2.56.42-3.87,1.28-6.17,2.24s-4.44,1.82-6.68,2.64c.28-1.18.57-2.33.66-3.55.63-8.78.4-20.26,3.14-28.46,1.25-3.76,4.73-4.78,8.41-4.31-.22.69-.65,1.3-.92,1.98-1.74,4.4-3.78,9.05-4.18,14.13-.19,2.43.29,4.89.01,7.31l.67-.34c-.32,1.44,1.17,1.43.68,3.06l.84-1.01,1.86,2.71c-.39-8.35,1.47-16.09,5.19-23.49.95-1.88,2.48-3.28,2.99-5.32,3.48.02,7.02.25,10.48-.38Z"/>
  <path class="cls-1" d="M260.74,747.09c2.78,2.35,7.11,9.86,8.72,13.5,1.44,3.26,2.31,7.18,2.66,10.74-.14.15-2.21-.45-2.64-.58-1.8-.53-4.28-1.67-5.76-2.11-1.89-.56-4.2-.96-6.18-1.05.34-.29,1.37-2.47.17-1.75l-.17-.62,1.04-.19c-.02-4.16.3-8.7-.44-12.8-.14-.81-.69-1.48-.86-2.2-.48-2.03-.6-4.29-1.78-6.19.45-.33,3.82,1.78,4.4,2.22.39.29.53.77.84,1.03Z"/>
  <path class="cls-1" d="M236.77,781.58c-.36,1.25,1.04,2.32,1.03,2.46-.03,3.29.92,6.52.76,9.52-.06,1.16-.83,4.53-1.3,5.52-.54,1.15-6.94,3.48-8.53,3.1-1.8-4.91-3.85-10.65-2.25-15.92,1.33-4.38,6.31-5.25,10.29-4.68Z"/>
  <path class="cls-1" d="M257.19,763.53v3.9s-.67.16-.67.16c.26-.91-1.05-.57-1.02-.84.11-1.05.97-1.67,1-1.77.2-.69-.47-1.7.69-1.46Z"/>
  <path class="cls-1" d="M190.35,800.86c-1.36.21-.41-2.36-.67-3.05l.67,3.05Z"/>
  <polygon class="cls-1" points="194.08 774.39 193.07 773.37 194.08 773.03 194.08 774.39"/>
  <polygon class="cls-1" points="262.96 798.83 261.94 798.82 262.29 797.81 262.96 798.32 262.96 798.83"/>
  <path class="cls-1" d="M460.33,771.11c2.17,1.33,3.92,4.59,4.75,6.95,1.61,4.58,2.2,10.19,3.16,14.99l-43.06-7.16c-.66-8.01-1.18-16.03-.71-24.07,3.82.43,7.83,1,11.62,1.78,6.32,1.3,18.95,4.25,24.23,7.5Z"/>
  <path class="cls-1" d="M420.4,785.25l-8.82-1.02,2.69-13.77c.05-.5-1.17-2.59-1.43-2.76-.75-.5-4.67-1.32-5.95-1.7-3.78-1.1-9.54-3.48-13.47-3.82-1.99-.17-8.45.75-8.91,2.97-.37,1.76,1.77,9.52,2.67,11.34.26.54,3.21,3.26,3.71,3.49.55.25,1.11.2,1.69.18.05-.48-.02-.96-.09-1.44-.47-3.09-2.4-7.41-2.6-10.32-.04-.51.11-2.39.54-2.51,6.75-1.16,11.78,3.68,18.25,4.39,1.1.75-2.54,11.36-2.18,13.28l-22.4-1.87c-1.1-.53-.53-2.4-.7-3.37-.9-5.17-2.31-11-1.68-16.32.46-3.84,8.79-3.68,11.73-3.57,4.06.15,7.93,1.2,11.91,1.66,4.26.49,8.64.39,12.83,1.43l2.23,23.73Z"/>
  <path class="cls-1" d="M363.74,804.6c-7.79.96-18.76,4.31-26.55,6.54-3.96,1.14-9.41,2.54-13.06,4.23-.29.13-2.03,1.88-2.46,1.45,1.12-4.2,2.36-8.44,4.61-12.19,6.22-10.38,20.91-17.15,32.28-10.96,3.97,2.16,7.52,5.87,10.28,9.41-1.85.66-3.39.38-5.09,1.53.17-.02.54.2.85.18.8-.06,1.63-.72,2.55-.52l-4.07,1.01c-.06-.29.43-.51.68-.68Z"/>
  <path class="cls-1" d="M482.36,788.46c1.5.77,6,3.72,7.61,5.44,1.9,2.04,1.24,3.54-1.45,3.86l-12.24-8.16c-.44-.23-3.63-1.39-2.61.07-2.61.06-1.14-3.49-2.38-5.09,3.83.82,7.57,2.1,11.06,3.88Z"/>
  <polygon class="cls-1" points="368.82 803.58 368.82 804.26 367.47 804.25 367.47 803.92 368.82 803.58"/>
  <path class="cls-1" d="M397.88,203.04c-.06.1-1.38,1.73-1.48,1.8-1.61,1.2-6.61,2.15-8.73,2.36-4.82.47-10.35.42-15.24.55-15.6.41-36.19,1.77-50.5-4.71-3.09-1.4-3.97-4.59-4.6-7.62-1.14-5.55-.83-10.06-1.1-15.55-1.22-24.6-.57-49.54-.67-74.33-.07-17.09-.42-34.1,0-51.22.15-5.88-.21-11.78.01-17.64.11-.5.42-1.07.77-1.43,2.25-2.35,5.75-2.03,8.8-2.57,3.65-.66,6.58-1.37,9.93-1.6,16.29-1.07,31.95-3.16,48.08.75,3.17.77,6.26,2.33,9.43,3.13.48.17.88.45,1.1.93.42.93,1.19,7.18,1.28,8.56.19,2.99-.15,6.18-.02,9.19,1.59,36.11,1.87,72.19,4.41,108.26.75,10.65,3.96,31.88-1.48,41.12Z"/>
  <path class="cls-1" d="M41.06,525.26c-3.4,5.51-.83,11.68-.68,17.65-.64.05-1.21-.19-1.79-.41-1.7-.66-7.03-5.72-6.55-7.4.54-1.88,1.77-1.51.7-4.4-1.67-4.52-7.49-8.8-6.11-13.93.48-1.8,2.44-3.22,2.87-5.27.54-2.6-.64-8.14.2-9.98.78-1.71,6.06-2.72,7.81-3.73,1.3-.75,2.72-2.82,3.28-4.19,1.6-3.85.15-5.81,5.27-6.61,1.43-.22,3.61-.06,5.26-.51,4.64-1.27,6.1-6.44,8.99-7.3,2.36-.7,6.08-.94,8.65-1.53,1.08-.24,1.97-1.01,3.13-.96.3.05,2.17,1.92,2.53,2.32,2.26,2.52,4.75,6.06,8.19,7.34,4.74,1.76,10.23-1.01,13.88.37,2.35.89,4.09,3.66,6.02,4.93,2.06,1.35,4.89,1.1,6.85,2.56.46.34,2.09,2.17,2.4,2.69,1.86,3.08.35,4.47.19,7.6-.12,2.29.25,4.98,1.01,7.14,1.42,4.05,4.18,6.09,3.5,11.03-.38,2.75-3.6,4.33-3.7,6.86-.02.49.7,2.04.83,2.83.25,1.5.03,4.02,1.17,4.91l-.36,4.21c-1,.83-2.49.5-3.42.82-.76.26-5.28,2.63-5.68,2.29.15-.41.35-.7.35-1.18-.02-3.13-1.55-12.01-2.76-14.84-.18-.41-.96-.72-1.2-1.08-.64-.94.38-.85-1.8-.88l-.02,1.01c-.49.17-.76-.29-1.02-.34-.02,3.12.72,4.6,1.02,7.3.76,6.99.43,16.03.02,23.09-.2,3.4-.67,10.51-1.73,13.54-.18.5-.33.93-.8,1.23-1.77,1.13-11.64-1.07-14.28-1.38-8.65-1-17.45-1.39-26.08-2.42-2.75-.33-7.04-.74-7.93-3.61-1.18-3.85-1.85-9.55-2.62-13.67s-1.61-7.89-1.88-12.38c-.37-6.11-.74-13.17,6.36-15.35,10.73-3.3,22.42-.11,33.21,1.57,4.64.72,10.23,1.19,14.72,2.08,0-.85.71-1.25-.17-2.37-1.37-1.74-4.04-1.09-5.73-1.4-8.19-1.5-16.33-3.58-24.56-4.96-8.52-1.43-22.56-1.41-27.56,6.69l1.01.67c-1.45-.15-.28,2.56-1.69,2.38l.68-3.05Z"/>
  <path class="cls-1" d="M402.08,548l-3.71,16.82c-2.03,9.14-4.96,23.91-9.91,31.83-5.44,8.68-18.17,4.96-26.56,4.64-3.84-.15-8.6.45-12.25,0-4.02-.49-3.76-5.06-3.9-8.3-.57-13.44.04-29.67,2.4-42.77.29-1.63,1.66-2.93,1.69-4.58l25.82-.17c7.04.55,14.09,2.02,21.16,2.52,1.73.12,3.52-.09,5.26,0Z"/>
  <path class="cls-1" d="M404.8,560.22l.75-5.18,1.61-5.34c.84,3.78,1.24,8.04-2.37,10.52Z"/>
  <path class="cls-1" d="M403.09,570.06c-1.44.18-.16-.99-.06-1.6l1.09-5.53c.04,2.51.24,4.86-1.02,7.12Z"/>
  <path class="cls-1" d="M225.69,55.08c7.26.12,14.6,1.08,21.85,1.15.16,0,.13.54.41.6,6.57,1.61,12.13,1.48,18.39,3.95,5.99,2.36,7.25,4.73,8.12,11.22,1.02,7.54.63,15.76,1.04,23.4.67,12.66,1.68,25.36,1.74,38.01.04,9.64.21,29.96-6.16,37.23-1.89,2.15-4.83,2.78-7.61,2.99-16.22,1.18-32.72.47-48.83,0-4.13-.12-8.52.28-12.59-.02-3.82-.28-10.91-2.68-12.6-6.37-3.83-8.35-2.77-23.94-2.5-33.17.51-17.87,1.02-35.74,2.4-53.61l1.36-12.4c1.11.56,1.48-.28,1.97-1.25,1.02-2.02.88-4.59,2.44-6.38.53-.61,3.61-2.91,4.33-3.13,7.88-2.4,17.9-1.38,26.06-2.78l.19.56Z"/>
  <path class="cls-1" d="M449.9,554.8c-.19.94.91,1.33.94,1.41.07.16-.26.58-.09.94.72,1.53,2.4,1.82,3.25,2.62.78.74,1.58,2.45,2.79,3.27,3.09,2.09,11.19,4.45,14.78,3.73,3.97-.8,2.97-2.22,4.66-5.17.61-1.07,2.63-3.84,3.7-4.28.33-.13,4.77-1.13,5.02-1.11.19.02,3,.96,3.19,1.07.1.06,1.67,1.56,1.71,1.67.29.72,0,1.65.12,2.43.65,3.88-.09,6.07-.68,9.89-.84,5.39,3.55,9.43,5.76,13.47.64,1.16,1.72,3.55,2.13,5.06.61,2.26-1.84,11.45-2.73,14.12-.97,2.93-2.16,7.07-5.48,8.02-6.41,1.84-17.49-.55-24.67-.15-3.16.18-6.16,1.16-9.44,1.25s-13.57.13-16.22-.68c-1.9-.58-2.06-1.36-2.56-3.21-1.05-3.9-1.44-12.76-.7-16.79.49-2.68,5.6-11.46,7.72-13.33,1.24-1.09,3.32-1.58,4.05-3.48.5-1.29,1.8-8.11,1.76-9.41-.1-2.72-2.26-4.19-1.71-7.45.14-.84.67-1.15.91-1.81.33-.9.15-2.3,1.77-2.1Z"/>
  <path class="cls-1" d="M498.01,553.87c.92.86,1.71,8.26,1.81,9.91.07,1.18-.76,2.84.32,3.06l-.69.39-.67,13.7c-.87.22-.91-.84-1.35-1.44-2.46-3.35-2.15-4.11-1.7-7.89.82-6.84,1.65-13.65-4.83-17.91-1.78-1.17-3.62-1.75-5.7-2.12,0-.67,11.83,1.59,12.8,2.3Z"/>
  <path class="cls-1" d="M161.4,75.98c.86.93,1.72,6.07,1.82,7.52.53,8.04-.22,16.17-1.03,24.12-.17,1.64-.06,2.17-.32,3.47-1.77,8.7-1.97,16.26-6.34,24.49-3.32,6.26-7.89,6.38-14.56,6.17s-12.91-1.3-19.33-1.71c-23.48-1.51-48.02-2.53-71.25-5.77-8.56-1.19-23.84-2.42-25.59-13.1-2.08-12.76.41-29.34,1.02-42.4.03-.59-.21-1.13-.38-1.67,1.28-.16,1.66-1.73,1.77-1.82,3.78-3.15,16.3-2.91,21.26-3.24,16.3-1.09,34.53-2.82,50.8-2.62,3.4.04,7.06.87,10.48,1.03,14.96.73,28.06.28,43.02,3.15,1.68.32,7.73,1.41,8.64,2.39Z"/>
  <path class="cls-1" d="M283.66,484.87l4.16,12.98,3.03,3.58.61-.27c.72.71.06,8.34.5,10.19.55,2.3,2.74,5.03,3.72,7.14.68,1.47,1,3.92,1.92,5.47.36.6,2.95,2.51,2.67,2.97-1.48.29-1.2,2.78-2,3.86-.34.45-3.8.83-4.61.91-5.2.47-10.12.06-15.22.06-3.44,0-6.93.42-10.39.29-.11-4.5-2.25-7.41,2.32-10.41l.06-4.86c7.06-.29,6.54-2.32,6.46-8.33-.01-.92-.43-1.59-.29-2.61.27-2.01,1.87-1.99,2.87-3.1,1.67-1.84,2.79-13.47,3.27-16.59.09-.61.09-1.54.92-1.28Z"/>
  <path class="cls-1" d="M185.1,510.83c.72.72,1.89,1.01,2.43,1.64.96,1.12,1.66,4.39,3.5,4.31v.33c-1.26.04-1.72,2-1.05,2.86.26.34.94.12,1.37.4.9.58.91,2.1,2.74,1.5.42.33-2.47,3.78-3.23,3.73-1.07-.35-2.21-.24-3.3-.43-3.27-.56-7.24-1.82-10.62-2.46-1.56-.3-2.94.4-4.22-1.35l1.66-.21c1.18-2.51-1.01-4.03-1.32-6.41l3.4,2.2c4.56,1.53,2.83-2.9,3.41-5.57,2.91.39,2.99.11,4.22-2.4.07,1.06.39,1.21,1.02,1.86Z"/>
  <path class="cls-1" d="M418.02,264.93c-1.71,6.71-4.17,13.21-6.61,19.68-.56,1.48-.94,2.64-1.52,3.98-1.06,2.46-2,4.66-3.38,6.99-2.74.83-5.67,2.23-8.5,2.27.93-4.45,3.34-8.38,4.9-12.57.44-1.18.64-2.64,1.03-3.72,1.5-4.07,4.52-10.38,5.43-14.25.22-.93.2-1.78.16-2.72l8.48.34Z"/>
  <path class="cls-1" d="M395.97,264.93c-2.19,5.07-3.3,10.49-5.16,15.68-1.12,3.14-2.84,8.09-4.41,10.9-1.47,2.63-3.44,3.33-6.4,2.79-.49-.28.11-1.35.26-1.8,1.5-4.59,3.99-8.93,4.95-13.71l5.62-13.31,5.12-.55Z"/>
  <polygon class="cls-1" points="356.61 263.91 356.61 264.93 355.59 264.58 355.6 263.91 356.61 263.91"/>
  <path class="cls-1" d="M268.39,270.36h1.36c.1,2.91.54,6.08-.03,8.97-.24,1.21-1.04,1.98-1.01,3.23-2.35.61-17.54,1.79-18.26.65.23-1.34-.39-3.01-.36-4.16.07-2.27,2.25-8.3,3.35-10.23.36-.63.84-1.61,1.39-2.03,1.3-.99,6.54.85,8.33,1.16,1.97.33,6.57-.63,5.22,2.41Z"/>
  <path class="cls-1" d="M193.36,281.84l-6.04-1.5c-1.52-6.91.64-13.85,1.33-20.69.14-1.42-.12-2.97,0-4.4.35-4.01.9-8.01,1.02-12.05.79-.15.97.77,1.59.95,1.71.5,5.28-.36,6.57,1.92,1.37,2.42-1.06,11.68-.36,14.95-1.1,6.95-1.35,14.27-4.12,20.83Z"/>
  <path class="cls-1" d="M171.25,280.1c-.7.52-2.14.51-2.91.05l-.7-8.62c.65-8.69,1.3-17.92,2.65-26.5.11-.72.02-1.45.04-2.17.95-.13,6.19.28,6.35,1.17-.69,6.33-1.71,12.69-2.28,19.03-.36,4.06,0,8.8-.7,12.87-.09.54-2.1,3.9-2.46,4.16Z"/>
  <path class="cls-1" d="M97.38,272.06c.04-2.43-.04-4.88-.01-7.31.02-1.58.96-3-.33-4.56,1.41.33,3.14.53,4.59.35,1.07-.14,1.83-.79,2.78-.95,5.12-.84,14.73-.42,19.42,1.8,2.6,1.23,2.72,2.19,2.35,5.06-1.07,8.32-8.96,5.39-14.72,5.27-4.62-.1-9.41.73-14.1.35Z"/>
  <path class="cls-1" d="M63.11,258.48c-1,3.37.22,7.69-2.26,10.46l-18.28-.27-2.89-.91c-.62-1.08-.52-8.88.2-9.94,1.12-1.64,6.55-1.46,8.46-1.37,2.29.11,5.87.38,8.11.71s4.38,1.48,6.65,1.33Z"/>
  <path d="M89.24,753.68l1.19-1.01.5.5c-.42.64-.98.55-1.69.51Z"/>
</svg>