<?xml version="1.0" encoding="UTF-8"?>
<svg id="Ebene_1" data-name="Ebene 1" xmlns="http://www.w3.org/2000/svg" xmlns:xlink="http://www.w3.org/1999/xlink" viewBox="0 0 500 500">
  <defs>
    <style>
      .cls-1 {
        stroke-width: 1.13px;
      }

      .cls-1, .cls-2, .cls-3, .cls-4, .cls-5, .cls-6, .cls-7, .cls-8, .cls-9, .cls-10, .cls-11, .cls-12, .cls-13, .cls-14, .cls-15, .cls-16, .cls-17, .cls-18, .cls-19, .cls-20, .cls-21, .cls-22, .cls-23, .cls-24, .cls-25, .cls-26, .cls-27, .cls-28, .cls-29, .cls-30, .cls-31, .cls-32, .cls-33, .cls-34, .cls-35, .cls-36, .cls-37, .cls-38, .cls-39, .cls-40 {
        fill: none;
      }

      .cls-1, .cls-2, .cls-3, .cls-4, .cls-5, .cls-7, .cls-8, .cls-9, .cls-10, .cls-11, .cls-12, .cls-15, .cls-16, .cls-17, .cls-18, .cls-19, .cls-21, .cls-22, .cls-23, .cls-24, .cls-25, .cls-26, .cls-27, .cls-28, .cls-29, .cls-30, .cls-31, .cls-32, .cls-33, .cls-34, .cls-35, .cls-36, .cls-37, .cls-38, .cls-39, .cls-40 {
        stroke: #5a339f;
      }

      .cls-1, .cls-2, .cls-3, .cls-4, .cls-6, .cls-9, .cls-12, .cls-13, .cls-16, .cls-18, .cls-20, .cls-21, .cls-23, .cls-24, .cls-26, .cls-27, .cls-28, .cls-29, .cls-30, .cls-31, .cls-33, .cls-34, .cls-35, .cls-36, .cls-37, .cls-39, .cls-40 {
        stroke-miterlimit: 10;
      }

      .cls-2, .cls-19 {
        stroke-width: 2.64px;
      }

      .cls-41 {
        opacity: .6;
      }

      .cls-3 {
        stroke-width: .71px;
      }

      .cls-4 {
        stroke-width: 2.09px;
      }

      .cls-42 {
        clip-path: url(#clippath-6);
      }

      .cls-43 {
        clip-path: url(#clippath-7);
      }

      .cls-44 {
        clip-path: url(#clippath-17);
      }

      .cls-5 {
        stroke-width: 1.04px;
      }

      .cls-5, .cls-6, .cls-7, .cls-10, .cls-13, .cls-15, .cls-20, .cls-22, .cls-38 {
        stroke-linecap: round;
      }

      .cls-5, .cls-7, .cls-8, .cls-10, .cls-11, .cls-15, .cls-17, .cls-19, .cls-22, .cls-25, .cls-32, .cls-38 {
        stroke-linejoin: round;
      }

      .cls-45 {
        clip-path: url(#clippath-15);
      }

      .cls-46 {
        clip-path: url(#clippath-4);
      }

      .cls-6 {
        stroke-width: 2.72px;
      }

      .cls-6, .cls-13, .cls-20 {
        stroke: #ff8968;
      }

      .cls-47 {
        opacity: .3;
      }

      .cls-7 {
        stroke-width: 2.59px;
      }

      .cls-48 {
        clip-path: url(#clippath-9);
      }

      .cls-8, .cls-36 {
        stroke-width: 1.72px;
      }

      .cls-49 {
        clip-path: url(#clippath-10);
      }

      .cls-9 {
        stroke-width: 1.15px;
      }

      .cls-10 {
        stroke-width: 1.42px;
      }

      .cls-11, .cls-21 {
        stroke-width: 2.04px;
      }

      .cls-12 {
        stroke-width: .69px;
      }

      .cls-13 {
        stroke-width: 2.14px;
      }

      .cls-50 {
        clip-path: url(#clippath-11);
      }

      .cls-15 {
        stroke-width: 2.18px;
      }

      .cls-16 {
        stroke-width: 1.62px;
      }

      .cls-17, .cls-24 {
        stroke-width: 1.06px;
      }

      .cls-18 {
        stroke-width: 1.46px;
      }

      .cls-51 {
        fill: #5a339f;
      }

      .cls-52 {
        clip-path: url(#clippath-1);
      }

      .cls-20 {
        stroke-width: 1.85px;
      }

      .cls-53 {
        clip-path: url(#clippath-5);
      }

      .cls-22 {
        stroke-width: .88px;
      }

      .cls-54 {
        clip-path: url(#clippath-8);
      }

      .cls-23 {
        stroke-width: 1.36px;
      }

      .cls-25, .cls-26 {
        stroke-width: 3.13px;
      }

      .cls-55 {
        fill: #fff;
        opacity: .8;
      }

      .cls-56 {
        clip-path: url(#clippath-3);
      }

      .cls-27 {
        stroke-width: 1.06px;
      }

      .cls-57 {
        clip-path: url(#clippath-12);
      }

      .cls-28 {
        stroke-width: 1.73px;
      }

      .cls-58 {
        clip-path: url(#clippath-14);
      }

      .cls-29 {
        stroke-width: .89px;
      }

      .cls-30 {
        stroke-width: 1.76px;
      }

      .cls-31 {
        stroke-width: .58px;
      }

      .cls-32, .cls-40 {
        stroke-width: 1.26px;
      }

      .cls-33 {
        stroke-width: .55px;
      }

      .cls-34 {
        stroke-width: .84px;
      }

      .cls-35 {
        stroke-width: .95px;
      }

      .cls-59 {
        clip-path: url(#clippath-16);
      }

      .cls-60 {
        clip-path: url(#clippath-2);
      }

      .cls-61 {
        clip-path: url(#clippath-13);
      }

      .cls-37 {
        stroke-width: 1.37px;
      }

      .cls-62 {
        clip-path: url(#clippath);
      }

      .cls-38 {
        stroke-width: 1.69px;
      }

      .cls-39 {
        stroke-width: .65px;
      }
    </style>
    <clipPath id="clippath">
      <ellipse class="cls-14" cx="449.5" cy="220.7" rx="40.71" ry="42.86"/>
    </clipPath>
    <clipPath id="clippath-1">
      <path class="cls-14" d="M340.64,270.77h0c0-27.9,21.49-50.53,48-50.53h0,0c-26.51,0-48-22.62-48-50.53h0s0,0,0,0c0,27.9-21.49,50.53-48,50.53h0,0c26.51,0,48,22.62,48,50.53h0Z"/>
    </clipPath>
    <clipPath id="clippath-2">
      <ellipse class="cls-14" cx="449.65" cy="334.94" rx="26.54" ry="27.93"/>
    </clipPath>
    <clipPath id="clippath-3">
      <path class="cls-14" d="M340.64,367.58h0c0-18.19,14.01-32.93,31.29-32.93h0,0c-17.28,0-31.29-14.74-31.29-32.93h0s0,0,0,0c0,18.19-14.01,32.93-31.29,32.93h0,0c17.28,0,31.29,14.74,31.29,32.93h0Z"/>
    </clipPath>
    <clipPath id="clippath-4">
      <ellipse class="cls-14" cx="449.76" cy="444.19" rx="16.36" ry="17.22"/>
    </clipPath>
    <clipPath id="clippath-5">
      <path class="cls-14" d="M340.64,464.3h0c0-11.21,8.63-20.3,19.29-20.3h0,0c-10.65,0-19.29-9.09-19.29-20.3h0s0,0,0,0c0,11.21-8.63,20.3-19.29,20.3h0,0c10.65,0,19.29,9.09,19.29,20.3h0Z"/>
    </clipPath>
    <clipPath id="clippath-6">
      <ellipse class="cls-14" cx="339.17" cy="99.77" rx="51.33" ry="54.03"/>
    </clipPath>
    <clipPath id="clippath-7">
      <path class="cls-14" d="M200.86,162.9h0c0-35.18-27.09-63.7-60.51-63.7h0,0c33.42,0,60.51-28.52,60.51-63.7h0s0,0,0,0c0,35.18,27.09,63.7,60.51,63.7h0,0c-33.42,0-60.51,28.52-60.51,63.7h0Z"/>
    </clipPath>
    <clipPath id="clippath-8">
      <ellipse class="cls-14" cx="338.98" cy="243.79" rx="33.45" ry="35.21"/>
    </clipPath>
    <clipPath id="clippath-9">
      <path class="cls-14" d="M200.86,284.93h0c0-22.93-17.66-41.52-39.44-41.52h0,0c21.78,0,39.44-18.59,39.44-41.52h0s0,0,0,0c0,22.93,17.66,41.52,39.44,41.52h0,0c-21.78,0-39.44,18.59-39.44,41.52h0Z"/>
    </clipPath>
    <clipPath id="clippath-10">
      <ellipse class="cls-14" cx="338.85" cy="381.51" rx="20.62" ry="21.71"/>
    </clipPath>
    <clipPath id="clippath-11">
      <path class="cls-14" d="M200.86,406.87h0c0-14.13-10.89-25.59-24.31-25.59h0,0c13.43,0,24.31-11.46,24.31-25.59h0s0,0,0,0c0,14.13,10.89,25.59,24.31,25.59h0,0c-13.43,0-24.31,11.46-24.31,25.59h0Z"/>
    </clipPath>
    <clipPath id="clippath-12">
      <ellipse class="cls-14" cx="401.89" cy="150.72" rx="48.38" ry="50.93"/>
    </clipPath>
    <clipPath id="clippath-13">
      <path class="cls-14" d="M271.53,210.22h0c0-33.16-25.54-60.04-57.04-60.04h0,0c31.5,0,57.04-26.88,57.04-60.04h0s0,0,0,0c0,33.16,25.54,60.04,57.04,60.04h0,0c-31.5,0-57.04,26.88-57.04,60.04h0Z"/>
    </clipPath>
    <clipPath id="clippath-14">
      <ellipse class="cls-14" cx="401.72" cy="286.46" rx="31.53" ry="33.19"/>
    </clipPath>
    <clipPath id="clippath-15">
      <path class="cls-14" d="M271.53,325.25h0c0-21.61-16.64-39.13-37.18-39.13h0,0c20.53,0,37.18-17.52,37.18-39.13h0s0,0,0,0c0,21.61,16.64,39.13,37.18,39.13h0,0c-20.53,0-37.18,17.52-37.18,39.13h0Z"/>
    </clipPath>
    <clipPath id="clippath-16">
      <ellipse class="cls-14" cx="401.59" cy="416.28" rx="19.44" ry="20.46"/>
    </clipPath>
    <clipPath id="clippath-17">
      <path class="cls-14" d="M271.53,440.19h0c0-13.32-10.26-24.12-22.92-24.12h0,0c12.66,0,22.92-10.8,22.92-24.12h0s0,0,0,0c0,13.32,10.26,24.12,22.92,24.12h0,0c-12.66,0-22.92,10.8-22.92,24.12h0Z"/>
    </clipPath>
  </defs>
  <rect class="cls-55" x="-2" y="-2" width="504" height="504"/>
  <g class="cls-47">
    <g>
      <ellipse class="cls-2" cx="450.36" cy="219.8" rx="40.71" ry="42.86"/>
      <g class="cls-62">
        <g>
          <line class="cls-30" x1="448.35" y1="160.62" x2="505.32" y2="220.6"/>
          <line class="cls-30" x1="442.29" y1="167.08" x2="499.26" y2="227.05"/>
          <line class="cls-30" x1="436.23" y1="173.53" x2="493.2" y2="233.5"/>
          <line class="cls-30" x1="430.17" y1="179.98" x2="487.14" y2="239.95"/>
          <line class="cls-30" x1="424.11" y1="186.43" x2="481.08" y2="246.4"/>
          <line class="cls-30" x1="418.05" y1="192.88" x2="475.02" y2="252.85"/>
          <line class="cls-30" x1="411.98" y1="199.33" x2="468.96" y2="259.3"/>
          <line class="cls-30" x1="405.92" y1="205.78" x2="462.9" y2="265.75"/>
          <line class="cls-30" x1="399.86" y1="212.23" x2="456.83" y2="272.2"/>
          <line class="cls-30" x1="393.8" y1="218.68" x2="450.77" y2="278.65"/>
        </g>
      </g>
    </g>
    <g>
      <g>
        <line class="cls-37" x1="229.73" y1="174.99" x2="272.91" y2="220.44"/>
        <line class="cls-37" x1="224.9" y1="180.12" x2="268.08" y2="225.57"/>
        <line class="cls-37" x1="220.08" y1="185.25" x2="263.26" y2="230.7"/>
        <line class="cls-37" x1="215.26" y1="190.38" x2="258.44" y2="235.83"/>
        <line class="cls-37" x1="210.43" y1="195.51" x2="253.61" y2="240.96"/>
        <line class="cls-37" x1="205.61" y1="200.64" x2="248.79" y2="246.09"/>
        <line class="cls-37" x1="200.79" y1="205.77" x2="243.97" y2="251.22"/>
        <line class="cls-37" x1="195.96" y1="210.9" x2="239.14" y2="256.35"/>
        <line class="cls-37" x1="191.14" y1="216.03" x2="234.32" y2="261.48"/>
        <line class="cls-37" x1="186.32" y1="221.16" x2="229.5" y2="266.62"/>
      </g>
      <polygon class="cls-19" points="230.07 267.46 274.92 220.25 230.07 173.04 185.22 220.25 230.07 267.46"/>
    </g>
    <g>
      <path class="cls-15" d="M340.64,270.03h0c0-27.43,21.12-49.66,47.17-49.66h0,0c-26.05,0-47.17-22.23-47.17-49.66h0s0,0,0,0c0,27.42-21.12,49.66-47.17,49.66h0,0c26.05,0,47.17,22.23,47.17,49.66h0Z"/>
      <g class="cls-52">
        <g>
          <line class="cls-18" x1="339.69" y1="171.02" x2="386.84" y2="220.66"/>
          <line class="cls-18" x1="334.68" y1="176.36" x2="381.83" y2="226"/>
          <line class="cls-18" x1="329.66" y1="181.7" x2="376.81" y2="231.33"/>
          <line class="cls-18" x1="324.64" y1="187.04" x2="371.8" y2="236.67"/>
          <line class="cls-18" x1="319.63" y1="192.38" x2="366.78" y2="242.01"/>
          <line class="cls-18" x1="314.61" y1="197.72" x2="361.76" y2="247.35"/>
          <line class="cls-18" x1="309.6" y1="203.06" x2="356.75" y2="252.69"/>
          <line class="cls-18" x1="304.58" y1="208.4" x2="351.73" y2="258.03"/>
          <line class="cls-18" x1="299.56" y1="213.73" x2="346.71" y2="263.37"/>
          <line class="cls-18" x1="294.55" y1="219.07" x2="341.7" y2="268.71"/>
        </g>
      </g>
    </g>
    <g>
      <ellipse class="cls-36" cx="450.21" cy="334.35" rx="26.54" ry="27.93"/>
      <g class="cls-60">
        <g>
          <line class="cls-9" x1="448.9" y1="295.78" x2="486.03" y2="334.87"/>
          <line class="cls-9" x1="444.95" y1="299.99" x2="482.08" y2="339.07"/>
          <line class="cls-9" x1="441" y1="304.19" x2="478.13" y2="343.28"/>
          <line class="cls-9" x1="437.05" y1="308.4" x2="474.18" y2="347.48"/>
          <line class="cls-9" x1="433.1" y1="312.6" x2="470.23" y2="351.69"/>
          <line class="cls-9" x1="429.15" y1="316.8" x2="466.28" y2="355.89"/>
          <line class="cls-9" x1="425.2" y1="321.01" x2="462.33" y2="360.1"/>
          <line class="cls-9" x1="421.25" y1="325.21" x2="458.38" y2="364.3"/>
          <line class="cls-9" x1="417.3" y1="329.42" x2="454.43" y2="368.51"/>
          <line class="cls-9" x1="413.35" y1="333.62" x2="450.48" y2="372.71"/>
        </g>
      </g>
    </g>
    <g>
      <g>
        <line class="cls-29" x1="229.85" y1="305.14" x2="257.99" y2="334.77"/>
        <line class="cls-29" x1="226.7" y1="308.49" x2="254.85" y2="338.11"/>
        <line class="cls-29" x1="223.56" y1="311.83" x2="251.7" y2="341.46"/>
        <line class="cls-29" x1="220.42" y1="315.18" x2="248.56" y2="344.8"/>
        <line class="cls-29" x1="217.27" y1="318.52" x2="245.42" y2="348.14"/>
        <line class="cls-29" x1="214.13" y1="321.86" x2="242.27" y2="351.49"/>
        <line class="cls-29" x1="210.99" y1="325.21" x2="239.13" y2="354.83"/>
        <line class="cls-29" x1="207.84" y1="328.55" x2="235.98" y2="358.18"/>
        <line class="cls-29" x1="204.7" y1="331.9" x2="232.84" y2="361.52"/>
        <line class="cls-29" x1="201.55" y1="335.24" x2="229.7" y2="364.87"/>
      </g>
      <polygon class="cls-8" points="230.07 365.42 259.31 334.64 230.07 303.87 200.84 334.64 230.07 365.42"/>
    </g>
    <g>
      <path class="cls-10" d="M340.64,367.09h0c0-17.88,13.77-32.37,30.75-32.37h0,0c-16.98,0-30.75-14.49-30.75-32.37h0s0,0,0,0c0,17.88-13.77,32.37-30.75,32.37h0,0c16.98,0,30.75,14.49,30.75,32.37h0Z"/>
      <g class="cls-56">
        <g>
          <line class="cls-35" x1="340.02" y1="302.56" x2="370.76" y2="334.91"/>
          <line class="cls-35" x1="336.75" y1="306.04" x2="367.49" y2="338.39"/>
          <line class="cls-35" x1="333.48" y1="309.52" x2="364.22" y2="341.87"/>
          <line class="cls-35" x1="330.21" y1="313" x2="360.95" y2="345.35"/>
          <line class="cls-35" x1="326.95" y1="316.48" x2="357.68" y2="348.83"/>
          <line class="cls-35" x1="323.68" y1="319.96" x2="354.41" y2="352.31"/>
          <line class="cls-35" x1="320.41" y1="323.44" x2="351.14" y2="355.79"/>
          <line class="cls-35" x1="317.14" y1="326.92" x2="347.87" y2="359.27"/>
          <line class="cls-35" x1="313.87" y1="330.4" x2="344.6" y2="362.75"/>
          <line class="cls-35" x1="310.6" y1="333.88" x2="341.33" y2="366.23"/>
        </g>
      </g>
    </g>
    <g>
      <ellipse class="cls-24" cx="450.1" cy="443.82" rx="16.36" ry="17.22"/>
      <g class="cls-46">
        <g>
          <line class="cls-3" x1="449.29" y1="420.05" x2="472.18" y2="444.14"/>
          <line class="cls-3" x1="446.86" y1="422.64" x2="469.75" y2="446.74"/>
          <line class="cls-3" x1="444.42" y1="425.23" x2="467.31" y2="449.33"/>
          <line class="cls-3" x1="441.99" y1="427.82" x2="464.88" y2="451.92"/>
          <line class="cls-3" x1="439.55" y1="430.42" x2="462.44" y2="454.51"/>
          <line class="cls-3" x1="437.12" y1="433.01" x2="460.01" y2="457.1"/>
          <line class="cls-3" x1="434.68" y1="435.6" x2="457.57" y2="459.69"/>
          <line class="cls-3" x1="432.25" y1="438.19" x2="455.14" y2="462.29"/>
          <line class="cls-3" x1="429.81" y1="440.78" x2="452.7" y2="464.88"/>
          <line class="cls-3" x1="427.38" y1="443.37" x2="450.27" y2="467.47"/>
        </g>
      </g>
    </g>
    <g>
      <g>
        <line class="cls-33" x1="229.93" y1="425.82" x2="247.28" y2="444.08"/>
        <line class="cls-33" x1="228" y1="427.88" x2="245.34" y2="446.14"/>
        <line class="cls-33" x1="226.06" y1="429.94" x2="243.41" y2="448.2"/>
        <line class="cls-33" x1="224.12" y1="432" x2="241.47" y2="450.26"/>
        <line class="cls-33" x1="222.18" y1="434.06" x2="239.53" y2="452.33"/>
        <line class="cls-33" x1="220.24" y1="436.13" x2="237.59" y2="454.39"/>
        <line class="cls-33" x1="218.31" y1="438.19" x2="235.66" y2="456.45"/>
        <line class="cls-33" x1="216.37" y1="440.25" x2="233.72" y2="458.51"/>
        <line class="cls-33" x1="214.43" y1="442.31" x2="231.78" y2="460.57"/>
        <line class="cls-33" x1="212.49" y1="444.37" x2="229.84" y2="462.63"/>
      </g>
      <polygon class="cls-17" points="230.07 462.97 248.09 444 230.07 425.04 212.05 444 230.07 462.97"/>
    </g>
    <g>
      <path class="cls-22" d="M340.64,464h0c0-11.02,8.49-19.95,18.95-19.95h0,0c-10.47,0-18.95-8.93-18.95-19.95h0s0,0,0,0c0,11.02-8.49,19.95-18.95,19.95h0,0c10.47,0,18.95,8.93,18.95,19.95h0Z"/>
      <g class="cls-53">
        <g>
          <line class="cls-31" x1="340.26" y1="424.23" x2="359.21" y2="444.17"/>
          <line class="cls-31" x1="338.25" y1="426.37" x2="357.19" y2="446.31"/>
          <line class="cls-31" x1="336.23" y1="428.52" x2="355.18" y2="448.46"/>
          <line class="cls-31" x1="334.21" y1="430.66" x2="353.16" y2="450.6"/>
          <line class="cls-31" x1="332.2" y1="432.81" x2="351.14" y2="452.75"/>
          <line class="cls-31" x1="330.18" y1="434.95" x2="349.13" y2="454.89"/>
          <line class="cls-31" x1="328.17" y1="437.1" x2="347.11" y2="457.04"/>
          <line class="cls-31" x1="326.15" y1="439.24" x2="345.1" y2="459.18"/>
          <line class="cls-31" x1="324.14" y1="441.39" x2="343.08" y2="461.33"/>
          <line class="cls-31" x1="322.12" y1="443.53" x2="341.07" y2="463.47"/>
        </g>
      </g>
    </g>
  </g>
  <g>
    <g>
      <path class="cls-51" d="M338.09,154.37c-29.2,0-52.95-25-52.95-55.73s23.75-55.73,52.95-55.73,52.95,25,52.95,55.73-23.75,55.73-52.95,55.73ZM338.09,46.31c-27.41,0-49.71,23.47-49.71,52.32s22.3,52.32,49.71,52.32,49.71-23.47,49.71-52.32-22.3-52.32-49.71-52.32Z"/>
      <g class="cls-42">
        <g>
          <g>
            <polygon class="cls-51" points="269.56 100.44 268.03 98.83 339.85 23.23 341.38 24.84 269.56 100.44"/>
            <polygon class="cls-51" points="277.2 108.58 275.67 106.97 347.5 31.36 349.02 32.97 277.2 108.58"/>
            <polygon class="cls-51" points="284.84 116.71 283.31 115.1 355.14 39.5 356.66 41.1 284.84 116.71"/>
            <polygon class="cls-51" points="292.48 124.84 290.95 123.23 362.78 47.63 364.31 49.24 292.48 124.84"/>
            <polygon class="cls-51" points="300.12 132.97 298.6 131.36 370.42 55.76 371.95 57.37 300.12 132.97"/>
            <polygon class="cls-51" points="307.76 141.1 306.24 139.5 378.06 63.89 379.59 65.5 307.76 141.1"/>
            <polygon class="cls-51" points="315.4 149.24 313.88 147.63 385.7 72.03 387.23 73.63 315.4 149.24"/>
            <polygon class="cls-51" points="323.04 157.37 321.52 155.76 393.34 80.16 394.87 81.77 323.04 157.37"/>
            <polygon class="cls-51" points="330.69 165.5 329.16 163.89 400.98 88.29 402.51 89.9 330.69 165.5"/>
            <polygon class="cls-51" points="338.33 173.63 336.8 172.02 408.62 96.42 410.15 98.03 338.33 173.63"/>
          </g>
          <g>
            <polygon class="cls-51" points="336.05 173.65 267.27 101.25 268.8 99.64 337.58 172.04 336.05 173.65"/>
            <polygon class="cls-51" points="344.16 165.2 275.37 92.8 276.9 91.19 345.68 163.59 344.16 165.2"/>
            <polygon class="cls-51" points="352.26 156.76 283.48 84.35 285.01 82.75 353.79 155.15 352.26 156.76"/>
            <polygon class="cls-51" points="360.37 148.31 291.59 75.91 293.11 74.3 361.9 146.7 360.37 148.31"/>
            <polygon class="cls-51" points="368.47 139.86 299.69 67.46 301.22 65.85 370 138.25 368.47 139.86"/>
            <polygon class="cls-51" points="376.58 131.42 307.8 59.01 309.33 57.4 378.11 129.81 376.58 131.42"/>
            <polygon class="cls-51" points="384.69 122.97 315.9 50.57 317.43 48.96 386.21 121.36 384.69 122.97"/>
            <polygon class="cls-51" points="392.79 114.52 324.01 42.12 325.54 40.51 394.32 112.91 392.79 114.52"/>
            <polygon class="cls-51" points="400.9 106.07 332.11 33.67 333.64 32.06 402.43 104.47 400.9 106.07"/>
            <polygon class="cls-51" points="409 97.63 340.22 25.23 341.75 23.62 410.53 96.02 409 97.63"/>
          </g>
        </g>
      </g>
    </g>
    <g>
      <g>
        <g>
          <polygon class="cls-51" points="8.06 100.07 6.88 98.82 61.31 41.52 62.5 42.77 8.06 100.07"/>
          <polygon class="cls-51" points="14.14 106.53 12.96 105.29 67.39 47.99 68.58 49.24 14.14 106.53"/>
          <polygon class="cls-51" points="20.22 113 19.04 111.75 73.47 54.46 74.66 55.7 20.22 113"/>
          <polygon class="cls-51" points="26.31 119.47 25.12 118.22 79.55 60.92 80.74 62.17 26.31 119.47"/>
          <polygon class="cls-51" points="32.39 125.94 31.2 124.69 85.63 67.39 86.82 68.64 32.39 125.94"/>
          <polygon class="cls-51" points="38.47 132.41 37.28 131.16 91.71 73.86 92.9 75.11 38.47 132.41"/>
          <polygon class="cls-51" points="44.55 138.87 43.36 137.63 97.79 80.33 98.98 81.58 44.55 138.87"/>
          <polygon class="cls-51" points="50.63 145.34 49.44 144.09 103.87 86.8 105.06 88.04 50.63 145.34"/>
          <polygon class="cls-51" points="56.71 151.81 55.52 150.56 109.95 93.26 111.14 94.51 56.71 151.81"/>
          <polygon class="cls-51" points="62.79 158.28 61.6 157.03 116.03 99.73 117.22 100.98 62.79 158.28"/>
        </g>
        <g>
          <polygon class="cls-51" points="61.02 158.28 6.3 100.68 7.49 99.43 62.21 157.03 61.02 158.28"/>
          <polygon class="cls-51" points="67.17 151.88 12.44 94.28 13.63 93.03 68.35 150.63 67.17 151.88"/>
          <polygon class="cls-51" points="73.31 145.48 18.59 87.87 19.77 86.63 74.5 144.23 73.31 145.48"/>
          <polygon class="cls-51" points="79.45 139.08 24.73 81.47 25.92 80.23 80.64 137.83 79.45 139.08"/>
          <polygon class="cls-51" points="85.6 132.68 30.88 75.07 32.06 73.83 86.79 131.43 85.6 132.68"/>
          <polygon class="cls-51" points="91.75 126.28 37.02 68.67 38.21 67.43 92.93 125.03 91.75 126.28"/>
          <polygon class="cls-51" points="97.89 119.88 43.17 62.27 44.35 61.03 99.08 118.63 97.89 119.88"/>
          <polygon class="cls-51" points="104.03 113.48 49.31 55.87 50.5 54.63 105.22 112.23 104.03 113.48"/>
          <polygon class="cls-51" points="110.18 107.08 55.46 49.47 56.64 48.22 111.37 105.83 110.18 107.08"/>
          <polygon class="cls-51" points="116.32 100.68 61.6 43.07 62.79 41.83 117.51 99.43 116.32 100.68"/>
        </g>
      </g>
      <path class="cls-51" d="M61.47,160.42c-.41,0-.83-.17-1.15-.5L3.78,100.41c-.3-.32-.47-.75-.47-1.21s.17-.89.47-1.21l56.54-59.52c.63-.67,1.66-.67,2.29,0l56.54,59.52c.3.32.47.75.47,1.21s-.17.89-.47,1.21l-56.54,59.52c-.32.33-.73.5-1.15.5ZM7.22,99.2l54.25,57.1,54.25-57.1-54.25-57.1L7.22,99.2Z"/>
    </g>
    <g>
      <path class="cls-51" d="M200.86,163.37c-.74,0-1.34-.63-1.34-1.41,0-33.74-26.08-61.19-58.13-61.19-.74,0-1.34-.63-1.34-1.41s.6-1.41,1.34-1.41c32.05,0,58.13-27.45,58.13-61.19,0-.78.6-1.41,1.34-1.41s1.34.63,1.34,1.41c0,33.74,26.08,61.19,58.13,61.19.74,0,1.34.63,1.34,1.41s-.6,1.41-1.34,1.41c-32.05,0-58.13,27.45-58.13,61.19,0,.78-.6,1.41-1.34,1.41ZM154.12,99.36c23.33,5.25,41.74,24.64,46.74,49.19,4.99-24.56,23.41-43.94,46.74-49.19-23.33-5.25-41.74-24.64-46.74-49.2-4.99,24.56-23.41,43.94-46.74,49.2Z"/>
      <g class="cls-43">
        <g>
          <g>
            <polygon class="cls-51" points="143.25 100.38 141.98 99.05 201.43 36.48 202.69 37.81 143.25 100.38"/>
            <polygon class="cls-51" points="149.57 107.11 148.31 105.78 207.75 43.21 209.01 44.54 149.57 107.11"/>
            <polygon class="cls-51" points="155.9 113.84 154.63 112.51 214.07 49.94 215.34 51.27 155.9 113.84"/>
            <polygon class="cls-51" points="162.22 120.57 160.95 119.24 220.4 56.67 221.66 58 162.22 120.57"/>
            <polygon class="cls-51" points="168.54 127.3 167.28 125.97 226.72 63.4 227.98 64.73 168.54 127.3"/>
            <polygon class="cls-51" points="174.87 134.03 173.6 132.7 233.04 70.13 234.31 71.46 174.87 134.03"/>
            <polygon class="cls-51" points="181.19 140.77 179.93 139.43 239.37 76.86 240.63 78.19 181.19 140.77"/>
            <polygon class="cls-51" points="187.51 147.5 186.25 146.16 245.69 83.59 246.96 84.92 187.51 147.5"/>
            <polygon class="cls-51" points="193.84 154.23 192.57 152.89 252.02 90.32 253.28 91.65 193.84 154.23"/>
            <polygon class="cls-51" points="200.16 160.96 198.9 159.63 258.34 97.05 259.6 98.38 200.16 160.96"/>
          </g>
          <g>
            <polygon class="cls-51" points="198.28 160.97 141.35 101.05 142.62 99.72 199.54 159.64 198.28 160.97"/>
            <polygon class="cls-51" points="204.99 153.98 148.06 94.06 149.32 92.73 206.25 152.65 204.99 153.98"/>
            <polygon class="cls-51" points="211.69 146.99 154.77 87.07 156.03 85.74 212.96 145.66 211.69 146.99"/>
            <polygon class="cls-51" points="218.4 140 161.48 80.08 162.74 78.74 219.67 138.67 218.4 140"/>
            <polygon class="cls-51" points="225.11 133.01 168.19 73.08 169.45 71.75 226.38 131.68 225.11 133.01"/>
            <polygon class="cls-51" points="231.82 126.02 174.89 66.09 176.16 64.76 233.08 124.69 231.82 126.02"/>
            <polygon class="cls-51" points="238.53 119.03 181.6 59.1 182.87 57.77 239.79 117.69 238.53 119.03"/>
            <polygon class="cls-51" points="245.24 112.03 188.31 52.11 189.58 50.78 246.5 110.7 245.24 112.03"/>
            <polygon class="cls-51" points="251.95 105.04 195.02 45.12 196.28 43.79 253.21 103.71 251.95 105.04"/>
            <polygon class="cls-51" points="258.65 98.05 201.73 38.13 202.99 36.8 259.92 96.72 258.65 98.05"/>
          </g>
        </g>
      </g>
    </g>
    <g>
      <path class="cls-51" d="M338.28,279.37c-19.03,0-34.51-16.3-34.51-36.33s15.48-36.33,34.51-36.33,34.51,16.3,34.51,36.33-15.48,36.33-34.51,36.33ZM338.28,208.94c-17.86,0-32.4,15.3-32.4,34.1s14.53,34.1,32.4,34.1,32.4-15.3,32.4-34.1-14.53-34.1-32.4-34.1Z"/>
      <g class="cls-54">
        <g>
          <g>
            <polygon class="cls-51" points="293.61 244.23 292.62 243.18 339.43 193.9 340.42 194.95 293.61 244.23"/>
            <polygon class="cls-51" points="298.59 249.53 297.6 248.48 344.41 199.2 345.4 200.25 298.59 249.53"/>
            <polygon class="cls-51" points="303.57 254.83 302.58 253.78 349.39 204.5 350.38 205.55 303.57 254.83"/>
            <polygon class="cls-51" points="308.55 260.13 307.56 259.08 354.37 209.8 355.36 210.85 308.55 260.13"/>
            <polygon class="cls-51" points="313.53 265.43 312.54 264.38 359.35 215.1 360.34 216.15 313.53 265.43"/>
            <polygon class="cls-51" points="318.51 270.73 317.52 269.68 364.33 220.4 365.32 221.45 318.51 270.73"/>
            <polygon class="cls-51" points="323.49 276.03 322.5 274.98 369.31 225.7 370.3 226.75 323.49 276.03"/>
            <polygon class="cls-51" points="328.47 281.33 327.48 280.28 374.29 231 375.28 232.05 328.47 281.33"/>
            <polygon class="cls-51" points="333.45 286.63 332.46 285.58 379.27 236.3 380.26 237.35 333.45 286.63"/>
            <polygon class="cls-51" points="338.43 291.93 337.44 290.88 384.25 241.6 385.25 242.65 338.43 291.93"/>
          </g>
          <g>
            <polygon class="cls-51" points="336.95 291.94 292.12 244.75 293.11 243.7 337.94 290.89 336.95 291.94"/>
            <polygon class="cls-51" points="342.23 286.43 297.4 239.24 298.4 238.19 343.23 285.39 342.23 286.43"/>
            <polygon class="cls-51" points="347.52 280.93 302.68 233.74 303.68 232.69 348.51 279.88 347.52 280.93"/>
            <polygon class="cls-51" points="352.8 275.42 307.97 228.23 308.96 227.18 353.79 274.37 352.8 275.42"/>
            <polygon class="cls-51" points="358.08 269.92 313.25 222.73 314.25 221.68 359.08 268.87 358.08 269.92"/>
            <polygon class="cls-51" points="363.37 264.41 318.53 217.22 319.53 216.17 364.36 263.36 363.37 264.41"/>
            <polygon class="cls-51" points="368.65 258.91 323.82 211.72 324.81 210.67 369.64 257.86 368.65 258.91"/>
            <polygon class="cls-51" points="373.93 253.4 329.1 206.21 330.1 205.16 374.93 252.35 373.93 253.4"/>
            <polygon class="cls-51" points="379.21 247.9 334.38 200.71 335.38 199.66 380.21 246.85 379.21 247.9"/>
            <polygon class="cls-51" points="384.5 242.39 339.67 195.2 340.66 194.15 385.49 241.34 384.5 242.39"/>
          </g>
        </g>
      </g>
    </g>
    <g>
      <g>
        <g>
          <polygon class="cls-51" points="26.66 243.98 25.89 243.17 61.37 205.82 62.14 206.63 26.66 243.98"/>
          <polygon class="cls-51" points="30.62 248.2 29.85 247.38 65.33 210.04 66.1 210.85 30.62 248.2"/>
          <polygon class="cls-51" points="34.59 252.41 33.81 251.6 69.29 214.25 70.06 215.06 34.59 252.41"/>
          <polygon class="cls-51" points="38.55 256.63 37.78 255.81 73.26 218.47 74.03 219.28 38.55 256.63"/>
          <polygon class="cls-51" points="42.51 260.84 41.74 260.03 77.22 222.68 77.99 223.5 42.51 260.84"/>
          <polygon class="cls-51" points="46.47 265.06 45.7 264.25 81.18 226.9 81.95 227.71 46.47 265.06"/>
          <polygon class="cls-51" points="50.44 269.27 49.67 268.46 85.14 231.11 85.92 231.93 50.44 269.27"/>
          <polygon class="cls-51" points="54.4 273.49 53.63 272.68 89.11 235.33 89.88 236.14 54.4 273.49"/>
          <polygon class="cls-51" points="58.36 277.71 57.59 276.89 93.07 239.55 93.84 240.36 58.36 277.71"/>
          <polygon class="cls-51" points="62.33 281.92 61.55 281.11 97.03 243.76 97.81 244.58 62.33 281.92"/>
        </g>
        <g>
          <polygon class="cls-51" points="61.18 281.92 25.51 244.38 26.28 243.56 61.95 281.11 61.18 281.92"/>
          <polygon class="cls-51" points="65.18 277.75 29.52 240.21 30.29 239.39 65.95 276.94 65.18 277.75"/>
          <polygon class="cls-51" points="69.19 273.58 33.52 236.03 34.29 235.22 69.96 272.76 69.19 273.58"/>
          <polygon class="cls-51" points="73.19 269.41 37.53 231.86 38.3 231.05 73.96 268.59 73.19 269.41"/>
          <polygon class="cls-51" points="77.2 265.23 41.53 227.69 42.3 226.88 77.97 264.42 77.2 265.23"/>
          <polygon class="cls-51" points="81.2 261.06 45.54 223.52 46.31 222.71 81.97 260.25 81.2 261.06"/>
          <polygon class="cls-51" points="85.21 256.89 49.54 219.35 50.31 218.53 85.98 256.08 85.21 256.89"/>
          <polygon class="cls-51" points="89.21 252.72 53.55 215.18 54.32 214.36 89.98 251.91 89.21 252.72"/>
          <polygon class="cls-51" points="93.22 248.55 57.55 211 58.32 210.19 93.99 247.74 93.22 248.55"/>
          <polygon class="cls-51" points="97.22 244.38 61.56 206.83 62.33 206.02 98 243.56 97.22 244.38"/>
        </g>
      </g>
      <path class="cls-51" d="M61.47,283.32c-.27,0-.54-.11-.75-.33l-36.85-38.79c-.41-.43-.41-1.14,0-1.57l36.85-38.79c.41-.43,1.08-.43,1.49,0l36.85,38.79c.41.43.41,1.14,0,1.57l-36.85,38.79c-.21.22-.48.33-.75.33ZM26.11,243.42l35.36,37.22,35.36-37.22-35.36-37.22-35.36,37.22Z"/>
    </g>
    <g>
      <path class="cls-51" d="M200.86,285.24c-.48,0-.87-.41-.87-.92,0-21.99-17-39.88-37.89-39.88-.48,0-.87-.41-.87-.92s.39-.92.87-.92c20.89,0,37.89-17.89,37.89-39.88,0-.51.39-.92.87-.92s.87.41.87.92c0,21.99,17,39.88,37.89,39.88.48,0,.87.41.87.92s-.39.92-.87.92c-20.89,0-37.89,17.89-37.89,39.88,0,.51-.39.92-.87.92ZM170.4,243.52c15.2,3.42,27.21,16.06,30.46,32.06,3.25-16.01,15.26-28.64,30.46-32.06-15.2-3.42-27.21-16.06-30.46-32.07-3.25,16.01-15.26,28.64-30.46,32.07Z"/>
      <g class="cls-48">
        <g>
          <g>
            <polygon class="cls-51" points="163.31 244.19 162.48 243.32 201.23 202.53 202.05 203.4 163.31 244.19"/>
            <polygon class="cls-51" points="167.43 248.57 166.61 247.7 205.35 206.92 206.18 207.79 167.43 248.57"/>
            <polygon class="cls-51" points="171.55 252.96 170.73 252.09 209.47 211.31 210.3 212.18 171.55 252.96"/>
            <polygon class="cls-51" points="175.67 257.35 174.85 256.48 213.59 215.7 214.42 216.56 175.67 257.35"/>
            <polygon class="cls-51" points="179.8 261.73 178.97 260.86 217.72 220.08 218.54 220.95 179.8 261.73"/>
            <polygon class="cls-51" points="183.92 266.12 183.09 265.25 221.84 224.47 222.66 225.34 183.92 266.12"/>
            <polygon class="cls-51" points="188.04 270.51 187.21 269.64 225.96 228.86 226.78 229.72 188.04 270.51"/>
            <polygon class="cls-51" points="192.16 274.89 191.34 274.02 230.08 233.24 230.9 234.11 192.16 274.89"/>
            <polygon class="cls-51" points="196.28 279.28 195.46 278.41 234.2 237.63 235.03 238.5 196.28 279.28"/>
            <polygon class="cls-51" points="200.4 283.67 199.58 282.8 238.32 242.02 239.15 242.88 200.4 283.67"/>
          </g>
          <g>
            <polygon class="cls-51" points="199.18 283.68 162.07 244.62 162.9 243.75 200 282.81 199.18 283.68"/>
            <polygon class="cls-51" points="203.55 279.12 166.44 240.06 167.27 239.19 204.37 278.25 203.55 279.12"/>
            <polygon class="cls-51" points="207.92 274.56 170.82 235.51 171.64 234.64 208.75 273.7 207.92 274.56"/>
            <polygon class="cls-51" points="212.29 270.01 175.19 230.95 176.01 230.08 213.12 269.14 212.29 270.01"/>
            <polygon class="cls-51" points="216.67 265.45 179.56 226.39 180.39 225.53 217.49 264.58 216.67 265.45"/>
            <polygon class="cls-51" points="221.04 260.89 183.94 221.84 184.76 220.97 221.86 260.02 221.04 260.89"/>
            <polygon class="cls-51" points="225.41 256.34 188.31 217.28 189.13 216.41 226.24 255.47 225.41 256.34"/>
            <polygon class="cls-51" points="229.78 251.78 192.68 212.72 193.5 211.86 230.61 250.91 229.78 251.78"/>
            <polygon class="cls-51" points="234.16 247.22 197.05 208.17 197.88 207.3 234.98 246.36 234.16 247.22"/>
            <polygon class="cls-51" points="238.53 242.67 201.43 203.61 202.25 202.74 239.35 241.8 238.53 242.67"/>
          </g>
        </g>
      </g>
    </g>
    <g>
      <path class="cls-51" d="M338.41,403.45c-11.73,0-21.27-10.05-21.27-22.39s9.54-22.39,21.27-22.39,21.27,10.04,21.27,22.39-9.54,22.39-21.27,22.39ZM338.41,360.03c-11.01,0-19.97,9.43-19.97,21.02s8.96,21.02,19.97,21.02,19.97-9.43,19.97-21.02-8.96-21.02-19.97-21.02Z"/>
      <g class="cls-49">
        <g>
          <g>
            <polygon class="cls-51" points="310.88 381.78 310.26 381.13 339.12 350.76 339.74 351.4 310.88 381.78"/>
            <polygon class="cls-51" points="313.95 385.05 313.33 384.4 342.19 354.03 342.81 354.67 313.95 385.05"/>
            <polygon class="cls-51" points="317.02 388.32 316.4 387.67 345.26 357.29 345.88 357.94 317.02 388.32"/>
            <polygon class="cls-51" points="320.09 391.58 319.47 390.94 348.33 360.56 348.95 361.21 320.09 391.58"/>
            <polygon class="cls-51" points="323.16 394.85 322.54 394.2 351.4 363.83 352.02 364.47 323.16 394.85"/>
            <polygon class="cls-51" points="326.23 398.12 325.61 397.47 354.47 367.09 355.09 367.74 326.23 398.12"/>
            <polygon class="cls-51" points="329.3 401.38 328.68 400.74 357.54 370.36 358.16 371.01 329.3 401.38"/>
            <polygon class="cls-51" points="332.37 404.65 331.75 404.01 360.61 373.63 361.23 374.28 332.37 404.65"/>
            <polygon class="cls-51" points="335.44 407.92 334.82 407.27 363.68 376.9 364.29 377.54 335.44 407.92"/>
            <polygon class="cls-51" points="338.51 411.19 337.89 410.54 366.75 380.16 367.37 380.81 338.51 411.19"/>
          </g>
          <g>
            <polygon class="cls-51" points="337.59 411.19 309.96 382.1 310.57 381.46 338.21 410.55 337.59 411.19"/>
            <polygon class="cls-51" points="340.85 407.8 313.21 378.71 313.83 378.06 341.46 407.15 340.85 407.8"/>
            <polygon class="cls-51" points="344.11 404.41 316.47 375.32 317.08 374.67 344.72 403.76 344.11 404.41"/>
            <polygon class="cls-51" points="347.36 401.01 319.73 371.92 320.34 371.28 347.98 400.37 347.36 401.01"/>
            <polygon class="cls-51" points="350.62 397.62 322.98 368.53 323.6 367.88 351.23 396.97 350.62 397.62"/>
            <polygon class="cls-51" points="353.88 394.22 326.24 365.13 326.86 364.49 354.49 393.58 353.88 394.22"/>
            <polygon class="cls-51" points="357.13 390.83 329.5 361.74 330.11 361.09 357.75 390.18 357.13 390.83"/>
            <polygon class="cls-51" points="360.39 387.44 332.75 358.35 333.37 357.7 361 386.79 360.39 387.44"/>
            <polygon class="cls-51" points="363.65 384.04 336.01 354.95 336.63 354.31 364.26 383.4 363.65 384.04"/>
            <polygon class="cls-51" points="366.9 380.65 339.27 351.56 339.88 350.91 367.52 380 366.9 380.65"/>
          </g>
        </g>
      </g>
    </g>
    <g>
      <g>
        <g>
          <polygon class="cls-51" points="40.01 381.63 39.53 381.13 61.4 358.11 61.88 358.61 40.01 381.63"/>
          <polygon class="cls-51" points="42.45 384.23 41.98 383.73 63.85 360.7 64.32 361.21 42.45 384.23"/>
          <polygon class="cls-51" points="44.9 386.83 44.42 386.32 66.29 363.3 66.77 363.8 44.9 386.83"/>
          <polygon class="cls-51" points="47.34 389.43 46.86 388.92 68.73 365.9 69.21 366.4 47.34 389.43"/>
          <polygon class="cls-51" points="49.78 392.02 49.31 391.52 71.18 368.5 71.65 369 49.78 392.02"/>
          <polygon class="cls-51" points="52.23 394.62 51.75 394.12 73.62 371.1 74.1 371.6 52.23 394.62"/>
          <polygon class="cls-51" points="54.67 397.22 54.19 396.72 76.06 373.7 76.54 374.2 54.67 397.22"/>
          <polygon class="cls-51" points="57.11 399.82 56.63 399.32 78.51 376.3 78.98 376.8 57.11 399.82"/>
          <polygon class="cls-51" points="59.56 402.42 59.08 401.92 80.95 378.9 81.43 379.4 59.56 402.42"/>
          <polygon class="cls-51" points="62 405.02 61.52 404.52 83.39 381.49 83.87 382 62 405.02"/>
        </g>
        <g>
          <polygon class="cls-51" points="61.29 405.02 39.3 381.87 39.78 381.37 61.76 404.52 61.29 405.02"/>
          <polygon class="cls-51" points="63.76 402.45 41.77 379.3 42.25 378.8 64.23 401.94 63.76 402.45"/>
          <polygon class="cls-51" points="66.23 399.87 44.24 376.73 44.72 376.23 66.7 399.37 66.23 399.87"/>
          <polygon class="cls-51" points="68.69 397.3 46.71 374.16 47.18 373.66 69.17 396.8 68.69 397.3"/>
          <polygon class="cls-51" points="71.16 394.73 49.18 371.59 49.65 371.09 71.64 394.23 71.16 394.73"/>
          <polygon class="cls-51" points="73.63 392.16 51.65 369.02 52.12 368.51 74.11 391.66 73.63 392.16"/>
          <polygon class="cls-51" points="76.1 389.59 54.11 366.45 54.59 365.94 76.58 389.09 76.1 389.59"/>
          <polygon class="cls-51" points="78.57 387.02 56.58 363.87 57.06 363.37 79.05 386.51 78.57 387.02"/>
          <polygon class="cls-51" points="81.04 384.45 59.05 361.3 59.53 360.8 81.52 383.94 81.04 384.45"/>
          <polygon class="cls-51" points="83.51 381.87 61.52 358.73 62 358.23 83.98 381.37 83.51 381.87"/>
        </g>
      </g>
      <path class="cls-51" d="M61.47,405.88c-.17,0-.34-.07-.46-.2l-22.72-23.91c-.25-.27-.25-.7,0-.97l22.72-23.91c.25-.27.67-.27.92,0l22.72,23.91c.25.27.25.7,0,.97l-22.72,23.91c-.12.13-.29.2-.46.2ZM39.67,381.28l21.8,22.94,21.8-22.94-21.8-22.94-21.8,22.94Z"/>
    </g>
    <g>
      <path class="cls-51" d="M200.86,407.06c-.3,0-.54-.25-.54-.57,0-13.56-10.48-24.58-23.36-24.58-.3,0-.54-.25-.54-.57s.24-.57.54-.57c12.88,0,23.36-11.03,23.36-24.58,0-.31.24-.57.54-.57s.54.25.54.57c0,13.56,10.48,24.58,23.36,24.58.3,0,.54.25.54.57s-.24.57-.54.57c-12.88,0-23.36,11.03-23.36,24.58,0,.31-.24.57-.54.57ZM182.08,381.34c9.37,2.11,16.77,9.9,18.78,19.77,2.01-9.87,9.4-17.65,18.78-19.77-9.37-2.11-16.77-9.9-18.78-19.77-2.01,9.87-9.4,17.65-18.78,19.77Z"/>
      <g class="cls-50">
        <g>
          <g>
            <polygon class="cls-51" points="177.71 381.76 177.2 381.22 201.09 356.08 201.6 356.62 177.71 381.76"/>
            <polygon class="cls-51" points="180.25 384.46 179.74 383.93 203.63 358.79 204.14 359.32 180.25 384.46"/>
            <polygon class="cls-51" points="182.79 387.16 182.28 386.63 206.17 361.49 206.68 362.02 182.79 387.16"/>
            <polygon class="cls-51" points="185.33 389.87 184.83 389.33 208.71 364.19 209.22 364.73 185.33 389.87"/>
            <polygon class="cls-51" points="187.88 392.57 187.37 392.04 211.25 366.9 211.76 367.43 187.88 392.57"/>
            <polygon class="cls-51" points="190.42 395.28 189.91 394.74 213.79 369.6 214.3 370.14 190.42 395.28"/>
            <polygon class="cls-51" points="192.96 397.98 192.45 397.45 216.33 372.31 216.84 372.84 192.96 397.98"/>
            <polygon class="cls-51" points="195.5 400.69 194.99 400.15 218.87 375.01 219.38 375.55 195.5 400.69"/>
            <polygon class="cls-51" points="198.04 403.39 197.53 402.86 221.41 377.71 221.92 378.25 198.04 403.39"/>
            <polygon class="cls-51" points="200.58 406.09 200.07 405.56 223.95 380.42 224.46 380.95 200.58 406.09"/>
          </g>
          <g>
            <polygon class="cls-51" points="199.82 406.1 176.95 382.02 177.46 381.49 200.33 405.56 199.82 406.1"/>
            <polygon class="cls-51" points="202.52 403.29 179.64 379.21 180.15 378.68 203.03 402.76 202.52 403.29"/>
            <polygon class="cls-51" points="205.21 400.48 182.34 376.41 182.85 375.87 205.72 399.95 205.21 400.48"/>
            <polygon class="cls-51" points="207.91 397.67 185.04 373.6 185.54 373.06 208.42 397.14 207.91 397.67"/>
            <polygon class="cls-51" points="210.6 394.86 187.73 370.79 188.24 370.25 211.11 394.33 210.6 394.86"/>
            <polygon class="cls-51" points="213.3 392.06 190.43 367.98 190.94 367.44 213.81 391.52 213.3 392.06"/>
            <polygon class="cls-51" points="215.99 389.25 193.12 365.17 193.63 364.64 216.5 388.71 215.99 389.25"/>
            <polygon class="cls-51" points="218.69 386.44 195.82 362.36 196.33 361.83 219.2 385.9 218.69 386.44"/>
            <polygon class="cls-51" points="221.39 383.63 198.51 359.55 199.02 359.02 221.89 383.09 221.39 383.63"/>
            <polygon class="cls-51" points="224.08 380.82 201.21 356.74 201.72 356.21 224.59 380.29 224.08 380.82"/>
          </g>
        </g>
      </g>
    </g>
  </g>
  <g class="cls-41">
    <g>
      <ellipse class="cls-26" cx="400.88" cy="149.65" rx="48.38" ry="50.93"/>
      <g class="cls-57">
        <g>
          <line class="cls-4" x1="403.26" y1="79.33" x2="335.56" y2="150.59"/>
          <line class="cls-4" x1="410.46" y1="87" x2="342.76" y2="158.26"/>
          <line class="cls-4" x1="417.66" y1="94.66" x2="349.97" y2="165.92"/>
          <line class="cls-4" x1="424.87" y1="102.33" x2="357.17" y2="173.59"/>
          <line class="cls-4" x1="432.07" y1="109.99" x2="364.37" y2="181.25"/>
          <line class="cls-4" x1="439.27" y1="117.66" x2="371.57" y2="188.92"/>
          <line class="cls-4" x1="446.47" y1="125.32" x2="378.77" y2="196.58"/>
          <line class="cls-4" x1="453.67" y1="132.99" x2="385.98" y2="204.25"/>
          <line class="cls-4" x1="460.88" y1="140.65" x2="393.18" y2="211.92"/>
          <line class="cls-4" x1="468.08" y1="148.32" x2="400.38" y2="219.58"/>
        </g>
      </g>
    </g>
    <g>
      <g>
        <line class="cls-16" x1="140.55" y1="96.4" x2="89.24" y2="150.41"/>
        <line class="cls-16" x1="146.28" y1="102.5" x2="94.97" y2="156.5"/>
        <line class="cls-16" x1="152.01" y1="108.59" x2="100.71" y2="162.6"/>
        <line class="cls-16" x1="157.74" y1="114.69" x2="106.44" y2="168.7"/>
        <line class="cls-16" x1="163.48" y1="120.79" x2="112.17" y2="174.79"/>
        <line class="cls-16" x1="169.21" y1="126.88" x2="117.9" y2="180.89"/>
        <line class="cls-16" x1="174.94" y1="132.98" x2="123.63" y2="186.99"/>
        <line class="cls-16" x1="180.67" y1="139.08" x2="129.36" y2="193.08"/>
        <line class="cls-16" x1="186.4" y1="145.17" x2="135.09" y2="199.18"/>
        <line class="cls-16" x1="192.13" y1="151.27" x2="140.82" y2="205.28"/>
      </g>
      <polygon class="cls-25" points="140.14 206.28 86.84 150.18 140.14 94.08 193.43 150.18 140.14 206.28"/>
    </g>
    <g>
      <path class="cls-7" d="M271.53,209.33h0c0-32.59-25.1-59.01-56.06-59.01h0,0c30.96,0,56.06-26.42,56.06-59.01h0s0,0,0,0c0,32.59,25.1,59.01,56.06,59.01h0,0c-30.96,0-56.06,26.42-56.06,59.01h0Z"/>
      <g class="cls-61">
        <g>
          <line class="cls-28" x1="272.66" y1="91.69" x2="216.63" y2="150.67"/>
          <line class="cls-28" x1="278.62" y1="98.03" x2="222.59" y2="157.01"/>
          <line class="cls-28" x1="284.58" y1="104.38" x2="228.55" y2="163.36"/>
          <line class="cls-28" x1="290.54" y1="110.72" x2="234.51" y2="169.7"/>
          <line class="cls-28" x1="296.5" y1="117.07" x2="240.47" y2="176.04"/>
          <line class="cls-28" x1="302.46" y1="123.41" x2="246.43" y2="182.39"/>
          <line class="cls-28" x1="308.42" y1="129.75" x2="252.39" y2="188.73"/>
          <line class="cls-28" x1="314.38" y1="136.1" x2="258.35" y2="195.08"/>
          <line class="cls-28" x1="320.34" y1="142.44" x2="264.31" y2="201.42"/>
          <line class="cls-28" x1="326.3" y1="148.79" x2="270.27" y2="207.76"/>
        </g>
      </g>
    </g>
    <g>
      <ellipse class="cls-21" cx="401.05" cy="285.77" rx="31.53" ry="33.19"/>
      <g class="cls-58">
        <g>
          <line class="cls-23" x1="402.61" y1="239.94" x2="358.48" y2="286.38"/>
          <line class="cls-23" x1="407.3" y1="244.93" x2="363.18" y2="291.38"/>
          <line class="cls-23" x1="412" y1="249.93" x2="367.87" y2="296.38"/>
          <line class="cls-23" x1="416.69" y1="254.92" x2="372.57" y2="301.37"/>
          <line class="cls-23" x1="421.38" y1="259.92" x2="377.26" y2="306.37"/>
          <line class="cls-23" x1="426.08" y1="264.92" x2="381.95" y2="311.36"/>
          <line class="cls-23" x1="430.77" y1="269.91" x2="386.65" y2="316.36"/>
          <line class="cls-23" x1="435.47" y1="274.91" x2="391.34" y2="321.36"/>
          <line class="cls-23" x1="440.16" y1="279.91" x2="396.04" y2="326.35"/>
          <line class="cls-23" x1="444.85" y1="284.9" x2="400.73" y2="331.35"/>
        </g>
      </g>
    </g>
    <g>
      <g>
        <line class="cls-27" x1="140.41" y1="251.06" x2="106.97" y2="286.26"/>
        <line class="cls-27" x1="144.14" y1="255.03" x2="110.7" y2="290.24"/>
        <line class="cls-27" x1="147.88" y1="259.01" x2="114.44" y2="294.21"/>
        <line class="cls-27" x1="151.61" y1="262.98" x2="118.17" y2="298.18"/>
        <line class="cls-27" x1="155.35" y1="266.96" x2="121.91" y2="302.16"/>
        <line class="cls-27" x1="159.09" y1="270.93" x2="125.64" y2="306.13"/>
        <line class="cls-27" x1="162.82" y1="274.9" x2="129.38" y2="310.1"/>
        <line class="cls-27" x1="166.56" y1="278.88" x2="133.11" y2="314.08"/>
        <line class="cls-27" x1="170.29" y1="282.85" x2="136.85" y2="318.05"/>
        <line class="cls-27" x1="174.03" y1="286.82" x2="140.59" y2="322.03"/>
      </g>
      <polygon class="cls-11" points="140.14 322.68 105.4 286.12 140.14 249.55 174.88 286.12 140.14 322.68"/>
    </g>
    <g>
      <path class="cls-38" d="M271.53,324.67h0c0-21.24-16.36-38.46-36.54-38.46h0,0c20.18,0,36.54-17.22,36.54-38.46h0s0,0,0,0c0,21.24,16.36,38.46,36.54,38.46h0,0c-20.18,0-36.54,17.22-36.54,38.46h0Z"/>
      <g class="cls-45">
        <g>
          <line class="cls-1" x1="272.26" y1="247.99" x2="235.74" y2="286.43"/>
          <line class="cls-1" x1="276.15" y1="252.13" x2="239.63" y2="290.57"/>
          <line class="cls-1" x1="280.03" y1="256.26" x2="243.51" y2="294.7"/>
          <line class="cls-1" x1="283.92" y1="260.4" x2="247.4" y2="298.84"/>
          <line class="cls-1" x1="287.8" y1="264.53" x2="251.28" y2="302.97"/>
          <line class="cls-1" x1="291.69" y1="268.67" x2="255.17" y2="307.11"/>
          <line class="cls-1" x1="295.57" y1="272.8" x2="259.05" y2="311.24"/>
          <line class="cls-1" x1="299.46" y1="276.93" x2="262.94" y2="315.38"/>
          <line class="cls-1" x1="303.34" y1="281.07" x2="266.82" y2="319.51"/>
          <line class="cls-1" x1="307.23" y1="285.2" x2="270.71" y2="323.65"/>
        </g>
      </g>
    </g>
    <g>
      <ellipse class="cls-40" cx="401.18" cy="415.85" rx="19.44" ry="20.46"/>
      <g class="cls-59">
        <g>
          <line class="cls-34" x1="402.14" y1="387.6" x2="374.94" y2="416.23"/>
          <line class="cls-34" x1="405.03" y1="390.68" x2="377.83" y2="419.31"/>
          <line class="cls-34" x1="407.93" y1="393.76" x2="380.73" y2="422.39"/>
          <line class="cls-34" x1="410.82" y1="396.84" x2="383.62" y2="425.47"/>
          <line class="cls-34" x1="413.71" y1="399.92" x2="386.51" y2="428.55"/>
          <line class="cls-34" x1="416.61" y1="403" x2="389.41" y2="431.63"/>
          <line class="cls-34" x1="419.5" y1="406.08" x2="392.3" y2="434.71"/>
          <line class="cls-34" x1="422.39" y1="409.16" x2="395.19" y2="437.79"/>
          <line class="cls-34" x1="425.29" y1="412.24" x2="398.09" y2="440.87"/>
          <line class="cls-34" x1="428.18" y1="415.32" x2="400.98" y2="443.95"/>
        </g>
      </g>
    </g>
    <g>
      <g>
        <line class="cls-39" x1="140.3" y1="394.46" x2="119.69" y2="416.15"/>
        <line class="cls-39" x1="142.61" y1="396.9" x2="121.99" y2="418.6"/>
        <line class="cls-39" x1="144.91" y1="399.35" x2="124.3" y2="421.05"/>
        <line class="cls-39" x1="147.21" y1="401.8" x2="126.6" y2="423.5"/>
        <line class="cls-39" x1="149.52" y1="404.25" x2="128.9" y2="425.95"/>
        <line class="cls-39" x1="151.82" y1="406.7" x2="131.2" y2="428.4"/>
        <line class="cls-39" x1="154.12" y1="409.15" x2="133.51" y2="430.85"/>
        <line class="cls-39" x1="156.42" y1="411.6" x2="135.81" y2="433.3"/>
        <line class="cls-39" x1="158.73" y1="414.05" x2="138.11" y2="435.75"/>
        <line class="cls-39" x1="161.03" y1="416.5" x2="140.41" y2="438.2"/>
      </g>
      <polygon class="cls-32" points="140.14 438.6 118.73 416.06 140.14 393.52 161.55 416.06 140.14 438.6"/>
    </g>
    <g>
      <path class="cls-5" d="M271.53,439.83h0c0-13.09-10.08-23.71-22.52-23.71h0,0c12.44,0,22.52-10.61,22.52-23.71h0s0,0,0,0c0,13.09,10.08,23.71,22.52,23.71h0,0c-12.44,0-22.52,10.61-22.52,23.71h0Z"/>
      <g class="cls-44">
        <g>
          <line class="cls-12" x1="271.98" y1="392.56" x2="249.47" y2="416.26"/>
          <line class="cls-12" x1="274.38" y1="395.11" x2="251.86" y2="418.81"/>
          <line class="cls-12" x1="276.77" y1="397.66" x2="254.26" y2="421.36"/>
          <line class="cls-12" x1="279.16" y1="400.21" x2="256.65" y2="423.91"/>
          <line class="cls-12" x1="281.56" y1="402.76" x2="259.05" y2="426.45"/>
          <line class="cls-12" x1="283.95" y1="405.31" x2="261.44" y2="429"/>
          <line class="cls-12" x1="286.35" y1="407.86" x2="263.84" y2="431.55"/>
          <line class="cls-12" x1="288.74" y1="410.4" x2="266.23" y2="434.1"/>
          <line class="cls-12" x1="291.14" y1="412.95" x2="268.63" y2="436.65"/>
          <line class="cls-12" x1="293.53" y1="415.5" x2="271.02" y2="439.2"/>
        </g>
      </g>
    </g>
  </g>
  <line class="cls-20" x1="454.25" y1="448.95" x2="248.67" y2="327.48"/>
  <line class="cls-6" x1="19.22" y1="380.54" x2="452.93" y2="380.54"/>
  <line class="cls-13" x1="458.23" y1="226.96" x2="279.18" y2="39.88"/>
  <line class="cls-6" x1="19.22" y1="100.02" x2="452.93" y2="100.02"/>
  <line class="cls-6" x1="337.54" y1="16.15" x2="337.54" y2="421.02"/>
</svg>