<?xml version="1.0" encoding="UTF-8"?>
<svg id="Ebene_1" data-name="Ebene 1" xmlns="http://www.w3.org/2000/svg" viewBox="0 0 1027 817.3">
  <defs>
    <style>
      .cls-1 {
        fill: #fff;
      }

      .cls-2 {
        opacity: .4;
      }

      .cls-3 {
        opacity: .8;
      }

      .cls-4 {
        opacity: .2;
      }

      .cls-5 {
        fill: #ff8968;
      }

      .cls-6 {
        opacity: .6;
      }
    </style>
  </defs>
  <g class="cls-3">
    <path class="cls-1" d="M1018.53,810.58c5-2.36,8.47-7.43,8.47-13.32V14.74c0-3.29-1.09-6.31-2.91-8.76l-249.65,406.83,244.09,397.77Z"/>
    <path class="cls-1" d="M770,405.57L1018.13,1.22c-1.8-.78-3.78-1.22-5.87-1.22h-484.51c-2.09,0-4.07.44-5.88,1.22l248.12,404.35Z"/>
    <path class="cls-1" d="M515.91,5.99c-1.81,2.45-2.9,5.47-2.9,8.75v782.52c0,5.89,3.46,10.96,8.46,13.32l244.09-397.77L515.91,5.99Z"/>
    <polygon class="cls-1" points="770 420.05 529.48 812 1010.52 812 770 420.05"/>
  </g>
  <g class="cls-2">
    <path class="cls-1" d="M176.14,282.26c0,3.35,1.88,6.26,4.64,7.74l150.92-140.5L178.05,6.45c-1.19,1.5-1.91,3.39-1.91,5.46v270.36Z"/>
    <path class="cls-1" d="M489.74,290.33c3.13-1.34,5.33-4.45,5.33-8.07V11.9c0-2.32-.91-4.42-2.37-5.99l-154.22,143.58,151.27,140.83Z"/>
    <path class="cls-1" d="M335.09,146.35L488.58,3.44c-.73-.2-1.5-.31-2.29-.31H184.92c-1.08,0-2.11.2-3.06.56l153.23,142.66Z"/>
    <polygon class="cls-1" points="186.44 291.04 483.73 291.04 335.09 152.65 186.44 291.04"/>
  </g>
  <g class="cls-6">
    <path class="cls-1" d="M177.38,318.11c-1.15,1.8-1.83,3.94-1.83,6.24v481.34c0,3.95,1.98,7.44,4.99,9.54l150.75-245.97-153.92-251.14Z"/>
    <path class="cls-1" d="M488.74,815.69c3.43-2.02,5.74-5.74,5.74-10.01v-481.34c0-2.64-.89-5.07-2.38-7.02l-154.4,251.93,151.04,246.44Z"/>
    <path class="cls-1" d="M334.5,574.47l-148.76,242.73c.47.06.95.1,1.44.1h295.69c.15,0,.3-.02.45-.02l-148.81-242.81Z"/>
    <path class="cls-1" d="M487.82,313.85c-1.51-.71-3.18-1.12-4.96-1.12H187.17c-2.09,0-4.05.56-5.75,1.53l153.07,249.76,153.32-250.17Z"/>
  </g>
  <g class="cls-4">
    <path class="cls-1" d="M77.5,426.6L5.83,808.98c2.48,1.89,5.56,3.02,8.91,3.02h126.57c2.95,0,5.68-.87,7.98-2.36l-71.8-383.04Z"/>
    <path class="cls-1" d="M.06,13.46c-.04.42-.06.85-.06,1.28v782.52c0,2.4.59,4.66,1.61,6.67l73.31-391.12L.06,13.46Z"/>
    <path class="cls-1" d="M77.5,399.03L151.52,4.12c-2.65-2.55-6.24-4.12-10.21-4.12H14.74C10.31,0,6.36,1.96,3.65,5.05l73.85,393.98Z"/>
    <path class="cls-1" d="M153.65,805.31c1.51-2.31,2.4-5.07,2.4-8.05V14.74c0-1.42-.21-2.79-.59-4.09l-75.38,402.16,73.57,392.5Z"/>
  </g>
  <g>
    <path class="cls-5" d="M92.34,454.17c0,.74-.2,1.3-.61,1.68-.4.38-.98.58-1.72.58h-28.41v10.52c0,.61-.17,1.09-.51,1.44-.34.35-.82.53-1.43.53s-1.08-.18-1.41-.53c-.32-.35-.49-.83-.49-1.44v-25.51c0-.64.16-1.13.49-1.47.32-.34.79-.5,1.41-.5s1.09.17,1.43.5.51.83.51,1.47v10.52h28.41c.75,0,1.32.18,1.72.55.41.37.61.92.61,1.66Z"/>
    <path class="cls-5" d="M92.34,433.32c0,.71-.2,1.25-.61,1.63-.4.38-.98.58-1.72.58h-30.26c-.78,0-1.36-.19-1.75-.58-.39-.38-.58-.93-.58-1.63s.19-1.3.58-1.68.97-.58,1.75-.58h30.26c.75,0,1.32.18,1.72.55.41.37.61.94.61,1.71Z"/>
    <path class="cls-5" d="M92.34,412.41c0,.74-.2,1.3-.61,1.68-.4.38-.98.58-1.72.58h-28.41v10.52c0,.61-.17,1.09-.51,1.44-.34.35-.82.53-1.43.53s-1.08-.18-1.41-.53c-.32-.35-.49-.83-.49-1.44v-25.51c0-.64.16-1.13.49-1.47.32-.34.79-.5,1.41-.5s1.09.17,1.43.5.51.83.51,1.47v10.52h28.41c.75,0,1.32.18,1.72.55.41.37.61.92.61,1.66Z"/>
    <path class="cls-5" d="M92,391.37c0,.77-.21,1.36-.63,1.78-.42.42-1.02.62-1.8.62h-29.38c-.78,0-1.38-.21-1.8-.62-.42-.42-.63-1.01-.63-1.78v-17.68c0-.61.15-1.08.46-1.42.31-.34.75-.5,1.34-.5.62,0,1.08.17,1.41.5.32.34.49.81.49,1.42v15.76h11.32v-14.75c0-.61.16-1.07.49-1.39.32-.32.78-.48,1.36-.48.62,0,1.08.16,1.38.48.31.32.46.79.46,1.39v14.75h11.85v-15.76c0-.61.15-1.08.46-1.42.31-.34.77-.5,1.38-.5s1.08.17,1.38.5c.31.34.46.81.46,1.42v17.68Z"/>
    <path class="cls-5" d="M92,363.35c0,.71-.21,1.26-.63,1.66-.42.4-.99.6-1.7.6h-29.82c-.74,0-1.31-.19-1.7-.58-.39-.38-.58-.93-.58-1.63s.19-1.3.58-1.68.96-.58,1.7-.58h28.27v-15.28c0-.67.16-1.18.49-1.51.32-.34.79-.5,1.41-.5.65,0,1.14.17,1.48.5.34.34.51.84.51,1.51v17.49Z"/>
  </g>
  <g>
    <path class="cls-5" d="M202.91,161.06c-.77,0-1.36-.21-1.78-.63-.42-.42-.62-1.02-.62-1.8v-29.38c0-.78.21-1.38.62-1.8.42-.42,1.01-.63,1.78-.63h17.68c.61,0,1.08.15,1.42.46.34.31.5.75.5,1.34,0,.62-.17,1.08-.5,1.41-.34.32-.81.49-1.42.49h-15.76v11.32h14.75c.61,0,1.07.16,1.39.49.32.32.48.78.48,1.36,0,.62-.16,1.08-.48,1.38-.32.31-.79.46-1.39.46h-14.75v11.85h15.76c.61,0,1.08.15,1.42.46.34.31.5.77.5,1.38s-.17,1.08-.5,1.38c-.34.31-.81.46-1.42.46h-17.68Z"/>
    <path class="cls-5" d="M230.88,161.4c-.71,0-1.25-.2-1.63-.61-.38-.4-.58-.98-.58-1.72v-30.26c0-.78.19-1.36.58-1.75.38-.39.93-.58,1.63-.58s1.3.19,1.68.58.58.97.58,1.75v30.26c0,.75-.18,1.32-.55,1.72-.37.41-.94.61-1.71.61Z"/>
    <path class="cls-5" d="M243.32,161.4c-.64,0-1.15-.19-1.51-.58s-.55-.92-.55-1.6v-30.45c0-.74.18-1.31.53-1.7.35-.39.82-.58,1.39-.58.54,0,.96.1,1.25.29s.61.53.96,1.02l20.37,27.29h-1.2v-26.42c0-.71.18-1.25.55-1.63s.89-.56,1.56-.56,1.19.19,1.54.56.53.92.53,1.63v30.55c0,.68-.17,1.21-.5,1.6-.34.39-.78.58-1.32.58-.51,0-.94-.11-1.27-.32-.34-.21-.68-.56-1.03-1.04l-20.33-27.29h1.11v26.47c0,.68-.18,1.21-.53,1.6-.35.39-.87.58-1.54.58Z"/>
    <path class="cls-5" d="M279.12,161.06c-.71,0-1.26-.21-1.66-.63-.4-.42-.6-.99-.6-1.7v-29.82c0-.74.19-1.31.58-1.7.38-.39.93-.58,1.63-.58s1.3.19,1.68.58.58.96.58,1.7v28.27h15.28c.67,0,1.18.16,1.51.49.34.32.5.79.5,1.41,0,.65-.17,1.14-.5,1.48-.34.34-.84.51-1.51.51h-17.49Z"/>
    <path class="cls-5" d="M305.6,161.06c-.77,0-1.36-.21-1.78-.63-.42-.42-.62-1.02-.62-1.8v-29.38c0-.78.21-1.38.62-1.8.42-.42,1.01-.63,1.78-.63h17.68c.61,0,1.08.15,1.42.46.34.31.5.75.5,1.34,0,.62-.17,1.08-.5,1.41-.34.32-.81.49-1.42.49h-15.76v11.32h14.75c.61,0,1.07.16,1.39.49.32.32.48.78.48,1.36,0,.62-.16,1.08-.48,1.38-.32.31-.79.46-1.39.46h-14.75v11.85h15.76c.61,0,1.08.15,1.42.46.34.31.5.77.5,1.38s-.17,1.08-.5,1.38c-.34.31-.81.46-1.42.46h-17.68Z"/>
    <path class="cls-5" d="M333.56,161.4c-.71,0-1.25-.2-1.63-.61-.38-.4-.58-.98-.58-1.72v-30.26c0-.78.19-1.36.58-1.75.38-.39.93-.58,1.63-.58s1.3.19,1.68.58.58.97.58,1.75v30.26c0,.75-.18,1.32-.55,1.72-.37.41-.94.61-1.71.61Z"/>
    <path class="cls-5" d="M354.46,161.4c-.74,0-1.3-.2-1.68-.61-.38-.4-.58-.98-.58-1.72v-28.41h-10.52c-.61,0-1.09-.17-1.44-.51-.35-.34-.53-.82-.53-1.43s.18-1.08.53-1.41c.35-.32.83-.49,1.44-.49h25.51c.64,0,1.13.16,1.47.49.34.32.5.79.5,1.41s-.17,1.09-.5,1.43-.83.51-1.47.51h-10.52v28.41c0,.75-.18,1.32-.55,1.72-.37.41-.92.61-1.66.61Z"/>
    <path class="cls-5" d="M386.61,161.49c-2.24,0-4.22-.3-5.93-.9-1.71-.6-3.15-1.49-4.3-2.67-1.15-1.18-2.03-2.65-2.62-4.42-.59-1.76-.89-3.81-.89-6.14v-18.6c0-.78.19-1.35.58-1.72.38-.37.93-.56,1.63-.56s1.3.19,1.68.56.58.95.58,1.72v18.46c0,3.46.79,6.05,2.35,7.75,1.57,1.7,3.88,2.55,6.92,2.55s5.35-.85,6.92-2.55c1.57-1.7,2.35-4.28,2.35-7.75v-18.46c0-.78.19-1.35.58-1.72.38-.37.93-.56,1.63-.56s1.25.19,1.63.56c.38.37.58.95.58,1.72v18.6c0,3.08-.52,5.67-1.56,7.77-1.04,2.1-2.58,3.69-4.61,4.76-2.03,1.07-4.54,1.6-7.52,1.6Z"/>
    <path class="cls-5" d="M410.3,161.4c-.64,0-1.15-.19-1.51-.58s-.55-.92-.55-1.6v-30.45c0-.74.18-1.31.53-1.7.35-.39.82-.58,1.39-.58.54,0,.96.1,1.25.29s.61.53.96,1.02l20.37,27.29h-1.2v-26.42c0-.71.18-1.25.55-1.63s.89-.56,1.56-.56,1.19.19,1.54.56.53.92.53,1.63v30.55c0,.68-.17,1.21-.5,1.6-.34.39-.78.58-1.32.58-.51,0-.94-.11-1.27-.32-.34-.21-.68-.56-1.03-1.04l-20.33-27.29h1.11v26.47c0,.68-.18,1.21-.53,1.6-.35.39-.87.58-1.54.58Z"/>
    <path class="cls-5" d="M459.46,161.49c-3.62,0-6.69-.71-9.2-2.11s-4.42-3.42-5.72-6.05c-1.3-2.62-1.95-5.75-1.95-9.37,0-2.72.37-5.16,1.11-7.31.74-2.15,1.82-4,3.24-5.54,1.42-1.54,3.16-2.71,5.19-3.52s4.33-1.21,6.9-1.21c1.99,0,3.91.27,5.77.8s3.56,1.4,5.09,2.6c.38.29.63.63.75,1.02.11.39.12.78.02,1.17-.1.39-.28.73-.55,1.02s-.61.46-1.01.51-.83-.07-1.27-.36c-1.31-.97-2.68-1.67-4.11-2.09s-2.99-.63-4.68-.63c-2.53,0-4.68.53-6.44,1.58-1.76,1.05-3.08,2.59-3.96,4.61s-1.32,4.48-1.32,7.36c0,4.44,1.03,7.8,3.1,10.1s5.13,3.45,9.2,3.45c1.51,0,2.97-.15,4.4-.44,1.42-.29,2.79-.7,4.11-1.21l-.96,2.43v-11.7h-6.53c-.58,0-1.03-.16-1.37-.49-.34-.32-.5-.76-.5-1.31s.17-.97.5-1.26c.34-.29.79-.44,1.37-.44h8.5c.58,0,1.03.16,1.37.49.34.32.5.79.5,1.41v12.48c0,.52-.1.96-.29,1.33-.19.37-.51.64-.96.8-1.34.55-2.95,1-4.8,1.36-1.86.36-3.68.53-5.48.53Z"/>
  </g>
  <g>
    <path class="cls-5" d="M250.14,579.33c-.71,0-1.25-.2-1.63-.61-.38-.4-.58-.98-.58-1.72v-29.97c0-.74.2-1.31.6-1.7s.95-.58,1.66-.58h11.44c3.65,0,6.46.87,8.43,2.6s2.96,4.18,2.96,7.36c0,2.07-.45,3.84-1.35,5.32s-2.19,2.6-3.89,3.38c-1.7.78-3.75,1.17-6.15,1.17l.48-.68h1.06c1.28,0,2.39.32,3.34.97.94.65,1.79,1.68,2.52,3.11l4.42,8.21c.29.52.42,1.02.38,1.5-.03.49-.21.88-.53,1.19-.32.31-.79.46-1.39.46-.64,0-1.15-.14-1.54-.41-.38-.27-.72-.69-1.01-1.24l-5.19-9.62c-.71-1.36-1.51-2.26-2.4-2.7-.9-.44-2.1-.66-3.6-.66h-5.77v12.29c0,.75-.18,1.32-.55,1.72-.37.41-.94.61-1.71.61ZM252.4,561.21h8.51c2.56,0,4.48-.54,5.77-1.63,1.28-1.08,1.92-2.68,1.92-4.78s-.64-3.69-1.92-4.76-3.2-1.6-5.77-1.6h-8.51v12.77Z"/>
    <path class="cls-5" d="M282.67,578.99c-.77,0-1.36-.21-1.78-.63-.42-.42-.62-1.02-.62-1.8v-29.38c0-.78.21-1.38.62-1.8.42-.42,1.01-.63,1.78-.63h17.68c.61,0,1.08.15,1.42.46.34.31.5.75.5,1.34,0,.62-.17,1.08-.5,1.41-.34.32-.81.49-1.42.49h-15.76v11.32h14.75c.61,0,1.07.16,1.39.49.32.32.48.78.48,1.36,0,.62-.16,1.08-.48,1.38-.32.31-.79.46-1.39.46h-14.75v11.85h15.76c.61,0,1.08.15,1.42.46.34.31.5.77.5,1.38s-.17,1.08-.5,1.38c-.34.31-.81.46-1.42.46h-17.68Z"/>
    <path class="cls-5" d="M324.04,579.43c-3.62,0-6.69-.71-9.2-2.11s-4.42-3.42-5.72-6.05c-1.3-2.62-1.95-5.75-1.95-9.37,0-2.72.37-5.16,1.11-7.31.74-2.15,1.82-4,3.24-5.54,1.42-1.54,3.16-2.71,5.19-3.52s4.33-1.21,6.9-1.21c1.99,0,3.91.27,5.77.8s3.56,1.4,5.09,2.6c.38.29.63.63.75,1.02.11.39.12.78.02,1.17-.1.39-.28.73-.55,1.02s-.61.46-1.01.51-.83-.07-1.27-.36c-1.31-.97-2.68-1.67-4.11-2.09s-2.99-.63-4.68-.63c-2.53,0-4.68.53-6.44,1.58-1.76,1.05-3.08,2.59-3.96,4.61s-1.32,4.48-1.32,7.36c0,4.44,1.03,7.8,3.1,10.1s5.13,3.45,9.2,3.45c1.51,0,2.97-.15,4.4-.44,1.42-.29,2.79-.7,4.11-1.21l-.96,2.43v-11.7h-6.53c-.58,0-1.03-.16-1.37-.49-.34-.32-.5-.76-.5-1.31s.17-.97.5-1.26c.34-.29.79-.44,1.37-.44h8.5c.58,0,1.03.16,1.37.49.34.32.5.79.5,1.41v12.48c0,.52-.1.96-.29,1.33-.19.37-.51.64-.96.8-1.34.55-2.95,1-4.8,1.36-1.86.36-3.68.53-5.48.53Z"/>
    <path class="cls-5" d="M345.71,578.99c-.71,0-1.26-.21-1.66-.63-.4-.42-.6-.99-.6-1.7v-29.82c0-.74.19-1.31.58-1.7.38-.39.93-.58,1.63-.58s1.3.19,1.68.58.58.96.58,1.7v28.27h15.28c.67,0,1.18.16,1.51.49.34.32.5.79.5,1.41,0,.65-.17,1.14-.5,1.48-.34.34-.84.51-1.51.51h-17.49Z"/>
    <path class="cls-5" d="M372.19,578.99c-.77,0-1.36-.21-1.78-.63-.42-.42-.62-1.02-.62-1.8v-29.38c0-.78.21-1.38.62-1.8.42-.42,1.01-.63,1.78-.63h17.68c.61,0,1.08.15,1.42.46.34.31.5.75.5,1.34,0,.62-.17,1.08-.5,1.41-.34.32-.81.49-1.42.49h-15.76v11.32h14.75c.61,0,1.07.16,1.39.49.32.32.48.78.48,1.36,0,.62-.16,1.08-.48,1.38-.32.31-.79.46-1.39.46h-14.75v11.85h15.76c.61,0,1.08.15,1.42.46.34.31.5.77.5,1.38s-.17,1.08-.5,1.38c-.34.31-.81.46-1.42.46h-17.68Z"/>
    <path class="cls-5" d="M400.15,579.33c-.71,0-1.25-.2-1.63-.61-.38-.4-.58-.98-.58-1.72v-29.97c0-.74.2-1.31.6-1.7s.95-.58,1.66-.58h11.44c3.65,0,6.46.87,8.43,2.6s2.96,4.18,2.96,7.36c0,2.07-.45,3.84-1.35,5.32s-2.19,2.6-3.89,3.38c-1.7.78-3.75,1.17-6.15,1.17l.48-.68h1.06c1.28,0,2.39.32,3.34.97.94.65,1.79,1.68,2.52,3.11l4.42,8.21c.29.52.42,1.02.38,1.5-.03.49-.21.88-.53,1.19-.32.31-.79.46-1.39.46-.64,0-1.15-.14-1.54-.41-.38-.27-.72-.69-1.01-1.24l-5.19-9.62c-.71-1.36-1.51-2.26-2.4-2.7-.9-.44-2.1-.66-3.6-.66h-5.77v12.29c0,.75-.18,1.32-.55,1.72-.37.41-.94.61-1.71.61ZM402.41,561.21h8.51c2.56,0,4.48-.54,5.77-1.63,1.28-1.08,1.92-2.68,1.92-4.78s-.64-3.69-1.92-4.76-3.2-1.6-5.77-1.6h-8.51v12.77Z"/>
  </g>
  <g>
    <path class="cls-5" d="M633.09,420.31c-.58,0-1.03-.13-1.37-.39s-.54-.61-.6-1.07c-.06-.45.03-.95.29-1.51l13.12-30.01c.29-.68.66-1.17,1.11-1.48.45-.31.94-.46,1.49-.46s1.03.15,1.47.46c.43.31.81.8,1.13,1.48l13.12,30.01c.26.55.36,1.06.31,1.53-.05.47-.23.83-.55,1.07-.32.24-.77.36-1.35.36-.64,0-1.15-.17-1.54-.51-.38-.34-.72-.83-1.01-1.48l-3.41-8.06,2.07,1.17h-20.57l2.07-1.17-3.41,8.06c-.29.71-.61,1.22-.96,1.53-.35.31-.82.46-1.39.46ZM647.02,390.83l-7.5,17.92-1.15-1.02h17.39l-1.11,1.02-7.54-17.92h-.1Z"/>
    <path class="cls-5" d="M671.19,419.97c-.77,0-1.36-.21-1.78-.63-.42-.42-.62-1.02-.62-1.8v-29.38c0-.78.21-1.38.62-1.8.42-.42,1.01-.63,1.78-.63h11.39c2.34,0,4.33.36,5.98,1.07,1.65.71,2.91,1.73,3.77,3.06.87,1.33,1.3,2.93,1.3,4.81,0,2.1-.61,3.87-1.83,5.29-1.22,1.43-2.88,2.38-5,2.87v-.73c2.37.29,4.24,1.17,5.6,2.65,1.36,1.47,2.04,3.39,2.04,5.75,0,3.04-.98,5.38-2.96,7.02-1.97,1.63-4.75,2.45-8.34,2.45h-11.96ZM673.11,400.84h8.79c2.43,0,4.27-.49,5.5-1.48,1.23-.99,1.85-2.42,1.85-4.3s-.62-3.31-1.85-4.3c-1.23-.99-3.07-1.48-5.5-1.48h-8.79v11.56ZM673.11,416.43h9.56c2.5,0,4.36-.49,5.57-1.48,1.22-.99,1.83-2.5,1.83-4.54s-.61-3.55-1.83-4.52c-1.22-.97-3.08-1.46-5.57-1.46h-9.56v12Z"/>
    <path class="cls-5" d="M703.82,419.97c-.77,0-1.36-.21-1.78-.63-.42-.42-.62-1.02-.62-1.8v-29.38c0-.78.21-1.38.62-1.8.42-.42,1.01-.63,1.78-.63h11.39c2.34,0,4.33.36,5.98,1.07,1.65.71,2.91,1.73,3.77,3.06.87,1.33,1.3,2.93,1.3,4.81,0,2.1-.61,3.87-1.83,5.29-1.22,1.43-2.88,2.38-5,2.87v-.73c2.37.29,4.24,1.17,5.6,2.65,1.36,1.47,2.04,3.39,2.04,5.75,0,3.04-.98,5.38-2.96,7.02-1.97,1.63-4.75,2.45-8.34,2.45h-11.96ZM705.74,400.84h8.79c2.43,0,4.27-.49,5.5-1.48,1.23-.99,1.85-2.42,1.85-4.3s-.62-3.31-1.85-4.3c-1.23-.99-3.07-1.48-5.5-1.48h-8.79v11.56ZM705.74,416.43h9.56c2.5,0,4.36-.49,5.57-1.48,1.22-.99,1.83-2.5,1.83-4.54s-.61-3.55-1.83-4.52c-1.22-.97-3.08-1.46-5.57-1.46h-9.56v12Z"/>
    <path class="cls-5" d="M736.25,420.31c-.71,0-1.25-.2-1.63-.61-.38-.4-.58-.98-.58-1.72v-30.26c0-.78.19-1.36.58-1.75.38-.39.93-.58,1.63-.58s1.3.19,1.68.58.58.97.58,1.75v30.26c0,.75-.18,1.32-.55,1.72-.37.41-.94.61-1.71.61Z"/>
    <path class="cls-5" d="M748.89,419.97c-.71,0-1.26-.21-1.66-.63-.4-.42-.6-.99-.6-1.7v-29.82c0-.74.19-1.31.58-1.7.38-.39.93-.58,1.63-.58s1.3.19,1.68.58.58.96.58,1.7v28.27h15.28c.67,0,1.18.16,1.51.49.34.32.5.79.5,1.41,0,.65-.17,1.14-.5,1.48-.34.34-.84.51-1.51.51h-17.49Z"/>
    <path class="cls-5" d="M775.36,419.97c-.77,0-1.36-.21-1.78-.63-.42-.42-.62-1.02-.62-1.8v-29.38c0-.78.21-1.38.62-1.8.42-.42,1.01-.63,1.78-.63h9.27c5.54,0,9.81,1.47,12.81,4.4,3,2.93,4.49,7.16,4.49,12.7,0,2.75-.38,5.2-1.15,7.33-.77,2.14-1.89,3.93-3.36,5.37s-3.28,2.54-5.41,3.3c-2.13.76-4.59,1.14-7.38,1.14h-9.27ZM777.43,416.14h6.92c2.18,0,4.07-.27,5.67-.83,1.6-.55,2.94-1.38,4.01-2.48,1.07-1.1,1.88-2.48,2.43-4.15.54-1.67.82-3.62.82-5.85,0-4.44-1.08-7.75-3.24-9.96-2.16-2.2-5.39-3.3-9.68-3.3h-6.92v26.57Z"/>
    <path class="cls-5" d="M822.36,420.41c-2.24,0-4.22-.3-5.93-.9-1.71-.6-3.15-1.49-4.3-2.67-1.15-1.18-2.03-2.65-2.62-4.42-.59-1.76-.89-3.81-.89-6.14v-18.6c0-.78.19-1.35.58-1.72.38-.37.93-.56,1.63-.56s1.3.19,1.68.56.58.95.58,1.72v18.46c0,3.46.79,6.05,2.35,7.75,1.57,1.7,3.88,2.55,6.92,2.55s5.35-.85,6.92-2.55c1.57-1.7,2.35-4.28,2.35-7.75v-18.46c0-.78.19-1.35.58-1.72.38-.37.93-.56,1.63-.56s1.25.19,1.63.56c.38.37.58.95.58,1.72v18.6c0,3.08-.52,5.67-1.56,7.77-1.04,2.1-2.58,3.69-4.61,4.76-2.03,1.07-4.54,1.6-7.52,1.6Z"/>
    <path class="cls-5" d="M846.04,420.31c-.64,0-1.15-.19-1.51-.58s-.55-.92-.55-1.6v-30.45c0-.74.18-1.31.53-1.7.35-.39.82-.58,1.39-.58.54,0,.96.1,1.25.29s.61.53.96,1.02l20.37,27.29h-1.2v-26.42c0-.71.18-1.25.55-1.63s.89-.56,1.56-.56,1.19.19,1.54.56.53.92.53,1.63v30.55c0,.68-.17,1.21-.5,1.6-.34.39-.78.58-1.32.58-.51,0-.94-.11-1.27-.32-.34-.21-.68-.56-1.03-1.04l-20.33-27.29h1.11v26.47c0,.68-.18,1.21-.53,1.6-.35.39-.87.58-1.54.58Z"/>
    <path class="cls-5" d="M895.2,420.41c-3.62,0-6.69-.71-9.2-2.11s-4.42-3.42-5.72-6.05c-1.3-2.62-1.95-5.75-1.95-9.37,0-2.72.37-5.16,1.11-7.31.74-2.15,1.82-4,3.24-5.54,1.42-1.54,3.16-2.71,5.19-3.52s4.33-1.21,6.9-1.21c1.99,0,3.91.27,5.77.8s3.56,1.4,5.09,2.6c.38.29.63.63.75,1.02.11.39.12.78.02,1.17-.1.39-.28.73-.55,1.02s-.61.46-1.01.51-.83-.07-1.27-.36c-1.31-.97-2.68-1.67-4.11-2.09s-2.99-.63-4.68-.63c-2.53,0-4.68.53-6.44,1.58-1.76,1.05-3.08,2.59-3.96,4.61s-1.32,4.48-1.32,7.36c0,4.44,1.03,7.8,3.1,10.1s5.13,3.45,9.2,3.45c1.51,0,2.97-.15,4.4-.44,1.42-.29,2.79-.7,4.11-1.21l-.96,2.43v-11.7h-6.53c-.58,0-1.03-.16-1.37-.49-.34-.32-.5-.76-.5-1.31s.17-.97.5-1.26c.34-.29.79-.44,1.37-.44h8.5c.58,0,1.03.16,1.37.49.34.32.5.79.5,1.41v12.48c0,.52-.1.96-.29,1.33-.19.37-.51.64-.96.8-1.34.55-2.95,1-4.8,1.36-1.86.36-3.68.53-5.48.53Z"/>
  </g>
</svg>